<?xml version="1.0" standalone="no"?>
<!DOCTYPE svg PUBLIC "-//W3C//DTD SVG 20010904//EN"
 "http://www.w3.org/TR/2001/REC-SVG-20010904/DTD/svg10.dtd">
<svg version="1.0" xmlns="http://www.w3.org/2000/svg"
 width="500.000000pt" height="500.000000pt" viewBox="0 0 500.000000 500.000000"
 preserveAspectRatio="xMidYMid meet">
<metadata>
Created by potrace 1.16, written by Peter Selinger 2001-2019
</metadata>
<g transform="translate(0.000000,500.000000) scale(0.100000,-0.100000)"
fill="#000000" stroke="none">
<path d="M0 2500 l0 -2500 2500 0 2500 0 0 2500 0 2500 -2500 0 -2500 0 0
-2500z m1906 -136 c1 -104 -1 -176 -5 -160 -3 17 -9 29 -13 28 -5 -1 -19 -2
-32 -2 -13 0 -37 -13 -54 -28 -17 -16 -37 -27 -46 -26 -8 1 -14 -3 -13 -9 1
-6 -2 -11 -8 -12 -5 0 -17 -5 -25 -10 -11 -7 8 -12 65 -16 44 -3 -60 -6 -232
-7 -287 -1 -311 0 -308 16 1 9 -2 23 -8 30 -5 6 -6 12 -2 12 4 0 2 6 -4 14 -9
11 -7 15 11 19 17 5 20 9 11 18 -16 16 -5 45 22 57 24 11 24 12 8 57 -8 25
-14 48 -12 49 2 2 26 6 53 9 31 3 54 11 62 21 11 16 13 16 19 -3 5 -17 15 -21
51 -21 41 0 44 2 44 26 0 14 4 23 10 19 6 -3 10 1 10 9 0 14 3 14 20 -1 11
-10 20 -25 20 -35 0 -15 9 -18 45 -18 45 0 45 0 45 36 0 26 8 43 32 67 17 18
24 23 15 11 -17 -20 -16 -20 13 -16 16 2 27 8 24 13 -3 5 4 9 15 9 11 0 25 8
30 18 8 14 10 14 11 2 0 -12 9 -15 40 -12 22 2 43 9 47 15 4 6 1 7 -7 2 -8 -5
-11 -4 -7 2 3 5 16 9 29 8 l23 -2 1 -189z m-971 8 c34 -33 91 -97 93 -104 4
-15 55 -104 68 -119 8 -8 14 -19 14 -22 0 -4 -42 -7 -94 -7 -86 0 -98 2 -123
24 -27 24 -28 27 -31 141 -3 83 -1 115 7 111 6 -4 11 -2 11 4 0 13 26 0 55
-28z m965 -205 c0 -2 -10 -12 -22 -23 l-23 -19 19 23 c18 21 26 27 26 19z"/>
</g>
</svg>
