<?xml version="1.0" standalone="no"?>
<!DOCTYPE svg PUBLIC "-//W3C//DTD SVG 20010904//EN"
 "http://www.w3.org/TR/2001/REC-SVG-20010904/DTD/svg10.dtd">
<svg version="1.0" xmlns="http://www.w3.org/2000/svg"
 width="500.000000pt" height="500.000000pt" viewBox="0 0 500.000000 500.000000"
 preserveAspectRatio="xMidYMid meet">
<metadata>
Created by potrace 1.16, written by Peter Selinger 2001-2019
</metadata>
<g transform="translate(0.000000,500.000000) scale(0.100000,-0.100000)"
fill="#000000" stroke="none">
<path d="M0 2500 l0 -2500 2500 0 2500 0 0 2500 0 2500 -2500 0 -2500 0 0
-2500z m1902 46 c3 -6 7 -91 7 -190 0 -100 -3 -174 -7 -166 -10 21 -32 23 -32
4 0 -12 -4 -14 -12 -6 -7 5 -24 8 -37 6 -23 -4 -79 -43 -80 -56 -1 -4 25 -9
57 -11 31 -2 -75 -4 -236 -5 l-292 -2 -10 26 c-15 38 -12 74 5 74 9 0 15 10
16 23 0 12 3 16 6 10 2 -7 9 -13 13 -13 5 0 0 25 -10 55 -14 41 -16 55 -6 55
7 0 22 9 34 20 12 12 22 18 22 15 0 -3 6 -3 13 2 18 11 38 13 31 2 -3 -5 2 -9
10 -9 9 0 16 5 16 10 0 6 18 10 39 10 34 0 40 3 46 28 4 15 10 21 12 14 4 -10
10 -9 25 5 11 9 19 13 18 8 -2 -6 -2 -20 -1 -32 1 -20 6 -23 46 -23 l45 0 0
38 c0 27 6 45 22 58 13 12 18 13 13 4 -8 -13 -6 -13 8 -2 9 8 21 11 27 7 5 -3
10 0 10 8 0 8 9 13 23 11 12 -1 22 -3 22 -4 0 -1 10 -3 23 -4 16 -2 21 2 18
11 -6 14 15 14 25 -1 4 -5 12 0 18 12 11 20 40 25 53 8z m-988 -265 c-2 -3 8
-18 23 -34 16 -17 21 -26 13 -22 -15 8 5 -17 43 -53 9 -9 17 -22 17 -30 0 -7
5 -10 12 -6 7 5 8 3 3 -6 -5 -8 -25 -11 -62 -8 -68 6 -93 29 -100 91 -7 59 0
75 30 73 14 0 23 -3 21 -5z m986 -114 c0 -2 -10 -12 -22 -23 l-23 -19 19 23
c18 21 26 27 26 19z"/>
</g>
</svg>
