<?xml version="1.0" standalone="no"?>
<!DOCTYPE svg PUBLIC "-//W3C//DTD SVG 20010904//EN"
 "http://www.w3.org/TR/2001/REC-SVG-20010904/DTD/svg10.dtd">
<svg version="1.0" xmlns="http://www.w3.org/2000/svg"
 width="500.000000pt" height="500.000000pt" viewBox="0 0 500.000000 500.000000"
 preserveAspectRatio="xMidYMid meet">
<metadata>
Created by potrace 1.16, written by Peter Selinger 2001-2019
</metadata>
<g transform="translate(0.000000,500.000000) scale(0.100000,-0.100000)"
fill="#000000" stroke="none">
<path d="M0 2500 l0 -2500 2500 0 2500 0 0 2500 0 2500 -2500 0 -2500 0 0
-2500z m1904 34 c3 -9 6 -93 5 -187 0 -119 -3 -165 -10 -148 -7 18 -12 21 -23
12 -10 -9 -16 -9 -21 -1 -5 8 -11 8 -21 -1 -8 -6 -14 -8 -14 -3 0 4 -11 -3
-25 -16 -14 -13 -25 -20 -25 -15 0 5 -12 -2 -26 -16 l-26 -24 69 -6 c37 -3
-68 -6 -234 -7 -212 -1 -304 1 -309 9 -3 6 -2 14 3 18 10 7 11 26 1 37 -13 12
-9 44 6 59 7 8 16 11 20 8 3 -4 6 1 6 11 0 9 5 14 10 11 14 -9 12 1 -6 36 -8
17 -13 33 -10 37 3 3 0 12 -7 20 -10 13 -9 15 11 10 15 -4 22 -2 22 8 0 14 5
14 123 13 43 0 67 4 67 11 0 16 22 35 43 36 12 1 17 -5 17 -22 0 -22 4 -24 45
-24 45 0 45 0 45 36 0 66 37 82 208 93 7 1 10 6 7 11 -3 6 5 10 18 10 14 0 28
-7 31 -16z m-962 -226 c75 -81 85 -93 106 -136 12 -23 22 -45 22 -48 0 -4 -36
-4 -80 -2 -108 4 -123 19 -128 123 -2 41 -2 82 2 90 10 26 37 16 78 -27z m958
-141 c0 -2 -10 -12 -22 -23 l-23 -19 19 23 c18 21 26 27 26 19z"/>
</g>
</svg>
