<?xml version="1.0" standalone="no"?>
<!DOCTYPE svg PUBLIC "-//W3C//DTD SVG 20010904//EN"
 "http://www.w3.org/TR/2001/REC-SVG-20010904/DTD/svg10.dtd">
<svg version="1.0" xmlns="http://www.w3.org/2000/svg"
 width="500.000000pt" height="500.000000pt" viewBox="0 0 500.000000 500.000000"
 preserveAspectRatio="xMidYMid meet">
<metadata>
Created by potrace 1.16, written by Peter Selinger 2001-2019
</metadata>
<g transform="translate(0.000000,500.000000) scale(0.100000,-0.100000)"
fill="#000000" stroke="none">
<path d="M0 2500 l0 -2500 2500 0 2500 0 0 2500 0 2500 -2500 0 -2500 0 0
-2500z m1902 -16 c4 -3 8 -73 8 -155 l0 -151 -29 -29 -29 -29 -221 0 c-138 0
-222 4 -226 10 -4 6 -10 8 -14 6 -4 -3 -6 8 -5 24 2 23 -9 55 -28 85 -2 3 14
16 35 31 21 14 51 38 65 53 42 43 99 71 143 71 32 0 39 3 39 20 0 13 7 20 20
20 11 0 23 6 26 13 3 8 10 14 17 15 7 0 36 2 65 4 29 3 57 9 63 15 10 10 52 9
71 -3z"/>
</g>
</svg>
