<?xml version="1.0" standalone="no"?>
<!DOCTYPE svg PUBLIC "-//W3C//DTD SVG 20010904//EN"
 "http://www.w3.org/TR/2001/REC-SVG-20010904/DTD/svg10.dtd">
<svg version="1.0" xmlns="http://www.w3.org/2000/svg"
 width="500.000000pt" height="500.000000pt" viewBox="0 0 500.000000 500.000000"
 preserveAspectRatio="xMidYMid meet">
<metadata>
Created by potrace 1.16, written by Peter Selinger 2001-2019
</metadata>
<g transform="translate(0.000000,500.000000) scale(0.100000,-0.100000)"
fill="#000000" stroke="none">
<path d="M0 2500 l0 -2500 2500 0 2500 0 0 2500 0 2500 -2500 0 -2500 0 0
-2500z m1909 -154 c0 -94 -3 -165 -6 -158 -2 6 -10 9 -16 5 -6 -4 -26 -6 -43
-5 -30 2 -103 -33 -104 -50 0 -4 15 -9 33 -11 17 -2 -86 -5 -230 -5 -250 -2
-263 -1 -273 17 -13 25 -13 41 0 21 7 -12 11 -8 16 17 3 17 12 34 20 37 10 4
11 12 3 36 -6 16 -8 38 -3 48 4 9 8 25 8 35 1 21 36 46 36 26 0 -7 6 -5 13 6
10 12 16 15 21 6 5 -8 13 -8 27 -1 11 6 17 15 14 20 -3 4 8 7 24 6 20 -1 40 7
62 26 33 29 40 33 38 21 -6 -36 2 -43 46 -43 l45 0 0 38 c0 30 5 39 25 49 19
8 23 8 18 0 -3 -7 4 -3 17 8 13 11 20 14 15 6 -6 -10 -4 -12 6 -5 21 13 38 14
45 2 4 -5 16 0 29 12 14 13 25 17 29 11 4 -6 16 -5 33 4 49 26 53 11 52 -179z
m-973 -176 c40 -40 32 -60 -17 -40 -26 11 -59 58 -59 84 0 10 35 11 39 1 2 -5
19 -26 37 -45z m964 -3 c0 -2 -10 -12 -22 -23 l-23 -19 19 23 c18 21 26 27 26
19z m-57 -44 c-7 -2 -19 -2 -25 0 -7 3 -2 5 12 5 14 0 19 -2 13 -5z"/>
</g>
</svg>
