<?xml version="1.0" standalone="no"?>
<!DOCTYPE svg PUBLIC "-//W3C//DTD SVG 20010904//EN"
 "http://www.w3.org/TR/2001/REC-SVG-20010904/DTD/svg10.dtd">
<svg version="1.0" xmlns="http://www.w3.org/2000/svg"
 width="500.000000pt" height="500.000000pt" viewBox="0 0 500.000000 500.000000"
 preserveAspectRatio="xMidYMid meet">
<metadata>
Created by potrace 1.16, written by Peter Selinger 2001-2019
</metadata>
<g transform="translate(0.000000,500.000000) scale(0.100000,-0.100000)"
fill="#000000" stroke="none">
<path d="M0 2500 l0 -2500 2500 0 2500 0 0 2500 0 2500 -2500 0 -2500 0 0
-2500z m1832 -114 c4 -6 14 -4 27 8 11 10 27 16 36 13 12 -5 15 -27 15 -117 0
-110 0 -112 -29 -141 l-29 -29 -154 0 c-84 0 -158 4 -163 8 -6 4 -11 31 -13
60 -3 51 -2 55 36 90 21 20 41 43 43 50 5 16 98 51 117 45 6 -3 12 0 12 6 0 6
11 11 24 11 14 0 27 4 31 10 6 10 36 2 47 -14z"/>
</g>
</svg>
