<?xml version="1.0" standalone="no"?>
<!DOCTYPE svg PUBLIC "-//W3C//DTD SVG 20010904//EN"
 "http://www.w3.org/TR/2001/REC-SVG-20010904/DTD/svg10.dtd">
<svg version="1.0" xmlns="http://www.w3.org/2000/svg"
 width="500.000000pt" height="500.000000pt" viewBox="0 0 500.000000 500.000000"
 preserveAspectRatio="xMidYMid meet">
<metadata>
Created by potrace 1.16, written by Peter Selinger 2001-2019
</metadata>
<g transform="translate(0.000000,500.000000) scale(0.100000,-0.100000)"
fill="#000000" stroke="none">
<path d="M0 2500 l0 -2500 2500 0 2500 0 0 2500 0 2500 -2500 0 -2500 0 0
-2500z m1863 -2 c7 5 19 11 28 15 15 5 17 -12 18 -163 2 -163 1 -168 -21 -192
-13 -13 -17 -16 -10 -7 12 16 10 17 -28 13 -23 -2 -51 -10 -62 -18 -20 -14
-18 -15 23 -19 24 -2 -69 -4 -208 -5 -206 -1 -254 2 -263 14 -10 11 -9 15 4
20 11 4 13 11 7 22 -5 10 -7 26 -5 37 2 11 1 27 -3 35 -3 8 -7 18 -7 22 -1 3
-4 10 -8 14 -19 18 -6 26 32 20 26 -4 40 -2 40 4 0 6 5 8 12 4 7 -4 8 -3 4 4
-4 6 -14 9 -24 6 -9 -2 -5 2 11 9 15 7 25 15 23 18 -3 3 4 5 15 6 27 2 51 22
42 36 -3 6 -1 7 6 3 7 -4 20 -4 29 0 9 4 41 6 70 5 52 -3 52 -3 52 28 0 24 4
29 19 26 11 -2 22 3 25 12 4 8 12 13 20 10 7 -3 18 -1 24 5 7 7 16 6 29 -1 14
-7 27 -6 46 4 14 7 28 11 31 7 3 -3 7 3 7 14 1 17 2 17 6 1 3 -12 9 -15 16 -9z"/>
</g>
</svg>
