<?xml version="1.0" standalone="no"?>
<!DOCTYPE svg PUBLIC "-//W3C//DTD SVG 20010904//EN"
 "http://www.w3.org/TR/2001/REC-SVG-20010904/DTD/svg10.dtd">
<svg version="1.0" xmlns="http://www.w3.org/2000/svg"
 width="500.000000pt" height="500.000000pt" viewBox="0 0 500.000000 500.000000"
 preserveAspectRatio="xMidYMid meet">
<metadata>
Created by potrace 1.16, written by Peter Selinger 2001-2019
</metadata>
<g transform="translate(0.000000,500.000000) scale(0.100000,-0.100000)"
fill="#000000" stroke="none">
<path d="M0 2500 l0 -2500 2500 0 2500 0 0 2500 0 2500 -2500 0 -2500 0 0
-2500z m3739 207 c8 -10 7 -14 -2 -14 -8 0 -14 6 -14 14 0 7 1 13 2 13 2 0 8
-6 14 -13z m-63 -46 c-15 -16 -15 -19 -1 -31 8 -7 16 -10 16 -6 2 10 6 25 9
34 1 4 2 12 0 17 -1 6 4 4 11 -2 10 -10 16 -10 28 -1 9 7 13 8 8 3 -4 -4 1
-17 10 -28 10 -11 13 -17 7 -14 -19 11 -34 -16 -18 -31 18 -16 25 -17 35 0 7
10 9 10 10 -2 0 -10 3 -9 10 5 l9 20 -3 -20 c-1 -14 -10 -20 -27 -20 -17 -1
-24 -6 -22 -15 2 -8 0 -12 -4 -8 -4 4 -13 3 -21 -4 -11 -9 -11 -13 1 -27 9
-10 11 -23 6 -36 -7 -17 -9 -17 -9 -2 -1 20 -23 19 -33 -3 -5 -10 -7 -7 -5 10
2 22 -2 25 -30 25 -17 0 -34 3 -37 6 -3 3 16 5 43 5 36 -1 47 2 40 10 -5 6
-23 10 -39 9 -17 -1 -33 2 -36 7 -3 5 -18 -1 -32 -14 -15 -13 -21 -16 -14 -7
6 9 8 19 4 23 -4 4 0 6 8 4 8 -2 14 3 12 10 -1 8 2 11 7 8 5 -4 12 -2 16 4 3
5 1 10 -4 10 -6 0 -11 4 -11 8 0 5 7 9 14 9 8 0 14 -3 13 -6 -1 -3 3 -7 8 -8
6 -2 10 5 10 15 -1 9 -6 16 -11 15 -6 -1 -11 4 -11 12 0 8 4 12 8 10 3 -3 12
2 19 10 7 8 15 15 18 15 3 0 -2 -8 -12 -19z m162 -11 c1 -1 7 -3 14 -4 6 0 12
-14 14 -31 1 -16 0 -21 -3 -11 -4 15 -7 16 -14 5 -8 -11 -9 -9 -7 6 2 11 -2
20 -9 20 -6 0 -15 3 -19 7 -4 4 -12 3 -19 -2 -8 -7 -12 -5 -12 4 0 10 44 15
55 6z m-212 -12 c3 -4 -1 -5 -10 -4 -8 1 -18 5 -22 8 -3 4 1 5 10 4 8 -1 18
-5 22 -8z m-2691 -37 c-3 -5 4 -13 16 -16 11 -4 18 -9 15 -12 -3 -3 5 -18 17
-34 28 -35 53 -78 118 -204 28 -55 69 -123 90 -152 21 -29 39 -55 39 -58 0 -3
-70 -5 -156 -5 l-156 0 -29 29 -29 29 0 194 c0 106 3 203 6 216 5 17 14 22 41
22 19 0 32 -4 28 -9z m954 -35 c5 -4 12 0 14 6 3 7 5 -79 4 -192 0 -113 -2
-182 -4 -153 l-4 51 -42 -2 c-24 -2 -53 -9 -66 -15 -12 -7 -29 -10 -37 -7 -8
3 -14 -1 -14 -10 0 -9 5 -12 11 -8 7 4 10 1 7 -7 -3 -8 -16 -14 -29 -14 -13 1
-26 -2 -29 -5 -3 -3 -16 -14 -30 -25 -21 -17 -21 -15 4 12 16 18 33 30 37 27
4 -2 10 0 14 5 6 11 -44 4 -60 -8 -5 -5 -18 -7 -28 -6 -9 2 -15 -1 -11 -6 3
-5 -2 -10 -10 -10 -9 -1 -22 -2 -28 -3 -7 -1 -23 1 -35 5 -15 6 -26 2 -39 -12
-16 -18 -18 -18 -37 -2 -15 13 -18 14 -12 3 4 -8 -6 -2 -23 14 -28 26 -31 27
-27 8 3 -16 0 -19 -12 -15 -13 5 -15 2 -10 -18 4 -13 7 -30 7 -36 0 -9 50 -13
198 -16 191 -2 190 -3 -58 -4 l-255 -2 -43 40 c-23 22 -44 50 -46 62 -3 12 -5
24 -7 27 -1 3 -2 30 -3 60 -1 30 -4 62 -6 70 -4 12 9 16 70 20 l75 5 4 50 c4
60 8 70 26 55 9 -8 15 -8 20 0 14 22 25 -3 25 -56 l0 -55 43 3 42 3 3 53 c2
31 8 52 15 53 7 0 20 2 30 4 15 3 17 -5 17 -56 l0 -59 46 0 c37 0 45 3 43 18
-5 57 2 102 17 102 11 0 14 5 10 16 -5 14 -4 15 8 5 11 -9 15 -9 19 1 4 11 9
11 27 0 12 -8 19 -9 16 -4 -8 14 21 35 39 29 8 -4 17 -2 20 3 6 9 77 6 94 -4z
m1910 -3 c-3 -18 2 -24 14 -16 21 13 39 13 28 -1 -12 -14 -76 -15 -88 -2 -4 5
-3 6 3 3 7 -4 17 0 24 8 14 16 21 19 19 8z m-1899 -396 c0 -2 -10 -12 -22 -23
l-23 -19 19 23 c18 21 26 27 26 19z m-57 -44 c-7 -2 -21 -2 -30 0 -10 3 -4 5
12 5 17 0 24 -2 18 -5z"/>
<path d="M3709 2654 c-1 -2 -2 -7 -3 -11 -3 -17 -18 -33 -25 -29 -6 4 -7 -30
-2 -53 1 -3 12 5 24 17 18 17 24 19 24 8 0 -8 -4 -13 -8 -10 -4 2 -10 0 -13
-5 -12 -19 12 -20 28 -2 15 16 15 19 1 31 -14 12 -14 15 1 31 10 11 15 19 13
20 -2 0 -12 2 -21 4 -10 2 -19 1 -19 -1z m16 -24 c-8 -9 -13 -20 -10 -23 3 -4
2 -5 -2 -2 -3 3 -13 -1 -22 -7 -9 -7 -6 -1 7 13 12 14 20 28 17 31 -3 2 2 5
10 5 13 0 13 -2 0 -17z"/>
<path d="M3636 2581 c-4 -5 -2 -12 3 -15 5 -4 12 -2 15 3 4 5 2 12 -3 15 -5 4
-12 2 -15 -3z"/>
<path d="M3716 2522 c-3 -5 1 -9 9 -9 8 0 12 4 9 9 -3 4 -7 8 -9 8 -2 0 -6 -4
-9 -8z"/>
<path d="M890 2155 c0 -2 8 -9 18 -14 14 -7 19 -6 19 3 0 6 -9 13 -19 13 -10
1 -18 0 -18 -2z"/>
</g>
</svg>
