<?xml version="1.0" standalone="no"?>
<!DOCTYPE svg PUBLIC "-//W3C//DTD SVG 20010904//EN"
 "http://www.w3.org/TR/2001/REC-SVG-20010904/DTD/svg10.dtd">
<svg version="1.0" xmlns="http://www.w3.org/2000/svg"
 width="500.000000pt" height="500.000000pt" viewBox="0 0 500.000000 500.000000"
 preserveAspectRatio="xMidYMid meet">
<metadata>
Created by potrace 1.16, written by Peter Selinger 2001-2019
</metadata>
<g transform="translate(0.000000,500.000000) scale(0.100000,-0.100000)"
fill="#000000" stroke="none">
<path d="M0 2500 l0 -2500 2500 0 2500 0 0 2500 0 2500 -2500 0 -2500 0 0
-2500z m1904 34 c3 -9 5 -93 4 -187 0 -95 -3 -158 -5 -140 -4 28 -8 31 -33 29
-15 -1 -34 -7 -42 -12 -14 -11 -49 -27 -58 -27 -3 0 -14 -8 -25 -20 -11 -11
-13 -16 -5 -12 8 5 11 4 7 0 -4 -5 -15 -10 -23 -11 -52 -8 -42 -19 21 -25 39
-3 -61 -6 -221 -7 l-290 -1 2 30 c1 18 -4 33 -14 39 -16 9 -16 11 1 24 12 9
17 24 15 47 -2 27 2 36 20 44 23 10 24 16 7 73 -7 20 -4 22 26 22 19 0 50 10
69 21 19 12 32 18 28 14 -16 -16 16 -35 58 -35 41 0 44 2 44 26 0 22 4 25 28
22 19 -2 28 -9 30 -25 3 -20 9 -23 48 -23 l44 0 0 39 c0 37 2 40 58 66 61 29
110 38 129 23 7 -6 16 -4 25 6 17 20 44 20 52 0z m-984 -129 c8 -5 18 -10 22
-10 3 0 10 -4 15 -9 5 -6 2 -6 -7 -1 -8 5 7 -13 33 -41 27 -27 59 -69 72 -94
13 -25 35 -60 49 -79 14 -19 26 -39 26 -43 0 -4 -47 -8 -104 -8 -96 0 -107 2
-133 24 -28 24 -28 26 -31 151 l-4 126 24 -3 c13 -2 30 -8 38 -13z m980 -238
c0 -2 -10 -12 -22 -23 l-23 -19 19 23 c18 21 26 27 26 19z m-53 -43 c-3 -3
-12 -4 -19 -1 -8 3 -5 6 6 6 11 1 17 -2 13 -5z"/>
</g>
</svg>
