<?xml version="1.0" standalone="no"?>
<!DOCTYPE svg PUBLIC "-//W3C//DTD SVG 20010904//EN"
 "http://www.w3.org/TR/2001/REC-SVG-20010904/DTD/svg10.dtd">
<svg version="1.0" xmlns="http://www.w3.org/2000/svg"
 width="500.000000pt" height="500.000000pt" viewBox="0 0 500.000000 500.000000"
 preserveAspectRatio="xMidYMid meet">
<metadata>
Created by potrace 1.16, written by Peter Selinger 2001-2019
</metadata>
<g transform="translate(0.000000,500.000000) scale(0.100000,-0.100000)"
fill="#000000" stroke="none">
<path d="M0 2500 l0 -2500 2500 0 2500 0 0 2500 0 2500 -2500 0 -2500 0 0
-2500z m923 47 c11 10 74 -62 92 -103 8 -22 22 -44 29 -49 7 -6 30 -42 49 -80
20 -39 52 -98 71 -132 l35 -63 -140 0 -141 0 -29 29 -29 29 0 181 c0 171 1
180 20 186 11 4 18 12 14 18 -3 7 1 4 9 -5 8 -10 17 -15 20 -11z m911 8 c-4
-8 -1 -15 5 -15 6 0 11 4 11 10 0 11 28 9 48 -3 9 -6 12 -54 10 -190 -1 -100
-3 -160 -5 -133 l-4 48 -42 -5 c-69 -10 -73 -11 -106 -45 -18 -18 -36 -30 -41
-27 -5 3 -15 -1 -22 -9 -21 -20 -57 -29 -115 -28 -29 0 -55 -4 -59 -9 -4 -6
-11 -6 -20 2 -8 6 -14 8 -14 4 0 -4 -7 -1 -16 6 -26 21 -47 20 -41 -2 4 -17 3
-18 -9 -8 -11 9 -14 8 -14 -5 0 -13 22 -16 163 -19 128 -2 111 -3 -85 -5 -189
-1 -249 1 -255 11 -11 18 -14 36 -16 99 -1 31 -5 59 -9 63 -4 4 -4 13 -1 21 3
8 0 14 -7 14 -9 0 -9 4 1 17 8 9 13 18 12 20 -2 1 -3 10 -3 18 0 12 14 15 63
15 44 0 64 4 64 13 4 74 6 78 38 75 28 -3 30 -6 33 -45 l3 -43 45 0 44 0 0 49
c0 48 1 50 28 48 25 -2 27 -6 30 -50 l3 -47 45 0 44 0 0 61 c0 52 2 60 14 50
12 -10 17 -8 27 10 11 21 12 22 25 5 12 -17 14 -16 35 8 22 25 23 25 42 8 11
-9 17 -12 14 -5 -4 6 0 16 10 22 25 15 33 13 27 -4z m66 -388 c0 -2 -10 -12
-22 -23 l-23 -19 19 23 c18 21 26 27 26 19z m-77 -44 c-18 -2 -48 -2 -65 0
-18 2 -4 4 32 4 36 0 50 -2 33 -4z"/>
<path d="M1618 2193 c-10 -2 -18 -9 -18 -14 0 -14 26 -11 40 6 13 15 9 16 -22
8z"/>
</g>
</svg>
