<?xml version="1.0" standalone="no"?>
<!DOCTYPE svg PUBLIC "-//W3C//DTD SVG 20010904//EN"
 "http://www.w3.org/TR/2001/REC-SVG-20010904/DTD/svg10.dtd">
<svg version="1.0" xmlns="http://www.w3.org/2000/svg"
 width="500.000000pt" height="500.000000pt" viewBox="0 0 500.000000 500.000000"
 preserveAspectRatio="xMidYMid meet">
<metadata>
Created by potrace 1.16, written by Peter Selinger 2001-2019
</metadata>
<g transform="translate(0.000000,500.000000) scale(0.100000,-0.100000)"
fill="#000000" stroke="none">
<path d="M0 2500 l0 -2500 2500 0 2500 0 0 2500 0 2500 -2500 0 -2500 0 0
-2500z m3746 240 c10 -8 15 -10 11 -3 -11 18 9 25 23 8 7 -8 16 -13 20 -10 7
5 38 -25 33 -32 -2 -1 0 -3 5 -4 4 0 13 -6 20 -12 9 -7 12 -7 10 0 -2 6 2 10
7 10 6 -1 9 -6 7 -10 -1 -5 2 -6 8 -2 6 3 8 11 5 16 -4 5 3 9 14 9 23 0 29
-25 9 -33 -7 -3 -4 -6 7 -7 l20 -1 -20 -9 c-17 -7 -17 -9 -2 -9 19 -1 23 -17
5 -23 -7 -3 -3 -13 12 -28 22 -22 22 -23 2 -18 -13 4 -20 2 -19 -6 1 -6 -4
-10 -12 -8 -12 3 -12 0 -2 -12 11 -13 9 -15 -9 -11 -22 4 -22 4 -4 -18 16 -18
16 -19 2 -8 -10 7 -18 10 -18 5 0 -5 -8 0 -16 11 -11 14 -15 15 -14 5 5 -33 0
-51 -12 -44 -7 4 -8 3 -4 -5 4 -6 11 -9 16 -6 5 3 11 1 15 -5 4 -6 -4 -9 -19
-8 -13 1 -23 5 -22 8 2 3 0 14 -5 25 -7 18 -8 17 -8 -6 -1 -14 -7 -26 -13 -26
-7 0 -21 -4 -30 -8 -14 -5 -16 -2 -13 15 3 18 2 20 -10 10 -8 -6 -12 -17 -9
-24 3 -9 -5 -13 -27 -14 -17 0 -28 2 -24 6 4 4 11 7 17 7 6 0 12 8 14 17 1 10
-3 16 -9 15 -6 -1 -12 4 -13 11 -1 6 -2 15 -3 18 0 4 -7 1 -14 -5 -15 -12 -27
-6 -23 12 2 7 1 9 -1 4 -3 -4 -10 -4 -16 0 -8 5 -8 2 0 -9 7 -8 9 -19 5 -23
-4 -5 -1 -5 6 -1 7 4 15 1 18 -9 5 -12 9 -13 14 -5 4 7 10 8 13 4 3 -5 -3 -20
-14 -33 -10 -13 -19 -18 -19 -12 0 7 -6 9 -12 5 -10 -6 -10 -4 0 7 14 15 16
33 3 25 -11 -7 -31 38 -31 71 0 36 -9 25 -12 -15 -3 -38 -10 -33 -15 10 -2 18
3 38 12 48 14 15 13 19 -7 36 l-23 19 18 -22 c11 -12 14 -23 8 -27 -5 -4 -12
-2 -16 3 -3 5 -14 8 -25 6 -11 -2 -22 1 -26 6 -3 5 -2 9 3 8 21 -4 24 2 12 19
-12 15 -12 16 2 5 13 -11 20 -9 37 10 12 13 19 27 15 31 -5 4 -1 6 7 4 8 -1
14 3 15 10 0 6 5 12 10 13 6 0 15 5 21 10 7 6 15 4 23 -4 15 -19 2 -30 -17
-14 -13 10 -14 9 -7 -2 5 -9 4 -12 -2 -8 -6 4 -18 -2 -28 -13 -10 -11 -15 -20
-12 -20 4 0 10 0 15 0 4 0 8 5 8 10 3 22 4 24 16 12 19 -19 49 14 38 42 -7 20
-5 23 15 22 12 -1 31 -8 41 -16z m108 -9 c4 -5 21 -7 39 -4 36 6 34 -4 -4 -11
-13 -2 -24 -5 -24 -6 0 -1 -8 -3 -18 -5 -15 -3 -16 -1 -5 13 8 10 9 13 1 9 -6
-4 -14 -3 -18 3 -3 5 1 10 9 10 8 0 17 -4 20 -9z m-2934 -77 c22 -5 28 -9 18
-15 -10 -7 -9 -9 3 -9 9 0 29 -19 45 -42 16 -23 37 -50 47 -60 9 -10 17 -24
17 -32 0 -53 125 -246 159 -246 5 0 14 -7 21 -15 7 -8 22 -15 33 -15 20 0 20
0 1 21 -10 12 -34 29 -53 38 -19 9 -33 19 -33 23 1 4 -5 20 -13 34 -10 19 -11
33 -4 46 8 15 22 18 83 18 l73 0 9 78 c9 80 7 78 59 73 8 0 14 -4 14 -8 -1 -5
-1 -38 0 -75 l1 -68 45 0 45 0 0 76 c0 71 1 75 17 63 11 -10 14 -10 9 -1 -8
14 -5 15 18 6 12 -5 16 -21 16 -75 l0 -69 45 0 45 0 0 70 c0 49 4 70 13 70 6
0 25 7 40 15 15 8 35 11 44 8 10 -4 14 -2 10 4 -4 6 9 15 33 21 32 8 40 7 45
-6 4 -12 8 -13 17 -4 7 7 25 12 40 12 l28 0 -2 -207 c-1 -115 -3 -184 -5 -155
-2 28 -9 52 -15 52 -7 0 -7 5 1 14 9 10 9 16 1 21 -7 4 -14 -1 -17 -13 -6 -23
-56 -35 -74 -18 -9 8 -10 8 -6 0 4 -7 1 -14 -7 -17 -8 -3 -17 2 -21 10 -5 15
-7 15 -22 1 -18 -19 -10 -53 9 -42 10 5 10 4 1 -6 -9 -10 -15 -10 -27 2 -11
12 -25 14 -58 8 -24 -5 -46 -6 -50 -3 -5 2 -11 -2 -14 -10 -5 -15 -16 -16 -46
-3 -9 4 -23 9 -32 10 -8 1 -19 6 -23 11 -4 4 -2 5 5 1 16 -10 15 -1 -2 13 -11
9 -16 9 -22 0 -5 -8 -3 -9 6 -4 8 5 11 4 6 -3 -8 -13 -33 -6 -58 15 -14 13
-18 12 -28 -7 -9 -17 -9 -29 -1 -47 6 -13 11 -37 11 -53 0 -28 2 -29 53 -33
28 -2 -4 -3 -73 -4 -69 0 -113 2 -97 4 15 2 27 8 27 13 0 20 -53 70 -75 70
-13 0 -27 5 -30 10 -15 24 -27 8 -22 -26 6 -34 5 -35 -21 -33 -15 2 -49 -3
-77 -11 l-50 -15 35 -6 c19 -4 -12 -6 -70 -6 -58 0 -82 2 -55 4 54 4 160 48
150 62 -3 5 0 11 7 13 7 3 8 10 4 17 -6 9 -20 11 -42 6 -26 -4 -34 -2 -34 8 0
8 7 18 16 21 8 3 12 10 9 16 -4 6 -12 7 -18 3 -9 -5 -9 -3 0 8 10 13 8 15 -12
15 -14 0 -25 -5 -25 -11 0 -7 -7 -12 -15 -12 -8 0 -15 5 -15 11 0 6 -5 4 -10
-4 -5 -8 -10 -11 -10 -6 0 5 -10 1 -22 -10 -12 -10 -18 -14 -15 -7 11 19 -8
24 -29 8 -19 -15 -18 -15 1 -9 12 3 9 -1 -7 -11 -34 -19 -36 -51 -7 -91 l21
-29 -26 28 -27 29 1 239 c1 190 4 239 14 239 8 0 28 -3 46 -6z m2659 -71 c-6
-7 -15 -10 -20 -7 -13 8 -3 21 15 21 12 0 13 -4 5 -14z m384 -20 c-7 -2 -19
-2 -25 0 -7 3 -2 5 12 5 14 0 19 -2 13 -5z m-6 -19 c-3 -3 -12 -4 -19 -1 -8 3
-5 6 6 6 11 1 17 -2 13 -5z m-78 -37 c8 -10 7 -14 -4 -14 -8 0 -15 6 -15 14 0
7 2 13 4 13 2 0 9 -6 15 -13z m-1979 -340 c0 -2 -10 -12 -22 -23 l-23 -19 19
23 c18 21 26 27 26 19z m-673 -43 c-3 -3 -12 -4 -19 -1 -8 3 -5 6 6 6 11 1 17
-2 13 -5z m441 -1 c-27 -2 -69 -2 -95 0 -27 2 -5 3 47 3 52 0 74 -1 48 -3z
m79 1 c-3 -3 -12 -4 -19 -1 -8 3 -5 6 6 6 11 1 17 -2 13 -5z m96 -1 c-7 -2
-21 -2 -30 0 -10 3 -4 5 12 5 17 0 24 -2 18 -5z"/>
<path d="M3711 2734 c6 -7 16 -11 21 -8 11 7 3 17 -18 20 -12 2 -13 -1 -3 -12z"/>
<path d="M3767 2729 c4 -13 8 -18 11 -10 2 7 -1 18 -6 23 -8 8 -9 4 -5 -13z"/>
<path d="M3793 2705 c0 -8 4 -12 9 -9 5 3 6 10 3 15 -9 13 -12 11 -12 -6z"/>
<path d="M3595 2660 c-3 -5 -1 -10 4 -10 6 0 11 5 11 10 0 6 -2 10 -4 10 -3 0
-8 -4 -11 -10z"/>
<path d="M3636 2628 c3 -5 10 -6 15 -3 13 9 11 12 -6 12 -8 0 -12 -4 -9 -9z"/>
<path d="M3866 2591 c-3 -4 6 -7 19 -7 14 0 22 2 19 5 -8 8 -34 10 -38 2z"/>
<path d="M3776 2498 c3 -4 9 -8 15 -8 5 0 9 4 9 8 0 5 -7 9 -15 9 -8 0 -12 -4
-9 -9z"/>
<path d="M1123 2247 c5 -16 35 -32 43 -24 4 4 2 13 -4 19 -16 16 -44 19 -39 5z"/>
<path d="M1388 2166 c2 -20 8 -36 13 -36 13 0 11 34 -4 54 -12 16 -13 14 -9
-18z"/>
</g>
</svg>
