<?xml version="1.0" standalone="no"?>
<!DOCTYPE svg PUBLIC "-//W3C//DTD SVG 20010904//EN"
 "http://www.w3.org/TR/2001/REC-SVG-20010904/DTD/svg10.dtd">
<svg version="1.0" xmlns="http://www.w3.org/2000/svg"
 width="500.000000pt" height="500.000000pt" viewBox="0 0 500.000000 500.000000"
 preserveAspectRatio="xMidYMid meet">
<metadata>
Created by potrace 1.16, written by Peter Selinger 2001-2019
</metadata>
<g transform="translate(0.000000,500.000000) scale(0.100000,-0.100000)"
fill="#000000" stroke="none">
<path d="M0 2500 l0 -2500 2500 0 2500 0 0 2500 0 2500 -2500 0 -2500 0 0
-2500z m1844 30 c8 0 19 7 27 16 12 14 14 14 26 -2 10 -13 13 -63 12 -193 -1
-97 -5 -158 -8 -136 -6 38 -7 40 -41 37 -19 -1 -38 -8 -42 -15 -4 -6 -13 -13
-20 -13 -7 -1 -19 -2 -26 -3 -7 0 -11 -5 -8 -10 7 -11 -22 -23 -35 -15 -5 3
-8 0 -7 -6 2 -7 -5 -14 -15 -15 -10 -2 -25 -12 -34 -22 -8 -10 -12 -13 -9 -7
3 6 -1 11 -8 11 -7 0 -13 -6 -13 -12 0 -7 20 -12 51 -14 28 -1 53 -4 55 -7 2
-2 -109 -4 -248 -4 -264 0 -258 -1 -265 43 -1 8 -7 21 -13 28 -6 8 -13 29 -16
47 -5 30 1 37 25 33 4 0 2 13 -4 29 -10 31 4 66 22 55 10 -6 22 24 14 36 -3 5
11 9 30 9 31 0 36 3 36 23 0 18 6 22 35 23 30 0 35 -3 35 -23 0 -21 5 -23 45
-23 45 0 45 0 45 34 0 27 4 34 18 31 9 -2 23 -4 30 -4 7 -1 12 -14 12 -31 0
-29 2 -30 45 -30 l45 0 0 45 c0 42 1 44 34 51 19 3 37 12 40 20 3 8 12 11 22
7 13 -5 15 -3 9 8 -4 8 -5 11 0 7 4 -4 14 -3 21 3 8 7 14 6 20 -2 5 -8 3 -9
-6 -4 -9 5 -11 4 -6 -4 11 -18 36 6 29 27 -3 10 1 8 11 -5 10 -13 23 -23 30
-23z m-864 -117 c0 -7 4 -13 9 -13 4 0 23 -26 40 -57 18 -32 45 -76 62 -98 16
-22 37 -56 46 -75 9 -19 18 -38 20 -42 2 -5 -50 -8 -117 -8 -121 0 -122 0
-151 29 l-29 29 0 141 c0 166 5 175 76 132 24 -14 44 -32 44 -38z m920 -246
c0 -2 -10 -12 -22 -23 l-23 -19 19 23 c18 21 26 27 26 19z m-67 -44 c-13 -2
-35 -2 -50 0 -16 2 -5 4 22 4 28 0 40 -2 28 -4z"/>
<path d="M1586 2142 c-3 -5 1 -9 9 -9 8 0 12 4 9 9 -3 4 -7 8 -9 8 -2 0 -6 -4
-9 -8z"/>
</g>
</svg>
