<?xml version="1.0" standalone="no"?>
<!DOCTYPE svg PUBLIC "-//W3C//DTD SVG 20010904//EN"
 "http://www.w3.org/TR/2001/REC-SVG-20010904/DTD/svg10.dtd">
<svg version="1.0" xmlns="http://www.w3.org/2000/svg"
 width="500.000000pt" height="500.000000pt" viewBox="0 0 500.000000 500.000000"
 preserveAspectRatio="xMidYMid meet">
<metadata>
Created by potrace 1.16, written by Peter Selinger 2001-2019
</metadata>
<g transform="translate(0.000000,500.000000) scale(0.100000,-0.100000)"
fill="#000000" stroke="none">
<path d="M0 2500 l0 -2500 2500 0 2500 0 0 2500 0 2500 -2500 0 -2500 0 0
-2500z m1775 30 c15 0 34 14 29 21 -3 5 0 9 6 9 6 0 13 -7 17 -15 5 -14 8 -14
22 -2 11 10 23 12 39 6 22 -8 22 -10 21 -191 -1 -101 -5 -165 -8 -143 -6 39
-7 40 -44 38 -22 -1 -47 -9 -56 -17 -13 -12 -20 -13 -29 -4 -9 9 -12 8 -12 -5
0 -10 -8 -20 -17 -24 -10 -3 -29 -15 -42 -27 -13 -12 -21 -15 -17 -8 4 7 -6 5
-26 -6 -20 -12 -41 -16 -53 -12 -11 4 -31 1 -44 -6 -21 -11 -2 -13 129 -13 84
-1 156 -3 158 -6 3 -3 -135 -5 -306 -5 -276 0 -312 2 -312 16 0 8 -5 12 -11 8
-8 -4 -8 0 0 15 7 12 8 27 4 34 -4 6 -6 22 -4 35 1 12 -2 22 -6 22 -5 0 -10
18 -11 40 -2 22 2 40 7 40 5 0 8 10 6 21 -3 12 -1 27 3 33 7 12 10 12 71 15
35 1 40 4 43 29 2 15 8 26 15 24 7 -1 12 1 12 5 -4 27 3 31 21 13 11 -11 20
-31 20 -45 0 -23 4 -25 45 -25 l45 0 0 41 c0 39 2 41 25 37 22 -5 24 -3 13 11
-12 14 -11 14 5 2 11 -9 17 -27 17 -52 l0 -39 45 0 45 0 0 50 c0 40 3 48 15
44 9 -4 15 0 15 9 0 21 12 27 38 20 19 -4 20 -8 10 -22 -6 -9 0 -5 14 9 14 14
26 27 26 30 0 18 5 22 9 8 2 -10 6 -18 8 -18z m-813 -52 c19 -18 48 -57 62
-86 15 -29 33 -55 41 -59 8 -3 15 -10 15 -15 0 -6 23 -50 50 -99 27 -49 50
-91 50 -94 0 -3 -59 -5 -131 -5 l-131 0 -29 29 -29 29 0 158 c0 131 3 160 16
175 19 21 33 16 86 -33z m938 -311 c0 -2 -10 -12 -22 -23 l-23 -19 19 23 c18
21 26 27 26 19z"/>
<path d="M1680 2509 c0 -5 5 -7 10 -4 6 3 10 8 10 11 0 2 -4 4 -10 4 -5 0 -10
-5 -10 -11z"/>
<path d="M1423 2144 c0 -8 10 -13 23 -12 16 2 20 6 14 12 -15 15 -37 15 -37 0z"/>
</g>
</svg>
