<?xml version="1.0" standalone="no"?>
<!DOCTYPE svg PUBLIC "-//W3C//DTD SVG 20010904//EN"
 "http://www.w3.org/TR/2001/REC-SVG-20010904/DTD/svg10.dtd">
<svg version="1.0" xmlns="http://www.w3.org/2000/svg"
 width="500.000000pt" height="500.000000pt" viewBox="0 0 500.000000 500.000000"
 preserveAspectRatio="xMidYMid meet">
<metadata>
Created by potrace 1.16, written by Peter Selinger 2001-2019
</metadata>
<g transform="translate(0.000000,500.000000) scale(0.100000,-0.100000)"
fill="#000000" stroke="none">
<path d="M0 2500 l0 -2500 2500 0 2500 0 0 2500 0 2500 -2500 0 -2500 0 0
-2500z m923 47 c11 10 74 -62 92 -103 8 -22 22 -44 29 -49 7 -6 30 -42 49 -80
20 -39 52 -98 71 -132 l35 -63 -140 0 c-90 0 -138 4 -134 10 3 5 0 7 -8 4 -9
-3 -24 6 -36 22 -20 25 -21 38 -21 205 0 169 1 178 20 184 11 4 18 12 14 18
-3 7 1 4 9 -5 8 -10 17 -15 20 -11z m911 8 c-4 -8 -1 -15 5 -15 6 0 11 4 11
10 0 11 28 9 48 -3 9 -6 12 -54 10 -190 -1 -100 -3 -160 -5 -133 l-4 49 -57
-7 c-45 -5 -62 -13 -84 -36 -28 -31 -54 -40 -45 -16 4 10 0 12 -14 9 -15 -4
-17 -8 -8 -19 9 -11 8 -14 -5 -14 -9 0 -16 4 -16 8 0 4 -9 8 -20 8 -11 0 -20
-4 -20 -8 0 -4 -7 -8 -15 -8 -8 0 -15 -7 -15 -15 0 -10 -9 -15 -27 -13 -16 1
-39 -2 -52 -6 -18 -6 -22 -5 -16 5 6 9 3 11 -10 5 -12 -4 -22 0 -32 14 -14 20
-40 29 -28 10 3 -5 2 -10 -2 -10 -5 0 -14 5 -21 10 -9 7 -9 7 -2 -2 6 -7 10
-18 10 -26 0 -7 -4 -10 -10 -7 -5 3 -10 -1 -10 -9 0 -12 16 -16 78 -19 42 -1
4 -4 -85 -5 -191 -2 -182 -7 -186 110 -1 31 -5 59 -9 63 -4 4 -4 13 -1 21 3 8
0 14 -7 14 -9 0 -9 4 1 17 8 9 13 18 12 20 -2 1 -3 10 -3 18 0 12 14 15 63 15
44 0 64 4 64 13 4 74 6 78 38 75 28 -3 30 -6 33 -45 l3 -43 45 0 44 0 0 49 c0
48 1 50 28 48 25 -2 27 -6 30 -50 l3 -47 45 0 44 0 0 61 c0 52 2 60 14 50 12
-10 17 -8 27 10 11 21 12 22 25 5 12 -17 14 -16 35 8 22 25 23 25 42 8 11 -9
17 -12 14 -5 -4 6 0 16 10 22 25 15 33 13 27 -4z m-160 -374 c6 -9 -35 -24
-43 -15 -6 5 18 24 31 24 4 0 9 -4 12 -9z m226 -14 c0 -2 -10 -12 -22 -23
l-23 -19 19 23 c18 21 26 27 26 19z m-217 -44 c-24 -2 -62 -2 -85 0 -24 2 -5
4 42 4 47 0 66 -2 43 -4z"/>
</g>
</svg>
