<?xml version="1.0" standalone="no"?>
<!DOCTYPE svg PUBLIC "-//W3C//DTD SVG 20010904//EN"
 "http://www.w3.org/TR/2001/REC-SVG-20010904/DTD/svg10.dtd">
<svg version="1.0" xmlns="http://www.w3.org/2000/svg"
 width="500.000000pt" height="500.000000pt" viewBox="0 0 500.000000 500.000000"
 preserveAspectRatio="xMidYMid meet">
<metadata>
Created by potrace 1.16, written by Peter Selinger 2001-2019
</metadata>
<g transform="translate(0.000000,500.000000) scale(0.100000,-0.100000)"
fill="#000000" stroke="none">
<path d="M1858 2232 c-15 -2 -41 -16 -57 -31 -16 -15 -36 -26 -45 -25 -8 1
-14 -3 -13 -9 1 -6 -3 -11 -10 -12 -7 0 -18 -6 -24 -12 -10 -10 3 -13 67 -13
71 0 83 3 102 23 21 22 30 72 15 79 -5 2 -20 2 -35 0z"/>
</g>
</svg>
