<?xml version="1.0" standalone="no"?>
<!DOCTYPE svg PUBLIC "-//W3C//DTD SVG 20010904//EN"
 "http://www.w3.org/TR/2001/REC-SVG-20010904/DTD/svg10.dtd">
<svg version="1.0" xmlns="http://www.w3.org/2000/svg"
 width="500.000000pt" height="500.000000pt" viewBox="0 0 500.000000 500.000000"
 preserveAspectRatio="xMidYMid meet">
<metadata>
Created by potrace 1.16, written by Peter Selinger 2001-2019
</metadata>
<g transform="translate(0.000000,500.000000) scale(0.100000,-0.100000)"
fill="#000000" stroke="none">
<path d="M0 2500 l0 -2500 2500 0 2500 0 0 2500 0 2500 -2500 0 -2500 0 0
-2500z m912 78 c29 -17 68 -55 68 -66 0 -5 9 -17 20 -27 11 -10 17 -21 15 -26
-3 -4 3 -16 14 -26 17 -17 61 -90 61 -104 0 -10 87 -160 104 -178 9 -10 16
-21 16 -24 0 -4 -66 -7 -146 -7 -93 0 -143 4 -139 10 3 5 0 7 -8 4 -9 -3 -24
6 -36 22 -21 26 -22 37 -21 216 1 105 6 190 11 194 5 3 7 10 4 15 -9 13 11 11
37 -3z m983 -24 c12 -13 15 -45 13 -197 0 -100 -4 -159 -7 -132 -7 54 -6 54
-78 42 -29 -5 -48 -15 -59 -32 -9 -14 -23 -25 -31 -25 -9 0 -31 -9 -49 -21
-19 -11 -40 -19 -47 -16 -7 3 -1 9 13 15 29 11 59 42 41 42 -6 0 -11 -5 -11
-11 0 -5 -4 -8 -9 -5 -5 3 -14 -1 -21 -9 -7 -8 -15 -13 -19 -11 -4 3 -13 1
-21 -4 -11 -7 -11 -11 -1 -24 11 -13 9 -14 -20 -6 -17 5 -34 12 -37 15 -3 2
-12 -1 -20 -7 -20 -17 -39 -18 -53 -2 -6 8 -15 11 -20 8 -5 -3 -9 1 -9 9 0 7
-7 14 -15 14 -8 0 -15 -9 -15 -19 0 -11 -4 -16 -10 -13 -5 3 -10 -3 -10 -14 0
-20 7 -21 188 -24 175 -2 171 -3 -65 -5 -173 -1 -260 2 -277 9 -31 15 -46 58
-44 124 1 28 -2 57 -7 65 -11 18 -12 51 -1 68 4 7 31 12 72 12 35 0 63 3 63 8
-1 4 -1 25 0 48 1 40 2 41 36 41 l35 0 0 -49 0 -48 45 0 45 0 0 51 c0 41 3 50
15 46 8 -4 17 -2 20 3 15 24 25 6 25 -45 l0 -55 45 0 45 0 0 58 c0 52 3 60 23
69 13 6 35 9 51 8 15 -2 25 -1 22 2 -15 15 18 28 78 30 48 2 69 -2 81 -13z m5
-387 c0 -2 -10 -12 -22 -23 l-23 -19 19 23 c18 21 26 27 26 19z m-87 -44 c-7
-2 -19 -2 -25 0 -7 3 -2 5 12 5 14 0 19 -2 13 -5z"/>
</g>
</svg>
