<?xml version="1.0" standalone="no"?>
<!DOCTYPE svg PUBLIC "-//W3C//DTD SVG 20010904//EN"
 "http://www.w3.org/TR/2001/REC-SVG-20010904/DTD/svg10.dtd">
<svg version="1.0" xmlns="http://www.w3.org/2000/svg"
 width="500.000000pt" height="500.000000pt" viewBox="0 0 500.000000 500.000000"
 preserveAspectRatio="xMidYMid meet">
<metadata>
Created by potrace 1.16, written by Peter Selinger 2001-2019
</metadata>
<g transform="translate(0.000000,500.000000) scale(0.100000,-0.100000)"
fill="#000000" stroke="none">
<path d="M0 2500 l0 -2500 2500 0 2500 0 0 2500 0 2500 -2500 0 -2500 0 0
-2500z m3746 214 c0 -26 -16 -22 -17 4 0 14 -2 13 -9 -3 -6 -15 -9 -16 -9 -4
-1 19 5 26 22 26 7 0 13 -11 13 -23z m41 -6 c12 31 22 4 14 -37 -3 -14 -41 36
-40 53 0 19 1 19 11 -4 6 -15 12 -20 15 -12z m-83 -3 c3 -8 -1 -21 -10 -29
-12 -13 -12 -15 5 -13 10 0 17 6 14 13 -2 7 0 15 6 18 10 7 37 -32 33 -47 -1
-5 2 -6 8 -2 8 5 7 11 -1 21 -18 22 -5 26 17 6 11 -9 28 -24 39 -32 20 -14 20
-14 2 7 -11 13 -14 23 -8 27 6 4 8 13 5 20 -3 8 0 17 7 21 8 6 10 -1 7 -24 -3
-20 -1 -30 6 -28 6 3 10 9 9 14 -1 5 5 10 13 10 8 0 14 -9 14 -19 0 -10 4 -18
10 -18 5 0 7 8 3 18 -5 15 -4 15 9 2 18 -18 42 -74 29 -65 -6 3 -15 -3 -20
-14 -11 -20 -48 -22 -43 -1 1 6 -2 8 -9 4 -8 -5 -9 -3 -5 5 6 9 13 8 27 -5 18
-16 18 -15 2 24 -9 23 -20 39 -25 36 -5 -3 -4 -12 3 -20 10 -13 6 -18 -13 -15
-5 0 -4 -18 1 -36 3 -10 -1 -18 -9 -19 -5 -1 -13 -3 -17 -4 -5 -1 -12 -2 -17
-1 -5 1 -4 -5 3 -13 7 -8 21 -13 32 -11 15 3 19 -2 19 -21 0 -15 -6 -24 -15
-24 -8 0 -15 6 -15 14 0 7 -9 16 -21 19 -16 4 -18 3 -8 -9 6 -8 10 -14 8 -15
-31 -6 -38 -6 -34 1 7 11 -22 7 -32 -5 -4 -4 -3 -5 3 -2 6 3 11 0 11 -7 0 -8
-7 -13 -16 -11 -9 1 -15 5 -15 9 8 38 14 47 26 40 7 -4 5 2 -5 13 -9 11 -15
23 -12 26 3 4 2 4 -2 1 -8 -6 -10 -11 -12 -46 -1 -19 -3 -21 -12 -8 -9 12 -10
11 -6 -6 3 -16 0 -21 -12 -19 -9 2 -23 4 -31 5 -10 1 -11 3 -2 7 6 2 12 10 12
16 0 5 -3 7 -7 3 -4 -3 -13 4 -20 16 -8 15 -12 18 -13 8 0 -13 -1 -13 -11 0
-9 13 -10 13 -6 0 2 -8 10 -14 16 -12 6 1 11 -2 11 -8 0 -5 -7 -10 -15 -10 -8
0 -15 5 -15 11 0 5 -4 8 -9 4 -5 -3 -13 0 -17 6 -4 7 -3 9 3 6 6 -4 11 4 11
18 0 14 -4 22 -9 20 -4 -3 -13 4 -19 16 -7 12 -8 19 -2 15 6 -3 19 5 30 19 16
20 21 22 26 9 4 -10 2 -13 -6 -8 -6 4 -8 3 -4 -4 3 -6 2 -13 -4 -17 -5 -3 -10
-11 -10 -16 0 -6 4 -8 9 -4 5 3 13 0 17 -6 4 -8 3 -9 -4 -5 -7 4 -12 2 -12 -3
0 -6 7 -11 15 -11 18 0 19 12 4 27 -14 14 -4 32 15 29 7 -1 21 -9 30 -19 21
-20 23 -21 32 -5 4 6 3 8 -3 5 -6 -4 -18 2 -28 13 -17 18 -14 25 9 21 5 -1 6
5 2 14 -3 9 -6 23 -6 31 0 9 -4 13 -9 9 -6 -3 -8 -14 -6 -25 2 -12 0 -18 -6
-15 -5 4 -6 11 -3 17 4 7 2 8 -5 4 -6 -4 -9 -11 -6 -16 3 -5 1 -11 -5 -15 -5
-3 -10 1 -10 9 0 9 0 19 0 24 0 4 6 7 13 7 6 1 11 7 9 14 -1 7 2 10 7 7 5 -3
14 1 21 9 16 19 26 19 34 0z m229 -45 c3 -11 2 -20 -3 -20 -4 0 -10 9 -13 20
-3 11 -2 20 3 20 4 0 10 -9 13 -20z m-3027 -22 c-4 6 -3 12 2 12 12 0 56 -49
86 -97 14 -24 31 -43 36 -43 5 0 16 -22 24 -48 21 -73 73 -161 130 -219 44
-47 86 -68 86 -45 0 10 -33 36 -51 40 -20 5 -40 26 -44 48 -2 10 -4 19 -5 19
-1 0 -3 8 -5 18 -2 9 1 15 5 12 5 -3 8 9 7 27 l-2 33 72 3 72 3 7 68 c6 66 7
69 31 66 34 -3 43 -20 43 -82 l0 -53 43 0 44 0 2 53 c2 71 3 77 12 71 4 -2 9
1 11 8 3 9 9 8 21 -4 12 -11 17 -34 17 -72 l0 -56 45 0 45 0 1 63 c1 34 1 66
0 70 -1 5 3 6 9 2 5 -3 10 -1 10 5 0 6 12 11 28 10 48 -4 62 0 62 14 0 9 7 13
20 11 11 -2 20 1 20 6 0 6 6 7 13 2 6 -4 23 -8 37 -9 14 0 35 -1 48 -2 l22 -2
-2 -197 c-1 -109 -3 -174 -5 -145 l-4 52 -40 0 c-22 0 -50 -5 -61 -11 -15 -8
-22 -8 -27 0 -5 8 -15 5 -31 -9 -20 -17 -47 -25 -72 -21 -5 0 -8 -4 -8 -9 0
-6 -5 -10 -11 -10 -5 0 -7 5 -4 10 3 6 2 10 -2 10 -5 0 -14 -9 -21 -21 -11
-17 -16 -19 -29 -7 -12 9 -15 10 -9 1 4 -7 2 -13 -3 -13 -6 0 -11 5 -11 10 0
12 -78 9 -98 -3 -7 -5 -15 -2 -19 10 -13 35 -39 51 -34 21 0 -5 -5 -8 -13 -8
-12 0 -12 -8 -2 -47 l12 -48 170 -5 c168 -6 168 -6 -71 -7 -132 -1 -232 2
-222 6 18 6 18 7 -1 24 -10 9 -33 20 -50 23 -28 6 -32 4 -32 -15 0 -17 -6 -21
-36 -21 -21 0 -33 -4 -29 -10 4 -6 -35 -9 -112 -8 l-118 1 95 7 c106 7 127 14
135 40 4 11 12 17 21 13 27 -10 15 26 -14 41 -16 8 -34 22 -41 30 -7 9 -16 14
-20 11 -4 -2 -20 -6 -36 -9 -16 -3 -31 -9 -34 -13 -3 -4 -12 -8 -18 -9 -29 -2
-34 -4 -29 -13 3 -5 -8 -7 -24 -6 -16 1 -35 -4 -41 -11 -6 -8 -15 -12 -19 -9
-19 12 -18 -15 1 -41 l21 -29 -26 28 -27 29 1 216 c2 224 8 264 38 240 12 -10
14 -10 8 0z m3019 -58 c3 -5 1 -10 -4 -10 -6 0 -11 5 -11 10 0 6 2 10 4 10 3
0 8 -4 11 -10z m-56 -24 c-8 -8 -60 -15 -55 -8 2 4 17 9 32 10 15 1 25 0 23
-2z m-2 -58 c-3 -8 -6 -5 -6 6 -1 11 2 17 5 13 3 -3 4 -12 1 -19z m-70 -24
c-3 -3 -12 -4 -19 -1 -8 3 -5 6 6 6 11 1 17 -2 13 -5z m-60 -20 c-3 -3 -12 -4
-19 -1 -8 3 -5 6 6 6 11 1 17 -2 13 -5z m-2593 -253 c-3 -3 -8 0 -12 6 -5 8
-13 9 -22 3 -8 -6 -23 -10 -34 -10 -15 0 -16 3 -6 15 7 8 19 15 27 15 13 0 13
3 2 18 -7 9 1 4 19 -12 17 -16 29 -32 26 -35z m616 28 c0 -4 -7 -9 -15 -13 -9
-3 -15 0 -15 8 0 7 7 13 15 13 8 0 15 -4 15 -8z m140 -62 c0 -2 -10 -12 -22
-23 l-23 -19 19 23 c18 21 26 27 26 19z m-673 -43 c-3 -3 -12 -4 -19 -1 -8 3
-5 6 6 6 11 1 17 -2 13 -5z m620 0 c-3 -3 -12 -4 -19 -1 -8 3 -5 6 6 6 11 1
17 -2 13 -5z"/>
<path d="M3675 2701 c-3 -5 -1 -12 5 -16 5 -3 10 1 10 9 0 18 -6 21 -15 7z"/>
<path d="M3880 2626 c0 -2 7 -7 16 -10 8 -3 12 -2 9 4 -6 10 -25 14 -25 6z"/>
<path d="M3580 2605 c-7 -9 -11 -17 -9 -20 3 -2 10 5 17 15 14 24 10 26 -8 5z"/>
<path d="M3671 2504 c0 -11 3 -14 6 -6 3 7 2 16 -1 19 -3 4 -6 -2 -5 -13z"/>
<path d="M1880 2300 c-9 -6 -10 -10 -3 -10 6 0 15 5 18 10 8 12 4 12 -15 0z"/>
<path d="M1370 2188 c6 -7 10 -22 10 -35 0 -13 5 -23 11 -23 13 0 2 41 -17 58
-9 7 -10 8 -4 0z"/>
</g>
</svg>
