<?xml version="1.0" standalone="no"?>
<!DOCTYPE svg PUBLIC "-//W3C//DTD SVG 20010904//EN"
 "http://www.w3.org/TR/2001/REC-SVG-20010904/DTD/svg10.dtd">
<svg version="1.0" xmlns="http://www.w3.org/2000/svg"
 width="500.000000pt" height="500.000000pt" viewBox="0 0 500.000000 500.000000"
 preserveAspectRatio="xMidYMid meet">
<metadata>
Created by potrace 1.16, written by Peter Selinger 2001-2019
</metadata>
<g transform="translate(0.000000,500.000000) scale(0.100000,-0.100000)"
fill="#000000" stroke="none">
<path d="M0 2500 l0 -2500 2500 0 2500 0 0 2500 0 2500 -2500 0 -2500 0 0
-2500z m3846 339 c4 -8 9 -8 17 0 18 18 36 13 32 -8 -4 -23 23 -37 39 -20 8 9
8 10 -1 5 -7 -4 -13 -2 -13 4 0 7 7 9 16 6 9 -3 20 -6 24 -6 5 0 7 -9 5 -19
-2 -11 3 -22 11 -25 9 -3 13 -10 10 -15 -3 -5 6 -12 19 -15 17 -4 23 -11 18
-19 -15 -24 -11 -35 11 -30 21 4 21 4 2 -11 -19 -16 -19 -16 3 -16 15 0 20 -4
14 -12 -14 -23 -12 -38 5 -38 15 -1 14 -2 -2 -11 -15 -9 -16 -13 -5 -20 11 -7
10 -9 -5 -9 -18 0 -18 -1 -2 -19 16 -17 16 -19 -3 -24 -14 -3 -18 -11 -14 -26
4 -17 1 -20 -17 -16 -22 4 -22 4 -4 -18 10 -12 15 -19 10 -15 -5 4 -16 2 -24
-5 -13 -10 -14 -9 -7 2 6 11 5 12 -6 5 -8 -5 -23 -9 -34 -9 -11 0 -20 -4 -20
-10 0 -22 -17 -36 -30 -25 -9 7 -16 6 -24 -3 -6 -8 -9 -16 -6 -19 3 -2 -2 -5
-10 -5 -8 0 -12 3 -10 7 2 4 -2 7 -9 7 -8 0 -12 -6 -9 -13 2 -6 -1 -15 -8 -20
-7 -4 -10 -3 -6 4 4 5 4 17 1 26 -5 12 -9 13 -19 3 -7 -7 -11 -15 -9 -18 2 -3
-14 -3 -36 1 -22 4 -40 5 -40 2 0 -3 -10 3 -22 14 -14 12 -18 14 -13 4 4 -8
-8 0 -26 18 -29 26 -38 30 -48 20 -11 -10 -13 -10 -7 0 4 6 2 12 -4 12 -7 0
-10 7 -7 15 4 10 -3 16 -26 20 -18 4 -37 6 -42 5 -24 -5 -27 1 -10 20 16 18
17 20 2 21 -30 2 -35 4 -41 12 -3 4 -3 5 1 2 3 -3 13 1 21 8 9 6 13 7 9 1 -3
-6 0 -11 8 -11 11 0 12 4 4 13 -6 7 -19 11 -29 9 -11 -2 -22 1 -26 6 -4 6 -10
6 -19 -1 -9 -8 -15 -8 -20 0 -4 6 -1 9 6 8 13 -3 15 2 18 38 0 8 5 13 10 9 6
-3 8 -15 6 -27 -3 -11 -1 -17 3 -14 4 4 7 11 7 14 0 4 5 14 10 22 14 23 14 37
-1 37 -11 0 -11 -4 -2 -16 12 -15 11 -15 -7 0 -21 16 -33 18 -51 6 -7 -4 -18
0 -25 9 -10 12 -10 15 2 12 8 -2 13 3 11 11 -2 11 0 12 11 3 19 -16 30 -3 15
17 -8 10 -4 9 10 -3 12 -11 22 -16 22 -11 0 4 6 2 13 -4 8 -6 17 -7 21 -3 4 4
12 7 18 7 15 0 19 33 6 42 -7 3 -8 1 -4 -6 5 -7 2 -10 -5 -9 -7 2 -13 -2 -14
-9 0 -19 -15 -28 -15 -9 0 9 -4 15 -8 12 -5 -3 -9 1 -9 8 0 8 7 13 16 11 9 -1
22 2 30 8 17 14 43 18 35 6 -3 -5 5 -5 19 0 14 6 27 8 29 5 3 -2 5 3 5 11 0
11 -4 12 -11 5 -13 -13 -26 -13 -26 2 0 6 3 8 7 5 3 -4 11 -3 17 2 18 14 48
22 41 11 -4 -6 2 -7 18 -1 14 6 27 7 30 5 3 -3 8 0 13 7 5 8 3 10 -6 4 -8 -5
-11 -4 -7 3 4 5 16 8 27 5 14 -4 20 -1 18 8 -3 14 5 15 34 4 12 -5 20 -1 24 9
7 18 59 22 70 5z m-2888 -55 c13 -13 19 -24 15 -24 -4 0 7 -8 25 -16 22 -12
32 -24 32 -39 0 -13 9 -44 20 -70 11 -26 20 -55 20 -65 0 -10 8 -21 18 -24 10
-3 18 -16 19 -28 1 -13 9 -28 18 -34 10 -7 14 -25 13 -50 l-1 -39 -4 37 c-4
34 -6 37 -31 33 -82 -12 -107 -13 -118 -4 -19 15 -55 7 -68 -15 -6 -11 -18
-28 -26 -38 -8 -10 -18 -35 -21 -56 -3 -20 -7 66 -8 193 -1 226 -1 230 22 251
25 24 42 21 75 -12z m872 -124 c0 -5 17 -7 40 -4 l40 6 -2 -244 -2 -243 -6
165 c-3 91 -7 162 -8 158 -1 -4 -14 -3 -29 3 -15 5 -71 12 -124 15 l-98 6 -4
-59 c-2 -32 -3 -16 -1 35 2 58 8 97 16 105 18 17 78 37 78 26 0 -5 -5 -9 -12
-9 -6 0 -9 -2 -7 -5 10 -9 69 19 69 33 0 7 4 11 9 7 5 -3 12 -1 16 5 8 13 25
13 25 0z m-476 -16 c4 -10 13 -14 22 -10 8 3 12 2 9 -4 -3 -6 -1 -10 4 -10 16
0 13 -102 -3 -123 -12 -15 -14 -16 -20 -2 -3 8 -12 15 -20 15 -11 0 -16 -15
-19 -57 -2 -32 -4 -14 -3 40 l1 97 -85 0 c-79 0 -86 2 -87 21 -1 13 4 20 15
18 30 -3 35 1 23 15 -9 11 3 14 73 15 68 0 85 -2 90 -15z m1976 -8 c0 -2 -7
-7 -16 -10 -8 -3 -12 -2 -9 4 6 10 25 14 25 6z m-1780 -75 c0 -36 -3 -40 -30
-46 -29 -6 -30 -9 -30 -62 0 -31 -3 -54 -6 -50 -3 3 -3 56 1 116 l7 110 29
-15 c24 -12 29 -21 29 -53z m1747 44 c9 -24 -1 -27 -15 -5 -8 13 -8 20 -2 20
6 0 13 -7 17 -15z m117 7 c3 -5 -1 -9 -9 -9 -8 0 -12 4 -9 9 3 4 7 8 9 8 2 0
6 -4 9 -8z m-57 -39 c0 -9 -4 -10 -12 -3 -7 5 -14 7 -17 4 -3 -3 -8 -1 -11 3
-3 5 5 9 17 9 12 0 23 -6 23 -13z m609 -135 c3 -4 -1 -5 -10 -4 -8 1 -18 5
-22 8 -3 4 1 5 10 4 8 -1 18 -5 22 -8z m-331 -7 c3 -5 2 -12 -3 -15 -5 -3 -9
1 -9 9 0 17 3 19 12 6z m-2768 -243 c-3 -8 -6 -5 -6 6 -1 11 2 17 5 13 3 -3 4
-12 1 -19z m28 -38 c10 -11 16 -20 13 -20 -3 0 -13 9 -23 20 -10 11 -16 20
-13 20 3 0 13 -9 23 -20z m1005 17 c0 -2 -10 -12 -22 -23 l-23 -19 19 23 c18
21 26 27 26 19z m-953 -43 c-3 -3 -12 -4 -19 -1 -8 3 -5 6 6 6 11 1 17 -2 13
-5z m900 0 c-3 -3 -12 -4 -19 -1 -8 3 -5 6 6 6 11 1 17 -2 13 -5z"/>
<path d="M3815 2830 c-3 -5 -2 -10 4 -10 5 0 13 5 16 10 3 6 2 10 -4 10 -5 0
-13 -4 -16 -10z"/>
<path d="M3435 2679 c-3 -4 2 -6 10 -5 21 3 28 13 10 13 -9 0 -18 -4 -20 -8z"/>
</g>
</svg>
