<?xml version="1.0" standalone="no"?>
<!DOCTYPE svg PUBLIC "-//W3C//DTD SVG 20010904//EN"
 "http://www.w3.org/TR/2001/REC-SVG-20010904/DTD/svg10.dtd">
<svg version="1.0" xmlns="http://www.w3.org/2000/svg"
 width="500.000000pt" height="500.000000pt" viewBox="0 0 500.000000 500.000000"
 preserveAspectRatio="xMidYMid meet">
<metadata>
Created by potrace 1.16, written by Peter Selinger 2001-2019
</metadata>
<g transform="translate(0.000000,500.000000) scale(0.100000,-0.100000)"
fill="#000000" stroke="none">
<path d="M0 2500 l0 -2500 2500 0 2500 0 0 2500 0 2500 -2500 0 -2500 0 0
-2500z m1368 464 c12 -4 22 -14 22 -23 0 -14 2 -14 10 -1 7 12 12 12 22 2 6
-6 20 -12 30 -12 10 0 18 -7 18 -15 0 -13 -25 -15 -164 -15 l-165 0 -4 -42 -4
-43 -1 48 -2 47 129 0 c122 0 129 1 124 19 -3 11 -15 22 -27 25 -33 8 -159 -1
-250 -19 -44 -8 -81 -13 -83 -11 -7 6 88 27 151 33 34 3 63 7 65 9 7 6 104 4
129 -2z m-446 -38 c9 -8 29 -12 54 -10 l39 3 -35 -16 c-19 -10 -37 -20 -40
-23 -3 -3 -18 -10 -35 -15 l-30 -10 -6 -110 -5 -110 -2 125 c-2 128 4 174 19
164 5 -3 9 0 9 5 0 15 16 14 32 -3z m643 -17 c-8 -12 -65 -12 -65 0 0 5 8 7
19 4 10 -3 22 0 26 6 3 6 11 9 16 5 5 -3 7 -10 4 -15z m42 -5 c-3 -3 -12 -4
-19 -1 -8 3 -5 6 6 6 11 1 17 -2 13 -5z m183 -61 c25 -8 50 -19 55 -23 6 -4
22 -10 38 -14 l27 -6 -2 -313 -3 -312 -2 307 -3 307 -33 10 c-17 5 -71 26
-119 45 -48 20 -92 36 -98 36 -6 0 -11 -86 -12 -242 l-3 -243 -2 240 c-2 132
-1 245 2 252 3 10 17 8 57 -7 29 -12 73 -28 98 -37z m2117 24 c-8 13 18 12 30
-2 4 -4 2 -5 -6 0 -9 5 -12 4 -7 -3 3 -6 15 -9 26 -7 11 2 20 -2 20 -8 0 -7 4
-6 10 3 9 13 10 13 10 0 0 -13 1 -13 11 0 9 12 10 10 6 -8 -4 -19 -3 -21 8
-12 11 9 13 7 9 -14 -2 -13 0 -27 6 -31 5 -3 7 0 4 8 -3 8 1 18 8 23 7 4 10 4
6 -1 -4 -4 -2 -17 4 -29 6 -11 12 -33 13 -47 1 -14 11 -35 23 -47 22 -22 24
-53 6 -84 -4 -7 -4 -10 1 -6 4 4 14 0 21 -9 10 -14 9 -23 -2 -45 -8 -15 -12
-33 -11 -40 2 -7 2 -10 0 -5 -3 4 -9 7 -14 7 -5 0 -8 -3 -8 -7 3 -19 -2 -34
-9 -29 -5 3 -15 -6 -22 -19 -7 -14 -22 -27 -32 -31 -10 -3 -16 -9 -13 -14 3
-4 -3 -6 -13 -4 -9 3 -38 -6 -65 -20 -41 -22 -47 -23 -47 -8 0 10 -3 13 -8 7
-4 -6 -18 -10 -32 -10 -14 0 -28 -4 -32 -9 -4 -6 -13 -4 -24 5 -9 8 -20 12
-23 10 -3 -2 -16 -7 -29 -12 -19 -7 -24 -5 -32 14 -5 13 -9 16 -10 7 0 -12 -3
-11 -11 3 -6 9 -14 15 -19 12 -5 -3 -11 -1 -15 5 -4 6 -11 8 -16 4 -5 -3 -8
-2 -7 3 2 4 0 8 -4 8 -3 0 -17 10 -30 22 -17 16 -38 22 -75 24 -29 1 -53 6
-53 11 0 4 -3 7 -7 7 -21 -3 -34 2 -28 11 4 6 12 7 18 4 7 -4 8 -3 4 2 -4 4
-19 9 -32 10 -18 1 -25 -4 -25 -17 0 -10 -4 -21 -10 -24 -5 -3 -10 -1 -10 5 0
6 -4 9 -9 5 -5 -3 -12 -1 -15 4 -4 5 -1 13 5 17 8 5 9 3 4 -7 -5 -8 -5 -11 -1
-7 10 9 4 22 -12 25 -8 1 -11 -1 -8 -4 11 -11 -16 -33 -41 -33 -13 0 -22 -4
-19 -8 3 -5 -1 -9 -9 -9 -10 0 -12 4 -5 12 5 7 6 16 2 20 -4 5 -2 5 5 1 6 -3
14 -3 17 2 3 5 0 9 -7 10 -44 4 -57 8 -57 19 0 6 5 15 10 18 6 4 8 11 4 16 -3
5 -10 7 -15 3 -5 -3 -6 -10 -3 -16 4 -7 2 -8 -5 -4 -6 4 -9 12 -6 17 4 5 -2 9
-12 10 -16 0 -16 1 2 8 11 5 23 7 27 5 4 -3 10 1 14 8 4 7 4 10 -1 6 -4 -4
-15 -2 -23 5 -9 6 -13 7 -9 1 3 -6 0 -11 -8 -11 -19 0 -19 0 7 23 12 10 19 14
15 8 -3 -6 0 -11 7 -11 7 0 13 6 13 13 0 7 -3 12 -6 10 -3 -2 -15 0 -26 5 -15
5 -16 8 -4 8 24 1 53 37 38 47 -8 5 -10 3 -4 -6 5 -9 4 -11 -4 -6 -6 4 -9 12
-5 17 3 5 9 7 14 4 5 -3 18 7 29 21 12 15 21 22 21 17 0 -5 -5 -14 -10 -19 -7
-7 -6 -11 4 -11 8 0 13 4 10 8 -2 4 6 18 18 30 13 12 18 19 11 15 -6 -3 -15
-1 -19 5 -5 8 3 10 25 7 18 -3 31 0 31 6 0 7 3 7 8 1 10 -14 32 -17 32 -5 0 5
-6 10 -12 11 -7 0 -5 4 6 8 24 9 78 2 70 -10 -3 -5 2 -9 11 -9 9 0 14 4 11 8
-3 5 7 8 22 7 17 -1 26 -7 24 -15 -3 -11 0 -11 12 0 19 15 21 24 4 14 -7 -4
-8 -3 -4 5 4 6 12 9 17 5 6 -3 18 -2 27 2 9 4 28 9 42 11 14 2 39 10 56 18 17
8 42 17 55 19 13 3 24 5 24 6 0 1 25 4 55 7 30 2 57 6 59 9 2 2 11 -2 19 -9
11 -8 14 -8 9 0z m-461 -43 c1 -9 0 -13 -4 -10 -3 4 -7 14 -8 22 -1 9 0 13 4
10 3 -4 7 -14 8 -22z m-2173 -157 l132 -3 -137 -2 -138 -2 2 48 1 47 4 -42 4
-42 132 -4z m214 -179 c-1 -51 -3 -12 -3 87 0 99 2 141 3 93 2 -48 2 -129 0
-180z m633 236 c0 -8 -19 -13 -24 -6 -3 5 1 9 9 9 8 0 15 -2 15 -3z m-60 -19
c-7 -8 -20 -15 -29 -15 -11 0 -8 5 9 14 33 19 35 19 20 1z m6 -31 c-6 -15 -4
-15 11 -3 11 9 14 10 9 2 -4 -8 -1 -13 9 -13 9 0 14 -4 11 -9 -4 -5 0 -12 6
-15 7 -3 4 -4 -7 -3 -23 2 -28 -25 -5 -35 11 -6 10 -7 -5 -7 -38 2 -45 -1 -45
-22 0 -11 4 -18 8 -15 4 2 9 -4 9 -15 1 -15 -2 -17 -15 -10 -9 4 -24 7 -33 6
-9 -2 -16 3 -16 10 0 7 8 12 19 10 10 -2 18 0 18 6 0 5 -10 10 -22 10 l-23 2
23 4 c15 3 22 11 21 26 0 21 -1 21 -9 2 -5 -11 -9 -14 -9 -7 -1 6 -11 12 -23
13 -13 0 -17 3 -10 6 20 8 13 22 -9 18 -20 -4 -20 -3 -5 14 9 10 14 20 11 23
-3 2 2 5 10 5 10 0 12 -4 5 -12 -5 -7 -7 -15 -3 -18 9 -10 34 14 26 26 -3 5
-2 7 3 4 6 -3 16 -2 24 4 21 12 23 11 16 -7z m101 -29 c0 -8 -4 -12 -9 -9 -5
3 -6 10 -3 15 9 13 12 11 12 -6z m-164 -52 c-7 -2 -21 -2 -30 0 -10 3 -4 5 12
5 17 0 24 -2 18 -5z m-1136 -25 c-3 -8 -6 -5 -6 6 -1 11 2 17 5 13 3 -3 4 -12
1 -19z m270 -120 c-2 -29 -3 -8 -3 47 0 55 1 79 3 53 2 -26 2 -71 0 -100z
m190 0 c-2 -29 -3 -8 -3 47 0 55 1 79 3 53 2 -26 2 -71 0 -100z m654 95 c13
-16 12 -17 -3 -4 -10 7 -18 15 -18 17 0 8 8 3 21 -13z m-13 -38 c-3 -3 -9 2
-12 12 -6 14 -5 15 5 6 7 -7 10 -15 7 -18z m-1101 -37 c-3 -8 -6 -5 -6 6 -1
11 2 17 5 13 3 -3 4 -12 1 -19z m0 -155 c-3 -10 -5 -4 -5 12 0 17 2 24 5 18 2
-7 2 -21 0 -30z m0 -125 c-3 -8 -6 -5 -6 6 -1 11 2 17 5 13 3 -3 4 -12 1 -19z
m28 -38 c10 -11 16 -20 13 -20 -3 0 -13 9 -23 20 -10 11 -16 20 -13 20 3 0 13
-9 23 -20z m1005 17 c0 -2 -10 -12 -22 -23 l-23 -19 19 23 c18 21 26 27 26 19z
m-953 -43 c-3 -3 -12 -4 -19 -1 -8 3 -5 6 6 6 11 1 17 -2 13 -5z m500 0 c-3
-3 -12 -4 -19 -1 -8 3 -5 6 6 6 11 1 17 -2 13 -5z m400 0 c-3 -3 -12 -4 -19
-1 -8 3 -5 6 6 6 11 1 17 -2 13 -5z"/>
<path d="M1405 2920 c-4 -6 6 -10 22 -10 22 0 25 2 13 10 -19 12 -27 12 -35 0z"/>
<path d="M3410 2781 c0 -5 9 -7 20 -4 11 3 20 7 20 9 0 2 -9 4 -20 4 -11 0
-20 -4 -20 -9z"/>
<path d="M4100 2569 c0 -5 5 -7 10 -4 6 3 10 8 10 11 0 2 -4 4 -10 4 -5 0 -10
-5 -10 -11z"/>
<path d="M3492 2498 c2 -6 10 -13 16 -14 7 -1 8 0 2 3 -5 2 -8 9 -4 14 3 5 0
9 -6 9 -7 0 -10 -5 -8 -12z"/>
<path d="M2039 2669 c-8 -38 -7 -41 12 -36 18 5 18 3 7 -11 -8 -11 -5 -10 10
3 17 14 20 21 10 24 -7 2 -19 8 -25 14 -7 5 -13 8 -14 6z"/>
</g>
</svg>
