<?xml version="1.0" standalone="no"?>
<!DOCTYPE svg PUBLIC "-//W3C//DTD SVG 20010904//EN"
 "http://www.w3.org/TR/2001/REC-SVG-20010904/DTD/svg10.dtd">
<svg version="1.0" xmlns="http://www.w3.org/2000/svg"
 width="500.000000pt" height="500.000000pt" viewBox="0 0 500.000000 500.000000"
 preserveAspectRatio="xMidYMid meet">
<metadata>
Created by potrace 1.16, written by Peter Selinger 2001-2019
</metadata>
<g transform="translate(0.000000,500.000000) scale(0.100000,-0.100000)"
fill="#000000" stroke="none">
<path d="M0 2500 l0 -2500 2500 0 2500 0 0 2500 0 2500 -2500 0 -2500 0 0
-2500z m3835 350 c5 8 10 8 20 0 8 -7 15 -7 19 -1 4 6 16 5 32 -4 19 -9 34
-11 53 -4 24 9 25 8 7 -6 -11 -8 -14 -15 -7 -15 7 0 9 -4 6 -10 -3 -5 1 -10 9
-10 9 0 16 -4 16 -9 0 -5 9 -13 21 -16 12 -4 18 -12 15 -21 -3 -7 0 -16 6 -20
7 -5 8 -2 3 6 -5 9 -4 11 4 6 9 -6 9 -11 1 -21 -8 -10 -5 -17 12 -29 12 -9 18
-16 12 -16 -6 0 -11 -7 -11 -15 0 -8 6 -15 12 -15 6 0 12 -7 12 -15 0 -8 -7
-15 -15 -15 -12 0 -12 -4 3 -20 17 -19 17 -19 -4 -15 -12 2 -19 0 -16 -6 4 -5
10 -7 14 -5 4 3 13 1 21 -5 12 -7 10 -9 -9 -9 -17 0 -21 -3 -14 -12 17 -23 8
-43 -22 -49 -21 -5 -24 -7 -10 -9 15 -2 12 -4 -10 -10 -16 -4 -22 -8 -12 -9
10 0 16 -5 12 -10 -3 -6 -14 -8 -25 -6 -13 2 -20 -2 -20 -11 0 -9 5 -12 13 -8
7 4 9 3 4 -2 -5 -5 -14 -9 -20 -9 -7 -1 -11 -6 -9 -13 1 -7 -2 -12 -8 -12 -5
0 -10 4 -10 9 0 6 -9 8 -20 6 -11 -2 -18 0 -15 6 4 5 1 9 -4 9 -6 0 -11 -9
-11 -21 0 -11 -4 -17 -10 -14 -5 3 -10 2 -10 -3 0 -6 -6 -12 -13 -15 -8 -3
-14 1 -14 9 0 7 5 10 10 7 6 -3 7 -1 3 6 -4 6 -13 8 -19 4 -7 -4 -21 -8 -32
-8 -11 -1 -19 -7 -17 -14 1 -7 -2 -10 -8 -6 -6 3 -8 10 -5 15 3 5 0 12 -6 16
-7 4 -9 3 -5 -4 3 -6 2 -13 -3 -16 -5 -4 -13 -2 -16 4 -5 8 -11 7 -21 -1 -11
-9 -15 -8 -20 6 -5 13 -9 14 -15 3 -7 -11 -9 -11 -9 1 0 8 -6 11 -17 7 -10 -4
-14 -4 -11 0 12 11 -16 33 -29 23 -14 -12 -27 6 -19 26 3 9 -1 12 -14 10 -19
-4 -35 10 -35 30 0 6 -6 10 -14 10 -8 0 -15 8 -17 18 -4 26 -10 31 -18 12 -4
-11 -2 -14 6 -9 7 4 8 3 4 -5 -5 -8 -12 -9 -19 -3 -7 5 -19 8 -27 7 -17 -3
-19 32 -4 69 5 14 4 17 -5 12 -9 -6 -12 -1 -9 15 3 22 0 24 -34 23 -40 -2 -51
10 -18 19 11 3 18 2 16 -2 -3 -4 6 -7 19 -7 13 0 21 4 18 10 -3 5 -1 6 5 2 6
-3 9 -15 7 -26 -5 -24 10 -27 19 -4 3 8 10 13 14 10 5 -3 8 7 6 22 -1 15 -2
33 -3 40 -1 6 -4 11 -8 11 -5 -1 -15 -1 -23 0 -12 1 -11 4 3 12 14 8 16 14 6
25 -6 7 -16 11 -22 7 -6 -4 -7 -1 -3 6 6 9 12 9 24 -2 10 -8 25 -13 34 -12 10
2 21 -2 25 -7 4 -7 1 -8 -7 -3 -9 6 -11 4 -5 -5 5 -8 4 -11 -3 -6 -6 3 -13 2
-16 -3 -4 -5 -2 -12 3 -15 5 -4 12 -2 16 4 4 6 11 8 16 4 5 -3 8 0 7 7 -2 7 3
14 10 15 6 1 15 3 20 4 4 1 11 2 15 1 5 -1 6 3 3 8 -4 5 0 16 8 24 8 8 12 18
8 22 -4 5 -1 5 6 1 11 -6 11 -11 0 -24 -11 -13 -11 -14 2 -7 8 6 20 10 25 10
6 0 10 7 10 15 0 9 9 15 23 14 12 -1 22 4 22 10 0 7 12 11 30 10 17 -1 30 2
30 6 0 5 9 7 20 5 11 -2 20 1 20 7 0 7 5 6 14 -1 10 -9 16 -9 21 -1z m-210 -9
c3 -5 2 -12 -3 -15 -5 -3 -9 1 -9 9 0 17 3 19 12 6z m-2667 -57 c13 -13 19
-24 15 -24 -4 0 7 -8 25 -16 22 -12 32 -24 32 -39 0 -13 9 -44 20 -70 11 -26
20 -55 20 -65 0 -10 8 -21 18 -24 10 -3 18 -16 19 -28 1 -13 9 -28 18 -34 10
-7 14 -25 13 -50 l-1 -39 -4 37 c-4 34 -6 37 -31 33 -82 -12 -107 -13 -118 -4
-19 15 -55 7 -68 -15 -6 -11 -18 -28 -26 -38 -8 -10 -18 -35 -21 -56 -3 -20
-7 66 -8 193 -1 226 -1 230 22 251 25 24 42 21 75 -12z m2609 9 c-4 -3 -2 -12
4 -20 6 -7 10 -13 8 -14 -31 -6 -39 -6 -39 2 0 5 4 9 10 9 5 0 7 7 4 15 -4 8
-1 15 7 15 7 0 9 -3 6 -7z m-182 -43 c-8 -9 -13 -19 -10 -22 3 -2 -2 -5 -10
-5 -20 0 -19 13 1 21 8 3 13 10 10 14 -3 5 1 9 9 9 13 0 13 -3 0 -17z m60 -10
c3 -5 1 -10 -4 -10 -6 0 -11 5 -11 10 0 6 2 10 4 10 3 0 8 -4 11 -10z m-131
-28 c3 -5 -1 -9 -9 -9 -8 0 -15 4 -15 9 0 4 4 8 9 8 6 0 12 -4 15 -8z m100 1
c4 -5 12 -9 17 -9 5 -1 11 -3 14 -4 3 -1 15 -3 27 -4 26 -1 32 -30 10 -48 -9
-7 -13 -8 -9 -2 4 7 0 17 -7 23 -10 9 -16 9 -21 1 -4 -7 -11 -8 -18 -2 -7 5
-19 8 -28 7 -9 -2 -16 3 -16 11 0 7 3 13 6 12 19 -2 24 4 11 12 -8 5 -10 10
-4 10 6 0 14 -3 18 -7z m-87 -48 c0 -20 -4 -19 -17 5 -8 15 -8 18 3 14 8 -3
14 -11 14 -19z m-1417 -14 c3 -3 3 -112 0 -241 -5 -225 -6 -228 -8 -71 -1 90
-5 162 -8 158 -3 -3 -17 -1 -31 4 -14 5 -69 12 -123 15 l-99 6 -4 -59 c-2 -32
-3 -16 -1 36 4 99 13 122 44 114 11 -3 20 0 20 6 0 6 7 11 15 11 8 0 15 -5 15
-12 0 -6 7 -3 15 8 8 10 15 15 15 11 0 -5 11 0 25 11 19 15 35 19 72 15 27 -3
50 -8 53 -12z m1387 12 c-11 -10 24 -43 37 -36 19 13 33 11 33 -3 0 -10 -4
-11 -12 -4 -15 12 -39 -12 -27 -26 4 -4 0 -3 -8 3 -8 6 -19 12 -25 13 -5 1
-12 4 -15 7 -3 4 1 3 8 -1 7 -4 12 -1 12 8 0 8 -5 16 -12 18 -11 4 -3 28 9 28
4 0 3 -3 0 -7z m-1943 -19 c4 -10 13 -14 22 -10 8 3 12 2 9 -4 -3 -6 -1 -10 4
-10 16 0 13 -102 -3 -123 -12 -15 -14 -16 -20 -2 -3 8 -12 15 -20 15 -11 0
-16 -15 -19 -57 -2 -32 -4 -14 -3 40 l1 97 -85 0 c-79 0 -86 2 -87 21 -1 13 4
20 15 18 30 -3 35 1 23 15 -9 11 3 14 73 15 68 0 85 -2 90 -15z m196 -83 c0
-36 -3 -40 -30 -46 -29 -6 -30 -9 -30 -62 0 -31 -3 -54 -6 -50 -3 3 -3 56 1
116 l7 110 29 -15 c24 -12 29 -21 29 -53z m1865 39 c-3 -5 -1 -10 6 -10 7 0
10 -3 6 -6 -9 -9 -28 6 -22 17 4 5 8 9 11 9 3 0 2 -4 -1 -10z m32 -37 c0 -16
-2 -22 -4 -15 -3 6 -9 9 -15 6 -5 -3 -4 3 4 15 7 12 13 21 14 21 1 0 1 -12 1
-27z m-92 7 c3 -5 2 -10 -4 -10 -5 0 -13 5 -16 10 -3 6 -2 10 4 10 5 0 13 -4
16 -10z m52 -32 c-3 -8 -6 -5 -6 6 -1 11 2 17 5 13 3 -3 4 -12 1 -19z m-20
-12 c0 -8 -6 -12 -15 -9 -11 5 -11 7 0 14 7 5 13 9 14 9 0 0 1 -6 1 -14z m93
-20 c0 -3 -4 -8 -10 -11 -5 -3 -10 -1 -10 4 0 6 5 11 10 11 6 0 10 -2 10 -4z
m50 -23 c0 -7 3 -12 8 -10 4 1 8 -2 10 -7 1 -6 -5 -11 -14 -12 -9 -1 -13 0
-10 3 3 4 -1 14 -9 23 -13 15 -13 17 0 17 8 0 15 -6 15 -14z m-2663 -295 c-3
-8 -6 -5 -6 6 -1 11 2 17 5 13 3 -3 4 -12 1 -19z m28 -38 c10 -11 16 -20 13
-20 -3 0 -13 9 -23 20 -10 11 -16 20 -13 20 3 0 13 -9 23 -20z m1005 17 c0 -2
-10 -12 -22 -23 l-23 -19 19 23 c18 21 26 27 26 19z m-953 -43 c-3 -3 -12 -4
-19 -1 -8 3 -5 6 6 6 11 1 17 -2 13 -5z m900 0 c-3 -3 -12 -4 -19 -1 -8 3 -5
6 6 6 11 1 17 -2 13 -5z"/>
<path d="M3489 2733 c-13 -16 -12 -17 4 -4 16 13 21 21 13 21 -2 0 -10 -8 -17
-17z"/>
<path d="M3470 2580 c0 -5 7 -10 16 -10 8 0 12 5 9 10 -3 6 -10 10 -16 10 -5
0 -9 -4 -9 -10z"/>
<path d="M3471 2544 c0 -11 3 -14 6 -6 3 7 2 16 -1 19 -3 4 -6 -2 -5 -13z"/>
<path d="M3491 2544 c0 -11 3 -14 6 -6 3 7 2 16 -1 19 -3 4 -6 -2 -5 -13z"/>
<path d="M3920 2430 c0 -4 7 -7 15 -6 23 3 26 12 5 13 -11 1 -20 -2 -20 -7z"/>
<path d="M3406 2691 c-3 -4 6 -7 19 -7 14 0 22 2 19 5 -8 8 -34 10 -38 2z"/>
<path d="M3460 2685 c0 -2 6 -8 13 -14 10 -8 14 -7 14 2 0 8 -6 14 -14 14 -7
0 -13 -1 -13 -2z"/>
</g>
</svg>
