<?xml version="1.0" standalone="no"?>
<!DOCTYPE svg PUBLIC "-//W3C//DTD SVG 20010904//EN"
 "http://www.w3.org/TR/2001/REC-SVG-20010904/DTD/svg10.dtd">
<svg version="1.0" xmlns="http://www.w3.org/2000/svg"
 width="500.000000pt" height="500.000000pt" viewBox="0 0 500.000000 500.000000"
 preserveAspectRatio="xMidYMid meet">
<metadata>
Created by potrace 1.16, written by Peter Selinger 2001-2019
</metadata>
<g transform="translate(0.000000,500.000000) scale(0.100000,-0.100000)"
fill="#000000" stroke="none">
<path d="M0 2500 l0 -2500 2500 0 2500 0 0 2500 0 2500 -2500 0 -2500 0 0
-2500z m3965 340 c6 -5 16 -6 20 -2 5 4 5 2 2 -4 -4 -6 2 -19 13 -29 11 -10
20 -14 20 -10 0 5 5 4 12 -3 13 -13 21 -45 9 -37 -4 2 -8 -2 -8 -10 0 -8 4
-12 9 -9 4 3 8 -5 9 -18 0 -22 1 -22 10 -3 8 17 9 16 6 -7 -2 -15 -1 -25 3
-23 4 3 14 -3 21 -12 10 -12 10 -15 1 -9 -21 13 -26 -23 -6 -40 11 -9 13 -13
7 -9 -8 4 -13 -1 -14 -14 -1 -12 -3 -25 -4 -31 -1 -5 -3 -12 -4 -15 -2 -11 5
-20 14 -17 6 1 2 -4 -7 -11 -10 -8 -15 -17 -11 -20 3 -4 0 -7 -8 -7 -11 0 -11
-2 1 -10 13 -8 13 -10 -2 -10 -9 0 -20 -9 -23 -20 -3 -11 -11 -20 -17 -20 -6
0 -5 7 3 18 7 9 -1 4 -19 -12 -26 -25 -30 -32 -19 -45 11 -14 10 -14 -5 -2
-10 7 -15 17 -12 22 3 5 -2 6 -10 3 -9 -3 -13 -10 -10 -15 3 -5 0 -9 -6 -9 -6
0 -8 -4 -5 -10 3 -5 1 -10 -4 -10 -6 0 -11 6 -12 13 0 10 -2 10 -6 0 -2 -7
-11 -13 -18 -13 -7 0 -16 6 -19 13 -3 8 -9 7 -20 -7 -8 -10 -13 -23 -9 -29 3
-6 1 -7 -6 -3 -6 4 -9 11 -6 16 3 4 -13 7 -35 5 -22 -1 -51 3 -65 11 -24 12
-29 10 -26 -10 1 -5 -5 -4 -13 4 -19 15 -21 24 -3 14 7 -5 6 0 -3 11 -13 16
-15 16 -18 2 -3 -14 -5 -14 -22 0 -10 9 -17 20 -14 24 2 4 -4 6 -13 4 -10 -2
-20 -4 -22 -4 -2 -1 4 -11 15 -23 l19 -23 -22 18 c-12 11 -19 25 -16 33 3 8 0
14 -6 14 -6 0 -25 16 -42 35 -18 19 -36 32 -40 29 -5 -3 -9 3 -10 13 0 14 -2
15 -7 3 -9 -20 -32 -24 -32 -4 0 8 4 13 8 10 5 -3 9 1 9 8 0 7 -6 13 -13 13
-7 0 -11 -12 -10 -27 2 -32 -36 -57 -54 -35 -6 8 -18 11 -26 8 -14 -5 -16 0
-16 48 -1 27 -11 31 -36 15 -11 -6 -10 -11 2 -25 9 -10 13 -21 9 -26 -5 -4 -2
-5 5 -1 6 4 12 2 12 -3 0 -6 -7 -11 -15 -11 -8 0 -15 8 -15 18 0 9 -4 13 -8 7
-4 -5 -18 -11 -32 -13 -20 -2 -22 -1 -10 8 13 9 13 11 1 19 -11 7 -12 13 -4
23 12 13 13 16 14 46 0 14 2 14 8 -3 5 -11 5 -27 0 -36 -4 -8 -3 -22 3 -30 8
-12 9 -11 5 2 -6 19 20 62 33 54 5 -3 11 -1 15 5 4 6 10 8 15 5 5 -3 11 -1 14
3 3 5 -7 8 -22 7 -36 -3 -45 4 -31 21 8 10 15 11 24 4 9 -7 16 -5 26 7 13 16
12 17 -3 4 -16 -12 -19 -10 -27 10 -6 18 -4 29 8 44 15 18 15 19 -1 7 -11 -9
-18 -10 -23 -2 -3 5 0 10 7 10 9 0 9 3 -2 11 -12 8 -10 9 10 7 31 -4 42 -28
24 -49 -12 -13 -12 -16 0 -16 8 0 14 5 13 11 -1 6 12 11 28 10 27 0 30 3 32
30 1 24 -1 26 -9 13 -11 -20 -28 -13 -28 10 0 9 3 13 7 10 3 -4 12 -2 20 4 7
6 13 9 13 5 0 -3 12 -1 26 4 16 7 23 7 19 0 -3 -6 -1 -10 4 -10 6 0 11 5 11
10 0 18 30 11 31 -7 0 -14 2 -14 9 3 5 12 13 25 19 29 6 3 8 12 4 18 -4 7 1 6
10 -2 14 -11 15 -17 5 -30 -11 -14 -11 -14 3 -4 9 7 20 9 24 5 5 -4 5 -2 1 5
-3 7 2 14 14 18 18 6 19 9 8 23 -9 12 -6 11 10 -2 14 -12 22 -15 22 -6 0 7 7
10 16 6 8 -3 12 -2 9 4 -3 5 9 13 27 18 42 11 237 5 253 -8z m-3027 -13 c10
-9 31 -18 46 -19 18 -2 28 -9 32 -25 6 -21 9 -22 146 -22 77 0 143 -2 146 -6
3 -3 -34 -5 -81 -5 l-87 0 0 -40 0 -39 133 -4 132 -3 -137 -2 -138 -2 0 45 0
45 -50 0 c-30 0 -68 -8 -94 -20 -24 -12 -47 -20 -52 -19 -31 6 -63 -3 -67 -18
-3 -10 -5 17 -6 59 -1 62 2 79 16 86 22 13 38 10 61 -11z m2427 -36 c-3 -5 2
-17 11 -25 8 -9 12 -16 8 -16 -4 0 1 -9 11 -20 10 -11 22 -17 28 -13 5 3 7 1
4 -5 -13 -20 -39 -5 -57 34 -17 35 -18 54 -4 54 3 0 3 -4 -1 -9z m-1821 -82
c3 -3 -7 -5 -24 -4 l-30 2 -2 -156 -2 -156 -3 150 c-2 82 -2 154 1 160 4 11
50 14 60 4z m1742 -12 c8 3 14 0 14 -7 0 -6 -4 -9 -8 -6 -5 3 -6 -9 -3 -27 5
-32 6 -32 9 -4 2 15 8 25 13 22 5 -3 6 1 3 9 -3 9 -2 16 3 16 15 0 13 -47 -2
-60 -11 -9 -12 -16 -5 -25 7 -8 7 -16 2 -19 -6 -3 -12 4 -16 16 -6 26 -23 15
-29 -17 -4 -29 -16 -45 -34 -45 -13 0 -13 3 -3 15 7 8 17 12 24 8 6 -4 5 1 -3
10 -11 14 -11 17 0 17 12 0 12 2 1 9 -8 4 -13 12 -11 17 1 5 -9 15 -22 22
l-24 12 25 -3 c34 -4 52 -16 44 -30 -4 -7 -3 -9 1 -4 5 4 10 18 12 30 3 18 1
19 -8 7 -9 -12 -10 -11 -6 7 4 20 2 21 -21 12 -20 -8 -23 -7 -14 4 9 10 8 17
-1 26 -7 7 -1 6 17 -3 16 -8 35 -12 42 -9z m-1512 -26 c19 -8 26 -6 30 6 6 14
8 14 25 -1 10 -10 21 -13 22 -8 2 6 18 12 34 15 l30 5 -5 -97 c-4 -91 -5 -92
-8 -28 -2 43 -7 68 -15 69 -22 2 -32 5 -50 13 -9 4 -26 5 -37 2 -11 -3 -20 -2
-20 3 0 7 -60 25 -112 33 l-28 4 -2 -146 -2 -146 -3 140 c-2 76 -2 144 1 151
5 12 92 3 140 -15z m337 -38 c13 -16 12 -17 -3 -4 -10 7 -18 15 -18 17 0 8 8
3 21 -13z m1125 -18 c1 -8 -2 -15 -7 -15 -5 0 -9 -5 -9 -11 0 -5 5 -7 12 -3 7
4 8 3 4 -4 -4 -7 -14 -12 -21 -12 -11 0 -12 6 -5 25 5 14 7 25 4 25 -3 0 -2 5
1 11 8 12 18 5 21 -16z m-2099 -167 c-2 -29 -3 -8 -3 47 0 55 1 79 3 53 2 -26
2 -71 0 -100z m190 0 c-2 -29 -3 -8 -3 47 0 55 1 79 3 53 2 -26 2 -71 0 -100z
m2023 95 c0 -13 -3 -13 -15 -3 -8 7 -12 16 -9 21 8 13 24 1 24 -18z m158 -50
c-8 -10 -14 -11 -25 -1 -8 6 -13 7 -12 2 3 -18 -1 -25 -11 -19 -17 11 6 31 34
31 20 0 23 -3 14 -13z m-1601 -25 c-3 -8 -6 -5 -6 6 -1 11 2 17 5 13 3 -3 4
-12 1 -19z m1654 -25 c13 -16 12 -17 -3 -4 -17 13 -22 21 -14 21 2 0 10 -8 17
-17z m-1654 -15 c-3 -8 -6 -5 -6 6 -1 11 2 17 5 13 3 -3 4 -12 1 -19z m0 -240
c-3 -8 -6 -5 -6 6 -1 11 2 17 5 13 3 -3 4 -12 1 -19z m-1012 -38 c10 -11 16
-20 13 -20 -3 0 -13 9 -23 20 -10 11 -16 20 -13 20 3 0 13 -9 23 -20z m1005
17 c0 -2 -10 -12 -22 -23 l-23 -19 19 23 c18 21 26 27 26 19z m-953 -43 c-3
-3 -12 -4 -19 -1 -8 3 -5 6 6 6 11 1 17 -2 13 -5z"/>
<path d="M3766 2839 c4 -8 30 -6 38 2 3 3 -5 5 -19 5 -13 0 -22 -3 -19 -7z"/>
<path d="M3454 2735 c0 -12 6 -22 13 -22 7 0 11 3 8 5 -3 3 0 11 6 19 6 7 10
13 8 14 -32 6 -35 5 -35 -16z"/>
<path d="M3399 2603 c-13 -16 -12 -17 4 -4 16 13 21 21 13 21 -2 0 -10 -8 -17
-17z"/>
<path d="M3372 2542 c-3 -41 4 -41 12 1 2 14 1 29 -3 31 -4 3 -8 -12 -9 -32z"/>
<path d="M3396 2543 c-4 -10 -2 -19 3 -21 6 -2 11 -11 11 -19 0 -13 3 -13 15
-3 8 7 15 18 15 24 0 6 -5 4 -11 -4 -8 -12 -9 -10 -7 9 4 29 -17 39 -26 14z"/>
</g>
</svg>
