<?xml version="1.0" standalone="no"?>
<!DOCTYPE svg PUBLIC "-//W3C//DTD SVG 20010904//EN"
 "http://www.w3.org/TR/2001/REC-SVG-20010904/DTD/svg10.dtd">
<svg version="1.0" xmlns="http://www.w3.org/2000/svg"
 width="500.000000pt" height="500.000000pt" viewBox="0 0 500.000000 500.000000"
 preserveAspectRatio="xMidYMid meet">
<metadata>
Created by potrace 1.16, written by Peter Selinger 2001-2019
</metadata>
<g transform="translate(0.000000,500.000000) scale(0.100000,-0.100000)"
fill="#000000" stroke="none">
<path d="M0 2500 l0 -2500 2500 0 2500 0 0 2500 0 2500 -2500 0 -2500 0 0
-2500z m3825 350 c-4 -7 3 -7 19 0 18 6 26 6 26 -1 0 -6 5 -7 11 -3 16 10 132
-27 120 -39 -13 -13 9 -35 29 -30 11 3 15 -5 17 -34 1 -21 7 -39 12 -41 6 -2
11 -15 11 -28 0 -13 6 -24 13 -24 8 0 9 -3 1 -8 -6 -4 -11 -26 -10 -50 0 -25
-5 -47 -13 -51 -9 -6 -10 -11 -2 -15 7 -5 4 -14 -9 -28 -11 -12 -17 -24 -15
-28 3 -4 -4 -10 -15 -13 -11 -3 -20 0 -20 6 0 7 -11 -5 -24 -25 -16 -28 -25
-35 -34 -26 -8 8 -9 5 -5 -13 l6 -24 -27 25 c-16 15 -25 18 -21 9 5 -12 -1
-16 -25 -17 -19 0 -28 3 -24 10 4 7 2 8 -4 4 -7 -4 -12 -14 -12 -23 0 -13 -2
-14 -17 -2 -11 10 -14 10 -9 2 5 -9 -1 -13 -19 -13 -14 0 -24 4 -20 9 3 5 0
13 -6 17 -7 4 -9 3 -5 -4 3 -6 2 -13 -4 -17 -5 -3 -10 0 -10 8 0 11 -7 13 -22
9 -13 -3 -19 -1 -15 6 8 11 -18 11 -29 -1 -13 -13 -26 -7 -20 9 3 8 2 12 -4 9
-5 -3 -15 3 -21 14 -7 11 -19 17 -27 13 -10 -3 -13 -1 -8 6 5 8 2 10 -9 6 -12
-5 -16 -2 -13 12 2 13 -4 20 -20 22 -12 2 -20 8 -17 13 4 5 1 9 -4 9 -6 0 -11
7 -11 16 0 14 -1 14 -16 0 -18 -18 -36 -20 -50 -6 -5 5 -21 11 -34 13 -30 5
-54 45 -38 64 16 19 31 4 16 -15 -12 -15 -11 -16 5 -3 21 17 21 14 -4 37 -11
10 -20 14 -19 9 5 -22 -1 -27 -17 -14 -9 8 -18 13 -20 12 -1 -2 -3 0 -3 5 0 4
5 7 12 7 6 0 12 8 14 18 1 9 -2 15 -7 11 -5 -3 -6 -11 -2 -17 4 -8 1 -7 -9 1
-10 8 -19 9 -22 3 -3 -5 -15 -7 -26 -4 -11 3 -17 10 -14 15 3 5 9 7 12 4 3 -4
17 4 31 16 14 13 20 16 13 7 -17 -23 -2 -32 20 -12 10 9 29 18 41 20 12 2 32
13 44 25 28 26 32 5 6 -26 -17 -20 -17 -20 1 -6 10 8 22 25 27 37 5 13 12 23
16 22 23 -4 43 2 40 13 -1 6 14 19 33 29 32 16 36 16 42 1 5 -14 7 -14 8 -2 2
8 1 22 0 30 -1 11 2 10 13 -4 10 -13 16 -15 21 -8 4 7 18 12 32 12 14 0 22 4
19 10 -7 11 -8 11 58 15 27 2 51 6 54 9 10 10 15 7 8 -4z m-2883 -39 c9 0 19
-9 23 -19 3 -11 16 -24 30 -30 17 -8 28 -25 36 -56 l11 -44 168 -4 c129 -2
172 -6 182 -17 11 -12 10 -13 -7 -6 -11 4 -97 10 -191 12 -142 5 -177 3 -202
-10 -17 -8 -49 -18 -72 -22 -22 -4 -44 -14 -50 -23 -11 -19 -14 144 -4 196 5
26 10 30 33 27 14 -1 34 -3 43 -4z m2508 -51 c0 -5 -8 -10 -17 -10 -15 0 -16
2 -3 10 19 12 20 12 20 0z m-85 -31 c-4 -5 2 -9 12 -10 11 0 13 -3 5 -6 -16
-6 -44 16 -36 28 3 5 10 7 15 3 5 -3 7 -10 4 -15z m62 5 c-3 -3 -12 -4 -19 -1
-8 3 -5 6 6 6 11 1 17 -2 13 -5z m-1552 -66 l35 -1 -2 -176 c-2 -166 -3 -169
-5 -43 l-4 132 -25 0 c-14 0 -33 4 -43 10 -10 5 -44 12 -77 15 -32 3 -71 8
-86 11 l-27 5 -4 -113 -3 -113 -2 113 c-1 83 1 114 11 117 28 9 86 12 81 4 -3
-5 0 -9 6 -9 6 0 13 7 17 16 4 11 14 14 32 10 14 -3 20 -3 12 1 -10 4 -8 9 10
18 13 7 27 11 31 9 4 -3 23 -5 43 -6z m-385 -150 l-5 -123 -3 109 c-2 97 1
136 10 136 2 0 1 -55 -2 -122z m55 112 c8 -13 -5 -13 -25 0 -13 8 -13 10 2 10
9 0 20 -4 23 -10z m1780 0 c-5 -8 22 -35 34 -35 3 0 7 -9 8 -19 2 -11 8 -25
13 -31 7 -8 3 -18 -12 -31 -13 -12 -18 -13 -13 -4 15 24 14 40 -1 40 -9 0 -13
-4 -10 -8 2 -4 -12 -8 -32 -9 -26 0 -29 1 -10 4 15 2 26 10 24 16 -1 7 -1 9 1
5 6 -9 33 2 33 14 0 5 -5 6 -12 2 -6 -4 -8 -3 -4 4 10 17 -10 23 -24 7 -7 -8
-20 -15 -29 -14 -11 0 -9 3 7 9 30 13 28 17 -6 12 -21 -3 -29 0 -29 12 0 9 7
16 14 16 8 0 12 -4 9 -9 -4 -5 3 -7 14 -4 12 3 18 8 15 11 -11 11 -48 12 -60
2 -13 -10 -30 1 -19 12 8 8 94 6 89 -2z m-2188 -182 c-2 -29 -3 -8 -3 47 0 55
1 79 3 53 2 -26 2 -71 0 -100z m190 0 c-2 -29 -3 -8 -3 47 0 55 1 79 3 53 2
-26 2 -71 0 -100z m2240 26 c-3 -3 -12 -4 -19 -1 -8 3 -5 6 6 6 11 1 17 -2 13
-5z m-1660 -201 c-3 -10 -5 -4 -5 12 0 17 2 24 5 18 2 -7 2 -21 0 -30z m0 -85
c-3 -8 -6 -5 -6 6 -1 11 2 17 5 13 3 -3 4 -12 1 -19z m-1012 -38 c10 -11 16
-20 13 -20 -3 0 -13 9 -23 20 -10 11 -16 20 -13 20 3 0 13 -9 23 -20z m1005
17 c0 -2 -10 -12 -22 -23 l-23 -19 19 23 c18 21 26 27 26 19z m-953 -43 c-3
-3 -12 -4 -19 -1 -8 3 -5 6 6 6 11 1 17 -2 13 -5z"/>
<path d="M3570 2782 c-8 -4 -17 -16 -18 -27 -2 -11 -2 -18 0 -15 2 3 12 15 22
28 20 23 20 25 -4 14z"/>
<path d="M3376 2681 c-4 -5 -2 -12 3 -15 5 -4 12 -2 15 3 4 5 2 12 -3 15 -5 4
-12 2 -15 -3z"/>
<path d="M3415 2659 c-3 -4 2 -6 10 -5 21 3 28 13 10 13 -9 0 -18 -4 -20 -8z"/>
<path d="M3421 2626 c5 -6 15 -11 22 -11 7 -1 11 -7 9 -14 -1 -7 2 -10 8 -6 8
5 8 11 1 19 -6 7 -9 15 -6 17 2 3 -7 5 -20 5 -18 0 -22 -3 -14 -10z"/>
<path d="M3474 2551 c1 -27 18 -33 24 -9 2 9 0 8 -7 -2 -9 -13 -11 -13 -11 1
0 8 5 20 10 25 7 7 6 11 -3 11 -9 0 -14 -10 -13 -26z"/>
<path d="M3416 2562 c-3 -6 -1 -14 5 -17 15 -10 25 3 12 16 -7 7 -13 7 -17 1z"/>
</g>
</svg>
