<?xml version="1.0" standalone="no"?>
<!DOCTYPE svg PUBLIC "-//W3C//DTD SVG 20010904//EN"
 "http://www.w3.org/TR/2001/REC-SVG-20010904/DTD/svg10.dtd">
<svg version="1.0" xmlns="http://www.w3.org/2000/svg"
 width="500.000000pt" height="500.000000pt" viewBox="0 0 500.000000 500.000000"
 preserveAspectRatio="xMidYMid meet">
<metadata>
Created by potrace 1.16, written by Peter Selinger 2001-2019
</metadata>
<g transform="translate(0.000000,500.000000) scale(0.100000,-0.100000)"
fill="#000000" stroke="none">
<path d="M0 2500 l0 -2500 2500 0 2500 0 0 2500 0 2500 -2500 0 -2500 0 0
-2500z m918 390 c1 -2 6 -3 11 -4 5 0 19 -12 31 -26 12 -14 19 -20 17 -15 -3
6 17 12 47 14 109 8 111 8 112 -17 2 -20 1 -20 -3 -1 -4 19 -9 20 -56 14 -29
-4 -71 -16 -94 -27 -24 -11 -49 -21 -55 -22 -7 -1 -19 -5 -25 -9 -7 -5 -17 -6
-22 -3 -5 4 -12 0 -14 -6 -3 -7 -6 4 -6 24 -1 48 17 87 38 83 9 -2 17 -4 19
-5z m2962 -15 c0 4 7 2 15 -5 8 -7 15 -9 15 -5 0 4 8 1 17 -6 12 -10 15 -10 9
-1 -4 7 9 3 28 -8 20 -11 39 -20 44 -21 4 0 6 -7 4 -15 -2 -8 2 -14 8 -14 5 0
10 -9 10 -20 0 -18 11 -25 33 -21 5 1 6 -7 2 -18 -3 -12 0 -21 10 -25 10 -4
14 -14 11 -31 -3 -14 0 -25 5 -25 5 0 9 -5 9 -11 0 -5 -6 -7 -12 -3 -7 4 -1
-6 15 -23 19 -20 23 -30 13 -30 -8 0 -12 5 -9 10 3 6 1 7 -5 4 -13 -9 -8 -43
6 -40 6 1 9 -5 8 -15 -2 -9 -9 -17 -17 -17 -8 0 -15 -12 -17 -26 -2 -15 -13
-32 -27 -39 -13 -7 -22 -16 -20 -20 5 -8 -20 -29 -63 -53 -18 -10 -32 -14 -32
-9 0 15 -29 10 -46 -9 -16 -18 -54 -15 -54 5 0 6 -5 3 -11 -6 -5 -10 -16 -18
-24 -18 -8 0 -19 8 -25 18 -8 12 -10 13 -7 1 4 -12 -1 -14 -25 -11 -21 3 -26
7 -17 13 10 6 10 9 2 9 -6 0 -14 -4 -17 -9 -3 -5 -15 -7 -26 -4 -12 3 -19 8
-16 10 3 3 -1 11 -7 18 -8 9 -16 10 -24 3 -9 -7 -15 -5 -19 6 -4 10 -12 15
-19 12 -19 -7 -27 5 -13 21 9 11 8 13 -3 11 -8 -2 -13 2 -12 8 1 6 -4 11 -12
11 -8 0 -11 -5 -8 -11 4 -7 1 -7 -8 1 -19 15 -60 20 -78 9 -10 -7 -12 -6 -6 4
6 10 3 12 -13 8 -12 -4 -24 -3 -27 2 -7 12 32 19 43 8 6 -6 12 -6 16 1 4 6 1
11 -6 12 -7 0 -25 2 -40 3 -16 1 -28 -3 -28 -10 0 -6 -7 -11 -15 -11 -8 0 -15
5 -15 11 0 6 -5 4 -10 -4 -6 -10 -10 -11 -10 -2 0 6 -6 12 -14 12 -8 0 -17 -6
-19 -12 -4 -9 -6 -8 -6 2 -1 9 5 22 12 29 10 11 9 12 -3 5 -8 -5 -24 -8 -35
-6 l-20 2 20 -10 c18 -8 17 -9 -7 -7 -15 1 -24 5 -22 9 3 4 -1 8 -10 8 -15 0
-16 16 -1 40 5 9 -1 7 -14 -5 -16 -13 -21 -15 -19 -5 2 8 -3 15 -9 16 -7 1
-16 3 -20 4 -5 1 -11 2 -14 2 -3 -1 -6 5 -6 13 0 8 3 12 7 10 11 -7 47 40 44
58 -1 9 3 20 9 24 7 3 9 3 5 -2 -4 -4 -3 -14 2 -21 8 -8 6 -16 -4 -27 -8 -8
-12 -18 -8 -22 4 -4 2 -5 -3 -3 -5 1 -11 -1 -13 -6 -6 -20 27 -13 49 10 12 13
27 21 33 17 6 -3 7 -2 3 3 -5 5 -13 9 -18 9 -5 0 -9 5 -9 10 0 6 4 10 9 10 5
0 13 4 18 9 4 5 3 6 -3 3 -6 -3 -21 3 -32 14 -12 10 -24 19 -27 19 -7 0 -7 3
1 23 6 17 7 17 19 0 7 -10 11 -21 9 -25 -5 -7 20 -11 30 -5 3 1 17 -9 33 -23
l28 -25 -23 26 c-12 14 -19 29 -15 34 5 4 1 4 -7 0 -13 -8 -13 -7 0 11 22 27
32 34 58 34 16 0 21 -4 16 -12 -4 -7 1 -5 12 4 17 15 23 16 47 3 18 -9 26 -10
24 -2 -1 6 12 11 30 12 18 0 37 5 44 12 9 9 8 11 -2 10 -8 -2 -19 -6 -25 -9
-6 -4 -11 -1 -11 7 0 8 3 14 6 13 3 0 15 0 25 1 19 1 19 1 0 24 -11 12 -4 9
15 -8 19 -16 30 -23 26 -15 -6 12 -5 12 5 3 7 -6 19 -9 26 -6 10 4 8 9 -8 22
-15 13 -18 20 -9 25 7 4 10 2 9 -5 -2 -8 12 -14 40 -16 24 -3 42 0 42 6 0 5 9
8 20 6 11 -2 18 0 15 6 -4 5 1 9 9 9 26 0 30 1 43 11 7 7 14 6 18 -1 5 -8 10
-8 20 0 8 7 15 7 19 1 3 -5 15 -7 26 -4 17 5 18 8 8 22 -12 14 -11 14 5 2 9
-7 17 -10 17 -6z m-2330 -65 c0 -6 -11 -8 -25 -4 -14 3 -31 1 -39 -5 -10 -8
-16 -8 -24 2 -9 10 -1 13 39 15 28 1 49 -2 49 -8z m1850 -10 c5 9 9 8 13 -3 4
-10 0 -14 -11 -13 -9 2 -17 8 -18 15 -2 8 -1 8 3 0 4 -8 7 -8 13 1z m-1622
-42 c23 -7 42 -16 42 -20 0 -4 10 -8 23 -8 12 0 32 -3 45 -6 l22 -6 -2 -222
-2 -221 -6 215 c-4 180 -7 216 -20 219 -8 2 -26 6 -40 9 -14 3 -27 8 -30 12
-3 4 -41 18 -85 32 l-80 26 -5 -197 -6 -196 -2 196 c-1 108 1 198 4 201 5 5
25 1 142 -34z m-911 -10 c-3 -8 -6 -5 -6 6 -1 11 2 17 5 13 3 -3 4 -12 1 -19z
m406 -81 l132 -3 -137 -2 -138 -2 2 48 1 47 4 -42 4 -42 132 -4z m214 -179
c-1 -51 -3 -12 -3 87 0 99 2 141 3 93 2 -48 2 -129 0 -180z m540 240 c-3 -8
-6 -5 -6 6 -1 11 2 17 5 13 3 -3 4 -12 1 -19z m-64 -51 c3 -8 -1 -14 -8 -14
-7 0 -11 6 -8 14 3 7 6 13 8 13 2 0 5 -6 8 -13z m128 -4 c13 -16 12 -17 -3 -4
-10 7 -18 15 -18 17 0 8 8 3 21 -13z m-60 -36 c-6 -8 -7 -18 -3 -22 4 -5 1 -5
-6 -1 -10 6 -10 11 -1 22 6 8 14 14 16 14 3 0 0 -6 -6 -13z m1239 -1 c0 -2 -7
-9 -15 -16 -13 -11 -14 -10 -9 4 5 14 24 23 24 12z m-1200 -22 c0 -8 -19 -13
-24 -6 -3 5 1 9 9 9 8 0 15 -2 15 -3z m-933 -166 c-2 -29 -3 -8 -3 47 0 55 1
79 3 53 2 -26 2 -71 0 -100z m190 0 c-2 -29 -3 -8 -3 47 0 55 1 79 3 53 2 -26
2 -71 0 -100z m680 118 c-1 -6 4 -10 11 -8 8 1 11 -2 7 -8 -5 -8 -13 -6 -24 4
-10 9 -21 13 -26 9 -4 -5 -5 -3 -2 3 3 6 13 11 21 11 8 0 14 -5 13 -11z m1291
-83 c-8 -10 -14 -10 -24 -2 -18 15 -18 15 11 15 19 0 22 -3 13 -13z m-1391
-290 c-3 -10 -5 -4 -5 12 0 17 2 24 5 18 2 -7 2 -21 0 -30z m-1012 -43 c10
-11 16 -20 13 -20 -3 0 -13 9 -23 20 -10 11 -16 20 -13 20 3 0 13 -9 23 -20z
m1005 17 c0 -2 -10 -12 -22 -23 l-23 -19 19 23 c18 21 26 27 26 19z m-953 -43
c-3 -3 -12 -4 -19 -1 -8 3 -5 6 6 6 11 1 17 -2 13 -5z m900 0 c-3 -3 -12 -4
-19 -1 -8 3 -5 6 6 6 11 1 17 -2 13 -5z"/>
<path d="M896 2881 c-4 -5 -2 -12 3 -15 5 -4 12 -2 15 3 4 5 2 12 -3 15 -5 4
-12 2 -15 -3z"/>
<path d="M3236 2722 c-3 -5 1 -9 9 -9 8 0 12 4 9 9 -3 4 -7 8 -9 8 -2 0 -6 -4
-9 -8z"/>
<path d="M3270 2555 c-10 -12 -10 -15 2 -15 8 0 15 7 15 15 0 8 -1 15 -2 15
-2 0 -8 -7 -15 -15z"/>
<path d="M4080 2556 c0 -2 7 -7 16 -10 8 -3 12 -2 9 4 -6 10 -25 14 -25 6z"/>
<path d="M3505 2511 c-3 -5 -2 -12 3 -15 5 -3 9 1 9 9 0 17 -3 19 -12 6z"/>
</g>
</svg>
