<?xml version="1.0" standalone="no"?>
<!DOCTYPE svg PUBLIC "-//W3C//DTD SVG 20010904//EN"
 "http://www.w3.org/TR/2001/REC-SVG-20010904/DTD/svg10.dtd">
<svg version="1.0" xmlns="http://www.w3.org/2000/svg"
 width="500.000000pt" height="500.000000pt" viewBox="0 0 500.000000 500.000000"
 preserveAspectRatio="xMidYMid meet">
<metadata>
Created by potrace 1.16, written by Peter Selinger 2001-2019
</metadata>
<g transform="translate(0.000000,500.000000) scale(0.100000,-0.100000)"
fill="#000000" stroke="none">
<path d="M1875 2300 c4 -6 11 -8 16 -5 14 9 11 15 -7 15 -8 0 -12 -5 -9 -10z"/>
<path d="M1020 2285 c0 -7 -7 -12 -15 -12 -8 0 -15 5 -15 11 0 6 -5 4 -10 -4
-5 -8 -10 -11 -10 -6 0 5 -10 1 -22 -10 -12 -10 -18 -14 -15 -7 11 19 -8 24
-29 8 -19 -15 -18 -15 1 -9 12 3 9 -1 -7 -11 -34 -19 -36 -52 -7 -89 17 -22
28 -26 73 -26 55 0 162 42 151 59 -3 5 0 11 7 13 7 3 8 10 4 17 -6 9 -20 11
-42 6 -26 -4 -34 -2 -34 8 0 8 7 18 16 21 8 3 12 10 9 16 -4 6 -12 7 -18 3 -9
-5 -9 -3 0 8 10 13 8 15 -12 15 -14 0 -25 -5 -25 -11z"/>
<path d="M1741 2276 c-16 -19 -7 -51 11 -40 10 5 9 3 0 -7 -11 -12 -15 -11
-23 3 -5 9 -15 15 -22 13 -6 -3 -30 -7 -52 -9 -22 -2 -39 -8 -38 -13 2 -12
-38 -14 -52 -3 -7 5 -21 11 -33 13 -12 2 -25 7 -29 12 -5 4 -1 4 7 0 13 -8 13
-6 1 8 -12 15 -31 15 -31 1 0 -3 5 -2 12 2 7 4 8 3 4 -4 -8 -13 -33 -6 -58 15
-14 13 -18 12 -28 -7 -9 -17 -9 -29 -1 -47 6 -13 11 -37 11 -53 0 -29 2 -30
48 -30 26 0 122 -1 214 -2 164 -2 168 -2 193 22 21 19 25 33 25 76 0 61 -6 65
-76 49 -43 -10 -53 -9 -60 3 -8 12 -11 12 -23 -2z"/>
<path d="M1123 2247 c5 -16 35 -32 43 -24 4 4 2 13 -4 19 -16 16 -44 19 -39 5z"/>
<path d="M1203 2195 c6 -35 5 -35 -31 -34 -20 1 -55 -6 -77 -14 -40 -16 -40
-16 -10 -18 131 -8 245 -3 245 11 0 20 -54 70 -75 70 -13 0 -27 5 -30 10 -14
23 -27 9 -22 -25z"/>
<path d="M1388 2166 c2 -20 8 -36 13 -36 13 0 11 34 -4 54 -12 16 -13 14 -9
-18z"/>
</g>
</svg>
