<?xml version="1.0" standalone="no"?>
<!DOCTYPE svg PUBLIC "-//W3C//DTD SVG 20010904//EN"
 "http://www.w3.org/TR/2001/REC-SVG-20010904/DTD/svg10.dtd">
<svg version="1.0" xmlns="http://www.w3.org/2000/svg"
 width="500.000000pt" height="500.000000pt" viewBox="0 0 500.000000 500.000000"
 preserveAspectRatio="xMidYMid meet">
<metadata>
Created by potrace 1.16, written by Peter Selinger 2001-2019
</metadata>
<g transform="translate(0.000000,500.000000) scale(0.100000,-0.100000)"
fill="#000000" stroke="none">
<path d="M0 2500 l0 -2500 2500 0 2500 0 0 2500 0 2500 -2500 0 -2500 0 0
-2500z m3773 302 c20 10 21 10 8 -5 -8 -10 -9 -17 -3 -17 6 0 14 5 18 11 5 8
10 6 16 -5 5 -9 14 -16 20 -16 7 0 7 4 0 13 -9 10 -6 13 13 13 19 0 22 -3 13
-13 -8 -10 -7 -12 6 -7 9 3 16 10 16 15 0 4 7 6 16 2 11 -4 12 -8 4 -13 -17
-10 12 -20 42 -14 15 3 18 2 8 -3 -24 -13 -22 -33 3 -33 18 0 19 -2 7 -10 -14
-9 -7 -14 15 -11 6 1 -1 -8 -15 -19 -14 -11 -20 -20 -13 -20 6 0 15 5 18 10 3
6 13 10 22 10 14 0 14 -3 -2 -20 -16 -17 -16 -20 -2 -20 9 0 18 -4 22 -9 3 -6
-3 -8 -13 -6 -11 2 -19 -3 -19 -10 0 -7 8 -12 19 -10 10 2 16 0 13 -6 -4 -5
-12 -9 -20 -9 -7 0 -15 -7 -19 -15 -4 -11 0 -14 17 -12 12 2 15 2 7 -1 -12 -4
-11 -7 5 -14 16 -7 15 -7 -7 -3 -37 7 -45 -11 -11 -23 19 -7 22 -11 10 -11
-10 -1 -16 -5 -13 -10 3 -4 -6 -6 -19 -3 -18 3 -25 0 -25 -11 0 -8 6 -18 13
-21 6 -3 1 -4 -13 -3 -16 1 -24 -3 -23 -10 2 -7 0 -12 -5 -12 -4 1 -9 0 -12
-1 -19 -7 -39 -7 -34 1 3 5 10 6 16 3 7 -5 8 -2 3 6 -5 8 -4 11 2 7 5 -3 10 0
10 7 0 7 -6 13 -13 13 -7 0 -13 -3 -12 -6 2 -19 -4 -22 -19 -10 -16 12 -17 12
-7 -1 7 -9 8 -23 3 -35 -4 -11 -8 -16 -8 -11 -1 5 -7 4 -14 -2 -19 -16 -66
-22 -73 -10 -5 7 -2 8 6 3 9 -5 11 -4 6 4 -5 8 -12 9 -19 2 -8 -6 -16 -4 -25
5 -12 13 -8 18 11 15 5 -1 6 3 2 9 -11 17 -23 11 -34 -17 -7 -20 -10 -22 -8
-7 1 11 -2 20 -8 20 -5 -1 -9 -5 -7 -11 2 -5 -6 -1 -17 9 -11 10 -18 26 -16
37 2 10 1 18 -3 18 -14 -2 -52 14 -48 20 2 3 -6 6 -19 6 -12 0 -21 -5 -18 -11
2 -6 -4 -15 -14 -18 -14 -6 -15 -4 -6 5 9 9 9 16 0 29 -8 14 -7 22 3 35 15 18
22 45 12 44 -19 -3 -23 3 -12 16 7 8 17 12 23 8 6 -3 7 -1 3 6 -4 6 -12 9 -17
6 -5 -4 -9 1 -9 9 0 8 5 18 10 21 6 4 8 10 5 15 -3 4 5 10 17 13 17 5 19 9 9
21 -10 12 -9 14 6 12 10 -2 18 -8 18 -14 0 -6 3 -14 7 -18 4 -3 6 3 3 15 -2
12 1 21 8 21 7 0 7 4 -3 9 -8 6 -18 7 -24 4 -5 -3 -6 -1 -3 5 10 16 43 3 54
-21 9 -19 10 -19 16 -3 4 11 3 15 -4 10 -7 -4 -9 3 -7 17 2 18 8 23 23 21 11
-2 23 -9 27 -15 6 -9 8 -8 8 1 0 7 4 11 9 7 5 -3 12 -1 16 4 3 6 -3 8 -15 6
-11 -2 -22 0 -25 4 -2 5 9 7 25 6 17 -1 30 2 31 9 0 7 2 6 6 -1 3 -10 10 -10
26 -1z m-206 -88 c-3 -3 -12 -4 -19 -1 -8 3 -5 6 6 6 11 1 17 -2 13 -5z
m-2634 -23 c9 -1 16 -5 15 -9 -2 -4 16 -27 39 -50 31 -31 49 -63 70 -122 15
-44 33 -80 39 -80 6 0 16 -18 23 -39 10 -35 29 -56 98 -111 7 -6 24 -10 39
-10 26 0 26 1 -12 28 -21 16 -47 31 -57 35 -11 4 -15 12 -11 18 4 7 3 9 -3 6
-6 -4 -13 4 -15 18 l-5 25 83 0 84 0 1 50 c1 28 3 55 4 60 1 6 3 21 4 35 1 34
27 43 52 17 15 -17 19 -36 19 -92 l0 -70 45 0 45 0 0 88 c0 49 4 81 9 74 4 -7
12 -12 17 -11 30 5 34 -3 34 -77 l0 -75 43 3 c40 3 42 4 43 38 6 137 7 143 21
124 12 -17 13 -17 13 4 0 15 5 20 15 16 8 -4 12 -11 9 -16 -9 -14 36 1 53 17
6 7 9 16 5 20 -4 4 2 6 13 4 11 -2 26 0 34 5 10 6 12 5 7 -2 -8 -14 20 -5 43
12 11 8 13 8 7 -2 -5 -8 2 -14 23 -18 l31 -6 -2 -212 c-1 -116 -4 -186 -7
-156 -6 54 -6 55 -41 58 -19 2 -45 5 -58 7 -20 3 -22 2 -12 -11 10 -11 9 -14
-4 -14 -9 0 -16 8 -16 17 0 14 -3 14 -22 -4 -38 -33 -71 -43 -105 -32 -15 6
-26 2 -38 -10 -13 -15 -20 -17 -40 -7 -13 6 -21 14 -19 17 7 12 -21 26 -46 24
-14 -1 -33 4 -42 13 -10 8 -18 12 -18 7 0 -4 -8 -1 -17 6 -10 7 -15 9 -11 5 4
-5 3 -15 -2 -21 -7 -8 -7 -22 -2 -36 12 -31 24 -109 17 -109 -2 0 -10 20 -16
45 -16 63 -25 64 -19 2 l5 -52 80 -6 c72 -5 69 -5 -40 -6 -66 0 -110 2 -97 4
12 2 22 9 22 14 0 5 -6 8 -12 7 -7 -2 -14 7 -16 19 -5 31 -56 83 -81 83 -12 0
-33 8 -48 17 l-26 17 5 -47 c5 -44 4 -46 -14 -36 -11 6 -36 8 -55 4 -24 -4
-33 -3 -28 4 3 6 16 11 28 11 13 0 17 3 11 8 -6 4 -13 15 -17 25 -5 14 -14 16
-47 11 -42 -7 -57 9 -19 21 21 7 21 32 0 27 -7 -1 -10 2 -7 7 4 5 2 12 -4 16
-5 3 -10 1 -10 -5 0 -6 -6 -10 -12 -9 -57 7 -75 -6 -83 -62 -4 -28 -15 -38
-35 -34 -27 5 -27 -34 0 -68 11 -14 20 -29 20 -33 0 -4 -11 7 -25 26 l-25 34
0 251 c0 139 2 254 5 257 3 2 15 4 27 2 13 -1 31 -3 41 -3z m2592 -10 c-2 -9
-4 -19 -4 -23 -2 -15 -29 -8 -35 8 -5 13 -4 14 7 6 17 -14 31 -3 17 13 -7 8
-5 12 4 12 8 0 12 -7 11 -16z m-3 -53 c-6 -6 -19 -13 -27 -14 -13 -2 -14 1 -4
12 6 8 19 14 27 14 12 0 13 -3 4 -12z m-2226 -23 c14 -13 11 -15 -21 -15 -31
0 -34 2 -23 15 17 18 26 18 44 0z m2237 -21 c-3 -9 -23 -13 -36 -6 -4 2 -5 7
-2 12 7 11 41 6 38 -6z m89 -102 c9 -10 9 -13 1 -9 -6 4 -14 3 -18 -2 -3 -5 3
-14 12 -20 16 -9 16 -10 -4 -8 -14 1 -20 7 -18 18 2 10 -3 23 -11 30 -11 9
-14 8 -14 -5 0 -10 -5 -14 -10 -11 -17 11 8 34 30 28 11 -3 25 -12 32 -21z
m-1877 -252 c3 -5 1 -10 -4 -10 -6 0 -11 5 -11 10 0 6 2 10 4 10 3 0 8 -4 11
-10z m-693 -43 c-14 -6 -26 -7 -32 -1 -5 5 4 9 23 10 30 1 30 1 9 -9z m848
-20 c0 -2 -10 -12 -22 -23 l-23 -19 19 23 c18 21 26 27 26 19z m-907 -44 c-13
-2 -35 -2 -50 0 -16 2 -5 4 22 4 28 0 40 -2 28 -4z m70 0 c-7 -2 -21 -2 -30 0
-10 3 -4 5 12 5 17 0 24 -2 18 -5z m44 1 c-3 -3 -12 -4 -19 -1 -8 3 -5 6 6 6
11 1 17 -2 13 -5z m66 -1 c-7 -2 -21 -2 -30 0 -10 3 -4 5 12 5 17 0 24 -2 18
-5z m75 0 c-10 -2 -28 -2 -40 0 -13 2 -5 4 17 4 22 1 32 -1 23 -4z m409 0
c-20 -2 -52 -2 -70 0 -17 2 0 4 38 4 39 0 53 -2 32 -4z m190 1 c-3 -3 -12 -4
-19 -1 -8 3 -5 6 6 6 11 1 17 -2 13 -5z"/>
<path d="M3740 2780 c0 -5 5 -10 11 -10 5 0 7 5 4 10 -3 6 -8 10 -11 10 -2 0
-4 -4 -4 -10z"/>
<path d="M3650 2770 c0 -5 5 -10 11 -10 5 0 7 5 4 10 -3 6 -8 10 -11 10 -2 0
-4 -4 -4 -10z"/>
<path d="M3920 2710 c-9 -6 -10 -10 -3 -10 6 0 15 5 18 10 8 12 4 12 -15 0z"/>
<path d="M3543 2554 c-19 -19 -16 -29 4 -13 9 8 19 13 22 12 3 -1 8 1 11 4 3
4 0 3 -7 0 -6 -4 -13 -3 -15 2 -1 5 -9 3 -15 -5z"/>
<path d="M3773 2423 c0 -9 4 -10 14 -2 7 6 13 12 13 14 0 1 -6 2 -13 2 -8 0
-14 -6 -14 -14z"/>
<path d="M1875 2309 c-10 -15 3 -25 16 -12 7 7 7 13 1 17 -6 3 -14 1 -17 -5z"/>
<path d="M1118 2275 c13 -9 26 -14 29 -11 8 8 3 12 -27 21 l-25 7 23 -17z"/>
<path d="M1590 2249 c0 -5 5 -7 10 -4 6 3 10 8 10 11 0 2 -4 4 -10 4 -5 0 -10
-5 -10 -11z"/>
</g>
</svg>
