<?xml version="1.0" standalone="no"?>
<!DOCTYPE svg PUBLIC "-//W3C//DTD SVG 20010904//EN"
 "http://www.w3.org/TR/2001/REC-SVG-20010904/DTD/svg10.dtd">
<svg version="1.0" xmlns="http://www.w3.org/2000/svg"
 width="500.000000pt" height="500.000000pt" viewBox="0 0 500.000000 500.000000"
 preserveAspectRatio="xMidYMid meet">
<metadata>
Created by potrace 1.16, written by Peter Selinger 2001-2019
</metadata>
<g transform="translate(0.000000,500.000000) scale(0.100000,-0.100000)"
fill="#000000" stroke="none">
<path d="M0 2500 l0 -2500 2500 0 2500 0 0 2500 0 2500 -2500 0 -2500 0 0
-2500z m3903 311 c16 -1 26 -5 22 -11 -3 -5 1 -10 9 -10 9 0 16 -4 16 -10 0
-5 7 -10 16 -10 8 0 12 -4 9 -10 -3 -5 0 -10 8 -10 10 0 13 -7 10 -20 -4 -13
0 -20 10 -20 10 0 14 -9 12 -30 -1 -16 1 -30 6 -30 10 0 7 -29 -5 -48 -5 -9
-1 -18 10 -26 17 -13 17 -14 -4 -20 -12 -4 -19 -13 -16 -21 3 -8 -4 -16 -17
-20 -17 -6 -19 -9 -8 -16 11 -7 10 -9 -4 -9 -10 0 -15 -5 -12 -10 4 -6 12 -7
18 -3 7 4 6 0 -2 -10 -16 -20 -22 -22 -19 -5 2 9 -7 12 -26 10 -19 -3 -26 0
-21 7 3 6 10 9 15 6 5 -3 11 -2 14 3 14 22 -27 5 -44 -18 l-19 -27 27 5 c34 6
26 -3 -10 -12 -23 -5 -28 -3 -28 11 -1 11 -6 7 -14 -12 -10 -23 -20 -31 -42
-32 -16 0 -21 1 -11 4 9 2 15 9 11 14 -3 5 -10 7 -15 4 -5 -4 -9 -1 -9 6 0 9
-4 8 -12 -3 -18 -21 -58 -30 -58 -13 0 8 -4 17 -10 20 -6 4 -7 -1 -3 -12 3
-10 3 -15 -2 -11 -4 4 -15 2 -24 -5 -14 -10 -14 -10 -4 4 17 22 4 33 -17 14
-16 -14 -17 -14 -14 10 2 22 -1 26 -19 23 -12 -2 -21 -9 -19 -16 1 -8 -2 -11
-7 -7 -7 4 -7 15 0 32 9 24 8 25 -7 12 -16 -13 -17 -12 -12 8 5 19 3 21 -18
13 -17 -7 -23 -6 -21 3 1 7 -8 11 -23 10 -14 -1 -18 0 -9 3 11 3 15 12 12 24
-5 18 -18 21 -40 7 -9 -6 -11 -3 -7 7 4 10 16 14 35 12 19 -2 29 1 29 10 0 8
-6 11 -15 8 -11 -5 -14 -2 -9 12 4 11 11 24 16 31 5 6 6 23 2 39 -6 21 -4 25
7 19 8 -5 11 -5 7 0 -4 4 -2 15 4 23 14 17 20 44 8 37 -5 -3 -11 -1 -15 5 -9
15 21 12 34 -4 6 -7 9 -22 5 -32 -5 -18 -5 -18 6 -1 6 9 8 23 5 30 -4 6 1 3
11 -8 13 -15 15 -16 11 -3 -6 16 15 43 25 33 2 -3 5 2 5 10 0 12 -3 12 -15 3
-15 -13 -49 -21 -37 -10 4 4 12 7 18 7 7 1 11 6 9 13 -2 13 33 13 55 -1 6 -4
14 -3 18 3 4 6 12 7 18 3 9 -5 9 -3 0 8 -11 14 10 15 190 10z m-2978 -63 c14
-6 25 -19 25 -29 0 -9 7 -20 16 -23 8 -3 12 -11 8 -17 -4 -7 -3 -9 3 -6 19 12
51 -38 79 -125 16 -50 34 -88 41 -88 7 0 18 -20 24 -45 6 -25 14 -45 18 -45 4
0 23 -15 43 -33 26 -24 42 -31 59 -27 l23 6 -28 19 c-15 11 -39 30 -54 42
l-27 22 83 1 82 0 1 53 c0 28 2 71 5 95 l6 42 -76 0 c-42 0 -76 4 -76 9 0 13
34 23 54 15 11 -4 16 -2 14 6 -2 7 8 14 21 16 16 3 30 -4 46 -22 17 -20 30
-25 48 -22 33 6 37 -4 37 -108 l0 -84 45 0 45 0 0 95 c0 75 3 95 14 95 8 0 17
-7 20 -16 3 -8 10 -12 16 -9 6 4 10 -24 10 -79 l0 -86 39 0 c22 0 42 4 45 8 3
5 6 45 7 90 1 68 5 82 18 83 12 0 11 2 -4 8 -17 7 -16 8 9 13 17 4 29 1 32 -7
6 -15 39 -9 55 11 6 8 24 14 39 14 16 0 30 4 32 9 2 5 21 6 43 2 l40 -6 1
-225 c0 -124 -2 -189 -5 -145 l-6 79 -30 3 c-65 6 -78 5 -86 -8 -4 -7 -11 -11
-14 -7 -4 3 -50 -9 -103 -27 l-97 -34 -22 21 c-13 12 -23 18 -23 14 0 -5 -8
-2 -17 5 -11 10 -14 10 -9 2 11 -19 -14 -16 -36 4 -20 18 -52 27 -43 13 3 -5
0 -10 -7 -12 -10 -4 -10 -10 0 -32 6 -15 12 -41 11 -59 l-1 -32 -9 32 c-16 54
-28 47 -22 -12 4 -39 2 -55 -6 -55 -6 0 -14 7 -18 16 -3 8 -12 13 -19 10 -9
-4 -14 2 -14 17 0 36 -50 87 -95 98 -70 17 -70 17 -67 -19 3 -31 2 -32 -25
-26 -25 7 -64 34 -47 34 3 0 1 7 -6 15 -7 8 -25 14 -43 12 -17 -1 -32 3 -34
11 -3 7 3 12 15 12 10 0 19 7 19 15 0 8 -4 12 -9 9 -4 -3 -8 1 -8 8 0 9 -15
13 -45 13 -34 0 -50 -6 -67 -24 -13 -13 -18 -21 -13 -18 9 4 11 -23 6 -82 -1
-8 -8 -11 -21 -8 -17 4 -20 0 -20 -28 0 -18 9 -45 21 -61 l21 -29 -26 28 -26
28 0 264 c0 249 6 315 29 315 6 0 22 -5 36 -12z m2616 -42 c-16 -17 -21 -31
-16 -45 4 -13 0 -29 -11 -43 -14 -20 -16 -21 -10 -3 6 19 5 19 -8 2 -11 -14
-15 -15 -19 -3 -3 8 -3 17 1 21 4 4 7 11 7 16 0 5 5 9 10 9 6 0 10 -4 10 -9 0
-5 3 -13 8 -17 4 -4 7 -1 7 7 0 8 -5 20 -12 27 -17 17 -20 46 -4 33 9 -7 16
-5 26 9 8 11 19 20 24 20 5 0 -1 -11 -13 -24z m26 -241 c0 -8 -4 -12 -9 -9 -5
3 -6 10 -3 15 9 13 12 11 12 -6z m-1667 -298 c0 -2 -10 -12 -22 -23 l-23 -19
19 23 c18 21 26 27 26 19z m-883 -44 c-20 -2 -52 -2 -70 0 -17 2 0 4 38 4 39
0 53 -2 32 -4z m91 0 c-10 -2 -26 -2 -35 0 -10 3 -2 5 17 5 19 0 27 -2 18 -5z
m80 0 c-10 -2 -28 -2 -40 0 -13 2 -5 4 17 4 22 1 32 -1 23 -4z m55 0 c-7 -2
-19 -2 -25 0 -7 3 -2 5 12 5 14 0 19 -2 13 -5z m120 0 c-7 -2 -21 -2 -30 0
-10 3 -4 5 12 5 17 0 24 -2 18 -5z m60 0 c-7 -2 -21 -2 -30 0 -10 3 -4 5 12 5
17 0 24 -2 18 -5z m424 1 c-3 -3 -12 -4 -19 -1 -8 3 -5 6 6 6 11 1 17 -2 13
-5z"/>
<path d="M3536 2541 c-3 -5 1 -14 8 -20 10 -8 16 -9 21 -1 3 5 -1 10 -10 10
-9 0 -13 5 -10 10 3 6 4 10 1 10 -3 0 -7 -4 -10 -9z"/>
<path d="M1070 2346 c0 -2 8 -10 18 -17 15 -13 16 -12 3 4 -13 16 -21 21 -21
13z"/>
</g>
</svg>
