<?xml version="1.0" standalone="no"?>
<!DOCTYPE svg PUBLIC "-//W3C//DTD SVG 20010904//EN"
 "http://www.w3.org/TR/2001/REC-SVG-20010904/DTD/svg10.dtd">
<svg version="1.0" xmlns="http://www.w3.org/2000/svg"
 width="500.000000pt" height="500.000000pt" viewBox="0 0 500.000000 500.000000"
 preserveAspectRatio="xMidYMid meet">
<metadata>
Created by potrace 1.16, written by Peter Selinger 2001-2019
</metadata>
<g transform="translate(0.000000,500.000000) scale(0.100000,-0.100000)"
fill="#000000" stroke="none">
<path d="M0 2500 l0 -2500 2500 0 2500 0 0 2500 0 2500 -2500 0 -2500 0 0
-2500z m3798 327 c11 5 13 3 7 -8 -7 -11 -6 -12 6 -3 18 14 86 17 94 4 4 -6
11 -8 16 -4 6 3 19 -3 30 -15 11 -12 15 -21 9 -21 -5 0 -10 -4 -10 -9 0 -4 12
-6 28 -4 23 4 24 3 10 -7 -26 -16 -22 -25 15 -44 17 -8 26 -16 19 -16 -8 0
-10 -5 -6 -12 11 -18 10 -68 -1 -68 -5 0 -4 -4 4 -9 7 -5 10 -14 7 -20 -4 -6
0 -11 11 -12 17 -1 17 -2 0 -6 -9 -2 -15 -9 -11 -14 3 -5 -5 -18 -18 -29 -13
-11 -18 -19 -12 -20 7 0 15 -7 18 -16 5 -13 1 -15 -19 -11 -19 3 -25 1 -21 -9
3 -8 4 -14 2 -14 -3 0 -12 -3 -22 -7 -13 -5 -16 -3 -11 10 3 9 2 17 -3 17 -6
0 -10 -7 -10 -16 0 -9 -5 -12 -12 -8 -9 5 -9 3 1 -9 7 -9 18 -14 24 -10 6 3 7
1 3 -6 -5 -8 -13 -7 -29 4 -25 17 -41 20 -32 5 3 -6 0 -17 -9 -25 -10 -11 -17
-12 -22 -4 -3 6 -1 15 6 19 8 5 7 9 -6 14 -10 4 -15 4 -11 0 12 -13 -13 -32
-36 -27 -16 3 -18 2 -9 -5 11 -7 8 -11 -12 -16 -17 -4 -24 -11 -20 -19 4 -7
-2 -4 -13 6 -11 9 -23 14 -28 10 -4 -5 -5 -3 -1 4 3 6 15 10 26 8 13 -2 20 2
20 11 0 10 -5 12 -12 7 -22 -13 -58 -14 -58 -2 0 7 -3 9 -6 6 -4 -4 -2 -13 4
-20 9 -10 8 -14 -3 -14 -8 0 -15 7 -15 14 0 8 -4 12 -9 8 -5 -3 -11 2 -13 12
-3 15 -4 15 -20 -1 -10 -10 -18 -14 -18 -9 0 5 6 15 13 22 6 7 8 12 2 11 -24
-5 -34 1 -30 20 2 11 0 18 -5 15 -4 -3 -7 -16 -6 -30 2 -13 0 -22 -4 -20 -4 3
-7 16 -7 30 0 35 -21 59 -39 44 -8 -6 -14 -10 -15 -8 0 2 -2 15 -5 28 -2 14
-9 30 -14 36 -5 7 -8 14 -5 16 2 3 -5 6 -17 6 -11 1 -22 4 -25 7 -7 7 6 26 18
26 6 0 8 -4 5 -8 -3 -5 1 -9 9 -9 28 0 15 25 -15 29 -22 3 -34 -1 -45 -16 -13
-19 -14 -19 -8 -2 4 12 2 17 -4 13 -5 -3 -10 0 -10 8 0 8 3 14 6 13 3 0 8 1
11 2 19 7 39 7 34 -1 -3 -5 6 -9 20 -9 27 0 43 15 26 25 -6 4 -5 11 3 19 6 8
15 12 20 9 4 -2 7 1 7 6 0 6 -9 11 -21 11 -13 0 -18 -4 -13 -12 6 -10 5 -10
-8 -1 -8 7 -18 9 -22 5 -4 -4 -13 -7 -19 -7 -7 -1 -11 -7 -9 -15 3 -11 0 -11
-12 0 -17 14 -20 21 -8 19 4 -1 10 0 15 1 4 1 12 4 17 5 6 1 11 3 13 5 1 1 10
3 21 5 10 2 25 13 33 24 8 12 19 19 24 16 5 -4 9 -1 9 6 0 7 7 4 15 -7 14 -18
15 -18 22 5 6 23 7 24 14 5 6 -16 8 -14 9 11 1 17 4 24 7 18 6 -16 33 -17 33
-2 0 5 -4 8 -8 5 -5 -3 -9 1 -9 7 0 7 11 13 23 13 12 0 20 -4 18 -8 -3 -5 -10
-5 -16 -2 -7 5 -8 2 -4 -5 6 -9 12 -8 26 4 10 9 21 15 26 14 29 -5 55 2 48 14
-5 9 -4 9 6 0 7 -6 19 -9 28 -6z m-2863 -67 c-3 -5 1 -10 9 -10 9 0 16 -6 16
-13 0 -6 13 -18 28 -25 25 -10 34 -27 62 -112 19 -54 38 -98 43 -97 5 1 17
-20 26 -47 9 -27 28 -57 41 -67 14 -11 30 -23 37 -29 7 -5 22 -10 34 -10 23 0
23 0 3 18 -11 11 -26 22 -34 25 -8 3 15 6 53 6 l67 1 0 73 c0 39 3 82 6 95 6
21 4 22 -65 22 -41 0 -71 4 -71 10 0 6 0 13 0 17 0 4 12 9 27 11 15 2 32 10
36 18 12 21 41 17 67 -11 13 -14 29 -24 34 -22 6 3 19 0 29 -5 14 -7 17 -24
17 -108 l0 -100 45 0 45 0 0 99 c0 56 4 103 10 106 6 3 10 1 10 -4 0 -6 3 -10
8 -10 29 5 32 -4 32 -97 l0 -95 43 3 42 3 3 90 c3 96 8 105 58 105 17 0 48 11
68 25 20 13 36 21 36 18 0 -4 5 -2 10 3 7 7 25 7 55 0 l45 -11 -2 -230 c-1
-126 -4 -184 -5 -128 -4 97 -5 103 -26 107 -39 6 -87 5 -87 -2 0 -4 -19 -7
-42 -7 -24 -1 -96 -14 -161 -29 l-118 -29 -23 22 c-20 19 -25 20 -35 7 -7 -8
-9 -25 -5 -40 8 -32 -2 -33 -27 -3 -19 21 -20 21 -8 0 10 -17 10 -24 0 -37
-20 -24 -35 -20 -73 18 -19 19 -48 38 -64 41 -16 3 -37 10 -46 16 -26 14 -28
12 -28 -30 l0 -38 -34 11 c-19 6 -34 13 -34 16 0 3 -1 8 -2 13 -1 4 -3 13 -4
20 -1 7 -15 11 -38 10 -41 -2 -61 21 -26 31 17 4 19 8 10 19 -7 8 -10 16 -7
19 3 2 -21 6 -52 7 -32 1 -54 -1 -50 -5 9 -9 -23 -45 -34 -39 -4 3 -11 0 -15
-6 -5 -8 -3 -9 7 -4 12 7 12 6 1 -7 -11 -14 -10 -18 3 -25 9 -5 17 -16 18 -24
2 -8 6 -19 10 -25 4 -7 -1 -18 -10 -25 -9 -8 -14 -9 -10 -3 4 7 1 17 -6 23
-11 8 -14 0 -16 -42 -1 -28 -4 -54 -7 -56 -2 -3 -4 126 -4 286 1 201 4 293 12
295 27 9 69 8 63 -2z m3078 -17 c-7 -2 -19 -2 -25 0 -7 3 -2 5 12 5 14 0 19
-2 13 -5z m-514 -75 c11 -15 11 -18 -1 -18 -7 0 -14 10 -15 21 -1 12 -1 20 0
18 2 -2 9 -12 16 -21z m-52 -95 c1 -24 0 -25 -6 -8 -7 17 -6 35 2 35 2 0 3
-12 4 -27z m40 -15 c2 -16 0 -16 -13 -4 -17 18 -18 23 -1 23 7 0 14 -9 14 -19z
m78 -57 c3 -5 2 -12 -3 -15 -5 -3 -9 1 -9 9 0 17 3 19 12 6z m-2568 -203 c-3
-8 -6 -5 -6 6 -1 11 2 17 5 13 3 -3 4 -12 1 -19z m-102 -148 c10 -11 16 -20
13 -20 -3 0 -13 9 -23 20 -10 11 -16 20 -13 20 3 0 13 -9 23 -20z m1005 17 c0
-2 -10 -12 -22 -23 l-23 -19 19 23 c18 21 26 27 26 19z m-937 -44 c-7 -2 -21
-2 -30 0 -10 3 -4 5 12 5 17 0 24 -2 18 -5z m44 1 c-3 -3 -12 -4 -19 -1 -8 3
-5 6 6 6 11 1 17 -2 13 -5z m40 0 c-3 -3 -12 -4 -19 -1 -8 3 -5 6 6 6 11 1 17
-2 13 -5z m40 0 c-3 -3 -12 -4 -19 -1 -8 3 -5 6 6 6 11 1 17 -2 13 -5z m46 -1
c-7 -2 -19 -2 -25 0 -7 3 -2 5 12 5 14 0 19 -2 13 -5z m280 0 c-7 -2 -19 -2
-25 0 -7 3 -2 5 12 5 14 0 19 -2 13 -5z m434 1 c-3 -3 -12 -4 -19 -1 -8 3 -5
6 6 6 11 1 17 -2 13 -5z"/>
<path d="M3535 2742 c-10 -10 -5 -22 9 -22 8 0 16 6 19 13 5 13 -17 19 -28 9z"/>
<path d="M1080 2372 c0 -4 10 -13 23 -21 22 -14 22 -14 3 8 -20 22 -26 25 -26
13z"/>
</g>
</svg>
