<?xml version="1.0" standalone="no"?>
<!DOCTYPE svg PUBLIC "-//W3C//DTD SVG 20010904//EN"
 "http://www.w3.org/TR/2001/REC-SVG-20010904/DTD/svg10.dtd">
<svg version="1.0" xmlns="http://www.w3.org/2000/svg"
 width="500.000000pt" height="500.000000pt" viewBox="0 0 500.000000 500.000000"
 preserveAspectRatio="xMidYMid meet">
<metadata>
Created by potrace 1.16, written by Peter Selinger 2001-2019
</metadata>
<g transform="translate(0.000000,500.000000) scale(0.100000,-0.100000)"
fill="#000000" stroke="none">
<path d="M0 2500 l0 -2500 2500 0 2500 0 0 2500 0 2500 -2500 0 -2500 0 0
-2500z m1855 654 c21 -10 38 -27 44 -46 7 -21 10 -170 9 -442 l-2 -411 -6 428
c-5 409 -6 429 -24 443 -11 8 -26 14 -33 14 -7 0 -13 5 -13 10 0 14 -795 14
-821 0 -10 -6 -19 -18 -19 -26 0 -10 -6 -14 -15 -10 -8 3 -15 1 -15 -4 0 -6
-7 -10 -16 -10 -9 0 -29 -8 -44 -17 -22 -12 -30 -26 -33 -52 l-4 -36 -1 40
c-2 35 2 42 29 58 17 9 37 17 45 17 8 0 14 5 14 10 0 6 6 10 13 10 8 0 22 9
32 20 18 19 31 20 423 20 348 0 409 -2 437 -16z m-217 -501 l-3 -258 -2 253
-3 252 -245 0 -244 0 -4 -42 -4 -43 -1 48 -2 47 255 0 255 0 -2 -257z m2390
209 c2 -7 12 -12 23 -12 10 0 19 -6 19 -14 0 -8 5 -16 11 -18 5 -2 11 -10 13
-18 2 -8 6 -23 11 -33 4 -10 5 -21 1 -24 -3 -3 -1 -12 6 -20 6 -7 8 -16 5 -20
-4 -3 0 -11 8 -17 25 -18 36 -101 23 -160 -6 -23 -67 -96 -82 -96 -6 0 -16 -8
-23 -19 -6 -10 -28 -21 -48 -24 -21 -3 -46 -14 -56 -23 -12 -11 -19 -13 -19
-5 0 7 -4 9 -10 6 -5 -3 -10 -2 -10 4 0 6 -12 4 -27 -4 -15 -8 -30 -12 -35 -9
-9 6 -38 12 -85 18 -33 4 -63 15 -82 30 -17 13 -41 17 -41 5 0 -5 -4 -9 -9 -9
-5 0 -7 10 -5 23 2 12 2 17 -1 10 -5 -9 -14 -8 -38 1 -18 8 -42 12 -54 11 -13
-1 -23 2 -23 7 0 4 5 8 12 8 6 0 8 3 4 7 -4 5 -14 -1 -22 -11 -12 -17 -17 -18
-39 -8 -15 7 -24 8 -20 2 10 -16 -17 -11 -39 8 -17 14 -19 14 -8 0 19 -24 13
-26 -83 -29 -16 -1 -33 0 -37 1 -16 5 -29 8 -44 9 -8 0 -13 4 -10 9 2 4 -3 16
-11 27 -16 20 -16 20 -9 0 6 -17 4 -16 -16 5 -13 13 -23 29 -23 35 -1 5 -7 9
-14 7 -7 -1 -10 2 -6 8 3 6 11 8 16 5 5 -4 9 1 9 10 0 9 -4 14 -8 11 -4 -2 -9
5 -9 17 -2 17 0 19 7 7 7 -11 9 -1 7 32 -1 25 -5 44 -9 42 -4 -2 -10 0 -13 6
-4 6 -3 10 2 9 28 -5 42 3 38 21 -2 11 3 26 11 34 8 8 14 19 14 23 0 5 7 18
16 29 12 15 15 16 10 2 -4 -14 -1 -15 25 -6 16 5 29 15 29 21 0 7 -4 7 -12 -1
-7 -7 -16 -12 -22 -12 -5 0 -1 6 9 14 14 10 25 11 38 4 14 -7 22 -6 31 3 8 9
8 10 0 6 -7 -4 -17 -1 -23 7 -10 12 -6 13 24 6 29 -7 35 -5 35 9 0 13 2 13 9
2 7 -11 12 -11 32 2 41 25 95 29 156 12 58 -17 101 -16 163 5 90 30 299 38
308 12z m-1943 -42 c-8 -13 1 -13 26 0 12 7 19 7 19 1 0 -5 18 -8 39 -6 31 3
39 0 34 -11 -4 -10 3 -14 23 -14 23 0 26 -2 14 -10 -12 -8 -10 -10 10 -10 20
0 22 -2 10 -10 -9 -6 -11 -10 -3 -10 7 0 10 -6 7 -14 -3 -8 4 -23 15 -33 l21
-17 -23 -13 c-21 -12 -21 -12 -2 -13 l20 -1 -20 -9 -20 -9 20 -1 20 -1 -20 -9
c-19 -8 -19 -8 5 -18 21 -8 22 -11 8 -17 -24 -10 -29 -32 -12 -50 13 -13 13
-15 1 -15 -20 0 -41 -26 -28 -35 11 -6 -8 -44 -36 -73 -11 -11 -13 -11 -13 1
0 9 5 17 12 19 6 2 8 9 4 16 -5 9 -11 9 -26 0 -14 -9 -16 -14 -7 -20 8 -5 5
-8 -8 -8 -13 0 -16 -3 -8 -8 7 -4 -10 -8 -37 -8 -27 -1 -48 1 -47 5 1 3 -2 7
-8 8 -5 1 -9 -4 -7 -12 1 -7 -3 -17 -9 -21 -8 -4 -9 -3 -5 4 4 8 0 12 -11 12
-11 0 -25 6 -32 13 -11 10 -12 9 -6 -3 7 -12 6 -13 -7 -3 -8 7 -19 9 -24 5 -5
-4 0 4 11 18 14 17 15 21 3 12 -11 -9 -18 -10 -23 -2 -3 6 -10 8 -15 5 -4 -3
-14 3 -21 12 -10 12 -10 14 -1 9 6 -4 12 -2 12 3 0 6 -5 11 -11 11 -13 0 -8
182 5 192 6 4 4 13 -3 22 -11 14 -11 16 5 17 18 0 18 1 -1 9 -19 8 -19 9 3 9
12 1 22 5 22 10 0 5 7 12 16 15 14 5 15 4 4 -9 -7 -8 -8 -15 -2 -15 15 0 30
23 27 43 -3 15 -1 16 13 5 9 -8 13 -8 9 -1 -10 16 14 22 37 10 15 -7 18 -6 13
6 -3 8 -3 18 0 21 10 10 15 7 8 -4z m-110 -41 c-4 -5 -12 -9 -18 -8 -9 0 -8 2
1 6 6 2 9 10 6 15 -4 7 -2 8 5 4 6 -4 9 -12 6 -17z m-702 -112 l132 -3 -137
-2 -138 -2 2 48 1 47 4 -42 4 -42 132 -4z m214 -179 c-1 -51 -3 -12 -3 87 0
99 2 141 3 93 2 -48 2 -129 0 -180z m1677 216 c3 -8 2 -12 -4 -9 -6 3 -10 10
-10 16 0 14 7 11 14 -7z m-2027 -256 c-2 -29 -3 -8 -3 47 0 55 1 79 3 53 2
-26 2 -71 0 -100z m190 0 c-2 -29 -3 -8 -3 47 0 55 1 79 3 53 2 -26 2 -71 0
-100z m580 -260 c-3 -8 -6 -5 -6 6 -1 11 2 17 5 13 3 -3 4 -12 1 -19z m-1012
-38 c10 -11 16 -20 13 -20 -3 0 -13 9 -23 20 -10 11 -16 20 -13 20 3 0 13 -9
23 -20z m1005 17 c0 -2 -10 -12 -22 -23 l-23 -19 19 23 c18 21 26 27 26 19z
m-953 -43 c-3 -3 -12 -4 -19 -1 -8 3 -5 6 6 6 11 1 17 -2 13 -5z"/>
<path d="M3215 2740 c-3 -6 1 -7 9 -4 18 7 21 14 7 14 -6 0 -13 -4 -16 -10z"/>
<path d="M3190 2710 c0 -5 5 -10 11 -10 5 0 7 5 4 10 -3 6 -8 10 -11 10 -2 0
-4 -4 -4 -10z"/>
<path d="M2213 2483 c9 -2 23 -2 30 0 6 3 -1 5 -18 5 -16 0 -22 -2 -12 -5z"/>
<path d="M2114 2432 c4 -3 14 -7 22 -8 9 -1 13 0 10 4 -4 3 -14 7 -22 8 -9 1
-13 0 -10 -4z"/>
</g>
</svg>
