<?xml version="1.0" standalone="no"?>
<!DOCTYPE svg PUBLIC "-//W3C//DTD SVG 20010904//EN"
 "http://www.w3.org/TR/2001/REC-SVG-20010904/DTD/svg10.dtd">
<svg version="1.0" xmlns="http://www.w3.org/2000/svg"
 width="500.000000pt" height="500.000000pt" viewBox="0 0 500.000000 500.000000"
 preserveAspectRatio="xMidYMid meet">
<metadata>
Created by potrace 1.16, written by Peter Selinger 2001-2019
</metadata>
<g transform="translate(0.000000,500.000000) scale(0.100000,-0.100000)"
fill="#000000" stroke="none">
<path d="M0 2500 l0 -2500 2500 0 2500 0 0 2500 0 2500 -2500 0 -2500 0 0
-2500z m1413 663 c-294 -2 -433 -7 -433 -14 0 -5 -4 -8 -9 -4 -6 3 -14 -2 -19
-11 -6 -11 -16 -15 -26 -11 -27 11 -56 -11 -57 -41 -2 -25 -2 -25 -6 -4 -5 27
22 62 47 62 10 0 31 7 46 15 25 13 94 15 459 13 l430 -3 -432 -2z m498 -277
c1 -121 4 -208 6 -191 3 16 12 35 21 42 10 7 13 13 9 13 -4 0 1 10 12 21 11
12 26 19 35 16 9 -3 18 -2 21 4 4 5 10 7 15 4 5 -3 15 3 22 14 16 23 54 30
115 21 26 -4 46 -3 50 3 3 6 1 7 -5 3 -7 -4 -12 -2 -12 3 0 16 16 13 30 -4 7
-8 9 -15 5 -15 -5 0 0 -9 9 -19 10 -11 25 -17 36 -14 15 4 18 1 13 -18 -5 -17
-3 -20 7 -14 10 6 12 4 7 -8 -4 -11 -1 -17 8 -17 21 0 19 -28 -2 -32 -14 -3
-15 -5 -2 -18 18 -19 18 -38 1 -49 -10 -6 -8 -10 10 -15 22 -7 22 -8 -9 -22
-43 -19 -42 -25 5 -19 l37 4 -35 -19 c-19 -11 -28 -19 -20 -20 13 0 13 -1 0
-11 -13 -9 -13 -11 -1 -16 10 -4 8 -9 -10 -19 -22 -12 -22 -13 -4 -14 19 -1
18 -2 -2 -10 -16 -7 -21 -14 -16 -27 6 -16 5 -17 -12 -3 -17 14 -18 13 -12 -2
7 -21 -4 -23 -22 -5 -10 10 -11 8 -5 -6 5 -15 2 -17 -19 -13 -15 3 -31 -1 -38
-10 -6 -7 -15 -12 -19 -9 -5 3 -11 1 -14 -3 -4 -7 -61 -9 -61 -2 0 1 -11 3
-25 4 -14 2 -35 6 -48 10 -22 7 -22 9 -6 20 15 11 11 13 -24 11 -34 -2 -40 1
-31 12 9 9 8 13 0 13 -6 0 -12 12 -13 28 -1 15 -5 -27 -8 -93 -4 -71 -7 50 -8
295 -2 359 -4 419 -18 440 l-16 25 21 -24 c20 -22 21 -36 22 -245z m-273 -233
l-3 -258 -2 253 -3 252 -245 0 -244 0 -4 -42 -4 -43 -1 48 -2 47 255 0 255 0
-2 -257z m2415 219 c10 -1 15 -6 12 -12 -3 -5 1 -10 10 -10 9 0 13 -4 10 -10
-3 -5 1 -10 9 -10 8 0 18 -5 22 -12 5 -8 2 -9 -11 -4 -16 6 -16 4 -4 -10 8 -9
15 -29 16 -43 4 -47 10 -65 21 -69 7 -2 12 -12 12 -23 0 -10 6 -19 13 -19 8 0
7 -4 -3 -10 -8 -5 -10 -10 -4 -10 16 0 15 -97 -2 -111 -8 -6 -11 -15 -8 -20 3
-5 -5 -13 -18 -18 -13 -6 -20 -10 -16 -10 11 -1 -34 -51 -45 -51 -5 0 -22 -9
-38 -21 -34 -24 -77 -31 -169 -30 -108 2 -137 6 -156 21 -10 9 -15 10 -10 3
12 -20 -8 -15 -23 6 -8 11 -21 16 -32 14 -12 -4 -19 0 -19 9 0 10 -11 14 -39
12 -22 -1 -51 4 -66 12 -14 7 -23 8 -19 3 4 -7 -1 -9 -15 -4 -27 8 -83 -3 -76
-16 4 -5 -1 -6 -9 -3 -9 3 -14 10 -11 14 2 4 -11 0 -30 -8 -23 -11 -31 -19
-22 -24 6 -4 -6 -5 -28 -3 -22 3 -44 10 -49 15 -6 6 -20 10 -33 10 -16 0 -23
6 -23 20 0 13 -7 20 -20 20 -15 0 -20 7 -20 25 0 15 -8 29 -21 36 -17 9 -19
13 -8 20 8 5 9 9 3 9 -17 0 -25 28 -12 36 6 4 8 3 4 -4 -3 -6 -2 -13 3 -16 21
-13 20 14 -1 30 -15 11 -17 14 -6 11 14 -5 17 -1 16 18 -2 17 -6 21 -14 14 -9
-8 -11 -5 -7 11 3 11 8 18 11 16 3 -3 11 2 19 12 12 16 13 16 6 -2 -6 -19 -6
-19 14 0 11 10 19 27 17 36 -2 11 3 15 16 13 10 -2 25 4 32 13 10 12 10 14 1
8 -7 -4 -13 -2 -13 3 0 6 5 11 11 11 5 0 8 4 5 9 -3 4 7 8 22 9 57 0 61 2 57
22 -2 11 0 20 6 20 5 0 9 -8 9 -17 0 -15 2 -16 9 -3 6 8 8 17 6 20 -2 4 2 7
10 7 8 0 11 -5 8 -11 -3 -6 0 -5 8 2 7 6 21 12 31 12 10 0 18 5 18 12 0 6 3 8
7 5 3 -4 13 -1 21 6 13 9 14 9 8 0 -4 -7 -2 -13 3 -13 6 0 11 5 11 11 0 5 6 7
12 3 7 -5 31 -8 53 -9 29 0 39 -4 37 -14 -2 -11 0 -12 11 -3 11 10 17 9 27 -3
8 -9 18 -12 29 -6 9 4 30 7 46 6 17 -1 40 5 51 15 14 10 38 15 63 14 23 -1 41
1 41 5 0 5 163 7 213 3z m-413 -26 c0 -3 -4 -8 -10 -11 -5 -3 -10 -1 -10 4 0
6 5 11 10 11 6 0 10 -2 10 -4z m-1380 -26 c-12 -8 -10 -10 10 -10 19 0 22 -2
10 -10 -9 -5 -19 -5 -27 2 -14 11 -8 28 10 28 7 0 6 -4 -3 -10z m1040 -11 c0
-5 -4 -9 -10 -9 -5 0 -10 7 -10 16 0 8 5 12 10 9 6 -3 10 -10 10 -16z m-1365
-59 c3 -5 1 -10 -4 -10 -6 0 -11 5 -11 10 0 6 2 10 4 10 3 0 8 -4 11 -10z
m-662 -83 l132 -3 -137 -2 -138 -2 2 48 1 47 4 -42 4 -42 132 -4z m214 -179
c-1 -51 -3 -12 -3 87 0 99 2 141 3 93 2 -48 2 -129 0 -180z m1680 230 c-3 -8
-6 -5 -6 6 -1 11 2 17 5 13 3 -3 4 -12 1 -19z m-2030 -270 c-2 -29 -3 -8 -3
47 0 55 1 79 3 53 2 -26 2 -71 0 -100z m190 0 c-2 -29 -3 -8 -3 47 0 55 1 79
3 53 2 -26 2 -71 0 -100z m873 -60 c0 -7 -5 -6 -13 1 -8 6 -18 7 -22 3 -5 -4
-5 -2 -1 5 8 14 36 6 36 -9z m-293 -155 c-3 -10 -5 -4 -5 12 0 17 2 24 5 18 2
-7 2 -21 0 -30z m0 -45 c-3 -8 -6 -5 -6 6 -1 11 2 17 5 13 3 -3 4 -12 1 -19z
m-1012 -38 c10 -11 16 -20 13 -20 -3 0 -13 9 -23 20 -10 11 -16 20 -13 20 3 0
13 -9 23 -20z m1005 17 c0 -2 -10 -12 -22 -23 l-23 -19 19 23 c18 21 26 27 26
19z m-953 -43 c-3 -3 -12 -4 -19 -1 -8 3 -5 6 6 6 11 1 17 -2 13 -5z"/>
<path d="M2124 2816 c1 -8 5 -18 8 -22 4 -3 5 1 4 10 -1 8 -5 18 -8 22 -4 3
-5 -1 -4 -10z"/>
<path d="M1911 2584 c0 -11 3 -14 6 -6 3 7 2 16 -1 19 -3 4 -6 -2 -5 -13z"/>
<path d="M2002 2421 c-11 -6 -9 -9 6 -13 15 -4 19 -2 15 8 -6 16 -4 16 -21 5z"/>
<path d="M2073 2406 c0 -7 11 -12 24 -12 15 0 20 3 13 10 -14 14 -37 16 -37 2z"/>
<path d="M3270 2426 c0 -2 7 -7 16 -10 8 -3 12 -2 9 4 -6 10 -25 14 -25 6z"/>
</g>
</svg>
