<?xml version="1.0" standalone="no"?>
<!DOCTYPE svg PUBLIC "-//W3C//DTD SVG 20010904//EN"
 "http://www.w3.org/TR/2001/REC-SVG-20010904/DTD/svg10.dtd">
<svg version="1.0" xmlns="http://www.w3.org/2000/svg"
 width="500.000000pt" height="500.000000pt" viewBox="0 0 500.000000 500.000000"
 preserveAspectRatio="xMidYMid meet">
<metadata>
Created by potrace 1.16, written by Peter Selinger 2001-2019
</metadata>
<g transform="translate(0.000000,500.000000) scale(0.100000,-0.100000)"
fill="#000000" stroke="none">
<path d="M0 2500 l0 -2500 2500 0 2500 0 0 2500 0 2500 -2500 0 -2500 0 0
-2500z m1618 663 c-125 -2 -332 -2 -460 0 -128 1 -26 2 227 2 253 0 358 -1
233 -2z m-708 -6 c0 -2 -10 -12 -22 -23 l-23 -19 19 23 c18 21 26 27 26 19z
m981 -24 c13 -16 12 -17 -3 -4 -10 7 -18 15 -18 17 0 8 8 3 21 -13z m16 -45
c-3 -8 -6 -5 -6 6 -1 11 2 17 5 13 3 -3 4 -12 1 -19z m-269 -435 l-3 -258 -2
253 -3 252 -245 0 -244 0 -4 -42 -4 -43 -1 48 -2 47 255 0 255 0 -2 -257z
m1869 208 c-3 10 2 15 18 15 16 0 21 -4 17 -15 -5 -14 -3 -14 11 -2 10 8 20
11 24 8 3 -4 12 -2 19 4 10 8 12 6 9 -11 -4 -19 -2 -20 12 -8 12 9 15 9 9 1
-4 -8 -1 -13 8 -13 9 0 16 -4 16 -10 0 -11 28 -9 49 4 10 6 12 5 7 -2 -4 -7
-3 -12 3 -12 5 0 13 4 16 10 12 20 94 33 228 36 76 2 135 -1 132 -5 -2 -5 5
-11 16 -14 12 -3 18 -10 15 -16 -3 -5 1 -17 10 -25 9 -9 11 -16 4 -16 -6 0 -8
-5 -3 -12 13 -22 12 -38 -4 -38 -13 0 -13 -2 -2 -17 8 -9 12 -19 10 -22 -2 -3
6 -10 18 -16 14 -6 19 -16 15 -27 -3 -10 -1 -18 4 -18 6 0 9 -8 8 -17 -2 -10
2 -21 8 -25 7 -6 8 -10 1 -15 -6 -5 -10 -20 -10 -35 1 -16 -3 -28 -8 -28 -4 0
-5 -4 -2 -10 3 -5 1 -10 -5 -10 -6 0 -8 -4 -5 -10 3 -5 -1 -10 -9 -10 -9 0
-39 -23 -67 -51 -31 -31 -56 -48 -65 -45 -9 4 -12 2 -8 -5 4 -7 0 -9 -14 -5
-11 4 -23 3 -26 -2 -6 -10 -46 -10 -63 1 -6 4 -15 3 -18 -3 -5 -8 -11 -8 -20
0 -9 8 -15 8 -20 0 -3 -6 -11 -7 -17 -4 -5 4 -39 7 -75 8 -35 2 -68 7 -71 12
-8 11 -28 17 -65 18 -16 1 -32 8 -37 16 -7 11 -10 12 -10 2 0 -10 -4 -9 -16 2
-8 9 -20 14 -25 11 -5 -4 -9 1 -9 10 0 9 -5 13 -10 10 -6 -4 -7 -12 -4 -18 4
-7 -4 -2 -18 11 -23 21 -26 21 -38 7 -8 -9 -22 -14 -32 -11 -15 3 -17 2 -8 -9
8 -10 8 -15 -1 -21 -8 -4 -9 -3 -5 4 4 7 2 12 -3 12 -11 0 -15 -15 -12 -34 1
-5 -4 -4 -12 2 -10 9 -17 9 -27 -1 -9 -8 -11 -9 -6 0 10 19 -11 25 -28 7 -9
-9 -16 -11 -16 -4 0 6 -4 8 -10 5 -5 -3 -10 0 -10 7 0 10 -2 10 -9 -1 -11 -16
-34 -5 -24 12 4 7 -1 6 -11 -2 -15 -12 -17 -12 -14 0 2 10 -6 14 -29 13 -26 0
-30 2 -22 13 14 16 23 17 13 1 -4 -7 -3 -8 5 -4 9 6 9 11 0 22 -10 12 -14 12
-20 2 -7 -10 -9 -10 -9 0 0 18 4 27 12 25 10 -4 3 23 -10 39 -6 8 -9 17 -6 20
3 3 -2 5 -12 5 -9 -1 -19 4 -22 12 -3 9 0 11 9 6 8 -5 11 -5 7 0 -4 4 -3 14 3
21 7 8 6 14 -2 20 -7 4 -9 3 -6 -3 8 -12 -17 -36 -26 -26 -4 3 -7 2 -7 -4 0
-6 -13 -10 -28 -10 -16 1 -29 7 -29 13 0 6 13 10 28 9 32 -3 58 18 38 31 -7 4
-9 3 -5 -4 3 -6 -1 -9 -11 -7 -10 2 -21 4 -25 4 -5 1 -8 6 -8 11 0 7 16 9 43
5 30 -4 38 -3 27 5 -13 9 -13 10 0 11 8 1 18 1 21 1 3 -1 6 5 6 13 0 8 -4 12
-9 9 -4 -3 -8 2 -8 11 0 9 5 13 10 10 6 -3 10 1 10 9 0 8 5 18 12 22 6 4 8 3
5 -3 -3 -5 0 -10 7 -10 8 0 12 11 11 28 -3 34 10 58 18 34 4 -9 3 -14 -2 -10
-11 6 -8 -21 3 -32 4 -4 6 -1 4 7 -1 8 2 14 8 13 6 -1 11 4 11 12 0 8 -5 11
-11 8 -6 -4 -5 1 3 10 13 16 37 14 27 -2 -3 -4 1 -8 9 -8 8 0 13 5 12 11 -1 5
5 10 13 11 8 0 15 5 16 10 0 6 4 18 9 28 6 14 10 16 16 6 4 -7 3 -19 -3 -26
-18 -22 -2 -14 18 9 12 14 14 19 4 13 -12 -6 -13 -5 -3 5 7 7 20 14 30 15 10
0 25 5 32 10 10 6 12 4 6 -6 -6 -11 -5 -11 5 -2 9 8 19 9 32 2 14 -7 20 -6 24
6 6 14 8 14 21 -2 11 -14 14 -14 10 -2z m-1444 -17 c-5 -14 -3 -15 18 -3 13 7
25 12 27 11 8 -6 22 -1 18 6 -3 5 1 9 9 9 8 0 15 -4 15 -9 0 -5 6 -6 13 -1 18
11 77 11 70 -1 -4 -5 1 -7 12 -2 11 4 26 0 38 -11 12 -10 17 -12 12 -4 -5 10
-4 12 3 7 13 -8 16 -32 5 -39 -5 -2 -2 -2 6 0 8 2 11 -2 7 -12 -3 -9 -2 -14 3
-10 5 3 11 -1 14 -7 2 -7 8 -10 12 -6 4 4 2 15 -6 24 -13 16 -12 16 8 3 21
-13 22 -15 6 -38 -14 -21 -14 -23 0 -18 8 3 18 0 21 -8 3 -9 0 -12 -8 -9 -8 3
-15 -4 -18 -20 -6 -30 0 -33 18 -8 12 15 12 13 4 -15 -9 -34 -3 -42 18 -21 7
7 12 9 12 5 0 -5 -12 -19 -27 -33 -16 -14 -23 -23 -17 -20 7 3 14 -4 17 -15 3
-12 10 -18 15 -15 6 4 8 -3 4 -16 -4 -16 -2 -19 9 -13 8 5 10 4 6 0 -16 -18
-35 -13 -30 9 4 18 3 19 -7 6 -10 -13 -11 -13 -6 3 3 10 0 17 -8 17 -23 0 -13
-52 12 -61 12 -5 22 -11 22 -13 0 -3 -7 -3 -15 1 -9 3 -15 2 -14 -3 1 -5 -5
-25 -14 -44 -9 -19 -16 -29 -17 -22 0 6 -4 12 -10 12 -6 0 -6 -9 0 -25 8 -22
7 -25 -13 -24 -12 0 -16 3 -9 6 14 5 16 23 3 23 -5 0 -13 -9 -16 -21 -4 -11
-9 -18 -13 -15 -3 3 -14 -2 -25 -11 -11 -10 -17 -13 -14 -6 4 6 2 15 -4 19 -8
4 -9 3 -5 -5 11 -16 -35 -32 -53 -17 -11 8 -13 8 -7 -1 11 -19 -19 -16 -34 2
-7 9 -15 13 -18 10 -3 -3 -12 1 -21 8 -14 11 -14 10 -2 -5 11 -15 11 -18 -1
-18 -8 0 -18 3 -22 7 -6 7 -29 13 -53 15 -7 1 -13 5 -13 10 0 5 -4 7 -9 3 -5
-3 -13 0 -17 6 -4 8 -9 7 -15 -2 -6 -10 -9 -7 -10 11 0 23 -1 23 -8 5 -7 -16
-10 -12 -18 25 -10 45 -10 44 -11 -29 -1 -41 -4 -76 -7 -79 -3 -3 -4 93 -3
214 0 128 4 198 8 169 4 -29 8 -38 8 -22 1 19 6 26 14 21 6 -4 8 -3 5 3 -4 6
0 16 8 23 12 10 13 16 3 27 -9 11 -8 13 3 11 8 -2 17 -10 21 -18 5 -12 7 -11
7 3 1 10 5 16 10 12 5 -3 13 -1 16 5 5 8 12 7 23 -2 14 -10 15 -10 5 2 -7 8
-13 20 -13 28 0 12 3 12 15 2 12 -10 15 -9 16 6 1 11 1 23 0 27 -1 5 3 6 8 2
6 -3 7 -13 4 -21z m-58 -26 c4 -3 2 -9 -3 -12 -5 -3 -15 1 -21 8 -10 11 -9 14
3 12 9 -1 18 -5 21 -8z m1289 -5 c4 -10 4 -14 0 -10 -4 4 -13 2 -21 -4 -16
-14 -17 3 -1 19 15 15 15 15 22 -5z m-367 -75 c-3 -8 -6 -5 -6 6 -1 11 2 17 5
13 3 -3 4 -12 1 -19z m-1654 -71 l132 -3 -137 -2 -138 -2 2 48 1 47 4 -42 4
-42 132 -4z m214 -179 c-1 -51 -3 -12 -3 87 0 99 2 141 3 93 2 -48 2 -129 0
-180z m1377 251 c4 6 13 11 19 11 8 0 8 -3 -1 -9 -10 -6 -10 -10 3 -21 8 -7
15 -9 15 -5 0 4 7 1 16 -6 9 -7 26 -18 38 -24 21 -11 32 -68 11 -62 -5 1 -9 5
-7 10 1 4 -2 7 -8 7 -5 0 -10 -5 -10 -11 0 -8 -5 -7 -16 1 -12 11 -15 11 -12
0 2 -8 -5 -16 -14 -18 -11 -2 -18 2 -18 12 0 9 6 15 13 14 6 -2 11 3 9 11 -3
12 -1 12 14 0 13 -11 18 -11 21 -1 3 6 9 10 14 6 15 -9 10 3 -8 17 -15 12 -16
12 -8 -1 6 -12 5 -12 -4 -4 -14 13 -54 7 -45 -7 3 -5 -1 -9 -8 -10 -32 -2 -52
-9 -59 -21 -5 -8 -8 -5 -6 10 1 13 8 22 17 22 9 0 20 3 24 8 8 7 13 9 43 11
14 1 13 5 -7 26 -17 18 -26 22 -31 13 -4 -7 -5 -17 -2 -23 4 -5 2 -7 -2 -3 -5
5 -10 20 -11 35 -2 18 0 23 5 14 6 -9 11 -10 15 -2z m132 -3 c8 -8 14 -18 14
-22 0 -4 -3 -4 -7 -1 -3 4 -13 1 -22 -6 -14 -10 -14 -10 -3 5 9 11 10 18 2 23
-5 3 -10 1 -10 -6 0 -7 -3 -10 -6 -6 -6 6 3 27 12 27 3 0 12 -6 20 -14z m77
-1 c-3 -9 -8 -14 -10 -11 -3 3 -2 9 2 15 9 16 15 13 8 -4z m69 -4 c8 11 9 11
5 -1 -2 -8 -12 -14 -22 -12 -9 2 -15 -1 -12 -5 3 -5 -3 -10 -14 -10 -18 -2
-18 0 3 17 13 11 25 14 27 8 2 -6 7 -5 13 3z m-309 -32 c3 -12 3 -18 0 -15 -4
3 -12 1 -20 -5 -9 -9 -13 -8 -13 0 0 6 5 11 10 11 6 0 9 3 9 8 -5 27 7 29 14
1z m222 -18 c-1 -14 -6 -26 -11 -25 -5 0 -20 -10 -34 -23 -20 -20 -21 -23 -5
-17 11 4 25 11 31 15 6 5 11 3 11 -6 0 -8 -3 -13 -5 -10 -3 3 -11 0 -19 -6
-10 -9 -11 -15 -1 -26 9 -11 8 -18 -5 -31 -16 -15 -17 -15 -17 1 0 10 5 15 10
12 6 -3 10 -2 10 4 0 5 -5 13 -10 16 -6 4 -8 11 -4 16 3 5 0 8 -6 7 -7 -2 -14
5 -15 15 -2 9 1 15 6 11 5 -3 9 0 9 5 0 6 -5 11 -12 11 -6 0 -8 3 -5 7 4 3 2
11 -3 18 -7 8 -5 12 5 12 8 0 13 -2 10 -5 -2 -3 0 -13 6 -24 10 -19 11 -19 24
-1 9 12 10 20 3 24 -13 9 -3 26 15 26 9 0 13 -10 12 -26z m-286 -7 c-7 -8 -7
-14 1 -19 5 -3 10 -1 10 6 0 24 11 1 16 -33 l5 -33 -20 31 c-11 18 -24 35 -30
39 -15 8 -6 22 13 22 11 0 13 -4 5 -13z m-375 -60 c3 -8 2 -12 -4 -9 -6 3 -10
10 -10 16 0 14 7 11 14 -7z m571 -11 c11 -2 24 -8 29 -13 14 -14 -1 -25 -17
-12 -8 7 -18 8 -22 4 -5 -4 -5 0 0 8 6 12 5 13 -5 3 -11 -10 -17 -10 -29 0
-10 7 -8 2 3 -11 11 -12 16 -23 13 -23 -4 -1 -13 -2 -19 -3 -7 -1 -12 -8 -10
-16 3 -11 0 -11 -13 0 -14 11 -14 14 2 27 16 13 16 13 -4 4 -14 -7 -24 -8 -28
-1 -3 5 1 10 10 10 10 0 13 5 9 12 -4 6 -3 8 3 5 6 -4 16 0 23 8 7 8 17 12 24
8 6 -4 20 -9 31 -10z m-98 -9 c-3 -3 -12 -4 -19 -1 -8 3 -5 6 6 6 11 1 17 -2
13 -5z m-1540 -146 c-2 -29 -3 -8 -3 47 0 55 1 79 3 53 2 -26 2 -71 0 -100z
m1503 128 c0 -2 -7 -7 -16 -10 -8 -3 -12 -2 -9 4 6 10 25 14 25 6z m140 -13
c0 -7 -3 -12 -7 -12 -20 3 -21 -3 -6 -20 20 -24 33 -19 27 12 -5 22 -5 22 6
-1 5 -13 14 -21 18 -18 5 3 9 -1 9 -8 0 -8 -7 -13 -16 -11 -9 1 -22 -2 -29 -8
-10 -8 -12 -7 -10 3 4 21 -24 19 -48 -3 -15 -13 -24 -15 -29 -7 -8 14 -3 21
19 24 9 1 15 5 14 8 -2 3 5 15 15 25 9 11 15 22 12 25 -3 2 2 5 10 5 8 0 15
-6 15 -14z m-186 -1 c3 -5 -1 -9 -9 -9 -8 0 -12 4 -9 9 3 4 7 8 9 8 2 0 6 -4
9 -8z m341 -12 c8 -13 -15 -13 -35 0 -12 8 -11 10 7 10 12 0 25 -4 28 -10z
m-255 -10 c0 -5 -4 -10 -10 -10 -5 0 -10 5 -10 10 0 6 5 10 10 10 6 0 10 -4
10 -10z m203 -16 c-1 -5 4 -16 10 -24 6 -8 7 -12 3 -8 -5 4 -16 2 -24 -5 -10
-8 -13 -8 -9 -1 4 7 0 14 -8 18 -20 7 -8 35 13 32 9 -2 16 -7 15 -12z m91 -15
c-3 -5 -10 -7 -15 -4 -5 4 -9 -2 -10 -12 0 -16 -1 -16 -8 2 -11 27 6 50 25 34
8 -6 11 -15 8 -20z m-214 -13 c0 -2 -7 -7 -16 -10 -8 -3 -12 -2 -9 4 6 10 25
14 25 6z m524 -44 c3 -5 -1 -9 -9 -9 -8 0 -12 4 -9 9 3 4 7 8 9 8 2 0 6 -4 9
-8z m-1353 -85 c-6 -6 -18 -12 -27 -13 -9 -1 -13 1 -9 4 4 4 12 7 18 7 7 1 11
7 9 14 -1 7 2 9 9 6 8 -5 8 -10 0 -18z m-1226 -217 c10 -11 16 -20 13 -20 -3
0 -13 9 -23 20 -10 11 -16 20 -13 20 3 0 13 -9 23 -20z m1005 17 c0 -2 -10
-12 -22 -23 l-23 -19 19 23 c18 21 26 27 26 19z"/>
<path d="M2177 2847 c3 -4 7 -6 10 -3 3 3 14 1 24 -5 14 -7 17 -6 13 4 -2 7
-15 13 -29 13 -13 0 -21 -4 -18 -9z"/>
<path d="M2320 2518 c-12 -8 -11 -9 4 -4 13 5 17 2 12 -9 -6 -16 9 -21 18 -6
10 15 -18 31 -34 19z"/>
<path d="M2900 2706 c0 -2 8 -10 18 -17 15 -13 16 -12 3 4 -13 16 -21 21 -21
13z"/>
<path d="M3055 2521 c-3 -5 -2 -12 3 -15 5 -3 9 1 9 9 0 17 -3 19 -12 6z"/>
<path d="M3136 2522 c-3 -5 1 -9 9 -9 8 0 12 4 9 9 -3 4 -7 8 -9 8 -2 0 -6 -4
-9 -8z"/>
</g>
</svg>
