<?xml version="1.0" standalone="no"?>
<!DOCTYPE svg PUBLIC "-//W3C//DTD SVG 20010904//EN"
 "http://www.w3.org/TR/2001/REC-SVG-20010904/DTD/svg10.dtd">
<svg version="1.0" xmlns="http://www.w3.org/2000/svg"
 width="500.000000pt" height="500.000000pt" viewBox="0 0 500.000000 500.000000"
 preserveAspectRatio="xMidYMid meet">
<metadata>
Created by potrace 1.16, written by Peter Selinger 2001-2019
</metadata>
<g transform="translate(0.000000,500.000000) scale(0.100000,-0.100000)"
fill="#000000" stroke="none">
<path d="M0 2500 l0 -2500 2500 0 2500 0 0 2500 0 2500 -2500 0 -2500 0 0
-2500z m1618 663 c-125 -2 -332 -2 -460 0 -128 1 -26 2 227 2 253 0 358 -1
233 -2z m-708 -6 c0 -2 -10 -12 -22 -23 l-23 -19 19 23 c18 21 26 27 26 19z
m1000 -259 c0 -139 3 -207 10 -203 6 4 7 11 4 17 -4 6 0 14 7 19 10 6 11 9 1
9 -7 0 2 14 20 30 24 22 28 29 13 24 -19 -5 -19 -5 -1 7 16 10 36 14 89 18 4
1 7 6 7 12 0 8 -6 7 -17 -2 -16 -13 -17 -12 -4 4 10 13 17 14 26 7 9 -7 15 -7
19 -1 4 5 15 8 26 6 11 -2 20 1 20 6 0 6 8 5 21 -2 16 -8 20 -8 14 1 -5 9 -2
10 11 3 23 -10 66 -9 85 2 12 7 12 6 1 -8 -12 -14 -11 -15 12 -11 13 2 28 -1
32 -8 5 -8 2 -9 -9 -5 -19 7 -20 2 -7 -28 7 -17 9 -17 9 -2 1 9 8 17 17 17 15
0 15 -2 0 -25 -15 -23 -15 -24 1 -18 10 4 14 2 10 -4 -3 -5 -1 -27 5 -49 7
-21 12 -52 12 -67 1 -15 8 -32 16 -38 12 -9 12 -10 -4 -5 -14 5 -17 3 -11 -11
15 -38 15 -55 0 -49 -20 7 -19 -2 1 -22 10 -10 12 -18 6 -20 -6 -2 -9 -9 -6
-17 3 -8 -4 -20 -15 -27 -12 -7 -21 -18 -21 -25 0 -20 -30 -15 -31 5 -1 15 -2
15 -6 0 -2 -9 -18 -21 -34 -27 -17 -6 -28 -15 -24 -21 3 -6 0 -7 -10 -4 -8 4
-22 0 -31 -7 -12 -10 -15 -10 -12 1 2 8 -5 16 -16 18 -10 2 -16 0 -12 -6 3 -5
-1 -15 -9 -22 -15 -12 -16 -11 -19 12 -1 12 -36 21 -36 9 0 -11 -49 -1 -57 12
-4 6 -1 7 7 2 8 -5 11 -4 7 3 -4 5 -15 8 -26 5 -12 -3 -20 2 -24 16 -4 15 -11
19 -31 15 -23 -4 -26 -1 -28 28 -1 18 -5 -23 -8 -92 -4 -74 -7 47 -8 300 -2
368 -4 429 -18 450 l-16 25 21 -24 c20 -22 21 -35 21 -233z m-1043 190 c-3 -8
-6 -5 -6 6 -1 11 2 17 5 13 3 -3 4 -12 1 -19z m771 -435 l-3 -258 -2 253 -3
252 -245 0 -244 0 -4 -42 -4 -43 -1 48 -2 47 255 0 255 0 -2 -257z m1905 215
c9 2 17 -1 17 -6 0 -5 11 -8 26 -6 22 2 23 0 12 -14 -10 -13 -11 -14 0 -8 7 4
20 2 29 -6 12 -9 15 -9 9 0 -4 7 -2 12 7 12 8 0 18 -7 21 -16 6 -15 8 -15 24
-2 9 9 25 14 35 13 9 -2 17 0 17 5 0 9 53 20 120 26 131 11 180 12 175 5 -3
-5 3 -7 13 -4 18 4 69 -33 64 -48 -1 -5 2 -9 7 -9 4 0 8 -22 8 -48 0 -47 13
-84 39 -110 16 -15 11 -117 -6 -137 -5 -6 -7 -15 -3 -18 3 -4 -1 -7 -10 -7
-10 0 -17 -4 -17 -9 0 -5 -9 -13 -21 -16 -11 -4 -18 -9 -16 -12 8 -7 -26 -43
-40 -43 -7 0 -13 -7 -13 -15 0 -9 -6 -12 -15 -9 -8 4 -23 0 -32 -7 -10 -8 -14
-9 -10 -2 5 8 -1 7 -20 -2 -20 -9 -41 -11 -70 -6 -29 6 -40 5 -36 -2 4 -7 -1
-8 -13 -3 -10 5 -48 9 -84 11 -67 2 -100 11 -100 26 0 5 -8 9 -17 9 -10 0 -32
9 -50 20 -18 10 -35 15 -38 11 -3 -5 -14 -7 -25 -4 -11 3 -18 9 -15 13 3 4
-11 6 -30 3 -25 -3 -35 -1 -36 9 0 7 -4 3 -9 -9 -5 -13 -17 -23 -26 -23 -14 0
-15 2 -3 18 12 15 12 16 -2 5 -9 -7 -19 -9 -23 -5 -4 4 -6 0 -4 -8 2 -10 -5
-15 -18 -15 -12 -1 -28 -6 -36 -12 -19 -17 -78 -14 -71 3 3 9 -2 12 -16 9 -19
-3 -26 5 -22 27 0 4 -9 5 -20 3 -18 -4 -19 -2 -7 12 9 12 9 15 1 9 -9 -5 -13
0 -13 16 0 19 -2 20 -11 8 -9 -12 -10 -11 -6 8 3 12 3 22 1 22 -3 0 -9 -10
-14 -22 -8 -22 -9 -21 -7 5 1 15 5 27 9 27 4 0 8 4 8 9 0 5 -8 8 -17 7 -12 -2
-17 -10 -15 -23 1 -11 -5 -26 -14 -34 -16 -13 -16 -12 -3 8 11 18 11 25 1 35
-16 16 -15 31 2 25 20 -8 28 4 15 20 -9 10 -8 13 2 13 11 0 11 2 -1 9 -8 6
-18 7 -24 4 -5 -3 -6 -1 -2 6 4 7 13 10 19 8 20 -6 60 61 53 89 -7 27 10 34
18 7 3 -11 4 -7 3 7 -1 17 3 24 12 22 12 -3 12 0 1 12 -10 13 -10 16 0 16 7 0
19 -8 27 -17 13 -17 13 -16 4 3 -6 12 -6 26 0 35 7 11 9 11 9 1 0 -10 4 -10
16 2 19 19 30 21 18 3 -5 -7 -1 -5 8 5 16 17 17 17 21 1 4 -14 5 -13 6 4 0 12
5 24 10 28 6 3 8 -5 6 -17 -4 -23 -4 -23 11 -3 9 11 20 19 25 18 5 -2 9 2 9 9
0 9 3 9 11 1 9 -9 17 -8 33 1 11 8 31 13 44 11 13 -1 25 2 28 7 3 4 11 5 17 1
7 -4 20 -6 30 -5z m-528 -97 c3 -5 2 -12 -3 -15 -5 -3 -9 1 -9 9 0 17 3 19 12
6z m-661 -44 c2 -15 1 -27 -3 -27 -10 0 -21 47 -13 55 8 7 10 3 16 -28z m633
1 c-3 -7 -5 -2 -5 12 0 14 2 19 5 13 2 -7 2 -19 0 -25z m-1714 -61 l132 -3
-137 -2 -138 -2 2 48 1 47 4 -42 4 -42 132 -4z m214 -179 c-1 -51 -3 -12 -3
87 0 99 2 141 3 93 2 -48 2 -129 0 -180z m1679 215 c2 -10 -6 -29 -16 -43 -18
-24 -23 -9 -7 18 5 7 3 12 -5 12 -9 0 -10 3 -2 8 6 4 10 15 8 26 -2 14 0 16 9
7 6 -6 12 -19 13 -28z m-100 -9 c0 -13 -2 -22 -5 -19 -3 3 -6 17 -7 31 0 13 2
22 5 19 3 -3 6 -17 7 -31z m-136 1 c-5 -7 -8 -14 -5 -17 3 -2 -2 -5 -10 -5
-10 0 -12 4 -5 12 5 7 8 14 5 17 -3 2 2 5 10 5 10 0 12 -4 5 -12z m-86 -26
c-3 -5 -10 -7 -15 -3 -5 3 -7 10 -3 15 3 5 10 7 15 3 5 -3 7 -10 3 -15z m193
-11 c-3 -8 -6 -5 -6 6 -1 11 2 17 5 13 3 -3 4 -12 1 -19z m-104 -12 c10 3 17
1 17 -5 0 -6 -11 -11 -25 -11 -17 0 -25 5 -25 18 0 12 2 14 8 4 5 -7 16 -10
25 -6z m-57 -18 c5 4 0 -3 -10 -15 -10 -13 -23 -20 -28 -17 -5 3 -5 11 1 18 6
7 7 17 3 22 -4 4 0 3 9 -4 9 -6 20 -8 25 -4z m54 -32 c0 -7 -40 -14 -44 -7 -3
4 6 8 20 9 13 1 24 0 24 -2z m37 -2 c-3 -3 -12 -4 -19 -1 -8 3 -5 6 6 6 11 1
17 -2 13 -5z m113 2 c0 -3 -4 -8 -10 -11 -5 -3 -10 -1 -10 4 0 6 5 11 10 11 6
0 10 -2 10 -4z m-1943 -148 c-2 -29 -3 -8 -3 47 0 55 1 79 3 53 2 -26 2 -71 0
-100z m190 0 c-2 -29 -3 -8 -3 47 0 55 1 79 3 53 2 -26 2 -71 0 -100z m1521
123 c-2 -19 4 -22 17 -11 8 7 15 10 15 7 0 -2 -6 -10 -13 -16 -11 -8 -18 -7
-31 7 -13 15 -13 19 -2 19 8 0 15 -3 14 -6z m145 -36 c4 -8 3 -16 -1 -19 -4
-3 -9 4 -9 15 -2 23 3 25 10 4z m35 -10 c-3 -3 -9 2 -12 12 -6 14 -5 15 5 6 7
-7 10 -15 7 -18z m-1058 -95 c0 -4 -12 -7 -26 -7 -14 0 -21 3 -15 7 7 3 18 7
26 7 8 0 15 -4 15 -7z m1380 -20 c0 -5 -5 -10 -11 -10 -5 0 -7 5 -4 10 3 6 8
10 11 10 2 0 4 -4 4 -10z m-1081 -3 c-2 -1 -13 -9 -24 -17 -19 -14 -19 -14 -6
3 7 9 18 17 24 17 6 0 8 -1 6 -3z m-1402 -219 c-3 -8 -6 -5 -6 6 -1 11 2 17 5
13 3 -3 4 -12 1 -19z m1040 0 c-3 -8 -6 -5 -6 6 -1 11 2 17 5 13 3 -3 4 -12 1
-19z m-1012 -38 c10 -11 16 -20 13 -20 -3 0 -13 9 -23 20 -10 11 -16 20 -13
20 3 0 13 -9 23 -20z m1005 17 c0 -2 -10 -12 -22 -23 l-23 -19 19 23 c18 21
26 27 26 19z m-953 -43 c-3 -3 -12 -4 -19 -1 -8 3 -5 6 6 6 11 1 17 -2 13 -5z
m900 0 c-3 -3 -12 -4 -19 -1 -8 3 -5 6 6 6 11 1 17 -2 13 -5z"/>
<path d="M2326 2575 c4 -8 11 -15 16 -15 6 0 5 6 -2 15 -7 8 -14 15 -16 15 -2
0 -1 -7 2 -15z"/>
<path d="M2322 2495 c-17 -37 -14 -45 4 -12 9 16 14 31 11 33 -2 2 -9 -7 -15
-21z"/>
</g>
</svg>
