<?xml version="1.0" standalone="no"?>
<!DOCTYPE svg PUBLIC "-//W3C//DTD SVG 20010904//EN"
 "http://www.w3.org/TR/2001/REC-SVG-20010904/DTD/svg10.dtd">
<svg version="1.0" xmlns="http://www.w3.org/2000/svg"
 width="500.000000pt" height="500.000000pt" viewBox="0 0 500.000000 500.000000"
 preserveAspectRatio="xMidYMid meet">
<metadata>
Created by potrace 1.16, written by Peter Selinger 2001-2019
</metadata>
<g transform="translate(0.000000,500.000000) scale(0.100000,-0.100000)"
fill="#000000" stroke="none">
<path d="M0 2500 l0 -2500 2500 0 2500 0 0 2500 0 2500 -2500 0 -2500 0 0
-2500z m1400 535 c9 -8 20 -12 23 -8 4 3 7 1 7 -6 0 -8 5 -9 17 -2 12 6 20 5
29 -7 12 -16 52 -24 69 -13 23 15 85 3 159 -32 43 -21 76 -40 73 -43 -3 -3
-13 -1 -24 5 -10 6 -47 24 -81 40 -59 28 -66 29 -87 15 -18 -12 -24 -12 -28
-2 -3 10 -9 8 -26 -6 -21 -19 -21 -19 -21 0 0 14 -2 16 -9 5 -7 -10 -12 -9
-23 8 -12 17 -22 21 -46 16 -23 -4 -31 -1 -35 14 -4 17 -13 19 -78 17 -104 -4
-207 -20 -254 -40 -34 -15 -38 -15 -25 -1 9 8 43 20 75 26 33 6 87 16 120 23
74 15 142 11 165 -9z m-470 -60 c7 -9 16 -12 19 -7 3 5 22 12 41 15 34 6 33 5
-11 -16 -25 -12 -54 -29 -64 -37 -10 -8 -20 -14 -22 -12 -11 8 -22 -1 -26 -20
-3 -17 -5 -14 -6 10 -1 35 24 82 44 82 7 0 18 -7 25 -15z m908 -65 c9 -5 29
-14 44 -20 26 -9 27 -12 30 -97 2 -48 1 -185 -2 -303 l-5 -215 -5 299 -5 299
-30 10 c-16 6 -32 13 -35 17 -3 4 -14 10 -25 13 -16 4 -17 5 -2 6 9 0 25 -3
35 -9z m-200 -257 l-3 -258 -2 253 -3 252 -245 0 -244 0 -4 -42 -4 -43 -1 48
-2 47 255 0 255 0 -2 -257z m2230 217 c7 0 10 6 7 13 -4 6 1 3 9 -7 16 -20 16
-20 17 0 0 18 1 18 9 -1 5 -11 9 -15 9 -9 1 11 31 15 31 4 0 -4 7 -7 15 -7 8
0 15 5 15 10 0 6 8 3 18 -6 10 -10 22 -14 25 -10 4 3 7 -4 7 -16 0 -12 4 -20
8 -17 4 2 13 -4 20 -15 8 -12 8 -19 2 -19 -6 0 -5 -6 2 -14 7 -8 16 -12 21 -9
4 2 7 -5 7 -16 0 -12 5 -21 11 -21 5 0 7 -4 4 -10 -3 -5 -1 -10 4 -10 6 0 11
-10 11 -23 0 -13 3 -27 8 -31 10 -11 9 -106 -2 -106 -4 0 -6 -6 -3 -13 3 -7
-1 -24 -9 -38 -7 -13 -13 -20 -14 -14 0 5 -7 -1 -16 -13 -8 -12 -20 -19 -26
-16 -7 4 -8 2 -4 -4 4 -6 -2 -20 -14 -32 -11 -11 -20 -15 -20 -9 0 5 -5 7 -10
4 -6 -4 -8 -10 -6 -14 3 -4 -7 -7 -22 -6 -17 1 -33 -6 -44 -18 -14 -19 -18
-19 -34 -7 -11 9 -15 10 -10 3 4 -8 2 -13 -8 -13 -8 0 -18 5 -21 10 -4 6 -11
7 -18 3 -14 -8 -94 -4 -115 6 -25 12 -85 33 -99 34 -7 0 -10 4 -7 9 3 4 -1 8
-9 8 -8 0 -20 7 -27 15 -7 8 -16 12 -21 9 -5 -3 -9 0 -9 5 0 6 -4 11 -9 11 -5
0 -7 -10 -5 -22 2 -13 1 -16 -2 -8 -15 35 -64 62 -64 36 0 -8 -5 -18 -12 -22
-7 -4 -8 -3 -4 4 4 7 3 12 -3 12 -5 0 -12 -6 -14 -12 -3 -7 -6 -1 -6 14 -1 36
-19 45 -30 16 -7 -16 -10 -18 -10 -6 -1 9 -5 19 -10 22 -5 4 -7 -4 -3 -16 3
-14 1 -19 -6 -14 -6 3 -13 2 -17 -4 -3 -5 1 -10 10 -10 9 0 13 -5 10 -10 -4
-7 -11 -7 -18 -2 -7 5 -20 8 -29 7 -10 -2 -18 1 -18 5 0 5 8 11 18 13 16 4 16
5 0 6 -10 0 -22 -8 -28 -20 -7 -11 -14 -18 -17 -15 -4 3 -12 1 -20 -6 -11 -9
-13 -8 -11 3 2 8 -3 13 -10 11 -6 -1 -11 1 -10 5 2 5 0 8 -3 8 -4 0 -15 7 -25
16 -11 9 -26 19 -34 22 -13 5 -13 6 1 6 20 1 21 31 1 31 -12 0 -12 3 -2 15 7
8 9 15 5 15 -5 0 0 10 11 23 19 22 19 22 -2 5 -28 -24 -55 -25 -32 -1 16 15
16 17 0 29 -15 11 -15 13 -1 14 8 0 20 -5 26 -11 7 -7 10 1 9 28 -1 34 2 38
22 37 12 -1 20 1 17 4 -2 3 0 11 6 19 9 10 15 10 25 2 23 -19 16 -4 -8 17 -12
10 -18 14 -15 7 9 -15 -9 -27 -18 -12 -4 5 -5 12 -2 15 9 10 47 12 52 4 7 -11
45 10 45 24 0 5 -10 1 -22 -10 -23 -19 -23 -19 -5 2 9 11 14 23 11 27 -8 7 18
3 32 -5 7 -5 11 2 10 19 -1 14 5 28 12 31 7 2 11 -1 10 -6 -2 -6 0 -9 3 -8 3
0 14 -6 24 -14 11 -9 16 -10 11 -2 -4 7 -1 12 9 12 9 0 14 -4 11 -9 -4 -5 2
-8 11 -6 10 1 23 -1 29 -6 7 -5 11 -3 11 6 0 8 -5 11 -10 8 -6 -3 -7 -1 -3 6
6 9 11 9 21 1 9 -8 15 -8 20 0 8 13 25 13 25 -1 0 -5 -4 -8 -8 -5 -5 3 -9 -1
-9 -8 0 -8 9 -11 25 -8 15 3 19 7 12 12 -8 5 -7 9 4 13 11 4 16 1 17 -11 0
-11 2 -12 6 -4 4 10 8 10 19 1 12 -9 13 -9 9 3 -4 9 0 18 9 21 11 4 14 0 11
-14 -4 -17 -2 -19 10 -9 8 7 15 9 15 4 0 -4 11 3 25 16 14 13 25 20 25 16 0
-5 6 -3 13 3 8 6 17 8 20 4 4 -3 7 -2 7 4 0 6 21 10 48 9 37 -1 46 2 44 14 -3
12 -1 13 9 3 7 -7 19 -13 27 -13z m-1703 -78 c-3 -3 -11 0 -18 7 -9 10 -8 11
6 5 10 -3 15 -9 12 -12z m-95 -6 c0 -2 -7 -7 -16 -10 -8 -3 -12 -2 -9 4 6 10
25 14 25 6z m30 -38 c0 7 10 12 21 12 19 0 20 -2 8 -17 -12 -15 -12 -16 5 -10
15 6 17 5 8 -6 -12 -14 -6 -27 12 -27 6 0 4 5 -4 10 -12 8 -11 10 8 10 25 0
32 -12 35 -61 1 -22 -2 -33 -11 -31 -6 1 -12 -2 -12 -8 0 -5 4 -10 9 -10 6 0
13 5 16 10 3 6 12 10 18 10 7 0 4 -5 -6 -11 -12 -7 -16 -18 -12 -37 5 -25 5
-25 -4 -4 -13 28 -21 29 -16 1 6 -28 -15 -57 -37 -53 -20 3 -33 -12 -19 -20 5
-4 12 -2 16 4 10 16 24 2 18 -19 -5 -18 -25 -22 -39 -8 -4 4 -15 0 -25 -9 -13
-12 -19 -12 -25 -3 -5 8 -3 10 6 4 9 -5 11 -4 6 4 -4 6 0 14 8 17 19 7 11 24
-10 24 -8 0 -12 -5 -9 -10 8 -13 -13 -40 -31 -40 -8 0 -14 7 -14 16 0 9 5 12
13 8 6 -4 3 2 -7 14 -13 15 -23 19 -31 12 -6 -5 -16 -6 -20 -2 -5 4 -5 2 -1
-5 3 -6 2 -14 -4 -18 -5 -3 -10 3 -10 14 0 12 -6 21 -12 22 -10 0 -10 2 0 6 6
2 12 14 12 25 0 20 1 20 18 5 15 -14 19 -15 19 -2 0 8 -4 12 -8 9 -4 -2 -10 0
-13 5 -4 5 -2 13 4 16 7 4 7 11 2 18 -17 22 1 83 20 71 10 -6 11 -5 1 8 -7 8
-9 19 -5 24 4 5 -2 1 -14 -9 -11 -9 -23 -15 -26 -12 -2 3 -5 -2 -5 -10 0 -8 4
-12 9 -9 4 3 8 -2 8 -11 0 -10 -5 -13 -12 -9 -9 5 -9 2 1 -9 7 -9 10 -17 6
-17 -4 0 -2 -6 4 -14 7 -8 8 -17 3 -20 -14 -9 -46 32 -49 62 -2 22 -1 23 6 8
7 -19 8 -19 13 1 3 12 1 26 -5 32 -6 6 -9 11 -6 12 26 4 43 8 56 14 14 5 14 7
-3 20 -10 8 -14 15 -8 15 15 0 36 -25 27 -33 -3 -4 1 -7 11 -7 10 0 14 -5 11
-11 -4 -6 2 -5 14 3 26 16 27 28 3 23 -11 -2 -19 3 -19 10 0 7 8 12 18 10 10
-2 22 1 25 7 5 7 12 5 21 -7 7 -11 13 -13 13 -7z m-827 -81 l132 -3 -137 -2
-138 -2 2 48 1 47 4 -42 4 -42 132 -4z m214 -179 c-1 -51 -3 -12 -3 87 0 99 2
141 3 93 2 -48 2 -129 0 -180z m713 252 c0 -5 -5 -10 -11 -10 -5 0 -7 5 -4 10
3 6 8 10 11 10 2 0 4 -4 4 -10z m1026 -27 c-9 -10 -35 -13 -40 -4 -3 4 7 8 21
9 15 1 23 -1 19 -5z m-1001 -12 c3 -5 1 -12 -5 -16 -6 -4 -7 -12 -4 -18 4 -7
1 -6 -7 2 -12 11 -12 14 0 18 11 5 11 7 0 14 -9 6 -10 9 -2 9 6 0 14 -4 18 -9z
m961 -44 c2 -12 0 -16 -2 -9 -3 6 -10 10 -15 6 -10 -6 -12 19 -2 29 9 10 16 0
19 -26z m-1230 -70 c4 -4 0 -7 -8 -7 -9 0 -18 -6 -21 -12 -3 -7 -5 -3 -4 8 1
21 18 26 33 11z m-819 -139 c-2 -29 -3 -8 -3 47 0 55 1 79 3 53 2 -26 2 -71 0
-100z m190 0 c-2 -29 -3 -8 -3 47 0 55 1 79 3 53 2 -26 2 -71 0 -100z m853 77
c-10 -12 -10 -15 1 -16 10 0 11 -2 1 -6 -6 -2 -9 -10 -6 -15 4 -6 2 -8 -4 -5
-11 7 -10 20 3 50 4 10 10 16 13 13 3 -3 -1 -12 -8 -21z m37 10 c0 -8 -4 -12
-9 -9 -4 3 -8 9 -8 15 0 5 4 9 8 9 5 0 9 -7 9 -15z m-204 -45 c-3 -10 -11 -25
-19 -31 -11 -9 -14 -7 -14 13 0 25 18 50 31 43 4 -3 5 -14 2 -25z m1414 -12
c-3 -8 -6 -5 -6 6 -1 11 2 17 5 13 3 -3 4 -12 1 -19z m-217 -14 c0 -8 -5 -12
-10 -9 -6 4 -8 11 -5 16 9 14 15 11 15 -7z m297 -26 c-3 -8 -6 -5 -6 6 -1 11
2 17 5 13 3 -3 4 -12 1 -19z m-1418 9 c-2 -1 -13 -9 -24 -17 -19 -14 -19 -14
-6 3 7 9 18 17 24 17 6 0 8 -1 6 -3z m-182 -259 c-3 -8 -6 -5 -6 6 -1 11 2 17
5 13 3 -3 4 -12 1 -19z m-1012 -38 c10 -11 16 -20 13 -20 -3 0 -13 9 -23 20
-10 11 -16 20 -13 20 3 0 13 -9 23 -20z m1005 17 c0 -2 -10 -12 -22 -23 l-23
-19 19 23 c18 21 26 27 26 19z m-953 -43 c-3 -3 -12 -4 -19 -1 -8 3 -5 6 6 6
11 1 17 -2 13 -5z"/>
<path d="M3357 2809 c7 -9 11 -18 8 -21 -3 -2 1 -5 8 -5 8 0 14 6 14 14 0 7
-3 11 -5 8 -3 -3 -12 1 -21 8 -14 10 -14 10 -4 -4z"/>
<path d="M3254 2484 c2 -10 8 -20 14 -22 17 -5 15 13 -2 27 -12 10 -14 9 -12
-5z"/>
<path d="M3528 2483 c7 -3 16 -2 19 1 4 3 -2 6 -13 5 -11 0 -14 -3 -6 -6z"/>
<path d="M2071 2738 c-1 -29 13 -45 24 -28 4 6 11 7 17 4 7 -4 8 -2 4 5 -4 6
-12 9 -17 6 -5 -4 -13 4 -18 17 -10 23 -10 23 -10 -4z"/>
<path d="M2042 2699 c2 -7 12 -13 21 -15 23 -3 21 3 -4 17 -17 8 -20 8 -17 -2z"/>
<path d="M2170 2689 c0 -11 -4 -18 -9 -14 -5 3 -12 1 -15 -4 -4 -5 2 -8 11 -7
16 3 33 46 19 46 -3 0 -6 -9 -6 -21z"/>
</g>
</svg>
