<?xml version="1.0" standalone="no"?>
<!DOCTYPE svg PUBLIC "-//W3C//DTD SVG 20010904//EN"
 "http://www.w3.org/TR/2001/REC-SVG-20010904/DTD/svg10.dtd">
<svg version="1.0" xmlns="http://www.w3.org/2000/svg"
 width="500.000000pt" height="500.000000pt" viewBox="0 0 500.000000 500.000000"
 preserveAspectRatio="xMidYMid meet">
<metadata>
Created by potrace 1.16, written by Peter Selinger 2001-2019
</metadata>
<g transform="translate(0.000000,500.000000) scale(0.100000,-0.100000)"
fill="#000000" stroke="none">
<path d="M0 2500 l0 -2500 2500 0 2500 0 0 2500 0 2500 -2500 0 -2500 0 0
-2500z m1545 660 c4 -7 11 -7 18 -2 7 5 40 10 75 11 51 1 71 -3 100 -21 55
-35 74 -46 110 -64 17 -10 32 -24 32 -31 0 -7 7 -13 15 -13 13 0 15 -50 13
-397 l-3 -398 -2 392 c-3 343 -5 392 -18 387 -10 -4 -15 0 -15 12 0 12 -17 28
-47 44 -27 13 -66 37 -87 52 -41 29 -118 39 -131 17 -4 -6 -13 -8 -21 -5 -7 3
-20 -4 -28 -15 -14 -21 -14 -21 -18 2 l-3 24 -198 3 c-184 2 -201 1 -250 -19
-28 -12 -61 -31 -73 -41 -11 -10 -25 -18 -32 -18 -12 0 -78 -34 -99 -52 -6 -5
-14 -19 -16 -31 -3 -14 -5 -11 -4 8 2 26 11 34 77 68 41 22 77 42 80 46 3 4
28 17 55 29 46 20 67 21 257 22 134 0 209 -4 213 -10z m93 -507 l-3 -258 -2
253 -3 252 -245 0 -244 0 -4 -42 -4 -43 -1 48 -2 47 255 0 255 0 -2 -257z
m2360 219 c7 -1 10 -6 7 -12 -3 -6 1 -7 9 -4 9 3 16 1 16 -6 0 -6 5 -8 10 -5
6 3 10 1 10 -4 0 -6 7 -11 16 -11 14 0 15 -3 3 -17 -7 -10 -10 -15 -5 -11 14
12 35 -18 29 -41 -3 -13 -1 -21 6 -21 7 0 10 -4 6 -9 -3 -5 -1 -12 5 -16 6 -4
8 -11 5 -16 -4 -5 -1 -9 6 -9 8 0 8 -5 -2 -17 -7 -10 -10 -15 -5 -11 11 9 39
-19 31 -31 -3 -5 -1 -12 3 -15 10 -6 9 -32 -2 -57 -4 -9 -6 -20 -5 -25 4 -22
-2 -32 -22 -37 -15 -4 -20 -11 -16 -21 4 -10 1 -16 -9 -16 -8 0 -20 -5 -27
-10 -7 -6 -21 -18 -32 -26 -11 -9 -14 -13 -7 -9 6 3 12 1 12 -4 0 -6 -7 -11
-15 -11 -8 0 -15 -7 -15 -16 0 -8 -5 -12 -10 -9 -6 4 -8 11 -4 16 7 11 -18 8
-27 -4 -3 -5 -12 -9 -20 -10 -8 -2 -20 -7 -28 -11 -10 -7 -12 -5 -6 5 5 8 0 7
-12 -4 -11 -9 -22 -15 -24 -13 -10 9 -80 16 -75 8 3 -5 -13 -3 -36 5 -22 8
-47 12 -55 9 -7 -3 -13 -1 -13 4 0 5 -11 12 -25 16 -14 3 -22 10 -19 15 3 5
-1 6 -9 3 -15 -5 -81 29 -72 37 2 3 -9 4 -25 3 -17 -1 -27 2 -24 7 9 15 -18
10 -37 -7 -16 -15 -17 -14 -13 8 2 12 1 17 -2 9 -5 -11 -8 -11 -16 0 -7 10 -8
7 -5 -10 6 -22 5 -23 -12 -5 -12 13 -15 21 -7 26 8 5 8 8 0 8 -19 0 -24 -13
-11 -28 8 -11 8 -14 0 -9 -6 4 -14 3 -18 -3 -4 -7 -13 -6 -27 1 -15 8 -23 8
-32 -2 -8 -9 -8 -10 1 -5 6 3 14 2 17 -3 4 -5 -2 -8 -11 -7 -10 2 -18 9 -18
16 0 7 -6 15 -13 18 -9 3 -12 -3 -10 -14 2 -13 -3 -19 -14 -18 -10 1 -18 -3
-18 -8 0 -7 -5 -6 -13 1 -8 6 -17 8 -20 4 -4 -3 -7 -2 -7 3 0 6 -7 19 -15 30
-11 13 -14 14 -13 4 2 -8 7 -18 13 -22 5 -4 0 -6 -13 -5 -13 1 -18 5 -12 11
12 12 -6 46 -26 46 -8 0 -12 5 -9 10 3 6 2 10 -4 10 -5 0 -7 14 -4 31 3 19 1
29 -6 25 -5 -4 -13 -2 -16 4 -4 6 -1 9 7 8 9 -2 13 11 14 49 0 29 -3 50 -8 47
-20 -13 -5 4 21 24 21 15 32 18 37 10 4 -6 3 -8 -3 -5 -6 4 -16 0 -23 -8 -7
-8 -9 -15 -4 -15 17 0 38 18 40 35 1 9 12 24 23 34 11 10 17 22 13 27 -4 4 0
3 9 -4 9 -6 20 -8 25 -4 4 4 2 -1 -5 -11 -12 -15 -12 -17 3 -11 9 3 16 10 16
16 0 5 6 6 13 2 6 -4 4 2 -6 13 -14 16 -15 23 -6 29 7 4 10 3 5 -4 -8 -13 30
-36 44 -27 6 3 10 13 10 21 0 8 -5 12 -10 9 -6 -4 -8 -11 -5 -16 4 -5 1 -9 -4
-9 -17 0 -13 15 9 35 11 10 20 14 20 8 0 -6 11 -8 25 -5 14 2 22 8 19 13 -3 5
0 9 5 9 6 0 11 -4 11 -10 0 -5 7 -10 16 -10 8 0 13 4 10 8 -3 5 1 9 9 9 8 0
12 -4 9 -9 -3 -4 2 -8 11 -8 9 0 14 4 11 8 -2 4 6 8 19 8 13 0 21 -4 18 -10
-4 -5 3 -7 14 -4 11 3 28 1 37 -4 12 -7 22 -5 33 4 10 8 14 8 10 1 -12 -20 9
-24 46 -8 19 8 38 11 42 7 3 -4 5 -1 3 7 -2 9 8 15 30 18 19 2 42 7 53 11 15
6 158 9 197 4z m-1987 -76 c-8 -10 -8 -16 2 -25 11 -8 18 -7 31 7 9 10 13 22
9 27 -5 4 -2 5 5 1 7 -4 10 -11 8 -14 -2 -4 7 -12 20 -19 22 -10 24 -9 24 14
l0 25 28 -24 c19 -15 25 -26 18 -30 -8 -5 -7 -8 1 -8 7 0 17 8 22 18 10 16 10
15 11 -3 l1 -20 9 20 c8 18 9 18 9 -5 1 -18 4 -21 10 -12 6 10 10 8 14 -8 3
-12 10 -19 15 -16 5 3 17 -3 26 -13 13 -14 14 -21 5 -27 -7 -4 -10 -3 -5 4 10
17 -10 23 -24 7 -10 -12 -9 -16 2 -20 20 -8 19 -35 -1 -35 -13 0 -13 -2 -3 -9
11 -6 10 -12 -4 -26 -17 -17 -17 -17 6 -10 24 8 24 7 7 -19 -17 -25 -17 -26 0
-27 11 0 13 -3 5 -6 -17 -7 -40 -54 -36 -76 2 -18 2 -18 -17 -1 -10 9 -20 14
-20 11 -1 -4 -3 -11 -4 -17 -1 -5 -3 -13 -4 -17 -1 -5 -11 3 -22 16 -18 22
-20 23 -38 7 -15 -13 -20 -14 -24 -4 -3 10 -9 9 -23 -4 -17 -17 -17 -17 4 -13
12 2 24 0 27 -6 10 -15 28 -10 22 6 -4 8 -1 17 5 21 6 4 8 3 4 -4 -3 -6 -2
-13 4 -17 19 -12 10 -33 -14 -31 -13 0 -22 5 -19 9 3 5 -21 6 -53 3 -37 -3
-53 -2 -44 4 8 5 11 12 7 16 -3 4 -12 2 -20 -4 -8 -7 -18 -7 -27 -2 -13 8 -13
13 -2 31 8 11 9 18 3 14 -6 -3 -12 2 -12 12 -1 10 -5 5 -9 -12 l-8 -30 -1 33
c0 17 -6 32 -13 32 -6 0 -3 7 8 16 16 13 16 15 2 10 -10 -3 -18 -1 -18 4 0 6
6 10 13 11 10 0 10 2 0 6 -15 6 -18 73 -3 73 14 0 12 53 -2 70 -7 8 -3 6 10
-5 l23 -19 -10 26 c-13 35 5 54 31 31 10 -9 18 -11 18 -6 0 6 -7 16 -15 23
-13 10 -12 15 8 31 26 22 34 24 18 5z m-738 -129 l132 -3 -137 -2 -138 -2 2
48 1 47 4 -42 4 -42 132 -4z m214 -179 c-1 -51 -3 -12 -3 87 0 99 2 141 3 93
2 -48 2 -129 0 -180z m-350 -40 c-2 -29 -3 -8 -3 47 0 55 1 79 3 53 2 -26 2
-71 0 -100z m190 0 c-2 -29 -3 -8 -3 47 0 55 1 79 3 53 2 -26 2 -71 0 -100z
m580 -260 c-3 -8 -6 -5 -6 6 -1 11 2 17 5 13 3 -3 4 -12 1 -19z m-1012 -38
c10 -11 16 -20 13 -20 -3 0 -13 9 -23 20 -10 11 -16 20 -13 20 3 0 13 -9 23
-20z m1005 17 c0 -2 -10 -12 -22 -23 l-23 -19 19 23 c18 21 26 27 26 19z
m-953 -43 c-3 -3 -12 -4 -19 -1 -8 3 -5 6 6 6 11 1 17 -2 13 -5z"/>
<path d="M3169 2678 c-6 -21 -5 -39 2 -44 5 -3 8 0 7 8 -2 7 2 12 9 11 7 -2
10 4 7 12 -5 13 -22 21 -25 13z"/>
<path d="M3385 2471 c-3 -5 -1 -12 5 -16 5 -3 10 1 10 9 0 18 -6 21 -15 7z"/>
<path d="M3256 2448 c3 -4 9 -8 15 -8 5 0 9 4 9 8 0 5 -7 9 -15 9 -8 0 -12 -4
-9 -9z"/>
<path d="M1990 2776 c0 -2 8 -10 18 -17 15 -13 16 -12 3 4 -13 16 -21 21 -21
13z"/>
<path d="M2042 2768 c-6 -6 -12 -19 -12 -27 0 -13 2 -13 16 1 9 9 15 21 13 27
-3 9 -8 8 -17 -1z"/>
<path d="M1956 2741 c-3 -5 1 -14 8 -20 12 -10 13 -8 9 8 -6 23 -9 25 -17 12z"/>
<path d="M2215 2720 c-3 -5 -5 -10 -3 -11 27 -6 39 -5 45 4 3 7 3 9 -2 5 -4
-4 -14 -3 -21 3 -8 7 -14 7 -19 -1z"/>
<path d="M2195 2500 c-4 -6 -10 -8 -15 -5 -4 3 -10 -4 -13 -15 -3 -11 0 -23 6
-27 7 -3 9 -3 5 2 -12 13 13 37 26 26 8 -7 12 -4 12 10 0 21 -11 25 -21 9z"/>
<path d="M2006 2491 c-3 -5 1 -12 10 -15 22 -8 25 -4 9 11 -8 7 -16 9 -19 4z"/>
<path d="M1975 2461 c-3 -5 -2 -12 3 -15 5 -3 9 1 9 9 0 17 -3 19 -12 6z"/>
<path d="M2033 2445 c0 -8 4 -12 9 -9 4 3 8 9 8 15 0 5 -4 9 -8 9 -5 0 -9 -7
-9 -15z"/>
</g>
</svg>
