<?xml version="1.0" standalone="no"?>
<!DOCTYPE svg PUBLIC "-//W3C//DTD SVG 20010904//EN"
 "http://www.w3.org/TR/2001/REC-SVG-20010904/DTD/svg10.dtd">
<svg version="1.0" xmlns="http://www.w3.org/2000/svg"
 width="500.000000pt" height="500.000000pt" viewBox="0 0 500.000000 500.000000"
 preserveAspectRatio="xMidYMid meet">
<metadata>
Created by potrace 1.16, written by Peter Selinger 2001-2019
</metadata>
<g transform="translate(0.000000,500.000000) scale(0.100000,-0.100000)"
fill="#000000" stroke="none">
<path d="M0 2500 l0 -2500 2500 0 2500 0 0 2500 0 2500 -2500 0 -2500 0 0
-2500z m1618 663 c-125 -2 -332 -2 -460 0 -128 1 -26 2 227 2 253 0 358 -1
233 -2z m-699 -6 c-2 -1 -15 -11 -29 -22 l-25 -20 19 23 c11 12 24 22 29 22 6
0 8 -1 6 -3z m991 -259 c0 -130 4 -207 10 -203 5 3 7 12 3 20 -3 8 0 15 7 15
10 0 9 4 0 16 -11 12 -11 15 1 12 8 -2 13 3 12 9 -2 7 2 12 9 10 7 -1 12 5 13
13 0 20 45 22 45 2 0 -10 10 -2 25 18 14 19 25 28 25 21 0 -10 6 -9 25 3 26
17 80 22 70 7 -3 -5 0 -13 6 -17 8 -4 9 -3 5 4 -7 12 4 16 37 12 10 -1 26 4
35 11 14 11 15 11 5 0 -9 -11 -9 -16 0 -25 18 -18 46 -26 52 -15 4 5 11 6 17
3 6 -4 5 -10 -3 -15 -11 -7 -9 -9 6 -10 11 0 15 -3 8 -5 -7 -3 -9 -12 -6 -20
3 -8 -1 -14 -8 -15 -8 0 -4 -4 8 -9 15 -6 21 -15 17 -25 -4 -10 -1 -14 7 -12
8 2 11 2 7 0 -5 -3 -8 -11 -8 -19 0 -8 -5 -14 -12 -14 -6 0 -4 -7 5 -18 22
-24 22 -41 -1 -35 -13 3 -18 -2 -18 -16 0 -12 4 -21 9 -21 5 0 4 -7 -3 -15 -7
-9 -10 -18 -6 -22 3 -3 6 -2 6 4 0 5 7 10 15 10 11 0 12 -4 4 -14 -6 -7 -8
-13 -4 -13 5 0 0 -9 -10 -20 -14 -15 -15 -20 -4 -20 11 0 12 -2 1 -9 -8 -4
-14 -12 -15 -17 -1 -5 -5 -8 -9 -6 -5 1 -8 -3 -8 -9 0 -7 -8 -18 -17 -25 -21
-16 -57 -19 -48 -4 10 16 -1 11 -16 -7 -10 -11 -10 -14 -1 -9 6 4 12 3 12 -2
0 -12 -49 -22 -55 -12 -3 4 -16 10 -30 12 -20 4 -23 3 -14 -8 16 -20 -10 -19
-39 1 -20 15 -21 14 -16 0 5 -13 1 -15 -26 -10 -42 7 -52 14 -44 27 4 6 2 8
-4 4 -6 -3 -18 1 -26 10 -9 8 -16 11 -16 5 0 -6 -5 -11 -11 -11 -6 0 -8 9 -4
20 4 11 2 20 -4 20 -6 0 -12 15 -13 33 -1 17 -5 -24 -8 -93 -4 -75 -7 40 -8
290 -2 359 -4 419 -18 440 l-16 25 21 -24 c20 -22 21 -35 21 -233z m-1043 190
c-3 -8 -6 -5 -6 6 -1 11 2 17 5 13 3 -3 4 -12 1 -19z m771 -435 l-3 -258 -2
253 -3 252 -245 0 -244 0 -4 -42 -4 -43 -1 48 -2 47 255 0 255 0 -2 -257z
m1932 203 c25 -2 46 -5 48 -5 2 -1 0 -5 -3 -11 -8 -13 100 -6 145 10 74 25
235 37 258 18 11 -9 14 -10 8 0 -4 6 -5 12 -1 12 9 0 49 -24 71 -43 15 -13 20
-27 18 -52 -1 -21 2 -35 9 -35 8 0 7 -4 -1 -12 -17 -17 -15 -28 5 -21 13 5 15
2 10 -11 -5 -12 0 -24 14 -35 15 -12 23 -32 25 -65 3 -30 1 -45 -6 -41 -5 3
-10 1 -10 -4 0 -6 4 -11 10 -11 6 0 5 -11 -3 -27 -14 -33 -23 -42 -62 -65 -17
-10 -29 -24 -29 -32 1 -8 -4 -12 -11 -10 -7 3 -19 -2 -28 -10 -9 -9 -21 -16
-27 -16 -6 0 -8 -5 -4 -11 3 -6 -1 -10 -12 -9 -11 1 -21 1 -24 0 -12 -5 -178
-5 -175 0 2 3 -18 5 -46 4 -27 -2 -49 1 -49 6 0 4 -12 11 -27 15 -15 3 -33 14
-41 23 -7 9 -10 11 -6 3 5 -10 1 -11 -15 -6 -11 3 -34 7 -50 7 -20 1 -28 5
-24 15 3 9 0 11 -10 7 -8 -3 -18 0 -22 6 -5 8 -11 8 -21 -1 -8 -6 -17 -9 -21
-6 -3 3 -21 0 -39 -8 -19 -8 -36 -10 -39 -5 -3 5 -26 0 -51 -10 -53 -23 -68
-25 -58 -7 6 10 4 10 -7 0 -17 -17 -29 -16 -29 2 0 9 -6 12 -17 8 -10 -3 -15
-2 -10 2 12 13 -63 84 -82 78 -12 -4 -11 -2 3 9 19 15 33 53 15 42 -5 -3 -7
-10 -4 -15 4 -5 -1 -9 -9 -9 -19 0 -21 26 -3 34 10 5 10 7 0 12 -7 3 -13 12
-13 20 0 8 -6 14 -12 15 -9 0 -9 2 1 6 11 5 11 7 0 15 -10 7 -8 8 8 5 13 -3
26 -1 29 4 3 5 11 6 17 2 8 -5 8 -2 0 9 -7 8 -9 19 -5 23 4 5 1 5 -5 1 -8 -5
-13 -1 -13 10 0 11 6 15 20 11 11 -3 25 2 32 12 11 14 11 14 -3 4 -9 -7 -19
-10 -22 -7 -8 9 23 54 37 53 7 0 6 -2 -1 -6 -7 -2 -13 -10 -13 -16 0 -7 11 -1
25 13 36 37 55 52 55 43 1 -4 10 3 20 16 18 21 20 21 21 5 0 -11 3 -14 6 -6 2
6 11 12 18 12 8 0 17 5 21 12 5 7 3 8 -6 3 -9 -6 -11 -4 -6 4 5 7 14 10 22 7
8 -3 14 -2 14 2 0 9 42 8 57 -1 7 -4 15 -2 19 4 5 8 3 9 -6 4 -8 -5 -11 -4 -7
3 4 5 18 9 32 7 14 -1 25 2 25 8 0 6 5 5 13 -1 7 -6 32 -13 57 -16z m-1530
-16 c0 -5 -5 -10 -11 -10 -5 0 -7 -5 -3 -12 4 -7 3 -8 -4 -4 -6 4 -9 13 -5 21
6 17 23 20 23 5z m247 -16 c-3 -3 -12 -4 -19 -1 -8 3 -5 6 6 6 11 1 17 -2 13
-5z m-1014 -157 l132 -3 -137 -2 -138 -2 2 48 1 47 4 -42 4 -42 132 -4z m214
-179 c-1 -51 -3 -12 -3 87 0 99 2 141 3 93 2 -48 2 -129 0 -180z m1417 236 c3
-8 2 -12 -4 -9 -6 3 -10 10 -10 16 0 14 7 11 14 -7z m244 -63 c2 -1 0 -6 -3
-11 -5 -8 -11 -8 -19 -1 -7 6 -17 7 -21 3 -5 -4 -5 -2 -2 5 6 9 18 10 45 4z
m-147 -18 c13 -16 12 -17 -3 -4 -10 7 -18 15 -18 17 0 8 8 3 21 -13z m-76 -42
c3 -5 2 -12 -3 -15 -5 -3 -9 1 -9 9 0 17 3 19 12 6z m-1788 -153 c-2 -29 -3
-8 -3 47 0 55 1 79 3 53 2 -26 2 -71 0 -100z m190 0 c-2 -29 -3 -8 -3 47 0 55
1 79 3 53 2 -26 2 -71 0 -100z m580 -260 c-3 -8 -6 -5 -6 6 -1 11 2 17 5 13 3
-3 4 -12 1 -19z m-1012 -38 c10 -11 16 -20 13 -20 -3 0 -13 9 -23 20 -10 11
-16 20 -13 20 3 0 13 -9 23 -20z m1005 17 c0 -2 -10 -12 -22 -23 l-23 -19 19
23 c18 21 26 27 26 19z m-953 -43 c-3 -3 -12 -4 -19 -1 -8 3 -5 6 6 6 11 1 17
-2 13 -5z"/>
<path d="M2285 2520 c-3 -5 -1 -10 4 -10 6 0 11 5 11 10 0 6 -2 10 -4 10 -3 0
-8 -4 -11 -10z"/>
<path d="M2253 2444 c0 -7 6 -10 14 -7 7 3 13 8 13 12 0 4 -6 8 -13 8 -8 0
-14 -6 -14 -13z"/>
<path d="M2176 2403 c-6 -14 -5 -15 5 -6 7 7 10 15 7 18 -3 3 -9 -2 -12 -12z"/>
</g>
</svg>
