<?xml version="1.0" standalone="no"?>
<!DOCTYPE svg PUBLIC "-//W3C//DTD SVG 20010904//EN"
 "http://www.w3.org/TR/2001/REC-SVG-20010904/DTD/svg10.dtd">
<svg version="1.0" xmlns="http://www.w3.org/2000/svg"
 width="500.000000pt" height="500.000000pt" viewBox="0 0 500.000000 500.000000"
 preserveAspectRatio="xMidYMid meet">
<metadata>
Created by potrace 1.16, written by Peter Selinger 2001-2019
</metadata>
<g transform="translate(0.000000,500.000000) scale(0.100000,-0.100000)"
fill="#000000" stroke="none">
<path d="M1175 2950 c-93 -11 -172 -33 -231 -64 -26 -14 -50 -23 -54 -21 -4 2
-12 -6 -19 -18 -9 -16 -11 -109 -9 -344 l3 -323 28 -27 27 -28 465 0 465 0 27
28 28 27 0 163 c-1 89 -2 226 -3 304 -2 138 -3 142 -24 148 -13 3 -32 10 -43
16 -11 5 -58 24 -105 43 l-85 34 -3 -244 -2 -244 -45 0 -45 0 0 210 0 210
-210 0 -210 0 0 45 0 45 130 0 c72 0 130 3 130 8 -1 37 -76 48 -215 32z m315
-375 l0 -175 -45 0 -45 0 0 130 0 130 -135 0 -135 0 0 45 0 45 180 0 180 0 0
-175z m-160 -80 l0 -96 -97 3 -97 3 -1 93 -1 92 98 0 98 0 0 -95z"/>
<path d="M1404 2929 c-9 -15 1 -21 26 -17 21 3 21 3 1 15 -14 9 -22 9 -27 2z"/>
</g>
</svg>
