<?xml version="1.0" standalone="no"?>
<!DOCTYPE svg PUBLIC "-//W3C//DTD SVG 20010904//EN"
 "http://www.w3.org/TR/2001/REC-SVG-20010904/DTD/svg10.dtd">
<svg version="1.0" xmlns="http://www.w3.org/2000/svg"
 width="500.000000pt" height="500.000000pt" viewBox="0 0 500.000000 500.000000"
 preserveAspectRatio="xMidYMid meet">
<metadata>
Created by potrace 1.16, written by Peter Selinger 2001-2019
</metadata>
<g transform="translate(0.000000,500.000000) scale(0.100000,-0.100000)"
fill="#000000" stroke="none">
<path d="M0 2500 l0 -2500 2500 0 2500 0 0 2500 0 2500 -2500 0 -2500 0 0
-2500z m1855 654 c18 -8 37 -23 42 -32 4 -9 10 -128 13 -264 4 -197 7 -242 17
-223 6 14 7 23 2 19 -5 -3 -9 4 -9 15 0 12 5 21 11 21 6 0 8 12 6 28 -3 16 2
36 11 48 12 16 14 16 9 2 -4 -12 -1 -18 8 -18 8 0 14 6 12 13 -1 6 4 11 11 10
6 -2 12 7 13 20 0 21 1 21 9 2 l9 -20 0 20 c1 15 4 17 10 7 7 -11 11 -11 24 2
8 9 29 17 46 18 17 1 31 5 31 9 0 12 52 -3 57 -17 3 -9 11 -10 28 -4 28 11 40
1 18 -15 -13 -10 -11 -11 18 -9 19 2 26 1 17 -2 -10 -3 -18 -10 -18 -14 0 -6
11 -6 25 0 31 12 33 -2 3 -16 -13 -6 -17 -9 -10 -7 7 1 10 -2 7 -8 -4 -5 3
-19 16 -30 20 -18 21 -19 3 -20 -18 0 -18 -1 1 -9 19 -8 19 -9 1 -9 -14 -1
-16 -4 -7 -14 6 -8 8 -17 4 -21 -4 -3 2 -13 13 -22 15 -12 16 -15 2 -10 -9 2
-19 -1 -22 -9 -3 -8 3 -16 12 -19 9 -3 4 -4 -12 -2 l-30 4 25 -19 c13 -10 20
-19 15 -19 -5 0 -3 -7 4 -15 10 -12 8 -16 -11 -24 -13 -5 -35 -21 -49 -36 -24
-27 -24 -28 -3 -23 15 4 20 2 16 -8 -3 -9 -11 -10 -29 -4 -13 5 -23 6 -23 2 5
-29 -2 -34 -21 -17 -22 20 -54 30 -44 14 3 -5 11 -6 17 -3 7 4 8 3 4 -2 -5 -5
-12 -9 -15 -10 -4 0 -16 -4 -26 -9 -24 -10 -68 -14 -81 -6 -5 3 -19 7 -29 8
-36 6 -31 14 6 11 22 -1 34 -6 31 -13 -4 -5 -2 -6 2 -2 21 19 13 35 -16 30
-17 -2 -29 0 -29 7 0 6 -4 8 -10 5 -5 -3 -10 -2 -10 3 0 5 -6 9 -12 10 -7 0
-22 2 -33 4 -19 3 -20 -4 -25 -142 -4 -84 -7 40 -8 296 -1 243 -5 455 -8 472
-4 22 -15 35 -35 44 -16 7 -29 16 -29 20 0 5 -182 8 -404 8 l-405 0 -19 -25
c-11 -14 -23 -25 -27 -25 -3 0 -28 -9 -55 -21 l-49 -21 -4 -107 -3 -106 -2
110 -2 110 31 18 c17 9 37 17 45 17 8 0 14 5 14 10 0 6 6 10 13 10 8 0 22 9
32 20 18 19 31 20 423 20 347 0 409 -2 437 -16z m-217 -501 l-3 -258 -2 253
-3 252 -245 0 -244 0 -4 -42 -4 -43 -1 48 -2 47 255 0 255 0 -2 -257z m2381
221 c37 -4 50 -9 40 -15 -11 -7 -11 -9 3 -9 23 0 60 -74 45 -89 -8 -8 -8 -11
1 -11 7 0 12 -11 12 -25 0 -14 5 -25 10 -25 6 0 9 -3 8 -7 -1 -5 4 -21 10 -36
7 -16 10 -33 6 -38 -3 -5 -1 -9 3 -9 5 0 10 -11 11 -25 1 -14 -4 -25 -11 -25
-9 0 -8 -3 1 -9 11 -7 9 -13 -9 -30 -12 -11 -19 -21 -14 -21 4 0 -3 -9 -16
-21 -74 -64 -93 -79 -101 -79 -5 0 -7 -4 -4 -9 4 -5 -3 -7 -14 -4 -13 4 -27
-1 -36 -13 -9 -11 -13 -13 -9 -6 4 7 0 12 -10 12 -9 0 -14 -4 -11 -9 4 -5 -3
-7 -13 -4 -10 3 -28 0 -39 -6 -15 -8 -23 -8 -27 -1 -5 8 -12 7 -23 -2 -9 -7
-13 -8 -9 -2 4 7 -2 14 -13 17 -11 3 -20 1 -20 -4 0 -6 -7 -6 -17 -1 -10 4
-25 8 -33 7 -8 -1 -21 3 -29 9 -7 6 -20 11 -29 12 -8 2 -18 8 -22 14 -9 14
-20 13 -41 -6 -14 -12 -16 -12 -16 1 0 8 3 12 7 10 4 -2 7 2 7 9 0 8 -8 11
-19 8 -11 -2 -18 1 -18 9 0 8 -6 5 -15 -7 -11 -13 -13 -14 -9 -3 7 22 -41 32
-57 12 -10 -11 -15 -11 -32 4 -14 13 -18 13 -12 3 8 -13 7 -13 -8 -1 -10 8
-17 9 -17 3 0 -7 -10 -8 -31 -2 -27 8 -29 7 -18 -6 7 -8 8 -14 3 -13 -5 1 -11
0 -14 -1 -3 -1 -32 -3 -65 -4 -33 0 -65 -5 -72 -9 -13 -8 -12 18 2 30 4 5 5 1
0 -7 -5 -8 -5 -12 -1 -8 10 8 8 23 -1 23 -5 0 -14 4 -22 9 -10 7 -12 5 -6 -5
5 -8 5 -11 0 -7 -4 4 -15 2 -24 -4 -13 -10 -14 -10 -5 1 13 14 7 54 -6 46 -5
-3 -11 -1 -14 4 -4 5 -1 13 5 17 8 5 9 3 4 -6 -5 -9 -4 -11 4 -6 8 6 9 12 2
20 -6 7 -9 15 -6 18 3 2 -2 5 -10 5 -12 0 -12 -3 -3 -16 8 -10 4 -8 -10 3 -22
19 -31 43 -11 31 13 -9 8 27 -5 37 -6 4 -6 12 0 20 6 7 10 27 9 45 0 17 2 31
5 31 20 -2 30 4 24 14 -4 7 -3 8 5 4 6 -4 8 -13 5 -19 -4 -7 4 -1 18 11 27 25
46 67 25 56 -9 -5 -9 -4 -1 5 6 6 21 13 33 16 17 3 21 0 17 -11 -3 -9 -1 -12
4 -9 6 3 10 13 10 21 0 8 4 13 9 10 5 -3 14 1 21 10 7 8 19 13 26 10 7 -3 15
2 18 11 4 8 13 13 21 9 8 -3 17 -1 20 5 4 5 11 7 16 4 5 -4 9 -3 9 2 0 11 61
10 79 -1 9 -6 12 -5 7 2 -4 7 4 10 24 10 16 -1 30 -4 30 -8 0 -14 82 -29 107
-19 13 5 38 9 54 9 17 0 28 4 25 8 -2 4 8 9 24 10 16 1 38 6 49 10 27 10 134
13 200 6z m-3152 -46 c-3 -8 -6 -5 -6 6 -1 11 2 17 5 13 3 -3 4 -12 1 -19z
m406 -161 l132 -3 -137 -2 -138 -2 2 48 1 47 4 -42 4 -42 132 -4z m214 -179
c-1 -51 -3 -12 -3 87 0 99 2 141 3 93 2 -48 2 -129 0 -180z m1715 240 c-7 -7
-12 -8 -12 -2 0 6 3 14 7 17 3 4 9 5 12 2 2 -3 -1 -11 -7 -17z m-2065 -280
c-2 -29 -3 -8 -3 47 0 55 1 79 3 53 2 -26 2 -71 0 -100z m190 0 c-2 -29 -3 -8
-3 47 0 55 1 79 3 53 2 -26 2 -71 0 -100z m635 -13 c2 3 5 -2 5 -10 0 -19 0
-19 -23 7 -12 14 -13 18 -3 10 9 -6 18 -10 21 -7z m211 -30 c4 -8 3 -16 -1
-19 -4 -3 -9 4 -9 15 -2 23 3 25 10 4z m-43 -31 c0 -8 -19 -13 -24 -6 -3 5 1
9 9 9 8 0 15 -2 15 -3z m-1263 -186 c-3 -8 -6 -5 -6 6 -1 11 2 17 5 13 3 -3 4
-12 1 -19z m28 -38 c10 -11 16 -20 13 -20 -3 0 -13 9 -23 20 -10 11 -16 20
-13 20 3 0 13 -9 23 -20z m1005 17 c0 -2 -10 -12 -22 -23 l-23 -19 19 23 c18
21 26 27 26 19z m-953 -43 c-3 -3 -12 -4 -19 -1 -8 3 -5 6 6 6 11 1 17 -2 13
-5z m900 0 c-3 -3 -12 -4 -19 -1 -8 3 -5 6 6 6 11 1 17 -2 13 -5z"/>
<path d="M2150 2808 c0 -4 4 -8 9 -8 6 0 12 4 15 8 3 5 -1 9 -9 9 -8 0 -15 -4
-15 -9z"/>
<path d="M1911 2584 c0 -11 3 -14 6 -6 3 7 2 16 -1 19 -3 4 -6 -2 -5 -13z"/>
<path d="M1910 2520 c0 -22 3 -40 8 -40 4 0 6 18 4 40 -2 22 -6 40 -8 40 -2 0
-4 -18 -4 -40z"/>
<path d="M3149 2682 c0 -4 -2 -15 -4 -24 -4 -20 3 -22 25 -8 12 8 12 10 -5 11
-19 0 -19 1 -1 8 18 7 18 8 3 14 -9 3 -17 3 -18 -1z"/>
<path d="M3140 2605 c5 -7 6 -16 2 -20 -4 -5 -1 -5 6 -1 17 10 15 33 -3 33
-10 0 -12 -4 -5 -12z"/>
</g>
</svg>
