<?xml version="1.0" standalone="no"?>
<!DOCTYPE svg PUBLIC "-//W3C//DTD SVG 20010904//EN"
 "http://www.w3.org/TR/2001/REC-SVG-20010904/DTD/svg10.dtd">
<svg version="1.0" xmlns="http://www.w3.org/2000/svg"
 width="500.000000pt" height="500.000000pt" viewBox="0 0 500.000000 500.000000"
 preserveAspectRatio="xMidYMid meet">
<metadata>
Created by potrace 1.16, written by Peter Selinger 2001-2019
</metadata>
<g transform="translate(0.000000,500.000000) scale(0.100000,-0.100000)"
fill="#000000" stroke="none">
<path d="M0 2500 l0 -2500 2500 0 2500 0 0 2500 0 2500 -2500 0 -2500 0 0
-2500z m1415 640 c2 -4 20 -6 39 -3 27 2 36 -1 40 -15 4 -10 18 -25 31 -32 22
-12 27 -11 38 5 22 29 73 27 131 -6 28 -16 76 -41 106 -56 30 -16 59 -34 63
-40 4 -7 17 -13 27 -13 17 0 20 -6 18 -42 l-1 -43 -4 38 c-4 33 -7 38 -24 34
-11 -3 -19 0 -19 8 0 6 -21 23 -47 37 -27 14 -79 41 -117 62 -64 34 -70 36
-91 22 -18 -12 -25 -12 -28 -3 -3 7 -6 6 -6 -4 -1 -19 -34 -35 -39 -20 -2 6
-9 11 -16 11 -7 0 -18 11 -24 24 -10 21 -15 24 -40 17 -19 -6 -34 -4 -46 4
-22 17 -120 16 -160 0 -17 -7 -56 -16 -86 -20 -30 -4 -75 -18 -100 -31 -25
-12 -63 -30 -85 -39 -22 -9 -51 -23 -65 -33 -27 -18 -50 -24 -50 -14 0 4 26
19 58 33 31 15 86 40 122 57 36 16 87 33 115 37 27 4 66 14 87 22 21 9 51 13
66 10 15 -3 34 -2 41 2 14 9 59 3 66 -9z m223 -487 l-3 -258 -2 253 -3 252
-245 0 -244 0 -4 -42 -4 -43 -1 48 -2 47 255 0 255 0 -2 -257z m2397 195 c13
-15 26 -24 29 -21 3 4 7 1 7 -5 2 -14 6 -30 9 -37 1 -3 4 -9 5 -15 1 -5 3 -11
5 -12 3 -5 12 -42 13 -60 1 -9 4 -15 8 -12 9 5 23 -32 24 -61 0 -11 4 -26 8
-32 5 -8 3 -13 -4 -13 -8 0 -7 -5 2 -16 12 -15 11 -19 -9 -32 -12 -8 -22 -20
-22 -26 0 -6 5 -4 10 4 6 9 10 10 10 3 0 -7 -8 -17 -17 -22 -10 -6 -14 -11 -9
-11 13 0 -45 -60 -59 -60 -15 0 -89 -40 -97 -54 -6 -8 -8 -8 -8 0 0 8 -11 9
-33 4 -70 -15 -247 10 -247 36 0 13 -17 13 -39 0 -11 -7 -13 -5 -8 7 7 18 -19
32 -27 14 -2 -7 -5 -3 -5 9 -1 31 -10 35 -38 17 -22 -15 -25 -15 -44 6 -24 25
-37 28 -18 4 7 -10 -2 -4 -21 12 -19 17 -29 23 -22 13 17 -22 -4 -29 -53 -18
-18 4 -35 0 -35 -9 0 -5 8 -7 19 -4 10 3 21 1 24 -4 4 -7 -39 -10 -50 -4 -7 3
-18 -5 -15 -11 4 -13 -5 -9 -19 9 -12 14 -12 16 0 8 10 -5 12 -4 7 4 -4 6 -11
9 -16 6 -5 -3 -12 -1 -15 5 -5 8 -12 7 -22 -2 -19 -15 -89 -20 -73 -4 6 6 5
15 -6 27 -12 13 -12 19 -3 25 7 4 10 3 5 -4 -3 -6 -2 -13 3 -16 5 -4 8 2 7 11
-2 10 -8 19 -14 19 -7 1 -15 3 -19 4 -5 1 -12 1 -18 0 -5 -1 -6 2 -2 7 5 4 14
8 20 8 7 0 12 19 12 47 1 26 -2 45 -5 43 -3 -2 -12 0 -20 6 -13 7 -12 9 3 9 9
0 17 5 17 11 0 5 -5 7 -12 3 -7 -4 -8 -3 -4 5 6 9 11 9 24 -1 10 -8 13 -9 9
-1 -4 7 0 16 10 22 10 6 12 11 6 11 -7 0 -13 5 -13 11 0 6 7 9 15 5 8 -3 16
-1 16 4 1 6 2 15 3 22 0 6 7 13 15 16 8 3 11 0 7 -6 -3 -6 1 -9 11 -8 10 2 19
13 21 24 4 25 20 29 29 7 5 -13 8 -13 20 5 8 12 12 28 9 36 -3 9 -1 12 4 9 6
-3 10 -12 10 -20 0 -7 8 -12 18 -10 9 1 16 7 15 12 -1 5 4 10 12 10 8 0 12 -3
10 -7 -2 -3 7 -6 20 -6 13 0 21 4 19 8 -3 4 -1 8 5 8 5 0 17 7 25 16 9 8 16
11 16 6 0 -6 14 -9 30 -8 18 1 37 -5 46 -15 8 -9 23 -16 32 -14 9 2 17 4 17 5
0 1 8 3 18 5 10 2 25 12 34 22 8 10 12 12 8 6 -4 -8 0 -13 9 -13 8 0 16 6 18
13 6 17 104 32 215 32 90 0 96 -2 118 -27z m-2128 0 c-3 -8 -6 -5 -6 6 -1 11
2 17 5 13 3 -3 4 -12 1 -19z m1553 -2 c-10 -13 -40 -12 -40 1 0 3 7 3 15 0 8
-4 17 -2 20 3 4 6 9 10 12 10 3 0 0 -6 -7 -14z m-87 -27 c7 -25 3 -24 -17 6
-13 19 -13 23 -2 19 8 -3 16 -14 19 -25z m-1228 11 c-3 -5 -12 -10 -18 -10 -7
0 -6 4 3 10 19 12 23 12 15 0z m1462 -3 c0 -8 -6 -14 -14 -14 -9 0 -10 4 -2
14 6 7 12 13 14 13 1 0 2 -6 2 -13z m-1700 -19 c-3 -8 -6 -5 -6 6 -1 11 2 17
5 13 3 -3 4 -12 1 -19z m143 8 c0 -2 -8 -10 -17 -17 -16 -13 -17 -12 -4 4 13
16 21 21 21 13z m85 -36 c-3 -4 2 -13 10 -20 8 -7 16 -10 16 -6 1 3 2 10 3 15
0 5 4 13 8 17 4 3 5 -3 3 -16 -3 -18 -1 -21 15 -17 25 6 27 -10 3 -17 -10 -3
-4 -4 13 -2 25 2 31 -1 26 -13 -4 -10 -1 -12 9 -6 11 7 12 6 2 -7 -7 -8 -10
-18 -6 -21 3 -4 -3 -7 -15 -7 -19 0 -21 -3 -11 -19 7 -10 19 -17 28 -16 9 1
10 0 3 -2 -7 -3 -10 -9 -7 -14 3 -5 -2 -6 -11 -2 -13 5 -15 3 -8 -8 13 -21 14
-39 1 -40 -7 -1 2 -5 18 -9 l30 -8 -28 -1 c-20 -1 -26 -5 -21 -13 6 -10 4 -10
-8 0 -13 10 -18 10 -24 1 -4 -8 -3 -9 4 -5 7 4 12 3 12 -3 0 -5 -6 -12 -12
-14 -12 -5 16 -11 35 -8 17 3 5 -10 -19 -19 -22 -9 -24 -13 -14 -25 11 -13 9
-14 -11 -6 -13 5 -23 13 -22 18 3 14 -42 10 -61 -6 -9 -7 -13 -17 -10 -22 3
-5 -5 -9 -16 -9 -16 0 -20 -4 -16 -16 3 -8 2 -12 -4 -9 -6 3 -10 14 -10 23 0
14 -2 14 -9 3 -5 -8 -7 -21 -4 -30 4 -14 3 -14 -5 -1 -6 8 -8 18 -6 22 3 4 0
8 -6 8 -6 0 -8 5 -3 13 9 15 14 41 6 33 -4 -3 -13 0 -22 6 -10 8 -9 4 3 -10
15 -18 16 -22 4 -22 -22 0 -40 44 -25 61 10 11 9 11 -5 0 -9 -7 -14 -19 -11
-27 3 -8 0 -14 -6 -14 -15 0 -14 50 2 50 6 0 4 5 -6 11 -9 6 -15 14 -12 20 4
5 0 9 -7 10 -7 1 -2 5 12 9 l25 8 -25 1 c-19 1 -21 4 -11 10 8 5 11 16 8 25
-3 8 -2 18 2 21 5 3 7 14 4 25 -4 16 -1 18 17 15 18 -3 20 -2 10 10 -9 11 -7
13 7 11 22 -4 34 22 22 46 -6 10 -5 19 1 23 6 3 10 -4 10 -16 0 -17 3 -20 11
-12 11 11 52 6 44 -7 -6 -9 36 -7 53 3 7 5 9 13 5 20 -4 7 -8 5 -12 -6 -6 -15
-7 -15 -18 2 -10 15 -9 18 5 17 10 0 16 5 14 13 -3 12 0 12 12 2 9 -7 14 -17
11 -21z m1113 -5 c-3 -3 -9 2 -12 12 -6 14 -5 15 5 6 7 -7 10 -15 7 -18z
m-1341 -242 c-1 -43 -3 -8 -3 77 0 85 2 120 3 78 2 -43 2 -113 0 -155z m74
204 c-10 -9 -11 -8 -5 6 3 10 9 15 12 12 3 -3 0 -11 -7 -18z m-708 -70 l132
-3 -137 -2 -138 -2 2 48 1 47 4 -42 4 -42 132 -4z m214 -179 c-1 -51 -3 -12
-3 87 0 99 2 141 3 93 2 -48 2 -129 0 -180z m1679 95 c-3 -19 -33 -26 -43 -11
-3 6 -1 8 4 5 6 -4 16 0 23 8 16 19 19 19 16 -2z m-1839 -135 c-2 -29 -3 -8
-3 47 0 55 1 79 3 53 2 -26 2 -71 0 -100z m651 21 c9 -12 9 -16 -1 -16 -7 0
-14 9 -14 20 -1 11 -1 18 0 16 2 -2 8 -11 15 -20z m185 -6 c15 -12 23 -24 18
-27 -5 -3 -12 2 -15 11 -5 12 -10 13 -18 5 -8 -8 -15 -9 -25 -1 -7 7 -13 7
-13 2 0 -5 -6 -17 -13 -27 -12 -16 -14 -16 -14 -2 0 9 5 16 10 16 5 0 7 6 4
14 -6 16 10 35 27 32 7 -1 25 -11 39 -23z m1126 -31 c-2 -24 -2 -24 -6 -4 -2
12 -9 22 -14 22 -6 0 -7 5 -4 10 11 17 25 0 24 -28z m278 6 c-3 -8 -6 -5 -6 6
-1 11 2 17 5 13 3 -3 4 -12 1 -19z m-2672 -288 c10 -11 16 -20 13 -20 -3 0
-13 9 -23 20 -10 11 -16 20 -13 20 3 0 13 -9 23 -20z m1005 17 c0 -2 -10 -12
-22 -23 l-23 -19 19 23 c18 21 26 27 26 19z"/>
<path d="M3536 2822 c-3 -5 1 -9 9 -9 8 0 12 4 9 9 -3 4 -7 8 -9 8 -2 0 -6 -4
-9 -8z"/>
<path d="M3205 2469 c-3 -4 2 -6 10 -5 21 3 28 13 10 13 -9 0 -18 -4 -20 -8z"/>
<path d="M3515 2460 c-3 -6 1 -7 9 -4 18 7 21 14 7 14 -6 0 -13 -4 -16 -10z"/>
<path d="M2020 2745 c-10 -12 -10 -15 3 -15 19 0 31 16 18 24 -5 3 -14 -1 -21
-9z"/>
<path d="M2133 2465 c0 -8 4 -12 9 -9 5 3 6 10 3 15 -9 13 -12 11 -12 -6z"/>
</g>
</svg>
