<?xml version="1.0" standalone="no"?>
<!DOCTYPE svg PUBLIC "-//W3C//DTD SVG 20010904//EN"
 "http://www.w3.org/TR/2001/REC-SVG-20010904/DTD/svg10.dtd">
<svg version="1.0" xmlns="http://www.w3.org/2000/svg"
 width="500.000000pt" height="500.000000pt" viewBox="0 0 500.000000 500.000000"
 preserveAspectRatio="xMidYMid meet">
<metadata>
Created by potrace 1.16, written by Peter Selinger 2001-2019
</metadata>
<g transform="translate(0.000000,500.000000) scale(0.100000,-0.100000)"
fill="#000000" stroke="none">
<path d="M0 2500 l0 -2500 2500 0 2500 0 0 2500 0 2500 -2500 0 -2500 0 0
-2500z m1618 663 c-125 -2 -332 -2 -460 0 -128 1 -26 2 227 2 253 0 358 -1
233 -2z m-708 -6 c0 -2 -10 -12 -22 -23 l-23 -19 19 23 c18 21 26 27 26 19z
m981 -24 c13 -16 12 -17 -3 -4 -10 7 -18 15 -18 17 0 8 8 3 21 -13z m16 -45
c-3 -8 -6 -5 -6 6 -1 11 2 17 5 13 3 -3 4 -12 1 -19z m-269 -435 l-3 -258 -2
253 -3 252 -245 0 -244 0 -4 -42 -4 -43 -1 48 -2 47 255 0 255 0 -2 -257z
m626 217 c19 7 25 7 21 0 -4 -7 2 -9 18 -5 17 5 26 2 31 -10 3 -9 10 -14 15
-10 5 3 12 -4 16 -15 3 -11 13 -20 22 -20 13 0 13 -2 2 -16 -12 -15 -11 -16 9
-9 22 6 23 5 13 -14 -7 -12 -8 -21 -4 -21 4 0 -2 -7 -13 -16 -12 -10 -14 -14
-4 -11 8 2 24 0 34 -6 19 -9 19 -10 1 -23 -10 -8 -15 -14 -9 -14 5 0 2 -5 -6
-11 -12 -9 -11 -10 6 -6 13 3 21 -1 21 -10 0 -8 -5 -12 -11 -10 -14 5 -31 -13
-31 -32 0 -8 5 -16 12 -18 8 -3 11 3 8 16 -3 14 0 18 12 14 11 -4 12 -8 3 -13
-9 -6 -7 -11 6 -20 16 -9 16 -11 2 -6 -23 7 -31 -9 -18 -33 6 -13 6 -22 0 -26
-5 -3 -7 -12 -3 -20 3 -10 1 -13 -9 -10 -9 4 -15 0 -15 -9 0 -8 7 -12 16 -10
9 3 6 -1 -7 -7 -13 -7 -21 -18 -18 -26 3 -8 2 -12 -3 -8 -5 3 -16 -2 -24 -10
-9 -8 -22 -15 -29 -16 -10 0 -10 -2 0 -6 6 -2 12 -8 12 -13 0 -4 -6 -8 -12 -7
-34 1 -49 -4 -42 -14 4 -8 0 -8 -15 0 -16 9 -21 9 -21 -1 0 -9 -3 -9 -10 2 -9
13 -10 13 -10 0 0 -13 -1 -13 -10 0 -9 13 -10 13 -11 0 0 -11 -2 -11 -6 -2 -3
9 -9 10 -18 2 -14 -11 -42 -9 -64 4 -11 7 -12 6 -6 -5 7 -11 6 -12 -6 -3 -8 6
-31 10 -51 9 -21 -1 -38 2 -38 6 0 4 -13 12 -30 18 -16 5 -30 7 -30 4 0 -3
-10 7 -22 22 -20 26 -22 26 -29 9 -6 -14 -8 -15 -8 -3 -1 8 5 21 12 28 7 9 8
12 0 7 -8 -4 -11 36 -11 156 1 90 4 146 7 126 6 -37 6 -37 18 -13 8 19 8 24 0
19 -14 -7 21 24 57 50 14 10 23 22 21 26 -3 5 4 6 15 3 11 -3 20 -1 20 5 0 16
30 24 104 28 38 2 71 6 74 9 3 3 9 1 12 -5 5 -8 15 -8 34 0z m1287 -6 c8 -5 9
-3 4 6 -6 9 -2 10 15 5 12 -4 28 -8 34 -9 6 -1 18 -6 26 -11 8 -5 23 -8 34 -6
11 1 16 -2 11 -8 -3 -6 6 -16 22 -22 23 -8 39 -6 90 14 53 21 80 25 185 26
145 2 162 -5 162 -65 -1 -46 -5 -66 -19 -76 -6 -5 -5 -8 3 -8 7 0 10 -4 7 -10
-3 -5 1 -10 9 -10 28 0 46 -42 46 -109 0 -60 -2 -66 -36 -97 -19 -19 -40 -34
-45 -34 -6 0 -7 -4 -4 -10 3 -5 1 -10 -5 -10 -6 0 -8 -5 -5 -10 6 -10 -52 -37
-69 -32 -4 2 -13 -1 -20 -6 -13 -10 -174 -9 -233 2 -24 4 -46 8 -50 8 -5 -1
-17 7 -28 16 -11 9 -17 13 -13 8 12 -14 -12 -38 -26 -26 -7 5 -26 10 -43 12
-18 1 -31 5 -30 9 1 4 -2 8 -8 9 -5 0 -21 11 -34 23 -13 12 -21 15 -16 7 5 -8
-4 -4 -18 9 -23 21 -27 22 -33 7 -3 -9 -12 -16 -20 -16 -8 0 -14 -5 -14 -10 0
-10 -81 -47 -89 -41 -2 1 -8 -3 -12 -11 -7 -10 -9 -10 -9 0 0 14 -21 12 -32
-3 -5 -6 -8 -6 -8 2 0 6 -8 10 -17 9 -10 -2 -24 2 -31 10 -7 8 -9 14 -5 14 4
0 -12 19 -35 43 -23 24 -40 46 -37 49 7 7 -37 4 -50 -4 -5 -3 -24 -9 -41 -12
-30 -7 -57 -46 -31 -46 6 0 8 -3 4 -6 -7 -7 -35 8 -36 19 -1 4 -4 6 -8 5 -5
-2 -7 -6 -6 -10 1 -3 -5 -5 -15 -3 -9 1 -24 -3 -32 -9 -13 -10 -13 -9 -1 7 17
22 7 34 -14 17 -9 -8 -28 -15 -43 -16 -22 -2 -24 -1 -9 7 9 6 21 8 26 4 5 -3
12 -1 16 5 3 5 -1 10 -10 10 -9 0 -14 4 -10 9 3 6 -3 8 -14 6 -11 -2 -25 3
-31 11 -7 7 -16 11 -22 8 -5 -3 -4 -12 3 -20 6 -7 15 -11 20 -8 5 3 9 1 9 -5
0 -5 -9 -9 -20 -8 -20 1 -24 13 -20 52 2 16 0 17 -13 6 -13 -10 -15 -9 -10 9
5 20 4 21 -16 8 -15 -9 -24 -10 -29 -2 -4 6 -14 14 -22 18 -8 3 -3 4 13 2 15
-2 30 2 34 8 3 6 3 8 -1 5 -4 -4 -23 -3 -42 1 -19 4 -34 4 -34 -1 0 -5 -5 -9
-11 -9 -8 0 -7 5 1 15 17 21 5 31 -17 14 -9 -8 -14 -9 -10 -2 4 6 2 15 -4 18
-12 8 47 65 68 65 8 0 12 3 10 8 -3 4 11 14 29 23 19 9 34 13 34 8 0 -5 5 -9
11 -9 6 0 9 7 5 15 -4 12 3 15 29 15 19 0 35 5 35 10 0 6 12 10 28 10 15 0 38
9 52 20 14 11 30 20 35 20 6 0 3 -5 -5 -10 -13 -8 -12 -10 3 -10 10 0 16 -4
13 -9 -3 -5 14 -12 38 -15 24 -4 52 -13 62 -21 18 -15 18 -15 -1 -9 -17 5 -18
4 -3 -5 19 -13 80 -3 71 12 -4 6 4 8 21 5 33 -7 25 3 -17 19 -32 12 -32 12 10
6 40 -5 45 -3 86 33 7 6 23 15 35 18 12 4 22 11 22 15 0 10 89 45 96 38 3 -3
17 -1 32 3 30 8 75 6 93 -6z m-622 -83 c-6 -2 -18 4 -27 13 -15 15 -15 15 10
4 15 -7 23 -15 17 -17z m111 25 c0 -11 -19 -15 -25 -6 -3 5 1 10 9 10 9 0 16
-2 16 -4z m77 -22 c-3 -3 -12 -4 -19 -1 -8 3 -5 6 6 6 11 1 17 -2 13 -5z
m-317 -19 c0 -1 -8 -5 -18 -7 -11 -3 -19 0 -19 7 0 7 8 10 19 7 10 -2 18 -6
18 -7z m67 0 c0 -8 -4 -15 -9 -15 -10 0 -11 14 -1 23 9 10 10 9 10 -8z m243
-5 c8 -5 11 -10 5 -10 -5 0 -17 5 -25 10 -8 5 -10 10 -5 10 6 0 17 -5 25 -10z
m-1837 -93 l132 -3 -137 -2 -138 -2 2 48 1 47 4 -42 4 -42 132 -4z m214 -179
c-1 -51 -3 -12 -3 87 0 99 2 141 3 93 2 -48 2 -129 0 -180z m1233 258 c0 -11
-19 -15 -25 -6 -3 5 1 10 9 10 9 0 16 -2 16 -4z m-20 -38 c0 -6 -6 -5 -15 2
-8 7 -15 14 -15 16 0 2 7 1 15 -2 8 -4 15 -11 15 -16z m-90 -8 c0 -5 -4 -10
-9 -10 -6 0 -13 5 -16 10 -3 6 1 10 9 10 9 0 16 -4 16 -10z m44 -25 c3 -8 0
-17 -6 -21 -7 -4 -8 -3 -4 5 4 6 0 14 -8 17 -9 3 -16 10 -16 15 0 13 28 -1 34
-16z m-100 -17 c-3 -4 -11 -5 -19 -1 -21 7 -19 12 4 10 11 0 18 -5 15 -9z m73
-19 c1 -17 8 -38 14 -45 10 -12 9 -13 -5 -8 -14 5 -21 23 -17 46 0 4 -7 5 -17
2 -14 -5 -15 -4 -2 5 8 6 11 11 7 11 -5 0 -5 5 -2 10 11 18 20 10 22 -21z
m-111 -14 c0 -14 -3 -25 -7 -25 -4 0 -9 11 -11 25 -3 15 -1 25 6 25 7 0 12
-11 12 -25z m94 -9 c0 -3 -4 -8 -10 -11 -5 -3 -10 -1 -10 4 0 6 5 11 10 11 6
0 10 -2 10 -4z m-71 -31 c-2 -2 -18 -6 -34 -9 -25 -5 -26 -5 -9 3 12 5 25 15
30 22 6 11 8 11 12 0 2 -7 2 -14 1 -16z m-1212 -137 c-2 -29 -3 -8 -3 47 0 55
1 79 3 53 2 -26 2 -71 0 -100z m1297 116 c5 -14 9 -14 23 -3 15 13 15 12 2 -8
-7 -13 -20 -25 -28 -28 -12 -5 -12 -3 0 12 12 15 12 16 -3 10 -13 -4 -15 -2
-11 10 5 12 3 14 -7 8 -9 -5 -11 -4 -6 3 10 17 23 15 30 -4z m-84 2 c0 -3 -4
-8 -10 -11 -5 -3 -10 -1 -10 4 0 6 5 11 10 11 6 0 10 -2 10 -4z m-38 -24 c-7
-2 -10 -8 -6 -13 3 -5 -1 -9 -9 -9 -10 0 -13 7 -10 19 3 13 10 18 21 13 10 -4
12 -7 4 -10z m238 -8 c0 -8 4 -14 8 -14 14 0 10 -29 -5 -34 -8 -3 -11 -2 -8 3
3 5 1 12 -5 16 -6 4 -8 10 -5 15 3 5 1 11 -5 15 -5 3 -10 1 -10 -4 0 -6 -4
-11 -9 -11 -5 0 -7 8 -4 19 6 22 43 17 43 -5z m-73 -9 c0 -8 -4 -12 -9 -9 -5
3 -6 10 -3 15 9 13 12 11 12 -6z m480 -29 c4 -4 8 -13 8 -19 1 -7 6 -11 12
-10 6 1 21 -9 33 -22 13 -14 18 -25 12 -25 -7 0 -12 5 -12 11 0 5 -4 7 -10 4
-5 -3 -10 1 -10 10 0 9 -5 13 -10 10 -6 -4 -7 -12 -4 -18 4 -7 -6 0 -23 16
-31 28 -39 56 -17 53 8 -1 17 -6 21 -10z m-340 -29 c0 -8 -6 -14 -14 -14 -9 0
-10 4 -2 14 6 7 12 13 14 13 1 0 2 -6 2 -13z m289 -12 c-4 -27 -22 -37 -35
-21 -10 12 -9 14 9 9 11 -3 20 -2 19 3 -2 13 0 24 5 24 2 0 3 -7 2 -15z
m-1189 -67 c-3 -8 -6 -5 -6 6 -1 11 2 17 5 13 3 -3 4 -12 1 -19z m-1012 -238
c10 -11 16 -20 13 -20 -3 0 -13 9 -23 20 -10 11 -16 20 -13 20 3 0 13 -9 23
-20z m1005 17 c0 -2 -10 -12 -22 -23 l-23 -19 19 23 c18 21 26 27 26 19z"/>
<path d="M2408 2703 c7 -3 16 -2 19 1 4 3 -2 6 -13 5 -11 0 -14 -3 -6 -6z"/>
<path d="M2855 2720 c-3 -5 -1 -10 4 -10 6 0 11 5 11 10 0 6 -2 10 -4 10 -3 0
-8 -4 -11 -10z"/>
<path d="M3120 2694 c-17 -10 -18 -13 -5 -8 11 3 26 7 33 7 6 0 12 4 12 9 0
12 -11 9 -40 -8z"/>
<path d="M2727 2657 c-3 -8 -19 -17 -37 -20 -19 -4 -29 -11 -25 -18 5 -8 10
-8 18 0 6 6 19 11 28 11 16 0 35 28 25 37 -2 2 -6 -2 -9 -10z"/>
<path d="M2720 2620 c-24 -8 -24 -8 -2 -9 12 -1 25 -1 29 -2 4 0 9 4 11 10 4
12 -2 12 -38 1z"/>
<path d="M2796 2622 c-3 -5 1 -9 9 -9 8 0 12 4 9 9 -3 4 -7 8 -9 8 -2 0 -6 -4
-9 -8z"/>
<path d="M3019 2503 c-13 -16 -12 -17 4 -4 16 13 21 21 13 21 -2 0 -10 -8 -17
-17z"/>
<path d="M3126 2492 c-3 -5 4 -18 17 -28 21 -19 21 -19 7 0 -8 11 -13 21 -12
23 2 3 1 7 -1 9 -3 3 -8 1 -11 -4z"/>
</g>
</svg>
