<?xml version="1.0" standalone="no"?>
<!DOCTYPE svg PUBLIC "-//W3C//DTD SVG 20010904//EN"
 "http://www.w3.org/TR/2001/REC-SVG-20010904/DTD/svg10.dtd">
<svg version="1.0" xmlns="http://www.w3.org/2000/svg"
 width="500.000000pt" height="500.000000pt" viewBox="0 0 500.000000 500.000000"
 preserveAspectRatio="xMidYMid meet">
<metadata>
Created by potrace 1.16, written by Peter Selinger 2001-2019
</metadata>
<g transform="translate(0.000000,500.000000) scale(0.100000,-0.100000)"
fill="#000000" stroke="none">
<path d="M0 2500 l0 -2500 2500 0 2500 0 0 2500 0 2500 -2500 0 -2500 0 0
-2500z m1618 663 c-125 -2 -332 -2 -460 0 -128 1 -26 2 227 2 253 0 358 -1
233 -2z m-708 -6 c0 -2 -10 -12 -22 -23 l-23 -19 19 23 c18 21 26 27 26 19z
m1002 -271 c1 -121 3 -201 5 -177 3 31 12 52 29 67 26 24 32 40 12 28 -9 -5
-9 -2 1 9 15 18 26 23 16 7 -7 -11 6 -13 30 -4 13 5 14 8 3 15 -10 7 -9 12 6
26 18 16 19 16 7 1 -8 -10 -10 -18 -5 -19 5 0 17 -2 27 -4 9 -2 24 6 32 18 8
12 15 16 15 9 0 -8 5 -10 13 -5 6 4 29 7 50 6 22 -1 35 2 32 7 -4 6 6 5 20 -2
21 -9 28 -9 34 1 6 9 10 10 15 2 4 -6 11 -9 16 -6 4 3 13 -2 20 -10 7 -8 19
-15 26 -15 8 0 14 -7 14 -15 0 -8 3 -14 8 -13 4 2 7 0 7 -4 0 -4 10 -15 23
-23 21 -16 31 -55 13 -55 -10 0 -9 -14 4 -43 4 -10 13 -16 20 -13 10 3 11 -2
5 -24 -4 -16 -5 -31 -2 -35 4 -4 -1 -11 -11 -16 -9 -6 -15 -14 -12 -20 4 -5
-1 -9 -9 -9 -8 0 -18 -5 -22 -12 -5 -7 -1 -9 13 -6 12 3 20 0 20 -8 0 -8 -4
-14 -9 -14 -5 0 -7 -4 -3 -9 3 -5 -3 -12 -12 -15 -10 -3 -6 -4 10 -2 33 4 35
-1 5 -14 -18 -7 -19 -9 -5 -9 9 -1 17 -5 17 -11 0 -5 -3 -9 -7 -9 -20 3 -34
-2 -28 -11 3 -5 0 -10 -8 -10 -19 0 -49 -34 -40 -45 5 -5 0 -3 -9 4 -19 14
-20 13 -22 -18 0 -11 -5 -23 -10 -28 -6 -5 -6 -2 -1 6 6 11 4 13 -9 8 -14 -5
-17 -3 -13 8 4 8 2 17 -4 20 -5 4 -8 3 -7 -2 3 -9 0 -11 -41 -23 -16 -4 -45
-5 -65 0 -22 5 -39 4 -47 -4 -9 -8 -10 -8 -4 3 6 11 3 13 -13 9 -12 -4 -25 -2
-28 3 -4 6 -11 6 -19 -1 -10 -8 -17 -6 -28 10 -11 16 -16 18 -20 8 -3 -7 -6
-2 -6 11 -1 13 -4 22 -7 18 -4 -3 -14 3 -24 15 -17 21 -17 19 -19 -67 -1 -49
-4 -91 -7 -94 -2 -2 -4 182 -4 410 0 361 -2 418 -16 439 l-16 25 21 -24 c20
-22 21 -36 23 -245z m-274 -233 l-3 -258 -2 253 -3 252 -245 0 -244 0 -4 -42
-4 -43 -1 48 -2 47 255 0 255 0 -2 -257z m1843 207 c6 0 8 3 6 8 -3 4 15 8 39
9 24 1 42 -2 39 -7 -3 -4 11 -8 30 -7 24 1 40 -6 54 -22 14 -17 26 -21 42 -16
13 4 19 3 15 -3 -3 -5 30 3 75 18 127 44 339 40 339 -7 0 -7 4 -13 8 -13 10 0
10 -66 -1 -76 -13 -14 -7 -35 17 -58 14 -12 26 -29 28 -37 2 -7 8 -17 13 -21
6 -5 5 -8 -4 -8 -10 0 -11 -3 -2 -14 8 -10 9 -16 1 -21 -6 -3 -8 -10 -5 -15
10 -16 -17 -89 -35 -95 -22 -7 -60 -40 -60 -51 0 -5 -16 -18 -36 -29 -29 -15
-59 -19 -167 -21 -73 -1 -137 2 -142 6 -14 12 -64 23 -97 22 -16 -1 -28 4 -28
11 0 7 -4 6 -10 -3 -9 -13 -10 -13 -10 0 0 12 -2 12 -9 2 -6 -10 -10 -8 -14 9
-5 19 -8 20 -22 9 -14 -11 -16 -11 -13 1 2 8 -4 14 -12 14 -8 0 -18 5 -22 10
-4 6 -8 1 -8 -10 0 -16 -2 -17 -9 -6 -8 13 -12 13 -27 0 -10 -8 -15 -9 -11 -2
4 6 2 15 -4 19 -7 4 -9 3 -6 -3 4 -6 -3 -19 -15 -29 -12 -11 -18 -14 -15 -7 4
6 3 15 -3 18 -6 4 -9 1 -8 -7 2 -8 -6 -13 -19 -12 -12 0 -21 -4 -20 -10 1 -5
-15 -13 -35 -16 -25 -5 -38 -3 -39 4 0 6 -4 2 -9 -9 -8 -19 -9 -19 -9 3 -1 15
-5 21 -13 16 -7 -5 -9 -2 -6 8 4 8 1 15 -7 15 -7 0 -11 -9 -9 -21 3 -13 2 -15
-2 -6 -12 28 -37 50 -48 43 -6 -4 -6 0 1 9 19 22 3 31 -20 11 -14 -13 -18 -13
-11 -3 5 8 9 22 9 30 0 8 4 22 9 30 6 9 -1 6 -14 -5 l-23 -20 5 20 c4 15 0 21
-13 21 -11 0 -19 -4 -19 -8 0 -4 -7 -8 -16 -8 -8 0 -12 5 -9 10 3 6 2 10 -4
10 -5 0 -18 3 -28 6 -10 4 -2 -6 17 -21 30 -23 32 -26 10 -20 -14 4 -33 14
-42 23 -10 8 -18 11 -18 6 0 -5 12 -17 28 -27 23 -15 24 -16 5 -14 -11 2 -29
9 -39 17 -10 8 -15 10 -11 3 4 -6 3 -14 -2 -17 -5 -4 -13 -1 -16 4 -5 8 -13 6
-25 -5 -15 -14 -18 -14 -30 0 -7 8 -16 13 -20 10 -5 -3 -11 -1 -14 4 -8 13
-71 -4 -68 -18 1 -7 -2 -10 -8 -6 -5 3 -10 13 -10 21 0 8 5 12 10 9 6 -3 10
-1 10 4 0 6 -4 11 -9 11 -4 0 -8 10 -7 23 1 19 -4 22 -34 20 -19 -1 -27 1 -17
3 9 3 14 10 11 16 -4 7 4 8 24 3 22 -4 30 -3 28 7 -3 22 -17 39 -27 33 -5 -4
-9 -1 -9 4 0 6 5 11 11 11 5 0 7 5 4 10 -3 6 1 10 11 10 12 0 14 3 6 13 -8 10
-5 13 14 15 14 1 23 -2 19 -7 -3 -5 -1 -12 4 -16 6 -3 8 3 6 15 -4 21 19 29
30 10 3 -5 14 -10 23 -9 12 0 11 3 -5 9 -16 6 -23 18 -23 35 0 15 4 24 10 20
6 -3 10 -13 10 -21 0 -16 26 -19 35 -4 10 16 25 1 19 -18 -5 -14 -4 -15 5 -2
7 10 6 19 -4 30 -13 14 -12 16 5 17 11 1 19 -3 17 -10 -1 -6 14 -14 33 -17 24
-3 36 -11 39 -25 2 -15 0 -17 -10 -9 -22 17 -49 24 -49 14 0 -6 9 -10 20 -10
13 0 24 -10 30 -25 5 -14 12 -25 15 -25 4 0 3 5 0 10 -3 6 0 10 7 10 9 0 9 3
-2 10 -8 5 -13 10 -10 11 32 5 52 7 42 3 -6 -3 -9 -10 -6 -15 3 -6 11 -6 20 2
7 6 20 9 28 6 10 -4 13 -1 9 8 -3 8 -9 12 -14 9 -5 -3 -9 -1 -9 5 0 6 12 8 32
4 20 -4 29 -3 25 4 -4 6 4 14 18 17 14 4 25 11 25 17 0 6 -6 7 -12 2 -19 -11
-39 -13 -32 -2 3 5 12 9 20 9 8 0 13 4 10 9 -4 5 4 7 16 3 17 -4 20 -2 15 11
-3 9 -2 19 3 22 6 4 10 0 10 -7 0 -10 3 -9 10 2 5 8 12 11 16 7 12 -11 33 13
27 31 -3 11 -2 13 4 6 11 -16 42 -9 60 13 8 10 11 11 7 3 -5 -12 -4 -12 6 -3
7 6 18 9 24 7 7 -3 23 -1 37 4 13 6 25 6 27 1 2 -5 8 -9 13 -9z m-1423 -6 c-1
-5 -9 -9 -16 -10 -10 -2 -11 1 -1 12 12 14 24 13 17 -2z m737 -63 c3 -5 2 -12
-3 -15 -5 -3 -9 1 -9 9 0 17 3 19 12 6z m279 -19 c3 -5 -1 -9 -9 -9 -8 0 -12
4 -9 9 3 4 7 8 9 8 2 0 6 -4 9 -8z m-314 -6 c0 -2 -8 -10 -17 -17 -16 -13 -17
-12 -4 4 13 16 21 21 21 13z m160 -6 c0 -5 -4 -10 -10 -10 -5 0 -10 5 -10 10
0 6 5 10 10 10 6 0 10 -4 10 -10z m-1647 -93 l132 -3 -137 -2 -138 -2 2 48 1
47 4 -42 4 -42 132 -4z m214 -179 c-1 -51 -3 -12 -3 87 0 99 2 141 3 93 2 -48
2 -129 0 -180z m1583 250 c0 -4 -4 -8 -9 -8 -6 0 -12 4 -15 8 -3 5 1 9 9 9 8
0 15 -4 15 -9z m90 2 c0 -5 -5 -10 -11 -10 -5 0 -7 5 -4 10 3 6 8 10 11 10 2
0 4 -4 4 -10z m-738 -25 c0 -5 -5 -10 -11 -11 -8 -2 -7 -1 0 3 8 4 7 8 -2 15
-11 8 -11 9 -1 6 8 -2 14 -8 14 -13z m384 3 c4 -6 3 -8 -4 -4 -6 3 -13 2 -17
-4 -3 -5 -11 -10 -16 -10 -11 0 12 29 23 30 4 0 10 -5 14 -12z m298 4 c2 -4
-7 -9 -22 -10 -21 -1 -24 0 -12 8 18 12 27 12 34 2z m-369 -32 c3 -5 12 -7 19
-4 20 8 28 -11 16 -41 -9 -23 -8 -26 10 -23 10 2 19 0 20 -4 0 -5 -2 -8 -5 -8
-3 0 -11 0 -18 0 -8 0 -25 10 -38 21 l-24 22 23 -6 c20 -5 22 -3 11 11 -7 9
-20 23 -28 30 -9 7 -10 12 -4 12 7 0 14 -4 18 -10z m-287 -35 c-3 -3 -9 2 -12
12 -6 14 -5 15 5 6 7 -7 10 -15 7 -18z m255 -29 c13 -12 30 -26 38 -29 8 -3 2
-5 -13 -4 -16 1 -28 7 -28 15 0 7 -5 10 -10 7 -6 -4 -10 -3 -9 2 3 20 -2 27
-11 13 -8 -13 -10 -12 -10 3 0 24 15 21 43 -7z m-1566 -178 c-2 -29 -3 -8 -3
47 0 55 1 79 3 53 2 -26 2 -71 0 -100z m190 0 c-2 -29 -3 -8 -3 47 0 55 1 79
3 53 2 -26 2 -71 0 -100z m1393 117 c-7 -9 -15 -13 -19 -10 -3 3 1 10 9 15 21
14 24 12 10 -5z m75 -5 c-3 -5 -14 -10 -23 -9 -14 0 -13 2 3 9 27 11 27 11 20
0z m-50 -10 c-3 -5 -12 -10 -18 -10 -7 0 -6 4 3 10 19 12 23 12 15 0z m45 -20
c0 -5 -5 -10 -11 -10 -5 0 -7 5 -4 10 3 6 8 10 11 10 2 0 4 -4 4 -10z m325
-20 c-6 -9 8 -14 28 -11 5 1 6 -3 2 -9 -3 -5 -13 -10 -21 -10 -10 0 -12 -5 -8
-12 6 -10 4 -10 -8 0 -16 13 -14 52 4 52 5 0 6 -4 3 -10z m-225 -45 c11 -4 17
-11 14 -17 -4 -7 -9 -7 -13 0 -3 6 -13 12 -21 14 -20 4 -39 22 -33 31 2 4 11
1 19 -7 8 -8 23 -18 34 -21z m75 25 c-3 -5 0 -10 8 -10 7 0 14 -7 14 -15 0 -8
-5 -11 -11 -7 -6 3 -20 5 -31 3 -20 -3 -20 -3 -1 18 20 22 32 28 21 11z m50 1
c3 -5 1 -12 -5 -16 -5 -3 -10 1 -10 9 0 18 6 21 15 7z m-98 -7 c-3 -3 -12 -4
-19 -1 -8 3 -5 6 6 6 11 1 17 -2 13 -5z m126 -19 c4 -8 1 -17 -5 -21 -7 -4 -8
-3 -4 4 4 7 2 12 -4 12 -6 0 -8 5 -5 10 8 14 12 13 18 -5z m-696 -51 c-3 -3
-12 -4 -19 -1 -8 3 -5 6 6 6 11 1 17 -2 13 -5z m-440 -226 c-3 -8 -6 -5 -6 6
-1 11 2 17 5 13 3 -3 4 -12 1 -19z m-1012 -38 c10 -11 16 -20 13 -20 -3 0 -13
9 -23 20 -10 11 -16 20 -13 20 3 0 13 -9 23 -20z m1005 17 c0 -2 -10 -12 -22
-23 l-23 -19 19 23 c18 21 26 27 26 19z m-953 -43 c-3 -3 -12 -4 -19 -1 -8 3
-5 6 6 6 11 1 17 -2 13 -5z m900 0 c-3 -3 -12 -4 -19 -1 -8 3 -5 6 6 6 11 1
17 -2 13 -5z"/>
<path d="M2258 2843 c7 -3 16 -2 19 1 4 3 -2 6 -13 5 -11 0 -14 -3 -6 -6z"/>
<path d="M2361 2666 c-10 -12 -8 -13 9 -9 18 5 21 2 18 -18 -1 -13 -10 -27
-18 -31 -11 -6 -10 -7 4 -5 24 3 32 49 12 66 -10 9 -16 8 -25 -3z"/>
<path d="M1912 2510 c0 -14 2 -19 5 -12 2 6 2 18 0 25 -3 6 -5 1 -5 -13z"/>
<path d="M1990 2401 c0 -6 4 -13 10 -16 6 -3 7 1 4 9 -7 18 -14 21 -14 7z"/>
<path d="M2938 2673 c7 -3 16 -2 19 1 4 3 -2 6 -13 5 -11 0 -14 -3 -6 -6z"/>
<path d="M3103 2660 c-25 -10 -21 -40 5 -40 13 0 12 3 -4 15 -17 13 -17 14 -2
15 9 0 20 5 23 10 7 12 7 12 -22 0z"/>
<path d="M3100 2593 c8 -3 22 -11 30 -17 13 -10 13 -9 1 7 -7 9 -21 17 -30 16
-13 0 -14 -1 -1 -6z"/>
<path d="M2838 2573 c7 -3 16 -2 19 1 4 3 -2 6 -13 5 -11 0 -14 -3 -6 -6z"/>
<path d="M2824 2549 c-10 -16 9 -30 26 -19 12 8 11 10 -5 11 l-20 0 20 9 c16
7 17 9 3 9 -9 1 -20 -4 -24 -10z"/>
<path d="M2750 2670 c0 -5 5 -10 11 -10 5 0 7 5 4 10 -3 6 -8 10 -11 10 -2 0
-4 -4 -4 -10z"/>
</g>
</svg>
