<?xml version="1.0" standalone="no"?>
<!DOCTYPE svg PUBLIC "-//W3C//DTD SVG 20010904//EN"
 "http://www.w3.org/TR/2001/REC-SVG-20010904/DTD/svg10.dtd">
<svg version="1.0" xmlns="http://www.w3.org/2000/svg"
 width="500.000000pt" height="500.000000pt" viewBox="0 0 500.000000 500.000000"
 preserveAspectRatio="xMidYMid meet">
<metadata>
Created by potrace 1.16, written by Peter Selinger 2001-2019
</metadata>
<g transform="translate(0.000000,500.000000) scale(0.100000,-0.100000)"
fill="#000000" stroke="none">
<path d="M0 2500 l0 -2500 2500 0 2500 0 0 2500 0 2500 -2500 0 -2500 0 0
-2500z m1618 663 c-125 -2 -332 -2 -460 0 -128 1 -26 2 227 2 253 0 358 -1
233 -2z m273 -30 c13 -16 12 -17 -3 -4 -10 7 -18 15 -18 17 0 8 8 3 21 -13z
m-253 -480 l-3 -258 -2 253 -3 252 -245 0 -244 0 -4 -42 -4 -43 -1 48 -2 47
255 0 255 0 -2 -257z m467 217 c-4 -6 2 -7 17 -2 30 11 218 14 218 4 0 -4 8
-8 18 -9 43 -3 60 -8 56 -15 -3 -4 -12 -4 -21 -1 -13 5 -12 1 4 -16 13 -14 28
-21 37 -18 9 4 16 2 16 -3 0 -6 -8 -10 -17 -10 -11 0 -14 -3 -8 -8 6 -4 10
-24 9 -44 l-1 -37 28 21 c16 12 27 24 24 26 -3 3 -14 -3 -26 -14 -21 -19 -21
-19 -18 1 3 12 12 19 24 19 60 -3 66 -4 58 -16 -4 -7 -8 -19 -9 -26 -2 -10 1
-10 12 -1 7 6 11 15 8 20 -8 14 26 23 38 11 7 -7 16 -8 23 -2 6 5 22 11 35 13
14 3 38 8 54 12 19 5 27 4 23 -2 -4 -6 0 -16 8 -23 14 -12 18 -9 13 8 -2 4 -7
6 -13 4 -7 -2 -7 0 0 6 14 13 60 23 68 15 4 -3 1 -13 -6 -22 -10 -14 -10 -14
4 -3 10 7 15 21 12 33 -4 15 -2 18 13 13 11 -4 26 -12 34 -18 8 -6 6 -1 -4 12
-11 12 -16 25 -13 29 4 3 7 1 7 -6 0 -7 5 -9 11 -5 7 4 25 7 41 6 22 0 28 3
24 13 -4 12 -2 13 14 3 10 -7 16 -17 13 -23 -4 -5 2 -2 13 7 16 14 23 15 34 5
10 -10 12 -9 7 5 -3 10 -1 20 5 24 7 4 8 3 4 -4 -6 -10 7 -17 17 -9 2 1 12 -5
22 -13 17 -13 18 -13 10 0 -8 13 -7 13 8 1 15 -12 17 -11 17 2 0 9 5 19 12 23
7 4 8 3 4 -4 -4 -7 -2 -20 3 -29 8 -14 10 -15 11 -3 0 13 1 13 10 0 8 -13 10
-12 10 3 0 22 18 13 31 -17 9 -21 10 -21 5 1 -2 13 0 26 5 29 8 5 13 -9 10
-28 0 -4 6 -5 13 -2 10 4 13 0 9 -14 -2 -11 0 -23 6 -26 6 -4 9 -1 5 7 -3 8 2
17 11 21 9 3 13 2 10 -4 -3 -6 0 -10 9 -10 8 0 16 3 19 8 2 4 3 2 1 -5 -5 -19
7 -22 26 -5 11 8 16 20 13 25 -4 6 2 8 15 5 14 -4 30 4 53 28 18 18 36 31 40
28 5 -3 18 0 30 7 17 9 20 8 13 -3 -6 -10 -5 -11 7 -2 8 7 40 11 79 9 109 -6
132 -11 142 -28 5 -9 15 -17 23 -17 17 0 46 -40 39 -52 -3 -5 18 6 48 24 52
32 56 33 182 36 173 5 173 5 166 -55 -5 -44 -8 -49 -40 -60 -19 -7 -81 -12
-137 -12 l-103 -1 0 -35 c0 -40 11 -43 47 -15 22 17 41 20 139 20 62 0 118 -2
126 -5 10 -4 12 -25 8 -92 l-5 -86 -35 -12 c-27 -9 -36 -18 -40 -41 -4 -24
-13 -32 -55 -45 -74 -25 -295 -15 -295 13 0 5 -7 2 -16 -6 -8 -9 -20 -14 -25
-11 -5 4 -9 1 -9 -6 0 -7 -3 -9 -6 -6 -4 3 -15 2 -25 -4 -13 -7 -19 -6 -19 2
0 6 -6 9 -12 6 -22 -8 -52 9 -68 39 -9 16 -26 33 -38 39 -12 5 -22 13 -22 18
0 18 -59 -25 -79 -58 -11 -19 -24 -34 -28 -33 -4 1 -17 -3 -28 -9 -21 -11 -53
-11 -72 0 -6 4 -13 3 -15 -3 -2 -6 -20 2 -41 17 -21 15 -36 32 -33 40 3 7 -1
13 -10 13 -9 0 -12 -5 -8 -12 4 -7 -3 -4 -17 7 -18 15 -20 16 -10 3 12 -16 11
-18 -3 -18 -23 0 -31 4 -29 13 5 12 -4 8 -18 -10 -12 -15 -12 -16 1 -8 12 6
13 5 2 -6 -10 -11 -17 -11 -31 -2 -15 10 -22 9 -31 -2 -7 -8 -16 -12 -21 -9
-5 3 -9 1 -9 -5 0 -6 -7 -8 -15 -5 -9 4 -15 0 -15 -7 0 -11 -2 -11 -9 1 -6 8
-8 17 -6 20 2 4 -2 7 -10 7 -11 0 -12 -4 -4 -14 9 -11 5 -13 -25 -11 -30 3
-36 7 -34 23 2 14 -3 20 -17 20 -11 0 -27 4 -35 10 -13 7 -13 6 -2 -7 8 -10 9
-19 3 -22 -5 -4 -12 -2 -16 4 -4 6 -10 8 -15 5 -4 -3 -14 3 -21 13 -12 15 -12
16 2 5 13 -10 16 -10 16 1 0 16 -37 15 -56 -2 -10 -10 -16 -10 -27 -1 -8 6
-11 15 -8 20 8 14 25 0 18 -14 -4 -7 -3 -8 1 -4 18 16 12 34 -11 33 -13 -1
-26 -5 -30 -9 -4 -4 -14 -1 -23 6 -14 11 -14 10 -2 -5 7 -10 17 -15 22 -12 5
3 9 1 9 -4 0 -6 -7 -13 -16 -16 -8 -3 -12 -2 -9 4 3 6 -3 10 -13 10 -11 0 -22
6 -25 14 -8 19 -57 11 -75 -12 -11 -15 -12 -15 -10 3 2 11 8 27 13 35 6 11 2
10 -12 -3 -11 -9 -23 -14 -26 -10 -4 3 -7 2 -7 -4 0 -6 -9 -9 -20 -6 -19 5
-20 6 -3 19 16 13 14 13 -10 2 l-28 -12 23 -12 c21 -11 19 -12 -20 -9 -40 2
-55 -5 -58 -30 0 -5 -2 -16 -2 -22 -1 -7 -9 -13 -18 -13 -10 0 -14 5 -10 16 3
8 2 12 -4 9 -14 -9 -12 -35 3 -35 6 0 1 -6 -13 -14 -15 -8 -30 -9 -37 -4 -7 5
-14 5 -18 -2 -3 -6 -12 -7 -18 -3 -17 10 -58 13 -52 3 3 -5 -8 -5 -25 0 -19 5
-30 5 -30 -1 0 -6 -8 -5 -21 1 -15 9 -24 8 -35 -1 -9 -7 -14 -8 -14 -1 0 14
-43 11 -52 -3 -5 -6 -8 -2 -8 9 0 14 -3 16 -13 7 -11 -8 -18 -6 -31 8 -10 10
-25 18 -34 16 -21 -3 -62 32 -63 54 0 12 -3 11 -9 -4 -5 -13 -9 29 -9 112 -1
77 3 133 9 135 5 2 11 14 13 27 4 27 92 121 113 121 7 0 17 6 21 14 4 8 17 16
28 19 11 2 21 5 23 6 2 0 0 -3 -3 -9z m-832 -203 l132 -3 -137 -2 -138 -2 2
48 1 47 4 -42 4 -42 132 -4z m214 -179 c-1 -51 -3 -12 -3 87 0 99 2 141 3 93
2 -48 2 -129 0 -180z m-160 -40 c-2 -29 -3 -8 -3 47 0 55 1 79 3 53 2 -26 2
-71 0 -100z m1304 9 c-6 -8 -7 -18 -3 -22 4 -5 1 -5 -6 -1 -10 6 -10 11 -1 22
6 8 14 14 16 14 3 0 0 -6 -6 -13z m-164 -33 c0 -6 -9 -9 -19 -6 -28 7 -32 22
-5 20 13 -1 24 -7 24 -14z m433 0 c0 -8 -19 -13 -24 -6 -3 5 1 9 9 9 8 0 15
-2 15 -3z m174 -25 c-3 -5 -10 -7 -15 -3 -5 3 -7 10 -3 15 3 5 10 7 15 3 5 -3
7 -10 3 -15z m-2179 -249 c10 -11 16 -20 13 -20 -3 0 -13 9 -23 20 -10 11 -16
20 -13 20 3 0 13 -9 23 -20z m1005 17 c0 -2 -10 -12 -22 -23 l-23 -19 19 23
c18 21 26 27 26 19z"/>
<path d="M3812 2794 c-57 -25 -72 -64 -72 -184 0 -169 28 -194 210 -188 87 3
95 5 98 24 4 30 -36 44 -132 44 -59 0 -87 4 -95 14 -8 9 -11 51 -9 122 l3 109
135 5 135 5 3 33 3 32 -123 -1 c-83 0 -134 -5 -156 -15z"/>
<path d="M2644 2751 c-3 -3 -11 -6 -16 -6 -6 0 -13 -7 -15 -15 -4 -13 -3 -13
6 0 6 8 11 11 11 6 0 -5 6 -3 13 3 8 6 16 8 19 5 3 -3 8 -1 12 4 6 9 -20 12
-30 3z"/>
<path d="M2461 2707 c-8 -10 -7 -14 2 -14 8 0 14 6 14 14 0 7 -1 13 -2 13 -2
0 -8 -6 -14 -13z"/>
<path d="M3918 2643 c-12 -3 -18 -14 -18 -34 l0 -29 79 0 80 0 3 -37 c3 -35 6
-38 33 -38 l30 0 3 73 3 72 -98 -1 c-54 -1 -106 -3 -115 -6z"/>
<path d="M3853 2537 c2 -8 31 -13 81 -15 60 -2 77 0 74 10 -3 9 -29 14 -82 15
-57 2 -76 -1 -73 -10z"/>
<path d="M2483 2515 c0 -8 4 -12 9 -9 5 3 6 10 3 15 -9 13 -12 11 -12 -6z"/>
</g>
</svg>
