<?xml version="1.0" standalone="no"?>
<!DOCTYPE svg PUBLIC "-//W3C//DTD SVG 20010904//EN"
 "http://www.w3.org/TR/2001/REC-SVG-20010904/DTD/svg10.dtd">
<svg version="1.0" xmlns="http://www.w3.org/2000/svg"
 width="500.000000pt" height="500.000000pt" viewBox="0 0 500.000000 500.000000"
 preserveAspectRatio="xMidYMid meet">
<metadata>
Created by potrace 1.16, written by Peter Selinger 2001-2019
</metadata>
<g transform="translate(0.000000,500.000000) scale(0.100000,-0.100000)"
fill="#000000" stroke="none">
<path d="M0 2500 l0 -2500 2500 0 2500 0 0 2500 0 2500 -2500 0 -2500 0 0
-2500z m1618 663 c-125 -2 -332 -2 -460 0 -128 1 -26 2 227 2 253 0 358 -1
233 -2z m-708 -6 c0 -2 -10 -12 -22 -23 l-23 -19 19 23 c18 21 26 27 26 19z
m981 -24 c13 -16 12 -17 -3 -4 -10 7 -18 15 -18 17 0 8 8 3 21 -13z m16 -45
c-3 -8 -6 -5 -6 6 -1 11 2 17 5 13 3 -3 4 -12 1 -19z m-269 -435 l-3 -258 -2
253 -3 252 -245 0 -244 0 -4 -42 -4 -43 -1 48 -2 47 255 0 255 0 -2 -257z
m726 212 c20 -9 34 -20 31 -25 -3 -6 1 -10 10 -10 9 0 13 -4 10 -10 -3 -5 0
-10 8 -10 20 0 31 -31 15 -42 -9 -6 -7 -8 7 -6 12 2 19 -2 18 -9 -2 -7 6 -13
17 -13 13 0 20 6 18 14 -2 8 2 15 7 15 6 0 9 -7 7 -15 -3 -17 10 -18 25 -3 9
9 11 8 9 -4 -1 -9 -6 -20 -11 -24 -4 -5 -4 -1 0 7 7 12 6 13 -7 3 -8 -7 -19
-9 -23 -5 -5 4 -5 1 -1 -5 4 -7 2 -13 -3 -13 -6 0 -11 -5 -11 -12 0 -7 6 -5
18 4 9 9 25 14 35 13 9 -2 15 0 12 5 -7 11 20 31 30 22 5 -4 5 -1 1 6 -4 7
-12 10 -17 7 -5 -4 -9 1 -9 10 0 10 -5 13 -12 9 -6 -4 -8 -3 -4 4 4 7 15 6 34
-4 30 -16 56 -19 48 -5 -4 5 10 5 32 0 48 -11 54 -11 47 0 -8 13 46 18 67 6
13 -7 21 -6 30 4 11 11 10 12 -1 6 -10 -6 -12 -4 -7 4 5 8 24 11 57 7 34 -4
48 -2 43 5 -3 6 -15 9 -25 6 -11 -3 -17 -1 -13 4 3 5 20 9 38 9 18 0 36 3 40
7 12 12 147 3 174 -12 17 -9 21 -15 12 -16 -8 -1 3 -5 25 -9 24 -5 42 -4 46 2
3 5 9 3 12 -6 4 -9 1 -16 -6 -16 -7 0 -4 -5 6 -11 14 -9 22 -7 32 8 8 10 15
14 15 8 0 -5 4 -4 8 3 5 7 19 15 32 17 13 3 28 11 32 20 5 8 16 15 23 15 8 0
15 4 15 9 0 28 192 50 269 31 28 -7 51 -16 51 -21 0 -5 5 -9 11 -9 18 0 41
-30 35 -45 -7 -20 -4 -19 61 15 54 29 59 30 198 30 78 0 144 -2 146 -4 2 -2 2
-26 1 -54 -4 -49 -4 -49 -50 -63 -28 -9 -85 -14 -139 -14 l-92 1 1 -33 1 -33
32 20 c28 17 50 20 153 20 l121 0 14 -28 c7 -16 10 -37 7 -48 -4 -10 -2 -22 4
-26 7 -5 6 -8 -4 -8 -13 0 -13 -1 0 -10 9 -6 10 -10 3 -10 -7 0 -10 -10 -7
-24 3 -21 -2 -27 -41 -42 -38 -14 -45 -21 -45 -43 0 -22 -7 -29 -42 -41 -54
-19 -281 -21 -300 -2 -7 7 -19 12 -28 12 -13 0 -13 -2 -1 -9 11 -7 4 -11 -25
-16 -21 -3 -47 -8 -56 -10 -10 -1 -16 2 -15 8 1 6 -8 11 -19 12 -25 0 -64 32
-64 52 0 7 -6 12 -12 10 -7 -1 -12 3 -11 10 5 23 -51 2 -83 -33 -18 -18 -37
-34 -43 -34 -6 0 -11 -4 -11 -9 0 -12 -59 -20 -66 -9 -3 5 -9 6 -14 3 -5 -3
-19 -1 -31 6 -15 8 -19 8 -15 0 4 -6 2 -11 -3 -11 -11 0 -15 15 -12 34 1 5 -4
4 -12 -3 -12 -9 -14 -7 -12 17 2 26 0 28 -24 24 -14 -2 -32 -11 -38 -20 -12
-14 -13 -14 -13 1 0 9 -4 17 -9 17 -5 0 -7 -9 -4 -20 4 -16 0 -20 -21 -20 -14
0 -26 4 -26 9 0 5 -8 12 -17 16 -15 5 -16 4 -5 -6 16 -17 15 -26 -3 -26 -8 0
-15 4 -15 8 0 9 -30 9 -73 2 -15 -2 -25 -8 -22 -13 3 -5 0 -12 -6 -16 -8 -5
-9 -3 -4 6 6 10 3 12 -14 7 -14 -3 -26 1 -35 15 -9 13 -19 17 -28 12 -10 -6
-10 -4 1 9 16 20 2 23 -18 5 -11 -10 -13 -10 -7 0 4 6 3 12 -1 12 -5 0 -15 -6
-22 -12 -11 -11 -12 -10 -6 0 5 11 -1 13 -26 11 -19 -2 -38 -5 -44 -8 -20 -10
-32 -9 -32 5 0 10 4 11 13 3 8 -6 14 -6 18 0 4 5 2 12 -4 16 -6 4 -7 11 -4 17
4 6 -2 6 -15 -1 -16 -9 -20 -9 -15 2 3 8 -2 14 -10 14 -8 0 -13 -4 -10 -9 3
-4 1 -8 -5 -8 -5 0 -13 5 -16 10 -3 6 -11 10 -16 10 -6 0 -3 -7 5 -16 20 -19
20 -23 0 -20 -8 1 -19 9 -24 16 -5 8 -12 11 -16 7 -4 -4 -13 -2 -21 4 -10 9
-13 8 -13 -4 0 -9 -4 -18 -9 -21 -4 -3 -8 4 -7 16 1 13 -6 22 -17 24 -9 1 -15
-2 -11 -7 3 -5 11 -6 17 -3 7 4 9 3 4 -1 -4 -5 -24 -10 -44 -12 -38 -3 -66
-20 -57 -34 3 -5 -4 -9 -15 -9 -13 0 -18 -5 -15 -13 3 -9 -8 -20 -28 -29 -18
-8 -27 -13 -19 -11 11 3 11 0 2 -11 -7 -8 -21 -12 -33 -8 -16 4 -19 2 -13 -9
7 -12 6 -12 -7 -1 -14 11 -21 11 -40 1 -13 -7 -23 -11 -23 -10 0 2 -19 6 -42
11 -24 4 -43 4 -43 0 0 -4 -7 -7 -15 -7 -8 0 -12 4 -9 8 2 5 -9 6 -26 4 -16
-2 -30 0 -30 3 0 4 -18 8 -40 9 -27 1 -38 -2 -34 -9 4 -7 2 -8 -5 -4 -6 4 -9
12 -6 17 4 5 -1 10 -9 10 -30 3 -34 4 -43 13 -5 5 -2 6 6 1 9 -5 12 -4 7 3 -3
6 -15 9 -26 7 -16 -3 -20 2 -22 23 0 17 -4 11 -8 -18 -4 -25 -7 43 -7 155 0
112 3 180 7 155 5 -31 7 -36 8 -17 1 16 6 26 11 23 5 -4 7 2 4 13 -3 10 1 22
8 26 8 6 10 4 4 -5 -5 -9 -4 -11 3 -6 7 4 12 12 12 17 0 16 27 39 45 39 9 0
14 4 11 9 -5 8 72 36 124 44 65 11 190 6 224 -8z m664 -20 c-3 -3 -9 2 -12 12
-6 14 -5 15 5 6 7 -7 10 -15 7 -18z m-1755 -178 l132 -3 -137 -2 -138 -2 2 48
1 47 4 -42 4 -42 132 -4z m214 -179 c-1 -51 -3 -12 -3 87 0 99 2 141 3 93 2
-48 2 -129 0 -180z m-160 -40 c-2 -29 -3 -8 -3 47 0 55 1 79 3 53 2 -26 2 -71
0 -100z m1284 5 c12 -16 12 -17 -2 -6 -9 7 -20 9 -24 5 -5 -4 -5 -1 -1 6 9 16
11 15 27 -5z m74 8 c3 -5 2 -12 -3 -15 -5 -3 -9 1 -9 9 0 17 3 19 12 6z m482
-43 c-3 -8 -6 -5 -6 6 -1 11 2 17 5 13 3 -3 4 -12 1 -19z m43 16 c0 -8 -19
-13 -24 -6 -3 5 1 9 9 9 8 0 15 -2 15 -3z m-180 -36 c0 -5 -11 -8 -25 -8 -14
0 -25 3 -25 8 0 4 11 7 25 7 14 0 25 -3 25 -7z m-2135 -248 c10 -11 16 -20 13
-20 -3 0 -13 9 -23 20 -10 11 -16 20 -13 20 3 0 13 -9 23 -20z m1005 17 c0 -2
-10 -12 -22 -23 l-23 -19 19 23 c18 21 26 27 26 19z"/>
<path d="M3847 2802 c-15 -2 -25 -8 -22 -13 4 -5 0 -9 -8 -9 -7 0 -24 -12 -38
-26 -22 -23 -24 -36 -27 -130 -4 -112 6 -157 39 -175 25 -13 259 -10 259 3 0
6 -9 8 -20 5 -11 -3 -23 1 -28 8 -4 9 -35 15 -85 18 -108 6 -112 11 -111 137
0 55 -4 100 -8 100 -4 0 -8 5 -8 12 0 6 3 9 6 5 4 -3 12 0 20 7 10 10 44 14
129 12 63 0 115 1 115 4 0 4 -6 12 -12 20 -7 8 -4 7 8 -3 28 -23 36 -21 32 6
-3 21 -7 22 -108 22 -58 0 -117 -1 -133 -3z m103 -22 c0 -5 -5 -10 -11 -10 -5
0 -7 5 -4 10 3 6 8 10 11 10 2 0 4 -4 4 -10z m40 0 c0 -5 -5 -10 -11 -10 -5 0
-7 5 -4 10 3 6 8 10 11 10 2 0 4 -4 4 -10z m40 0 c0 -5 -5 -10 -11 -10 -5 0
-7 5 -4 10 3 6 8 10 11 10 2 0 4 -4 4 -10z m-219 -297 c13 -16 12 -17 -3 -4
-17 13 -22 21 -14 21 2 0 10 -8 17 -17z m139 -23 c0 -5 -5 -10 -11 -10 -5 0
-7 5 -4 10 3 6 8 10 11 10 2 0 4 -4 4 -10z m40 6 c0 -11 -19 -15 -25 -6 -3 5
1 10 9 10 9 0 16 -2 16 -4z"/>
<path d="M2724 2763 c10 -10 46 -14 46 -5 0 4 -12 9 -27 10 -14 1 -23 -1 -19
-5z"/>
<path d="M2650 2745 c0 -8 0 -18 0 -22 0 -4 6 -8 15 -9 8 -1 13 1 10 6 -3 5
-1 10 5 12 6 2 1 9 -10 16 -17 10 -20 10 -20 -3z"/>
<path d="M2623 2743 c4 -3 2 -12 -4 -20 -9 -9 -8 -13 0 -13 6 0 11 2 11 4 0 2
3 11 6 20 4 10 1 16 -7 16 -7 0 -9 -3 -6 -7z"/>
<path d="M2449 2692 c-14 -17 -14 -21 -1 -38 14 -18 15 -18 8 0 -4 12 0 26 10
37 10 11 13 19 8 19 -5 0 -17 -8 -25 -18z"/>
<path d="M3933 2642 c-14 -2 -23 -10 -23 -22 0 -14 9 -19 45 -22 25 -2 45 0
45 3 0 4 10 5 23 2 12 -3 19 -2 15 2 -5 5 -24 8 -44 7 -20 -1 -34 1 -31 5 10
9 137 15 138 6 0 -4 2 -26 4 -48 2 -22 1 -35 -2 -28 -2 7 -11 9 -19 6 -11 -4
-8 -9 12 -19 14 -8 28 -14 31 -14 2 0 3 28 1 62 l-3 61 -85 1 c-47 1 -95 0
-107 -2z m17 -22 c0 -5 -5 -10 -11 -10 -5 0 -7 5 -4 10 3 6 8 10 11 10 2 0 4
-4 4 -10z"/>
<path d="M4050 2610 c0 -5 5 -10 11 -10 5 0 7 5 4 10 -3 6 -8 10 -11 10 -2 0
-4 -4 -4 -10z"/>
<path d="M3867 2533 c23 -17 136 -18 131 -1 -3 8 -29 12 -76 13 -60 0 -70 -2
-55 -12z"/>
<path d="M2743 2475 c0 -8 4 -15 9 -15 4 0 8 4 8 9 0 6 -4 12 -8 15 -5 3 -9
-1 -9 -9z"/>
<path d="M2422 2465 c-7 -8 -9 -15 -4 -15 5 0 15 7 22 15 16 19 -1 19 -18 0z"/>
<path d="M2897 2443 c-12 -12 -7 -33 7 -33 8 0 13 7 12 15 -3 19 -11 27 -19
18z"/>
<path d="M3098 2423 c7 -3 16 -2 19 1 4 3 -2 6 -13 5 -11 0 -14 -3 -6 -6z"/>
</g>
</svg>
