<?xml version="1.0" standalone="no"?>
<!DOCTYPE svg PUBLIC "-//W3C//DTD SVG 20010904//EN"
 "http://www.w3.org/TR/2001/REC-SVG-20010904/DTD/svg10.dtd">
<svg version="1.0" xmlns="http://www.w3.org/2000/svg"
 width="500.000000pt" height="500.000000pt" viewBox="0 0 500.000000 500.000000"
 preserveAspectRatio="xMidYMid meet">
<metadata>
Created by potrace 1.16, written by Peter Selinger 2001-2019
</metadata>
<g transform="translate(0.000000,500.000000) scale(0.100000,-0.100000)"
fill="#000000" stroke="none">
<path d="M0 2500 l0 -2500 2500 0 2500 0 0 2500 0 2500 -2500 0 -2500 0 0
-2500z m1618 663 c-125 -2 -332 -2 -460 0 -128 1 -26 2 227 2 253 0 358 -1
233 -2z m-708 -6 c0 -2 -10 -12 -22 -23 l-23 -19 19 23 c18 21 26 27 26 19z
m1000 -251 l1 -201 20 43 c11 23 26 42 34 42 8 0 15 6 15 14 0 8 4 18 10 21 6
4 7 -1 4 -12 -5 -16 -4 -16 10 1 9 11 16 23 16 26 0 11 80 28 86 18 3 -5 11
-5 17 0 7 4 30 8 52 7 22 -1 48 3 58 7 9 5 17 5 17 0 0 -13 30 -11 30 2 1 6
10 0 20 -13 12 -14 20 -18 20 -10 0 11 2 11 10 -1 8 -12 10 -12 10 -1 0 11 3
11 15 1 8 -7 15 -18 15 -26 0 -7 10 -19 22 -25 14 -8 18 -14 10 -17 -19 -6
-14 -22 6 -16 9 3 6 -2 -8 -10 -14 -8 -20 -15 -15 -16 6 0 16 -9 23 -21 8 -12
9 -18 3 -15 -6 4 -19 2 -28 -3 -16 -9 -16 -10 -2 -11 9 0 22 -7 29 -15 10 -12
8 -16 -11 -24 -21 -8 -22 -10 -6 -16 9 -4 17 -11 17 -15 0 -5 -8 -10 -17 -13
-15 -3 -14 -6 6 -14 22 -9 23 -10 6 -27 -15 -15 -16 -19 -4 -27 10 -6 8 -9
-11 -10 l-25 -1 24 -7 c19 -5 21 -8 10 -17 -8 -6 -21 -14 -29 -17 -11 -4 -9
-6 5 -6 17 -1 18 -3 5 -12 -11 -8 -12 -12 -2 -16 18 -7 4 -23 -21 -23 -18 0
-19 -2 -7 -10 12 -8 12 -10 -5 -10 -17 0 -17 -2 -5 -10 12 -8 10 -10 -10 -11
-14 -1 -29 -2 -35 -4 -5 -1 -16 -3 -23 -3 -7 -1 -10 -7 -6 -13 4 -7 -1 -9 -12
-7 -11 2 -18 9 -17 15 1 6 -6 9 -17 6 -11 -3 -17 -10 -14 -15 4 -7 -9 -7 -37
-3 -24 5 -68 8 -96 7 -33 -1 -53 3 -53 10 0 6 -3 8 -7 5 -3 -4 -14 0 -23 8
-10 9 -24 15 -31 13 -9 -2 -14 5 -13 19 0 12 -4 21 -10 20 -5 -1 -13 12 -16
28 -4 17 -7 -15 -8 -74 -1 -58 -4 -107 -7 -109 -3 -3 -5 179 -5 404 0 356 -2
413 -16 434 l-16 25 21 -24 c20 -22 21 -35 21 -225z m-270 -253 c0 -141 -2
-254 -5 -251 -3 3 -6 116 -5 252 l0 246 -244 0 -245 0 -4 -42 -4 -43 -1 48 -2
47 255 0 255 0 0 -257z m1780 217 c0 13 1 13 10 0 5 -8 10 -10 10 -3 0 13 18
12 39 -1 10 -7 12 -5 6 3 -5 10 -3 11 11 4 11 -5 44 -8 74 -7 47 2 59 -2 83
-24 15 -14 27 -22 27 -18 0 5 7 3 15 -4 12 -10 18 -10 32 1 11 10 14 10 9 1
-4 -6 8 -3 26 7 18 11 49 22 68 26 50 10 222 15 240 8 8 -3 21 -7 29 -7 20 -1
40 -66 30 -94 -5 -13 -9 -33 -8 -45 0 -21 1 -21 9 -2 8 19 9 19 9 -2 1 -13 5
-23 10 -23 11 0 27 -39 30 -76 0 -9 6 -12 13 -8 7 5 8 3 2 -7 -4 -8 -9 -19
-10 -25 -1 -6 -5 -22 -9 -34 -5 -17 -4 -21 6 -16 8 4 4 -1 -8 -10 -13 -9 -23
-23 -23 -30 0 -8 -16 -20 -35 -28 -19 -8 -35 -22 -35 -30 0 -18 -30 -36 -74
-44 -56 -11 -238 -6 -283 7 -2 1 -6 1 -10 2 -5 0 -17 8 -27 17 -11 9 -16 11
-12 5 4 -7 3 -13 -3 -13 -5 0 -12 6 -14 13 -4 7 -6 6 -6 -5 -1 -18 -25 -18
-43 0 -16 16 -41 16 -32 0 4 -7 -6 -1 -23 15 -30 28 -60 37 -47 15 4 -7 -5 -2
-21 12 -16 14 -25 20 -21 13 3 -6 2 -14 -4 -18 -5 -3 -10 0 -10 7 0 8 -5 6
-11 -5 -6 -9 -15 -14 -21 -11 -7 4 -8 2 -4 -4 8 -13 -23 -31 -43 -24 -8 2 -11
0 -8 -5 4 -6 -13 -11 -43 -12 -27 0 -55 -2 -62 -3 -7 -2 -12 2 -11 9 1 6 -4
17 -13 23 -12 11 -13 10 -8 -6 5 -12 -1 -10 -15 8 -12 15 -27 27 -33 25 -6 -1
-12 6 -13 17 -3 16 0 15 23 -5 14 -13 21 -17 14 -8 -6 9 -8 20 -4 24 4 5 2 5
-5 1 -6 -3 -14 -2 -17 3 -3 4 -19 11 -36 15 -17 3 -29 9 -26 14 2 4 -4 9 -15
9 -18 2 -19 0 -7 -14 7 -9 12 -18 11 -20 -8 -10 -1 -23 10 -17 6 4 8 3 4 -1
-10 -12 -38 -15 -31 -4 8 14 -9 11 -34 -7 -12 -8 -22 -12 -22 -8 0 3 -6 1 -14
-5 -16 -14 -25 -4 -21 22 3 13 -2 17 -18 14 -12 -1 -28 -6 -35 -11 -22 -14
-28 5 -7 20 19 14 18 15 -12 12 -17 -1 -31 -5 -31 -8 3 -29 -24 -47 -40 -27
-7 8 -5 17 5 26 13 12 14 11 8 -10 -6 -19 -5 -22 5 -12 16 15 5 47 -12 36 -20
-12 -38 -12 -38 -1 0 6 7 8 15 4 9 -3 15 0 15 10 0 8 4 13 9 9 5 -3 12 -2 15
3 2 4 -6 8 -19 8 -13 0 -21 -4 -19 -8 3 -4 1 -8 -5 -8 -5 0 -11 3 -14 8 -2 4
-3 2 -1 -4 3 -14 -16 -34 -30 -34 -6 0 -4 5 4 10 13 9 13 10 0 11 -8 1 -19 1
-24 0 -5 -1 -4 5 4 13 14 18 25 22 15 6 -3 -5 -2 -10 4 -10 5 0 9 9 8 20 -2
24 -10 25 -27 5 -7 -8 -17 -15 -22 -15 -6 0 -8 7 -4 15 3 9 0 15 -10 15 -9 0
-12 -5 -8 -12 4 -7 3 -8 -4 -4 -7 4 -12 1 -13 -6 0 -10 -2 -10 -6 0 -2 6 -9
10 -14 6 -5 -3 -9 2 -9 11 0 9 -4 13 -10 10 -5 -3 -10 -2 -10 4 0 5 5 13 10
16 6 3 10 11 10 16 0 6 -5 7 -12 3 -7 -5 -9 -2 -5 8 3 9 0 21 -6 27 -6 6 -8
12 -4 12 4 1 12 3 17 4 6 1 13 3 16 4 3 0 2 7 -3 14 -11 18 -13 38 -2 31 5 -3
7 -10 4 -15 -4 -5 1 -9 10 -9 9 0 14 4 11 8 -3 5 2 9 10 9 8 0 13 -6 10 -13
-3 -8 -1 -16 4 -19 11 -7 2 -64 -13 -83 -7 -9 -13 -9 -23 -1 -10 8 -14 8 -14
1 0 -17 20 -25 34 -13 7 6 16 8 19 4 4 -3 7 10 7 30 0 24 4 36 12 35 7 -2 13
4 13 12 0 8 -5 14 -11 13 -5 -1 -10 10 -10 25 1 17 -4 26 -12 24 -8 -1 -11 2
-7 8 3 6 12 7 18 3 12 -8 17 -9 38 -12 5 0 7 -5 4 -11 -8 -13 18 -13 32 1 6 6
18 12 28 13 10 1 19 10 21 19 1 10 -3 14 -12 10 -20 -7 -18 12 3 28 11 10 14
10 9 2 -4 -7 -2 -13 3 -13 6 0 11 -7 11 -15 0 -8 5 -15 10 -15 6 0 10 5 10 11
0 5 4 8 9 5 5 -3 11 1 14 8 4 9 -1 16 -10 18 -14 3 -13 5 3 18 10 8 16 11 12
6 -12 -14 15 -35 30 -24 8 7 12 7 12 0 0 -6 8 -11 18 -11 49 0 107 -10 110
-20 2 -6 -7 -15 -20 -20 -12 -6 -17 -10 -10 -10 7 -1 10 -5 7 -11 -3 -6 1 -7
10 -4 9 4 13 9 11 12 -9 8 27 30 40 25 7 -3 10 -11 7 -19 -3 -9 -12 -13 -20
-10 -8 3 -11 1 -8 -4 3 -6 0 -10 -7 -10 -9 0 -9 -3 2 -10 22 -14 28 -12 35 10
4 11 9 19 13 17 4 -2 18 8 32 21 14 14 20 22 13 18 -6 -3 -15 -1 -19 6 -4 7
-4 10 1 6 4 -4 14 -3 22 3 9 8 13 8 13 0 0 -6 9 -3 20 6 15 13 17 19 7 26 -8
6 -4 7 10 4 13 -3 21 0 20 6 -1 6 3 11 8 12 6 0 17 5 25 10 8 5 20 10 25 10
23 2 44 18 38 28 -3 5 -1 7 5 3 6 -3 14 -1 18 5 4 8 9 7 15 -2 7 -11 9 -11 9
1z m255 -21 c11 -17 -1 -21 -15 -4 -8 9 -8 15 -2 15 6 0 14 -5 17 -11z m-729
-31 c3 -4 -1 -5 -10 -4 -8 1 -18 5 -22 8 -3 4 1 5 10 4 8 -1 18 -5 22 -8z
m-1673 -151 l132 -3 -137 -2 -138 -2 2 48 1 47 4 -42 4 -42 132 -4z m214 -179
c-1 -51 -3 -12 -3 87 0 99 2 141 3 93 2 -48 2 -129 0 -180z m1339 253 c-4 -5
-2 -11 4 -13 6 -2 1 -9 -10 -16 -17 -11 -20 -10 -20 7 0 16 8 25 28 30 2 1 1
-3 -2 -8z m349 0 c3 -5 1 -12 -4 -15 -5 -3 -11 1 -15 9 -6 16 9 21 19 6z
m-555 -17 c0 -8 -19 -13 -24 -6 -3 5 1 9 9 9 8 0 15 -2 15 -3z m20 -73 c0 -6
-4 -12 -8 -15 -5 -3 -9 1 -9 9 0 8 4 15 9 15 4 0 8 -4 8 -9z m-30 -9 c0 -5 -7
-9 -15 -9 -8 0 -12 4 -9 9 3 4 9 8 15 8 5 0 9 -4 9 -8z m-150 -16 c0 -3 -4 -8
-10 -11 -5 -3 -10 -1 -10 4 0 6 5 11 10 11 6 0 10 -2 10 -4z m160 -21 c-7 -9
-15 -13 -19 -10 -3 3 1 10 9 15 21 14 24 12 10 -5z m40 -16 c0 -5 -4 -9 -10
-9 -5 0 -10 7 -10 16 0 8 5 12 10 9 6 -3 10 -10 10 -16z m-1523 -141 c-2 -29
-3 -8 -3 47 0 55 1 79 3 53 2 -26 2 -71 0 -100z m190 0 c-2 -29 -3 -8 -3 47 0
55 1 79 3 53 2 -26 2 -71 0 -100z m1163 126 c0 -8 -19 -13 -24 -6 -3 5 1 9 9
9 8 0 15 -2 15 -3z m174 -32 c3 -5 -1 -9 -9 -9 -8 0 -15 4 -15 9 0 4 4 8 9 8
6 0 12 -4 15 -8z m66 -26 c0 -2 -8 -10 -17 -17 -16 -13 -17 -12 -4 4 13 16 21
21 21 13z m183 -46 c-3 -12 -8 -19 -11 -16 -5 6 5 36 12 36 2 0 2 -9 -1 -20z
m62 -22 c-3 -8 -12 -15 -20 -15 -13 0 -12 4 2 19 18 20 26 19 18 -4z m-1068
-260 c-3 -8 -6 -5 -6 6 -1 11 2 17 5 13 3 -3 4 -12 1 -19z m-1012 -38 c10 -11
16 -20 13 -20 -3 0 -13 9 -23 20 -10 11 -16 20 -13 20 3 0 13 -9 23 -20z
m1005 17 c0 -2 -10 -12 -22 -23 l-23 -19 19 23 c18 21 26 27 26 19z m-953 -43
c-3 -3 -12 -4 -19 -1 -8 3 -5 6 6 6 11 1 17 -2 13 -5z m900 0 c-3 -3 -12 -4
-19 -1 -8 3 -5 6 6 6 11 1 17 -2 13 -5z"/>
<path d="M1911 2684 c0 -11 3 -14 6 -6 3 7 2 16 -1 19 -3 4 -6 -2 -5 -13z"/>
<path d="M2388 2663 c7 -3 16 -2 19 1 4 3 -2 6 -13 5 -11 0 -14 -3 -6 -6z"/>
<path d="M2964 2739 c1 -7 12 -16 25 -20 14 -6 20 -5 16 1 -3 6 -12 10 -20 10
-7 0 -16 5 -18 10 -3 6 -4 5 -3 -1z"/>
<path d="M3010 2746 c0 -2 7 -6 15 -10 8 -3 15 -1 15 4 0 6 -7 10 -15 10 -8 0
-15 -2 -15 -4z"/>
<path d="M3058 2733 c7 -3 16 -2 19 1 4 3 -2 6 -13 5 -11 0 -14 -3 -6 -6z"/>
<path d="M3028 2703 c7 -3 16 -2 19 1 4 3 -2 6 -13 5 -11 0 -14 -3 -6 -6z"/>
<path d="M3058 2678 c5 -5 16 -8 23 -6 8 3 3 7 -10 11 -17 4 -21 3 -13 -5z"/>
<path d="M2690 2655 c-16 -19 -5 -62 15 -62 10 0 15 10 14 31 -1 24 -3 26 -6
8 -2 -12 -8 -20 -13 -17 -5 3 -5 16 0 30 11 29 8 31 -10 10z"/>
<path d="M2752 2589 c-2 -28 11 -39 23 -19 4 6 10 8 15 5 5 -3 11 -1 14 4 7
11 -13 9 -32 -3 -10 -6 -13 -3 -10 10 2 11 11 18 19 16 8 -2 10 0 6 4 -18 18
-33 10 -35 -17z"/>
<path d="M3055 2530 c3 -5 8 -10 11 -10 2 0 4 5 4 10 0 6 -5 10 -11 10 -5 0
-7 -4 -4 -10z"/>
<path d="M3017 2513 c-10 -10 -8 -33 3 -33 5 0 7 6 4 14 -3 8 2 16 13 19 14 4
14 5 2 6 -9 0 -19 -2 -22 -6z"/>
<path d="M3137 2509 c7 -7 15 -10 18 -7 3 3 -2 9 -12 12 -14 6 -15 5 -6 -5z"/>
<path d="M3044 2485 c-4 -8 -12 -15 -19 -15 -7 0 -16 -7 -19 -16 -5 -13 -4
-14 7 -6 8 7 16 10 18 8 2 -3 15 4 29 15 18 14 20 17 6 12 -13 -4 -17 -3 -12
5 4 7 5 12 1 12 -3 0 -8 -7 -11 -15z"/>
</g>
</svg>
