<?xml version="1.0" standalone="no"?>
<!DOCTYPE svg PUBLIC "-//W3C//DTD SVG 20010904//EN"
 "http://www.w3.org/TR/2001/REC-SVG-20010904/DTD/svg10.dtd">
<svg version="1.0" xmlns="http://www.w3.org/2000/svg"
 width="500.000000pt" height="500.000000pt" viewBox="0 0 500.000000 500.000000"
 preserveAspectRatio="xMidYMid meet">
<metadata>
Created by potrace 1.16, written by Peter Selinger 2001-2019
</metadata>
<g transform="translate(0.000000,500.000000) scale(0.100000,-0.100000)"
fill="#000000" stroke="none">
<path d="M0 2500 l0 -2500 2500 0 2500 0 0 2500 0 2500 -2500 0 -2500 0 0
-2500z m1618 663 c-125 -2 -332 -2 -460 0 -128 1 -26 2 227 2 253 0 358 -1
233 -2z m-708 -6 c0 -2 -10 -12 -22 -23 l-23 -19 19 23 c18 21 26 27 26 19z
m981 -24 c13 -16 12 -17 -3 -4 -10 7 -18 15 -18 17 0 8 8 3 21 -13z m16 -45
c-3 -8 -6 -5 -6 6 -1 11 2 17 5 13 3 -3 4 -12 1 -19z m-269 -435 l-3 -258 -2
253 -3 252 -245 0 -244 0 -4 -42 -4 -43 -1 48 -2 47 255 0 255 0 -2 -257z
m634 213 c6 -8 8 -7 8 2 0 6 12 12 26 12 16 0 23 -4 18 -12 -4 -7 -3 -8 5 -4
15 10 43 -13 34 -27 -3 -6 -1 -7 6 -3 16 10 41 -12 34 -30 -4 -10 0 -12 11 -8
11 4 16 1 16 -11 0 -10 -5 -15 -13 -12 -8 3 -14 -1 -14 -9 0 -7 4 -11 8 -9 10
7 39 -5 39 -15 0 -5 -7 -16 -16 -24 -13 -13 -13 -16 -1 -16 8 0 14 -9 13 -22
0 -11 5 -22 12 -24 7 -1 8 0 3 2 -5 3 -7 14 -4 25 6 23 40 21 35 -1 -2 -10 3
-9 17 4 12 11 21 15 21 10 0 -5 5 -1 11 9 5 9 19 17 30 17 11 0 18 -4 14 -9
-3 -5 -1 -12 4 -15 5 -3 12 6 15 20 6 24 10 26 47 21 31 -4 45 -1 58 12 16 16
19 17 29 2 10 -14 11 -14 5 3 -5 16 -3 17 16 7 16 -9 21 -9 19 0 -2 7 5 15 16
17 11 2 16 0 12 -7 -5 -7 -1 -9 8 -5 9 3 16 10 16 16 0 5 -3 7 -7 5 -5 -3 -17
-1 -28 3 -12 5 1 7 37 6 31 0 60 -4 64 -9 4 -4 12 -7 18 -7 6 0 4 5 -4 11 -11
8 -7 9 18 5 37 -6 42 1 10 14 -22 8 -22 9 4 9 15 1 30 -3 33 -9 3 -5 12 -10
18 -10 7 0 6 4 -3 10 -13 8 -12 10 3 10 9 0 17 -6 17 -12 0 -10 3 -9 9 1 5 7
15 11 22 9 8 -3 20 2 27 11 8 9 11 10 7 4 -3 -7 0 -13 7 -13 11 0 10 -2 0 -9
-21 -13 15 -23 37 -11 14 7 24 3 46 -20 15 -16 33 -28 39 -27 17 3 34 21 28
31 -3 5 0 6 6 2 12 -7 62 13 62 26 0 5 4 7 9 4 5 -4 11 -3 13 2 6 16 78 52 78
39 0 -8 4 -7 9 2 13 20 232 23 239 3 2 -6 7 -10 12 -7 4 3 13 -2 20 -10 7 -8
18 -15 26 -15 7 0 15 -9 19 -20 6 -19 8 -19 58 7 47 23 65 26 190 30 93 3 143
1 152 -7 15 -12 18 -76 4 -101 -13 -26 -57 -32 -249 -38 -20 -1 -25 -6 -25
-26 0 -14 6 -25 13 -25 6 0 12 4 12 10 0 29 243 43 282 16 12 -9 19 -16 15
-16 -5 0 -5 -6 0 -12 4 -7 8 -38 8 -68 0 -62 -20 -93 -68 -104 -22 -5 -27 -11
-23 -31 3 -18 0 -25 -10 -25 -8 0 -13 -4 -10 -8 14 -24 -263 -44 -303 -22 -27
14 -72 20 -65 9 3 -6 -2 -9 -12 -8 -11 2 -25 0 -33 -5 -8 -5 -16 -3 -22 5 -7
11 -9 10 -9 -5 0 -18 -1 -18 -20 -1 -11 10 -20 14 -20 9 0 -4 -19 11 -43 34
-33 32 -48 41 -63 35 -17 -6 -18 -5 -4 13 16 21 -44 -30 -72 -61 -9 -11 -17
-16 -18 -12 0 4 -10 -1 -22 -12 -24 -23 -74 -23 -89 0 -7 11 -9 10 -9 -4 0
-10 -5 -15 -10 -12 -6 4 -8 10 -5 15 3 5 0 12 -6 16 -8 4 -9 3 -5 -4 18 -29
-16 -8 -45 28 -25 31 -35 37 -45 29 -8 -6 -12 -15 -9 -19 3 -5 -3 -7 -12 -5
-10 1 -17 8 -15 15 1 6 -2 9 -7 6 -5 -4 -8 -15 -6 -26 3 -14 -2 -20 -16 -20
-10 0 -19 7 -19 15 0 8 -4 15 -9 15 -6 0 -8 -9 -6 -20 2 -11 0 -20 -4 -20 -4
0 -18 9 -31 20 -27 23 -38 26 -21 6 16 -19 -10 -16 -35 4 -10 8 -15 10 -11 3
4 -6 3 -14 -3 -18 -5 -3 -10 1 -10 9 0 8 -4 17 -9 21 -6 3 -8 -3 -6 -14 2 -11
-3 -22 -11 -25 -8 -3 -15 -1 -15 4 -1 6 -2 14 -3 19 0 5 -5 13 -9 17 -10 11
-38 14 -32 4 3 -4 -2 -11 -11 -14 -11 -4 -15 -2 -11 7 3 8 -1 14 -9 14 -7 0
-11 -4 -8 -9 3 -4 -2 -8 -11 -8 -9 0 -13 5 -9 11 4 8 0 8 -15 0 -16 -9 -21 -9
-21 0 0 6 -7 9 -14 6 -10 -4 -13 -1 -9 9 4 11 9 12 18 4 10 -8 15 -7 21 2 4 7
3 10 -1 5 -5 -4 -18 1 -29 10 -12 10 -18 14 -14 9 9 -10 -9 -36 -24 -36 -6 0
-8 7 -5 15 4 8 1 17 -5 21 -6 4 -8 3 -5 -3 12 -19 -18 -34 -44 -23 -22 10 -22
10 -2 6 12 -2 24 2 26 8 4 9 -13 11 -57 10 -43 -1 -55 0 -38 7 25 9 27 15 10
25 -7 4 -8 3 -4 -4 10 -17 -19 -15 -33 1 -6 8 -8 17 -4 21 4 3 8 14 9 23 2 11
0 13 -8 5 -9 -9 -16 -8 -27 1 -14 10 -14 10 -3 -5 9 -11 10 -18 2 -23 -6 -3
-8 -11 -4 -16 3 -5 9 -7 14 -4 5 3 11 2 13 -2 3 -5 -10 -9 -29 -10 -24 -1 -32
2 -27 10 4 8 1 7 -9 -1 -9 -7 -15 -22 -13 -33 2 -11 -2 -19 -10 -19 -18 0 -28
17 -15 25 6 4 8 10 5 15 -3 5 3 13 12 19 10 6 13 11 6 11 -6 0 -10 9 -8 20 2
12 0 18 -6 15 -5 -4 -7 -11 -4 -16 4 -5 0 -9 -7 -10 -10 0 -10 -2 0 -6 6 -2 9
-9 6 -14 -3 -6 -12 -5 -22 3 -15 11 -15 10 0 -8 12 -14 15 -23 7 -31 -7 -7 -5
-16 8 -28 17 -18 17 -18 -5 -13 -12 3 -20 2 -16 -3 6 -10 -40 -59 -56 -59 -6
0 -18 -4 -28 -9 -41 -20 -81 -27 -137 -24 -33 3 -81 5 -107 5 -27 0 -48 5 -48
9 0 5 -5 9 -11 9 -5 0 -7 -5 -3 -12 4 -7 -7 -2 -24 11 -18 12 -32 19 -32 15 0
-3 -7 -1 -15 6 -8 6 -13 17 -12 23 1 6 -5 11 -13 12 -9 0 -18 -12 -21 -30 -4
-16 -6 60 -6 170 0 113 3 180 7 155 6 -37 7 -40 8 -13 1 17 6 33 10 35 4 2 17
17 29 33 12 17 43 41 70 53 26 13 54 26 62 30 23 12 175 11 183 -2z m415 -112
c-3 -3 -12 -4 -19 -1 -8 3 -5 6 6 6 11 1 17 -2 13 -5z m-1414 -87 l132 -3
-137 -2 -138 -2 2 48 1 47 4 -42 4 -42 132 -4z m214 -179 c-1 -51 -3 -12 -3
87 0 99 2 141 3 93 2 -48 2 -129 0 -180z m1110 246 c-3 -3 -12 -4 -19 -1 -8 3
-5 6 6 6 11 1 17 -2 13 -5z m-70 -20 c-3 -3 -12 -4 -19 -1 -8 3 -5 6 6 6 11 1
17 -2 13 -5z m-1200 -266 c-2 -29 -3 -8 -3 47 0 55 1 79 3 53 2 -26 2 -71 0
-100z m1223 108 c0 -2 -8 -10 -17 -17 -16 -13 -17 -12 -4 4 13 16 21 21 21 13z
m-26 -68 c-7 -12 -44 -10 -44 2 0 5 11 9 24 8 14 -1 22 -6 20 -10z m651 -38
c3 -5 1 -10 -4 -10 -6 0 -11 5 -11 10 0 6 2 10 4 10 3 0 8 -4 11 -10z m-292
-30 c-8 -31 -19 -32 -17 -2 2 34 2 34 13 28 5 -3 7 -15 4 -26z m67 -30 c0 -5
-2 -10 -4 -10 -3 0 -8 5 -11 10 -3 6 -1 10 4 10 6 0 11 -4 11 -10z m-2055
-240 c10 -11 16 -20 13 -20 -3 0 -13 9 -23 20 -10 11 -16 20 -13 20 3 0 13 -9
23 -20z m1005 17 c0 -2 -10 -12 -22 -23 l-23 -19 19 23 c18 21 26 27 26 19z"/>
<path d="M4060 2790 c0 -5 5 -10 11 -10 5 0 7 5 4 10 -3 6 -8 10 -11 10 -2 0
-4 -4 -4 -10z"/>
<path d="M2631 2716 c-9 -11 -9 -16 0 -22 7 -4 9 -3 5 4 -3 6 2 15 11 21 10 6
13 11 7 11 -6 0 -17 -6 -23 -14z"/>
<path d="M3791 2680 c-14 -66 0 -197 19 -185 6 4 10 1 10 -4 0 -6 5 -11 12
-11 6 0 2 10 -10 23 -17 18 -22 37 -25 107 -1 47 -4 78 -6 70z"/>
<path d="M4105 2625 c4 -11 8 -34 8 -52 0 -18 4 -30 8 -28 11 7 1 77 -12 89
-9 8 -10 6 -4 -9z"/>
<path d="M2479 2567 c6 -8 7 -18 3 -22 -4 -5 -1 -5 6 -1 10 6 10 11 1 22 -6 8
-14 14 -16 14 -3 0 0 -6 6 -13z"/>
<path d="M3860 2538 c0 -5 8 -8 18 -9 9 0 36 -1 60 -2 23 -1 42 1 42 5 0 3
-27 8 -60 10 -33 1 -60 0 -60 -4z"/>
<path d="M3139 2503 c-13 -16 -12 -17 4 -4 16 13 21 21 13 21 -2 0 -10 -8 -17
-17z"/>
</g>
</svg>
