<?xml version="1.0" standalone="no"?>
<!DOCTYPE svg PUBLIC "-//W3C//DTD SVG 20010904//EN"
 "http://www.w3.org/TR/2001/REC-SVG-20010904/DTD/svg10.dtd">
<svg version="1.0" xmlns="http://www.w3.org/2000/svg"
 width="500.000000pt" height="500.000000pt" viewBox="0 0 500.000000 500.000000"
 preserveAspectRatio="xMidYMid meet">
<metadata>
Created by potrace 1.16, written by Peter Selinger 2001-2019
</metadata>
<g transform="translate(0.000000,500.000000) scale(0.100000,-0.100000)"
fill="#000000" stroke="none">
<path d="M0 2500 l0 -2500 2500 0 2500 0 0 2500 0 2500 -2500 0 -2500 0 0
-2500z m1618 663 c-125 -2 -332 -2 -460 0 -128 1 -26 2 227 2 253 0 358 -1
233 -2z m-708 -6 c0 -2 -10 -12 -22 -23 l-23 -19 19 23 c18 21 26 27 26 19z
m1000 -250 c0 -180 4 -229 13 -171 3 24 32 56 65 73 12 7 20 16 17 22 -6 8 11
13 43 12 6 -1 12 4 12 9 0 6 6 8 14 5 8 -3 17 1 20 10 5 11 10 13 20 4 7 -6
16 -8 20 -4 13 13 48 14 41 1 -4 -7 0 -5 8 4 8 10 16 16 18 13 6 -5 55 -15
114 -21 28 -3 52 -9 53 -15 2 -5 8 -7 13 -4 5 4 6 0 3 -8 -3 -8 -1 -18 5 -22
15 -9 14 -28 -1 -19 -8 4 -10 3 -5 -2 5 -5 11 -8 13 -6 7 4 35 -26 33 -35 -4
-21 2 -33 16 -33 9 0 18 -7 21 -15 4 -8 11 -12 18 -8 15 10 106 10 106 0 0 -5
5 -5 11 -2 7 5 4 14 -8 28 -9 12 -11 16 -3 10 19 -17 31 -16 24 2 -8 19 7 19
32 0 22 -17 54 -20 54 -4 0 5 -5 7 -12 3 -7 -5 -8 -3 -3 5 5 9 11 9 17 3 14
-14 2 -45 -13 -36 -8 5 -9 3 -5 -5 6 -9 13 -8 27 5 14 13 16 21 8 36 -6 11 -8
22 -5 25 3 3 8 -1 12 -10 3 -9 12 -13 20 -10 8 3 12 9 9 13 -3 5 3 7 12 5 10
-2 20 -4 22 -4 2 -1 -4 -10 -13 -20 -13 -14 -14 -21 -5 -27 7 -4 10 -3 6 3 -4
6 -1 16 7 22 15 13 16 28 1 51 -8 13 -6 13 8 2 9 -8 22 -10 28 -6 9 5 10 2 5
-11 -5 -15 -4 -16 8 -5 9 6 14 17 13 22 -1 6 4 13 11 15 9 4 11 -2 6 -24 -6
-26 -5 -27 8 -9 12 15 17 16 23 6 6 -9 4 -11 -5 -5 -9 5 -11 4 -6 -4 10 -15
29 -3 22 15 -3 7 0 16 6 20 6 4 8 3 4 -4 -3 -6 -2 -13 3 -16 5 -4 12 -2 16 4
4 6 10 8 15 5 12 -8 41 25 34 37 -4 7 -2 8 4 4 6 -4 8 -14 5 -23 -5 -12 -3
-14 7 -8 10 6 12 4 7 -7 -8 -22 22 -17 35 5 5 9 14 17 19 17 6 0 3 -7 -5 -16
-18 -18 -21 -34 -5 -34 5 0 8 4 4 9 -3 5 -1 12 4 15 5 4 12 2 16 -3 3 -5 15
-8 26 -6 15 3 19 0 15 -11 -3 -8 -2 -12 3 -9 5 3 12 1 16 -4 3 -5 14 -8 25 -6
12 2 18 0 15 -4 -3 -5 2 -11 10 -14 9 -4 12 -1 9 8 -5 11 2 13 30 11 20 -2 33
0 30 5 -6 11 45 58 64 59 7 0 10 5 7 10 -3 6 4 10 18 10 14 0 29 6 35 13 6 6
36 13 68 15 32 2 63 6 71 10 17 10 85 3 78 -8 -3 -4 10 -6 29 -3 28 4 39 -2
71 -33 l39 -37 44 24 c81 42 384 43 358 0 -4 -5 -2 -12 3 -15 9 -6 6 -50 -5
-68 -8 -13 -56 -32 -74 -29 -8 2 -11 -1 -7 -5 5 -5 21 -9 37 -10 57 -3 78 -13
85 -41 11 -41 11 -133 1 -133 -5 0 -6 -3 -3 -7 7 -6 -19 -29 -38 -33 -19 -4
-45 -21 -44 -28 4 -24 -6 -35 -44 -52 -43 -19 -97 -20 -349 -7 -26 1 -44 -2
-40 -7 3 -6 -3 -6 -14 -2 -10 4 -23 9 -29 10 -5 2 -21 8 -35 13 -14 6 -29 8
-34 5 -5 -3 -6 0 -2 6 4 7 2 12 -3 12 -6 0 -11 7 -11 15 0 8 -5 15 -11 15 -5
0 -8 4 -4 9 8 14 -31 5 -55 -12 -11 -8 -17 -17 -13 -21 4 -4 0 -4 -10 0 -16 6
-22 -5 -18 -29 1 -5 -3 -6 -8 -3 -12 8 -42 -4 -37 -13 8 -13 -56 -12 -72 1
-13 11 -14 11 -7 -2 6 -12 5 -13 -5 -3 -10 9 -17 10 -27 2 -10 -9 -15 -5 -22
14 -5 14 -15 28 -21 32 -5 3 -8 10 -6 14 3 4 -2 8 -10 8 -11 0 -8 -7 8 -26 13
-14 16 -20 7 -13 -9 6 -19 8 -23 4 -4 -4 -7 -2 -5 3 1 6 -2 21 -7 33 -9 21
-11 22 -23 8 -11 -13 -11 -16 -1 -16 8 0 11 -2 8 -5 -8 -8 -38 6 -38 17 0 5 5
6 10 3 6 -3 10 1 10 10 0 11 -4 13 -12 8 -18 -11 -31 -11 -45 -1 -6 5 -14 5
-18 -2 -4 -6 -3 -9 2 -8 4 2 9 -1 11 -7 1 -5 -10 -10 -25 -10 -16 0 -33 -4
-40 -8 -6 -4 -14 -3 -18 3 -4 6 -11 8 -16 4 -5 -3 -7 -10 -3 -15 3 -5 9 -7 14
-4 4 3 13 -2 19 -9 8 -10 9 -16 1 -21 -5 -3 -10 -2 -10 3 0 6 -11 13 -25 16
-14 4 -25 14 -25 23 0 9 -3 13 -7 9 -8 -8 -9 -12 -12 -43 -1 -17 -2 -16 -12 1
-9 15 -13 16 -21 5 -7 -11 -8 -9 -5 6 2 11 9 19 16 17 7 -1 10 2 6 8 -5 8 -11
8 -19 1 -7 -6 -16 -7 -20 -3 -4 4 -6 2 -4 -3 2 -6 -1 -11 -7 -12 -5 -2 -11 2
-11 7 -1 6 -3 13 -4 18 -1 4 -2 10 -2 13 1 3 -6 6 -13 6 -10 0 -11 -4 -6 -11
6 -7 1 -15 -15 -23 -21 -10 -24 -10 -14 2 9 10 6 15 -11 20 -17 6 -19 9 -8 16
8 5 9 9 3 9 -6 0 -17 -7 -24 -15 -14 -17 -30 -20 -30 -5 0 5 3 9 8 7 4 -1 8 2
9 7 1 5 7 13 15 18 9 6 8 8 -7 6 -13 -2 -19 2 -17 11 3 12 0 12 -12 1 -9 -7
-16 -9 -16 -5 0 4 -7 2 -15 -5 -8 -7 -16 -10 -16 -6 -1 3 -2 10 -3 15 0 5 -4
13 -8 17 -4 3 -6 -3 -3 -15 5 -28 -24 -28 -55 -1 -13 11 -20 20 -16 20 4 0 4
5 1 10 -7 11 -35 -5 -33 -18 3 -26 -6 -31 -11 -7 -4 17 -12 29 -18 28 -16 -3
-8 57 8 68 11 7 11 9 1 9 -7 0 -10 5 -7 10 5 8 11 7 21 -1 12 -10 15 -10 12 2
-2 8 2 13 8 12 6 -1 11 5 11 13 0 12 -3 12 -16 1 -18 -15 -40 -16 -43 -3 -2 5
5 10 15 12 27 4 34 14 9 14 -11 0 -24 -5 -28 -12 -5 -8 -10 -6 -15 8 -6 15 -8
15 -8 3 -1 -9 6 -22 14 -29 8 -7 12 -17 9 -22 -9 -14 -44 21 -37 38 3 8 0 14
-7 14 -6 0 -8 -5 -5 -11 4 -6 -2 -5 -13 2 -12 7 -19 16 -16 20 2 4 -6 9 -18
12 -12 4 -26 1 -29 -5 -10 -15 -2 -28 17 -28 8 0 28 -7 44 -15 21 -11 27 -20
24 -37 -4 -21 -4 -22 5 -3 9 18 11 18 15 -2 1 -5 4 -13 8 -18 4 -6 5 -28 4
-48 -3 -37 8 -59 17 -35 3 7 4 3 4 -9 -1 -22 -1 -22 -22 -3 -12 11 -25 20 -29
20 -14 0 -56 37 -49 44 3 3 2 6 -4 6 -23 0 -21 -15 3 -30 14 -10 25 -21 25
-26 -1 -5 2 -9 7 -10 4 0 15 -4 25 -9 13 -5 15 -10 7 -15 -20 -12 -51 1 -61
27 -9 24 -29 24 -29 0 0 -8 3 -8 9 1 6 10 10 9 14 -7 5 -19 -3 -26 -26 -22 -4
1 -3 -8 4 -20 6 -12 7 -19 1 -15 -5 3 -15 -1 -21 -8 -10 -12 -8 -14 11 -10 13
2 8 -2 -10 -9 -18 -7 -30 -16 -26 -20 4 -4 2 -7 -5 -7 -7 0 -24 -10 -36 -22
-20 -19 -34 -22 -109 -23 -47 0 -86 4 -86 8 0 4 -9 3 -20 -3 -15 -8 -20 -8
-20 1 0 6 -9 9 -20 6 -11 -3 -20 0 -20 6 0 6 -3 7 -7 4 -3 -4 -13 -1 -21 6
-11 8 -14 8 -9 0 4 -6 3 -14 -2 -17 -5 -3 -11 3 -14 14 -3 13 -11 18 -26 15
-11 -2 -20 -1 -20 3 3 20 -2 25 -11 12 -8 -12 -10 -11 -10 6 0 12 -8 28 -17
35 -15 11 -16 11 -6 -1 8 -8 9 -18 3 -25 -5 -6 -11 -42 -13 -80 -1 -39 -4 117
-5 345 -2 359 -4 419 -18 440 l-16 25 21 -24 c20 -22 21 -35 21 -224z m-272
-254 l-3 -258 -2 253 -3 252 -245 0 -244 0 -4 -42 -4 -43 -1 48 -2 47 255 0
255 0 -2 -257z m1317 187 c-3 -5 0 -10 7 -11 10 0 10 -2 0 -6 -6 -2 -10 -9 -7
-14 4 -5 -1 -6 -10 -2 -13 5 -14 7 -3 14 7 5 9 9 5 9 -9 0 1 20 9 20 3 0 2 -4
-1 -10z m-201 -29 c3 -5 -2 -15 -12 -22 -15 -12 -16 -12 -5 2 7 9 10 19 6 22
-3 4 -4 7 0 7 3 0 8 -4 11 -9z m394 -14 c6 -7 7 -18 3 -25 -5 -9 -11 -5 -19
13 -12 26 -2 34 16 12z m86 -25 c3 -5 -1 -9 -9 -9 -8 0 -12 4 -9 9 3 4 7 8 9
8 2 0 6 -4 9 -8z m-1961 -105 l132 -3 -137 -2 -138 -2 2 48 1 47 4 -42 4 -42
132 -4z m214 -179 c-1 -51 -3 -12 -3 87 0 99 2 141 3 93 2 -48 2 -129 0 -180z
m1064 229 c-7 -7 -14 -8 -21 -1 -6 6 -2 10 12 11 16 2 18 -1 9 -10z m-1414
-269 c-2 -29 -3 -8 -3 47 0 55 1 79 3 53 2 -26 2 -71 0 -100z m190 0 c-2 -29
-3 -8 -3 47 0 55 1 79 3 53 2 -26 2 -71 0 -100z m1278 62 c-3 -5 -10 -10 -16
-10 -5 0 -9 5 -9 10 0 6 7 10 16 10 8 0 12 -4 9 -10z m145 -16 c7 -7 0 -10
-22 -10 -23 1 -32 -3 -30 -13 3 -12 0 -12 -12 -2 -16 13 -12 36 4 26 5 -3 11
-1 14 4 7 11 33 8 46 -5z m-110 -5 c0 -5 5 -7 12 -3 7 4 8 3 4 -5 -6 -9 -11
-9 -22 0 -17 14 -18 19 -4 19 6 0 10 -5 10 -11z m477 -34 c0 -8 -4 -15 -8 -15
-5 0 -6 -7 -3 -15 8 -20 -13 -19 -24 1 -6 10 -12 13 -16 6 -3 -5 -15 -8 -26
-5 -31 8 -14 21 24 18 23 -3 36 1 40 11 7 18 13 18 13 -1z m-1210 -267 c-3 -8
-6 -5 -6 6 -1 11 2 17 5 13 3 -3 4 -12 1 -19z m-1012 -38 c10 -11 16 -20 13
-20 -3 0 -13 9 -23 20 -10 11 -16 20 -13 20 3 0 13 -9 23 -20z m1005 17 c0 -2
-10 -12 -22 -23 l-23 -19 19 23 c18 21 26 27 26 19z m-953 -43 c-3 -3 -12 -4
-19 -1 -8 3 -5 6 6 6 11 1 17 -2 13 -5z m900 0 c-3 -3 -12 -4 -19 -1 -8 3 -5
6 6 6 11 1 17 -2 13 -5z"/>
<path d="M2624 2721 c0 -11 2 -18 5 -16 2 3 10 0 17 -6 8 -7 14 -7 19 1 4 6 2
9 -4 8 -5 -2 -16 5 -23 15 -13 18 -14 17 -14 -2z"/>
<path d="M1911 2684 c0 -11 3 -14 6 -6 3 7 2 16 -1 19 -3 4 -6 -2 -5 -13z"/>
<path d="M3853 2675 c0 -19 3 -23 12 -15 6 5 15 7 18 3 4 -3 7 -1 7 5 0 7 8
12 18 12 14 0 15 2 2 10 -8 5 -25 10 -36 10 -16 0 -21 -6 -21 -25z"/>
<path d="M3938 2693 c7 -3 16 -2 19 1 4 3 -2 6 -13 5 -11 0 -14 -3 -6 -6z"/>
<path d="M4018 2693 c7 -3 16 -2 19 1 4 3 -2 6 -13 5 -11 0 -14 -3 -6 -6z"/>
<path d="M2420 2666 c0 -2 7 -9 15 -16 13 -11 14 -10 9 4 -5 14 -24 23 -24 12z"/>
<path d="M2616 2662 c-3 -5 1 -9 9 -9 8 0 12 4 9 9 -3 4 -7 8 -9 8 -2 0 -6 -4
-9 -8z"/>
<path d="M2438 2611 c24 -23 40 -41 36 -41 -8 0 27 -29 36 -30 14 0 4 46 -12
58 -10 7 -18 20 -18 28 0 8 -5 14 -11 14 -6 0 -9 -6 -6 -13 3 -8 -1 -14 -9
-14 -7 0 -11 3 -9 7 2 4 -8 13 -23 19 -22 10 -19 5 16 -28z m61 -25 c9 -11 9
-16 -1 -22 -7 -4 -10 -4 -6 1 4 4 3 14 -3 22 -6 7 -9 13 -6 13 2 0 10 -6 16
-14z"/>
<path d="M2665 2631 c-3 -5 -2 -12 3 -15 5 -3 9 1 9 9 0 17 -3 19 -12 6z"/>
<path d="M2578 2609 c10 -14 9 -17 -9 -22 -12 -3 -18 -10 -14 -17 5 -8 11 -8
19 -1 7 6 16 8 19 4 4 -3 7 1 7 9 0 9 -8 22 -17 29 -16 12 -17 12 -5 -2z"/>
<path d="M2626 2611 c-4 -5 -2 -12 3 -15 5 -4 12 -2 15 3 4 5 2 12 -3 15 -5 4
-12 2 -15 -3z"/>
<path d="M2616 2568 c3 -5 10 -6 15 -3 13 9 11 12 -6 12 -8 0 -12 -4 -9 -9z"/>
<path d="M2653 2565 c0 -8 4 -12 9 -9 5 3 6 10 3 15 -9 13 -12 11 -12 -6z"/>
<path d="M2309 2373 c-13 -16 -12 -17 4 -4 9 7 17 15 17 17 0 8 -8 3 -21 -13z"/>
</g>
</svg>
