<?xml version="1.0" standalone="no"?>
<!DOCTYPE svg PUBLIC "-//W3C//DTD SVG 20010904//EN"
 "http://www.w3.org/TR/2001/REC-SVG-20010904/DTD/svg10.dtd">
<svg version="1.0" xmlns="http://www.w3.org/2000/svg"
 width="500.000000pt" height="500.000000pt" viewBox="0 0 500.000000 500.000000"
 preserveAspectRatio="xMidYMid meet">
<metadata>
Created by potrace 1.16, written by Peter Selinger 2001-2019
</metadata>
<g transform="translate(0.000000,500.000000) scale(0.100000,-0.100000)"
fill="#000000" stroke="none">
<path d="M894 3136 l-28 -23 0 -466 -1 -467 28 -27 27 -28 464 0 464 0 26 24
26 24 0 469 0 469 -25 24 -24 25 -465 0 -465 0 -27 -24z m746 -481 l0 -255
-45 0 -45 0 0 210 0 210 -210 0 -210 0 0 45 0 45 255 0 255 0 0 -255z m-150
-80 l0 -175 -45 0 -45 0 0 130 0 130 -135 0 -135 0 0 45 0 45 180 0 180 0 0
-175z m-160 -80 l0 -95 -100 0 -100 0 0 95 0 95 100 0 100 0 0 -95z"/>
</g>
</svg>
