<?xml version="1.0" standalone="no"?>
<!DOCTYPE svg PUBLIC "-//W3C//DTD SVG 20010904//EN"
 "http://www.w3.org/TR/2001/REC-SVG-20010904/DTD/svg10.dtd">
<svg version="1.0" xmlns="http://www.w3.org/2000/svg"
 width="500.000000pt" height="500.000000pt" viewBox="0 0 500.000000 500.000000"
 preserveAspectRatio="xMidYMid meet">
<metadata>
Created by potrace 1.16, written by Peter Selinger 2001-2019
</metadata>
<g transform="translate(0.000000,500.000000) scale(0.100000,-0.100000)"
fill="#000000" stroke="none">
<path d="M0 2500 l0 -2500 2500 0 2500 0 0 2500 0 2500 -2500 0 -2500 0 0
-2500z m1805 667 c22 -2 -167 -3 -420 -3 -452 1 -454 1 -130 6 310 5 456 4
550 -3z m-895 -10 c0 -2 -10 -12 -22 -23 l-23 -19 19 23 c18 21 26 27 26 19z
m981 -24 c13 -16 12 -17 -3 -4 -10 7 -18 15 -18 17 0 8 8 3 21 -13z m16 -60
c-3 -10 -5 -4 -5 12 0 17 2 24 5 18 2 -7 2 -21 0 -30z m0 -45 c-3 -8 -6 -5 -6
6 -1 11 2 17 5 13 3 -3 4 -12 1 -19z m0 -40 c-3 -8 -6 -5 -6 6 -1 11 2 17 5
13 3 -3 4 -12 1 -19z m0 -40 c-3 -8 -6 -5 -6 6 -1 11 2 17 5 13 3 -3 4 -12 1
-19z m-269 -295 l-3 -258 -2 253 -3 252 -245 0 -244 0 -4 -42 -4 -43 -1 48 -2
47 255 0 255 0 -2 -257z m269 215 c-3 -8 -6 -5 -6 6 -1 11 2 17 5 13 3 -3 4
-12 1 -19z m212 1 c22 11 231 12 231 2 0 -5 8 -8 18 -7 9 0 16 -5 14 -12 -1
-8 2 -11 7 -8 15 10 40 -5 34 -20 -3 -9 2 -14 13 -15 11 0 14 -3 7 -6 -7 -2
-13 -9 -13 -14 0 -4 7 -5 17 -2 12 5 14 3 8 -7 -6 -10 -2 -12 18 -8 16 3 25 1
24 -6 -3 -14 44 -9 58 6 7 8 6 9 -4 3 -9 -5 -12 -4 -8 3 4 5 17 8 29 4 16 -4
19 -2 13 9 -8 12 -6 12 8 0 9 -7 14 -18 10 -25 -3 -6 0 -6 8 2 7 6 21 12 30
12 10 0 20 6 22 13 5 11 11 -17 8 -35 0 -4 6 -5 14 -2 8 4 13 10 10 14 -2 4 5
16 18 26 18 16 19 16 8 2 -11 -15 -11 -18 2 -18 8 0 18 7 21 16 5 14 9 14 23
3 15 -12 16 -12 10 4 -3 9 -2 17 3 17 6 0 10 -4 10 -10 0 -14 40 -6 51 11 6 9
9 10 9 2 0 -7 7 -10 15 -7 8 4 12 10 9 15 -3 5 0 9 5 9 6 0 11 -5 11 -11 0 -6
6 -9 14 -6 7 3 19 0 25 -6 10 -9 12 -9 9 3 -2 10 10 16 45 20 26 3 47 3 47 -1
0 -4 16 -3 35 1 19 4 36 6 36 4 1 -2 2 -8 3 -13 0 -5 4 -13 8 -17 4 -3 6 3 3
15 -2 11 0 21 5 21 12 0 40 -41 35 -51 -3 -4 3 -5 14 -2 12 3 29 -6 46 -24 15
-15 24 -22 20 -15 -4 9 0 15 14 19 12 3 18 10 14 17 -3 6 3 2 15 -8 20 -17 22
-18 22 -2 0 9 4 15 9 12 4 -3 24 10 43 30 36 36 64 43 183 45 96 2 170 -25
190 -69 12 -28 15 -27 75 3 46 23 60 25 190 25 l140 0 0 -43 c0 -40 -2 -43
-40 -60 -29 -12 -67 -17 -140 -17 l-100 0 0 -41 0 -41 36 21 c31 18 51 21 160
21 l124 0 0 -83 0 -82 -40 -18 c-30 -12 -40 -23 -40 -39 -1 -41 -55 -58 -179
-58 -59 0 -122 5 -140 11 -23 8 -35 8 -45 0 -7 -6 -34 -15 -59 -20 -38 -7 -52
-5 -77 10 -16 10 -30 25 -30 33 0 7 -7 19 -15 26 -8 7 -12 17 -8 24 3 6 3 8
-2 4 -4 -4 -15 -2 -23 5 -12 9 -16 9 -19 0 -2 -7 -11 -9 -19 -6 -9 3 -14 -2
-14 -15 0 -12 -4 -24 -10 -27 -6 -3 -7 1 -4 12 5 17 5 17 -6 0 -7 -10 -9 -21
-6 -25 4 -3 -12 -14 -35 -25 -54 -25 -134 -31 -150 -11 -6 7 -16 11 -22 7 -5
-3 -7 -1 -4 4 4 6 0 16 -8 23 -8 7 -12 16 -9 21 8 14 -6 11 -21 -5 -11 -10
-11 -16 -2 -26 9 -10 9 -11 0 -6 -7 4 -13 2 -13 -3 0 -6 -5 -11 -11 -11 -8 0
-8 4 -1 13 7 8 6 17 -3 30 -8 12 -15 14 -20 8 -3 -6 -1 -11 4 -11 6 0 11 -5
11 -11 0 -8 -11 -9 -32 -5 -30 6 -30 5 -15 -12 18 -20 21 -19 -35 -13 -5 1 -7
4 -5 9 1 4 -2 7 -8 7 -5 0 -9 -8 -9 -18 1 -14 -1 -15 -13 -5 -8 6 -38 13 -66
14 -44 2 -65 5 -107 13 -3 1 2 5 10 10 9 7 3 9 -23 7 -26 -2 -41 2 -53 16 -14
14 -19 16 -26 6 -6 -10 -8 -10 -8 0 0 7 -5 10 -11 7 -7 -5 -4 -14 8 -27 14
-16 9 -14 -21 6 -29 19 -42 23 -56 16 -29 -16 -45 -13 -30 5 17 20 1 19 -21
-1 -15 -13 -24 -14 -48 -6 -22 8 -31 7 -35 -1 -2 -7 -5 -4 -5 6 -1 9 -6 17
-12 17 -5 0 -8 -3 -6 -7 3 -5 -4 -17 -15 -28 -16 -17 -18 -17 -13 -2 4 9 2 18
-4 18 -38 5 -47 2 -57 -19 -18 -36 -30 -45 -80 -58 -36 -9 -309 -13 -309 -4 0
2 -21 7 -52 12 -13 2 -36 17 -52 32 l-30 29 -4 -64 c-2 -35 -3 49 -3 186 -1
138 2 225 5 195 4 -39 8 -49 13 -35 11 28 108 121 136 129 12 4 22 12 22 19 0
8 3 8 12 -1 6 -6 18 -8 27 -3z m-212 -41 c-3 -8 -6 -5 -6 6 -1 11 2 17 5 13 3
-3 4 -12 1 -19z m918 12 c3 -6 -1 -7 -9 -4 -18 7 -21 14 -7 14 6 0 13 -4 16
-10z m-1552 -173 l132 -3 -137 -2 -138 -2 2 48 1 47 4 -42 4 -42 132 -4z m214
-179 c-1 -51 -3 -12 -3 87 0 99 2 141 3 93 2 -48 2 -129 0 -180z m2888 162 c3
-5 2 -10 -4 -10 -5 0 -13 5 -16 10 -3 6 -2 10 4 10 5 0 13 -4 16 -10z m-3238
-202 c-2 -29 -3 -8 -3 47 0 55 1 79 3 53 2 -26 2 -71 0 -100z m190 0 c-2 -29
-3 -8 -3 47 0 55 1 79 3 53 2 -26 2 -71 0 -100z m3088 122 c3 -5 1 -10 -4 -10
-6 0 -11 5 -11 10 0 6 2 10 4 10 3 0 8 -4 11 -10z m-2508 -382 c-3 -8 -6 -5
-6 6 -1 11 2 17 5 13 3 -3 4 -12 1 -19z m-1012 -38 c10 -11 16 -20 13 -20 -3
0 -13 9 -23 20 -10 11 -16 20 -13 20 3 0 13 -9 23 -20z m1005 17 c0 -2 -10
-12 -22 -23 l-23 -19 19 23 c18 21 26 27 26 19z m-953 -43 c-3 -3 -12 -4 -19
-1 -8 3 -5 6 6 6 11 1 17 -2 13 -5z m900 0 c-3 -3 -12 -4 -19 -1 -8 3 -5 6 6
6 11 1 17 -2 13 -5z"/>
<path d="M3838 2803 c7 -3 16 -2 19 1 4 3 -2 6 -13 5 -11 0 -14 -3 -6 -6z"/>
<path d="M3176 2781 c-3 -5 1 -14 9 -21 10 -9 15 -9 15 -1 0 6 -5 11 -11 11
-5 0 -7 5 -4 10 3 6 4 10 1 10 -3 0 -7 -4 -10 -9z"/>
<path d="M2515 2740 c-3 -5 -1 -10 4 -10 6 0 11 5 11 10 0 6 -2 10 -4 10 -3 0
-8 -4 -11 -10z"/>
<path d="M4053 2624 c9 -11 24 -21 32 -21 10 0 12 4 5 12 -5 7 -6 16 -2 21 4
4 0 3 -9 -4 -12 -9 -19 -9 -29 1 -8 6 -7 3 3 -9z"/>
<path d="M3801 2614 c0 -11 3 -14 6 -6 3 7 2 16 -1 19 -3 4 -6 -2 -5 -13z"/>
<path d="M3802 2550 c0 -19 2 -27 5 -17 2 9 2 25 0 35 -3 9 -5 1 -5 -18z"/>
<path d="M3850 2545 c0 -25 27 -35 97 -35 65 0 73 2 73 19 0 18 -9 20 -85 23
-55 2 -85 -1 -85 -7z"/>
<path d="M3806 2502 c-3 -5 1 -9 9 -9 8 0 12 4 9 9 -3 4 -7 8 -9 8 -2 0 -6 -4
-9 -8z"/>
<path d="M2555 2479 c-3 -4 2 -6 10 -5 21 3 28 13 10 13 -9 0 -18 -4 -20 -8z"/>
<path d="M3860 2479 c0 -5 5 -7 10 -4 6 3 10 8 10 11 0 2 -4 4 -10 4 -5 0 -10
-5 -10 -11z"/>
<path d="M3895 2480 c3 -5 8 -10 11 -10 2 0 4 5 4 10 0 6 -5 10 -11 10 -5 0
-7 -4 -4 -10z"/>
<path d="M3920 2482 c0 -5 7 -9 15 -9 8 0 15 4 15 9 0 4 -7 8 -15 8 -8 0 -15
-4 -15 -8z"/>
<path d="M3960 2481 c0 -5 9 -7 20 -4 11 3 20 7 20 9 0 2 -9 4 -20 4 -11 0
-20 -4 -20 -9z"/>
<path d="M2805 2450 c-3 -5 -1 -10 4 -10 6 0 11 5 11 10 0 6 -2 10 -4 10 -3 0
-8 -4 -11 -10z"/>
</g>
</svg>
