<?xml version="1.0" standalone="no"?>
<!DOCTYPE svg PUBLIC "-//W3C//DTD SVG 20010904//EN"
 "http://www.w3.org/TR/2001/REC-SVG-20010904/DTD/svg10.dtd">
<svg version="1.0" xmlns="http://www.w3.org/2000/svg"
 width="500.000000pt" height="500.000000pt" viewBox="0 0 500.000000 500.000000"
 preserveAspectRatio="xMidYMid meet">
<metadata>
Created by potrace 1.16, written by Peter Selinger 2001-2019
</metadata>
<g transform="translate(0.000000,500.000000) scale(0.100000,-0.100000)"
fill="#000000" stroke="none">
<path d="M0 2500 l0 -2500 2500 0 2500 0 0 2500 0 2500 -2500 0 -2500 0 0
-2500z m1618 663 c-125 -2 -332 -2 -460 0 -128 1 -26 2 227 2 253 0 358 -1
233 -2z m-708 -6 c0 -2 -10 -12 -22 -23 l-23 -19 19 23 c18 21 26 27 26 19z
m981 -24 c13 -16 12 -17 -3 -4 -10 7 -18 15 -18 17 0 8 8 3 21 -13z m16 -45
c-3 -8 -6 -5 -6 6 -1 11 2 17 5 13 3 -3 4 -12 1 -19z m-269 -435 l-3 -258 -2
253 -3 252 -245 0 -244 0 -4 -42 -4 -43 -1 48 -2 47 255 0 255 0 -2 -257z
m599 214 c6 2 14 -1 18 -6 4 -7 12 -7 25 1 14 9 22 9 34 -1 9 -7 13 -18 9 -25
-4 -7 -1 -6 9 1 8 7 19 9 23 5 5 -4 5 -1 1 6 -4 7 -11 10 -16 7 -5 -3 -11 -1
-14 4 -9 13 19 7 38 -8 9 -7 16 -19 16 -26 0 -6 9 -22 20 -35 21 -25 26 -35
11 -25 -5 3 -12 1 -16 -5 -3 -5 -1 -10 4 -10 6 0 11 -7 11 -15 0 -8 9 -15 19
-15 29 0 33 -15 12 -34 -18 -17 -20 -16 -25 2 -4 11 -14 23 -22 26 -11 4 -9
-2 6 -24 19 -27 61 -45 45 -20 -3 6 1 7 9 4 9 -3 16 -11 16 -18 0 -6 9 -12 20
-13 11 -1 18 2 15 8 -4 5 -2 9 3 9 6 0 12 -6 15 -13 4 -10 -5 -13 -31 -12 -21
1 -37 3 -37 5 0 1 -12 3 -27 4 -15 2 -25 -1 -22 -6 3 -4 10 -5 16 -2 7 4 8 2
4 -4 -4 -7 -15 -12 -24 -12 -15 0 -15 -2 -2 -10 22 -14 30 -12 38 11 7 18 10
19 20 6 10 -12 6 -17 -29 -31 -35 -14 -39 -19 -28 -32 19 -23 20 -44 1 -45
-14 0 -13 -2 3 -9 28 -12 47 -12 40 0 -3 6 -2 10 4 10 5 0 13 -4 16 -10 3 -5
1 -10 -5 -10 -6 0 -9 -4 -5 -9 3 -5 1 -12 -5 -16 -5 -3 -10 -2 -10 3 0 13 -39
22 -46 11 -3 -6 -1 -16 5 -23 14 -16 -11 -41 -51 -51 -15 -4 -33 -14 -40 -23
-11 -13 -11 -14 1 -7 10 5 12 4 7 -4 -6 -9 -11 -9 -21 -1 -10 8 -15 8 -21 -1
-5 -8 -3 -9 6 -4 9 5 11 4 6 -3 -10 -16 -22 -15 -40 4 -15 14 -16 14 -16 -3 0
-13 -7 -18 -25 -18 -14 0 -25 3 -25 6 0 3 -17 5 -37 3 -25 -1 -41 3 -50 14
-10 13 -12 13 -8 2 4 -11 -2 -15 -24 -15 -16 0 -27 3 -24 8 7 12 -22 8 -37 -5
-8 -7 -6 -3 4 9 16 19 16 21 1 19 -9 -1 -20 -7 -23 -13 -4 -7 -15 -1 -27 16
-13 18 -14 22 -3 13 11 -9 18 -10 23 -2 4 6 1 9 -7 8 -7 -2 -12 2 -11 8 1 7
-6 10 -17 7 -13 -3 -20 0 -20 8 0 11 -2 11 -10 -1 -5 -9 -8 49 -8 160 1 96 5
159 8 140 6 -30 8 -31 9 -8 1 17 8 29 21 33 11 3 19 11 17 17 -1 6 9 17 23 25
14 7 24 17 23 23 -2 5 4 7 12 3 9 -3 24 2 35 12 11 10 26 15 34 12 9 -4 18 -1
22 5 5 7 2 8 -6 3 -9 -6 -11 -4 -6 4 6 9 13 8 28 -6 11 -9 19 -13 18 -8 -5 21
1 29 10 15 8 -12 10 -12 10 -1 0 10 3 11 14 2 11 -9 16 -9 22 0 5 8 3 9 -6 4
-9 -6 -11 -4 -6 4 6 9 12 9 24 -2 10 -8 22 -12 29 -10z m1358 3 c-3 -5 3 -7
12 -6 21 3 84 -30 95 -49 9 -16 39 -9 88 18 30 18 54 21 176 21 112 1 143 -2
155 -14 18 -18 18 -85 1 -117 -11 -20 -9 -22 23 -33 24 -8 32 -16 28 -27 -3
-8 -1 -18 5 -22 8 -5 8 -26 2 -71 -9 -65 -32 -100 -65 -100 -7 0 -18 -14 -24
-30 -9 -28 -37 -46 -80 -53 -9 -1 -20 -5 -26 -8 -14 -7 -152 -3 -200 6 -22 4
-46 7 -52 8 -7 0 -13 5 -13 11 0 6 -4 5 -9 -3 -6 -9 -10 -10 -16 -2 -5 9 -10
9 -21 0 -11 -9 -14 -8 -14 2 0 9 -3 10 -8 3 -14 -21 -40 -22 -60 -4 -11 10
-23 16 -26 13 -3 -4 -6 0 -6 9 0 8 -7 15 -15 15 -8 0 -15 -5 -15 -10 0 -6 -3
-7 -6 -4 -4 4 -1 15 7 24 7 10 10 15 5 11 -4 -3 -19 0 -34 8 -17 8 -30 10 -37
4 -7 -6 -16 -6 -20 -2 -5 4 -5 2 -2 -4 4 -7 0 -14 -8 -18 -8 -3 -15 -13 -15
-21 0 -9 -4 -13 -10 -10 -5 3 -10 1 -10 -4 0 -6 -7 -11 -15 -11 -8 0 -15 -6
-15 -12 0 -9 -4 -8 -10 2 -9 13 -10 13 -10 0 0 -13 -1 -13 -10 0 -5 8 -10 10
-10 4 0 -6 -11 -11 -25 -11 -14 0 -25 4 -25 9 0 5 -4 7 -9 3 -5 -3 -15 1 -23
8 -7 8 -19 12 -26 9 -9 -3 -11 4 -8 21 3 19 0 24 -12 23 -18 -3 -42 15 -36 26
2 4 0 10 -6 13 -6 4 -9 3 -8 -2 2 -4 -4 -17 -12 -29 -19 -25 -42 -40 -38 -24
2 7 -5 14 -14 15 -20 4 -25 -11 -6 -17 7 -3 3 -7 -9 -10 -17 -4 -20 -2 -16 10
5 11 3 13 -7 7 -18 -11 -111 -14 -104 -4 2 4 13 6 24 4 13 -3 17 1 13 12 -3 8
-9 10 -12 5 -3 -5 -16 -8 -29 -7 -14 1 -21 -3 -18 -10 2 -7 -8 -18 -22 -25
-26 -11 -26 -11 -9 8 10 11 14 23 9 26 -5 3 -15 0 -21 -8 -11 -13 -31 -16 -40
-6 -3 3 -1 16 2 30 l7 25 15 -25 c8 -14 14 -20 14 -15 1 23 -20 40 -51 40 -19
1 -32 6 -31 12 3 12 -15 12 -35 -1 -10 -6 -12 -1 -9 21 3 21 1 30 -9 30 -7 0
-11 -3 -9 -7 3 -4 -4 -15 -14 -24 -15 -14 -21 -15 -27 -4 -12 18 -12 31 0 46
7 9 5 12 -4 10 -8 -2 -14 2 -15 9 0 6 -3 15 -7 19 -4 4 -4 12 0 18 4 6 7 14 8
19 1 4 2 10 3 13 0 4 9 0 19 -7 15 -13 16 -12 4 3 -9 11 -10 18 -2 23 5 3 10
14 9 23 0 12 -3 11 -9 -5 -5 -13 -12 -23 -15 -23 -8 0 -6 24 4 39 8 12 12 12
25 2 9 -7 14 -17 11 -21 -3 -5 -1 -12 5 -15 6 -4 9 -1 8 7 -2 7 3 12 11 10 11
-2 12 0 3 11 -13 16 -5 30 12 20 21 -14 38 -12 26 2 -11 13 -27 14 -45 3 -10
-6 -55 7 -55 16 0 3 9 4 20 3 11 -1 20 -5 20 -11 0 -5 8 -2 18 7 25 23 38 21
56 -5 9 -12 16 -17 16 -10 0 7 4 11 9 8 5 -3 14 1 21 8 6 8 20 13 30 11 15 -3
18 3 16 35 -1 27 3 36 12 32 7 -2 11 -11 8 -18 -3 -8 0 -14 8 -14 21 0 27 12
13 28 -10 13 -9 14 11 3 12 -6 22 -16 22 -20 0 -5 8 -8 18 -6 9 1 16 8 15 13
-2 6 4 9 12 6 8 -4 15 -10 15 -16 0 -5 -5 -6 -12 -2 -7 4 -8 3 -4 -5 5 -8 12
-9 19 -3 15 12 57 -3 57 -20 0 -10 2 -10 9 1 11 17 34 4 27 -16 -3 -8 -2 -12
3 -9 4 3 16 -3 26 -14 22 -25 34 -18 27 16 -3 19 -1 25 7 20 6 -4 9 -11 7 -15
-3 -4 1 -8 9 -8 10 0 11 5 5 17 -8 15 -5 17 20 15 16 -1 27 1 24 6 -3 5 5 13
18 18 13 5 30 16 37 25 10 12 17 13 26 6 10 -8 15 -8 21 1 5 8 3 10 -7 4 -10
-6 -11 -5 -4 3 6 6 19 13 30 15 11 1 26 6 33 10 6 5 16 6 21 2 5 -3 12 -1 15
4 7 10 25 9 43 -2 6 -4 14 -3 18 3 4 6 10 8 14 6 4 -3 13 -1 20 3 15 10 63 2
56 -9z m-628 -25 c0 -8 -4 -12 -9 -9 -5 3 -6 10 -3 15 9 13 12 11 12 -6z m163
-40 c0 -8 -4 -15 -10 -15 -5 0 -7 7 -4 15 4 8 8 15 10 15 2 0 4 -7 4 -15z
m-244 -22 c-2 -10 -7 -18 -12 -18 -5 0 -16 -5 -24 -10 -17 -11 -45 -17 -36 -8
3 4 1 12 -4 18 -7 9 -3 11 18 10 15 0 33 5 40 12 18 17 21 16 18 -4z m-151 -3
c-3 -5 -1 -10 6 -10 7 0 10 -3 6 -6 -9 -9 -28 6 -22 17 4 5 8 9 11 9 3 0 2 -4
-1 -10z m435 -26 c0 -17 -22 -14 -28 4 -2 7 3 12 12 12 9 0 16 -7 16 -16z
m-710 -4 c-8 -5 -19 -10 -25 -10 -5 0 -3 5 5 10 8 5 20 10 25 10 6 0 3 -5 -5
-10z m-1187 -83 l132 -3 -137 -2 -138 -2 2 48 1 47 4 -42 4 -42 132 -4z m214
-179 c-1 -51 -3 -12 -3 87 0 99 2 141 3 93 2 -48 2 -129 0 -180z m1192 220
c-6 -11 -8 -26 -5 -33 3 -8 1 -17 -5 -20 -5 -4 -7 -10 -4 -15 3 -5 1 -12 -5
-15 -8 -5 -7 -11 1 -21 6 -8 8 -14 5 -14 -4 0 -4 -6 1 -12 4 -7 8 -20 8 -29 0
-9 6 -23 13 -31 10 -13 9 -16 -7 -21 -11 -3 -20 -2 -19 2 2 19 -4 22 -19 10
-16 -12 -17 -12 -7 1 6 8 10 23 9 33 -3 16 -1 16 13 5 15 -11 15 -11 6 2 -6 8
-10 23 -9 32 2 10 -1 16 -7 15 -6 -1 -12 6 -13 16 -4 22 -15 36 -15 19 0 -7 1
-14 3 -15 1 -2 -4 -11 -12 -21 -12 -14 -16 -15 -30 -3 -9 8 -23 17 -31 21 -9
4 -7 5 6 2 12 -2 21 2 21 9 0 8 -9 12 -19 10 -10 -2 -16 0 -13 6 4 5 13 9 21
9 9 0 12 5 8 11 -9 16 18 30 33 17 13 -11 8 -32 -6 -24 -4 3 -8 -1 -8 -9 0
-19 -1 -20 28 12 13 14 18 23 12 19 -8 -4 -13 -1 -13 8 0 9 7 13 20 11 18 -4
25 9 21 37 0 4 6 5 14 2 11 -5 12 -11 4 -26z m-109 2 c-12 -12 -18 -25 -15
-30 3 -5 -3 -8 -14 -7 -16 1 -18 4 -8 17 15 19 40 39 50 40 4 0 -2 -9 -13 -20z
m-90 -120 c-12 -8 -12 -10 -1 -10 8 0 12 -3 8 -6 -3 -4 -13 -4 -22 0 -20 7
-10 26 13 26 15 0 15 -2 2 -10z m155 -30 c-8 -9 -12 -20 -8 -25 5 -4 2 -5 -5
-1 -7 4 -10 12 -7 17 4 5 -2 9 -11 9 -16 0 -16 1 1 20 14 15 21 17 32 9 11
-10 11 -15 -2 -29z m-1308 -112 c-2 -29 -3 -8 -3 47 0 55 1 79 3 53 2 -26 2
-71 0 -100z m1180 106 c-3 -3 -12 -4 -19 -1 -8 3 -5 6 6 6 11 1 17 -2 13 -5z
m-32 -14 c3 -5 2 -10 -4 -10 -5 0 -13 5 -16 10 -3 6 -2 10 4 10 5 0 13 -4 16
-10z m268 -20 c-7 -25 -33 -49 -33 -30 0 11 28 50 36 50 1 0 0 -9 -3 -20z
m-238 0 c-3 -5 -11 -10 -16 -10 -6 0 -7 5 -4 10 3 6 11 10 16 10 6 0 7 -4 4
-10z m286 -27 c8 -10 9 -14 2 -10 -6 4 -14 3 -18 -3 -4 -6 -11 -8 -16 -4 -6 4
-6 11 2 20 14 17 14 18 30 -3z m42 -24 c-6 -20 -53 -21 -53 -1 0 7 4 11 9 7 5
-3 12 -2 15 3 10 16 33 9 29 -9z m-926 -71 c-3 -8 -6 -5 -6 6 -1 11 2 17 5 13
3 -3 4 -12 1 -19z m443 -8 c0 -5 -4 -10 -9 -10 -6 0 -13 5 -16 10 -3 6 1 10 9
10 9 0 16 -4 16 -10z m-1455 -240 c10 -11 16 -20 13 -20 -3 0 -13 9 -23 20
-10 11 -16 20 -13 20 3 0 13 -9 23 -20z m1005 17 c0 -2 -10 -12 -22 -23 l-23
-19 19 23 c18 21 26 27 26 19z"/>
<path d="M3046 2776 c6 -15 4 -17 -6 -11 -9 6 -11 4 -5 -4 5 -9 10 -10 18 -2
8 8 7 14 -2 24 -10 10 -11 8 -5 -7z"/>
<path d="M3853 2684 c0 -14 23 -12 37 2 7 7 2 10 -13 10 -13 0 -24 -5 -24 -12z"/>
<path d="M3762 2599 c-2 -74 1 -88 18 -107 12 -12 24 -22 27 -22 4 0 -3 10
-15 23 -17 18 -22 37 -25 107 l-3 85 -2 -86z"/>
<path d="M4069 2606 c4 -6 11 -18 14 -26 3 -9 6 -5 6 11 1 16 -4 26 -14 26 -9
0 -11 -4 -6 -11z"/>
<path d="M3075 2500 c-3 -6 -10 -8 -15 -5 -5 3 -11 1 -15 -5 -4 -6 -11 -8 -16
-4 -5 3 -8 2 -7 -3 2 -4 -1 -8 -7 -8 -5 0 -9 4 -7 8 1 5 -2 6 -8 2 -8 -5 -8
-11 -1 -19 6 -7 8 -15 5 -19 -3 -3 2 -4 13 -3 10 2 18 8 18 14 0 7 5 12 10 13
6 0 18 8 28 16 9 9 18 13 18 10 1 -4 2 -11 3 -16 0 -6 6 -15 12 -21 9 -9 14
-8 20 2 14 23 13 36 -5 33 -9 -1 -21 2 -28 7 -7 5 -14 5 -18 -2z m49 -18 c3
-5 -1 -9 -9 -9 -8 0 -12 4 -9 9 3 4 7 8 9 8 2 0 6 -4 9 -8z"/>
<path d="M2651 2656 c-9 -11 -9 -16 1 -22 7 -4 10 -4 6 1 -4 4 -3 14 3 22 6 7
9 13 6 13 -2 0 -10 -6 -16 -14z"/>
<path d="M2650 2536 c0 -2 8 -10 18 -17 15 -13 16 -12 3 4 -13 16 -21 21 -21
13z"/>
</g>
</svg>
