<?xml version="1.0" standalone="no"?>
<!DOCTYPE svg PUBLIC "-//W3C//DTD SVG 20010904//EN"
 "http://www.w3.org/TR/2001/REC-SVG-20010904/DTD/svg10.dtd">
<svg version="1.0" xmlns="http://www.w3.org/2000/svg"
 width="500.000000pt" height="500.000000pt" viewBox="0 0 500.000000 500.000000"
 preserveAspectRatio="xMidYMid meet">
<metadata>
Created by potrace 1.16, written by Peter Selinger 2001-2019
</metadata>
<g transform="translate(0.000000,500.000000) scale(0.100000,-0.100000)"
fill="#000000" stroke="none">
<path d="M0 2500 l0 -2500 2500 0 2500 0 0 2500 0 2500 -2500 0 -2500 0 0
-2500z m1618 663 c-125 -2 -332 -2 -460 0 -128 1 -26 2 227 2 253 0 358 -1
233 -2z m-708 -6 c0 -2 -10 -12 -22 -23 l-23 -19 19 23 c18 21 26 27 26 19z
m981 -24 c13 -16 12 -17 -3 -4 -10 7 -18 15 -18 17 0 8 8 3 21 -13z m16 -45
c-3 -8 -6 -5 -6 6 -1 11 2 17 5 13 3 -3 4 -12 1 -19z m-269 -435 l-3 -258 -2
253 -3 252 -245 0 -244 0 -4 -42 -4 -43 -1 48 -2 47 255 0 255 0 -2 -257z
m766 205 c7 -10 20 -18 29 -18 10 0 14 -6 11 -14 -9 -22 33 -41 53 -24 13 10
12 6 -2 -16 -23 -34 -28 -59 -12 -49 7 4 16 8 21 8 5 0 10 8 12 18 1 9 -2 15
-7 11 -5 -3 -9 -3 -9 0 0 17 22 13 30 -6 10 -21 10 -21 5 5 -4 19 -2 26 5 22
5 -3 10 -14 10 -23 0 -15 2 -15 10 -2 9 13 10 13 10 0 0 -9 3 -11 8 -5 4 6 14
11 22 13 8 2 17 8 18 13 2 5 11 9 20 9 13 0 14 -2 4 -8 -7 -5 20 -8 60 -6 40
1 74 3 76 4 1 1 6 3 11 4 5 0 13 4 17 8 3 4 -2 6 -13 4 -12 -3 -20 1 -20 9 0
9 7 11 21 6 12 -4 27 -6 34 -5 6 1 30 2 53 3 29 1 40 5 36 14 -3 8 4 12 22 11
14 -1 30 1 34 3 19 11 180 8 184 -4 2 -6 16 -14 29 -17 14 -4 23 -10 20 -15
-3 -4 6 -13 20 -20 14 -6 22 -16 19 -21 -3 -6 1 -10 9 -10 8 0 18 5 21 10 4 6
10 8 14 6 4 -3 26 13 49 35 23 21 50 39 60 40 9 0 26 3 37 6 11 3 62 8 113 10
80 4 99 1 137 -17 25 -12 45 -28 45 -36 0 -8 5 -14 11 -14 7 0 9 -11 6 -27 -5
-27 -5 -27 12 -5 35 46 95 62 239 62 l132 0 0 -44 c0 -33 -4 -45 -18 -48 -15
-4 -17 1 -14 34 l4 38 -133 0 c-115 0 -138 -3 -166 -20 -51 -30 -63 -65 -63
-177 0 -116 16 -159 70 -185 39 -20 26 -25 -15 -6 -51 23 -67 68 -68 187 0 60
4 115 8 122 7 12 5 12 -6 1 -11 -10 -14 -44 -14 -136 0 -104 3 -127 18 -143
28 -31 21 -51 -20 -62 -86 -21 -84 -21 -117 12 -17 18 -32 39 -34 47 -2 8 -8
20 -13 26 -23 28 -103 19 -97 -11 2 -8 -6 -28 -17 -45 -18 -26 -43 -37 -77
-31 -5 0 -8 -2 -8 -7 0 -10 -52 -9 -68 2 -7 4 -16 6 -19 3 -9 -9 -42 28 -46
51 -2 12 -7 25 -11 29 -4 5 -6 3 -4 -2 2 -6 0 -10 -3 -10 -12 0 -39 -28 -38
-39 0 -7 2 -6 6 2 2 6 10 9 15 6 7 -4 8 -2 4 4 -10 16 -1 15 13 -1 8 -10 7
-14 -2 -15 -6 0 -23 -3 -35 -6 -18 -4 -22 -2 -18 10 3 9 1 12 -4 9 -6 -3 -10
-13 -10 -21 0 -17 -12 -18 -29 -1 -11 10 -12 9 -6 -2 6 -11 4 -13 -10 -7 -16
6 -16 4 -4 -11 7 -10 10 -15 5 -11 -4 4 -19 3 -32 -2 -15 -6 -26 -5 -30 2 -4
7 -3 8 4 4 8 -5 10 -2 6 9 -6 14 -7 14 -18 0 -14 -19 -70 -11 -59 9 3 6 1 6
-8 -1 -19 -18 -37 -16 -35 5 1 11 -5 16 -16 14 -10 -2 -18 3 -18 10 0 9 -3 9
-10 -2 -10 -16 -77 -23 -85 -9 -3 4 3 6 13 4 24 -4 46 10 38 24 -4 6 -13 8
-19 4 -17 -11 -31 -10 -39 2 -4 5 -8 1 -8 -11 0 -11 -6 -21 -14 -21 -8 0 -12
8 -9 21 4 21 4 21 -9 1 -7 -11 -23 -21 -36 -21 -17 -1 -20 2 -13 9 6 6 11 18
10 27 0 10 -2 11 -6 3 -2 -7 -9 -13 -14 -13 -6 0 -8 4 -5 9 4 5 -2 8 -11 7
-10 -2 -21 2 -25 8 -5 7 -8 6 -8 -4 0 -13 -1 -13 -11 0 -9 13 -10 13 -6 0 2
-8 14 -14 25 -14 12 1 22 -2 22 -6 0 -4 -13 -7 -29 -8 -21 0 -30 5 -34 20 -3
11 -10 17 -16 14 -5 -4 -12 -2 -16 4 -4 6 -11 8 -16 4 -15 -9 0 -23 21 -19 11
2 20 0 20 -6 0 -9 -27 -8 -45 2 -18 10 -94 2 -111 -12 -14 -12 -14 -14 3 -20
15 -6 13 -9 -14 -19 -18 -7 -33 -15 -33 -20 0 -4 -86 -8 -191 -7 -151 0 -193
3 -205 14 -7 8 -18 12 -22 9 -10 -6 -51 38 -53 57 -1 6 -5 -4 -9 -23 -4 -20
-7 45 -8 150 0 102 3 172 7 155 l6 -29 18 27 c9 15 15 27 12 27 -9 0 72 72 81
73 5 1 29 11 54 24 41 21 57 23 178 20 114 -2 136 -5 146 -19z m348 -53 c3 0
9 -2 12 -5 3 -3 -10 -6 -29 -6 -26 0 -32 3 -23 13 6 7 15 10 22 6 6 -4 14 -8
18 -8z m-248 -43 c3 -5 -1 -9 -9 -9 -8 0 -12 4 -9 9 3 4 7 8 9 8 2 0 6 -4 9
-8z m-1231 -95 l132 -3 -137 -2 -138 -2 2 48 1 47 4 -42 4 -42 132 -4z m214
-179 c-1 -51 -3 -12 -3 87 0 99 2 141 3 93 2 -48 2 -129 0 -180z m2363 144 c0
-63 4 -102 12 -110 13 -13 169 -17 181 -5 4 3 2 12 -3 18 -7 9 -6 16 5 25 13
11 15 7 15 -29 0 -37 6 -45 30 -43 5 0 5 -28 1 -59 -1 -4 -10 -9 -21 -12 -12
-3 -17 -1 -14 5 3 5 3 24 0 41 l-6 32 -91 -3 c-146 -5 -139 -11 -139 117 0 59
3 111 7 114 18 19 23 -1 23 -91z m567 54 c11 -17 12 -37 2 -30 -5 3 -9 -2 -9
-11 0 -9 4 -14 9 -11 18 11 5 -23 -21 -54 -21 -25 -27 -28 -32 -15 -3 9 -2 14
3 11 17 -11 35 26 36 70 0 32 -3 43 -12 40 -7 -3 -13 -1 -13 5 0 6 -5 7 -12 3
-6 -4 -8 -3 -5 4 8 12 44 5 54 -12z m-247 -31 c0 -8 6 -15 13 -16 10 0 10 -2
0 -6 -8 -3 -13 -23 -13 -49 0 -28 5 -44 13 -45 8 0 8 -2 -2 -6 -10 -4 -10 -7
-1 -13 8 -5 2 -11 -17 -17 l-28 -10 3 78 4 79 -111 0 c-67 0 -111 4 -111 10 0
6 48 10 125 10 104 0 125 -2 125 -15z m217 -8 c0 -8 -6 -14 -12 -14 -6 0 -12
6 -12 14 0 7 6 13 12 13 6 0 12 -6 12 -13z m-490 -59 c-2 -13 -4 -3 -4 22 0
25 2 35 4 23 2 -13 2 -33 0 -45z m430 40 c0 -7 -11 -13 -24 -13 -21 0 -22 1
-6 13 9 6 20 12 23 12 4 0 7 -6 7 -12z m-67 -8 c0 -5 -2 -10 -4 -10 -3 0 -8 5
-11 10 -3 6 -1 10 4 10 6 0 11 -4 11 -10z m121 -23 c-10 -9 -11 -8 -5 6 3 10
9 15 12 12 3 -3 0 -11 -7 -18z m-3054 -149 c-2 -29 -3 -8 -3 47 0 55 1 79 3
53 2 -26 2 -71 0 -100z m3103 132 c0 -5 -5 -10 -11 -10 -5 0 -7 5 -4 10 3 6 8
10 11 10 2 0 4 -4 4 -10z m-65 -40 c3 -5 -1 -10 -10 -10 -9 0 -13 5 -10 10 3
6 8 10 10 10 2 0 7 -4 10 -10z m56 -53 c-10 -9 -11 -8 -5 6 3 10 9 15 12 12 3
-3 0 -11 -7 -18z m-3526 -337 c10 -11 16 -20 13 -20 -3 0 -13 9 -23 20 -10 11
-16 20 -13 20 3 0 13 -9 23 -20z m1005 17 c0 -2 -10 -12 -22 -23 l-23 -19 19
23 c18 21 26 27 26 19z"/>
<path d="M3128 2843 c7 -3 16 -2 19 1 4 3 -2 6 -13 5 -11 0 -14 -3 -6 -6z"/>
<path d="M2495 2480 c-4 -6 -12 -7 -18 -4 -7 4 -8 3 -4 -2 4 -4 19 -9 32 -10
20 -1 23 2 14 13 -14 16 -16 16 -24 3z"/>
<path d="M2709 2433 c-13 -16 -12 -17 4 -4 9 7 17 15 17 17 0 8 -8 3 -21 -13z"/>
<path d="M2974 2392 c4 -3 14 -7 22 -8 9 -1 13 0 10 4 -4 3 -14 7 -22 8 -9 1
-13 0 -10 -4z"/>
</g>
</svg>
