<?xml version="1.0" standalone="no"?>
<!DOCTYPE svg PUBLIC "-//W3C//DTD SVG 20010904//EN"
 "http://www.w3.org/TR/2001/REC-SVG-20010904/DTD/svg10.dtd">
<svg version="1.0" xmlns="http://www.w3.org/2000/svg"
 width="500.000000pt" height="500.000000pt" viewBox="0 0 500.000000 500.000000"
 preserveAspectRatio="xMidYMid meet">
<metadata>
Created by potrace 1.16, written by Peter Selinger 2001-2019
</metadata>
<g transform="translate(0.000000,500.000000) scale(0.100000,-0.100000)"
fill="#000000" stroke="none">
<path d="M889 3134 l-24 -26 0 -464 0 -464 28 -27 27 -28 465 0 465 0 27 27
27 27 -1 468 -1 467 -27 23 -26 23 -468 0 -468 0 -24 -26z m751 -479 l0 -255
-45 0 -45 0 0 210 0 210 -210 0 -210 0 0 45 0 45 255 0 255 0 0 -255z m-150
-80 l0 -175 -45 0 -45 0 0 130 0 130 -135 0 -135 0 0 45 0 45 180 0 180 0 0
-175z m-160 -80 l0 -95 -100 0 -100 0 0 95 0 95 100 0 100 0 0 -95z"/>
<path d="M3784 2778 l-39 -36 0 -130 c0 -116 2 -132 20 -152 34 -38 77 -50
184 -50 91 0 100 2 106 20 3 11 3 29 0 40 -6 18 -16 20 -113 22 -59 0 -112 1
-118 1 -16 0 -17 219 -1 229 7 4 69 8 138 8 137 0 139 1 139 56 l0 24 -130 0
c-117 0 -130 -2 -131 -17 0 -16 -1 -16 -8 1 -7 18 -11 17 -47 -16z m176 18 c0
-2 -8 -10 -17 -17 -16 -13 -17 -12 -4 4 13 16 21 21 21 13z m-12 -336 c-7 -10
-14 -17 -17 -15 -4 4 18 35 25 35 2 0 -1 -9 -8 -20z"/>
<path d="M3900 2610 l0 -40 80 0 80 0 0 -39 c0 -38 1 -40 33 -39 17 1 35 6 39
12 4 6 8 41 8 79 l0 67 -120 0 -120 0 0 -40z m40 6 c0 -2 -8 -10 -17 -17 -16
-13 -17 -12 -4 4 13 16 21 21 21 13z"/>
</g>
</svg>
