<?xml version="1.0" standalone="no"?>
<!DOCTYPE svg PUBLIC "-//W3C//DTD SVG 20010904//EN"
 "http://www.w3.org/TR/2001/REC-SVG-20010904/DTD/svg10.dtd">
<svg version="1.0" xmlns="http://www.w3.org/2000/svg"
 width="500.000000pt" height="500.000000pt" viewBox="0 0 500.000000 500.000000"
 preserveAspectRatio="xMidYMid meet">
<metadata>
Created by potrace 1.16, written by Peter Selinger 2001-2019
</metadata>
<g transform="translate(0.000000,500.000000) scale(0.100000,-0.100000)"
fill="#000000" stroke="none">
<path d="M0 2500 l0 -2500 2500 0 2500 0 0 2500 0 2500 -2500 0 -2500 0 0
-2500z m1618 663 c-125 -2 -332 -2 -460 0 -128 1 -26 2 227 2 253 0 358 -1
233 -2z m-708 -6 c0 -2 -10 -12 -22 -23 l-23 -19 19 23 c18 21 26 27 26 19z
m998 -516 l-3 -466 -5 471 c-3 289 -9 477 -15 485 -5 8 -2 6 8 -4 16 -18 17
-53 15 -486z m-1041 447 c-3 -8 -6 -5 -6 6 -1 11 2 17 5 13 3 -3 4 -12 1 -19z
m771 -435 l-3 -258 -2 253 -3 252 -245 0 -244 0 -4 -42 -4 -43 -1 48 -2 47
255 0 255 0 -2 -257z m1555 209 c-2 -6 7 -9 18 -7 15 3 23 -2 26 -16 4 -15 8
-17 14 -8 6 10 11 5 19 -16 6 -16 17 -33 23 -37 9 -6 9 -8 -1 -8 -7 0 -11 -4
-8 -9 5 -7 27 -8 58 -2 4 0 9 9 12 19 4 9 22 27 41 40 31 19 47 22 148 22 128
0 166 -12 197 -62 11 -18 20 -25 25 -19 3 6 20 18 38 27 l31 17 -32 -32 -32
-33 0 -125 c0 -110 2 -128 20 -154 27 -36 73 -49 183 -49 51 0 87 -4 87 -10 0
-6 -46 -10 -117 -10 -95 0 -124 4 -147 18 -29 17 -31 17 -68 -1 -45 -23 -95
-29 -121 -15 -16 8 -18 19 -15 68 2 41 0 57 -9 56 -7 -1 -15 -4 -17 -7 -3 -2
-32 -4 -65 -3 l-60 2 -3 -46 c-3 -43 -5 -46 -42 -59 -84 -28 -126 -22 -126 18
0 17 -3 18 -20 9 -11 -6 -18 -16 -14 -22 4 -6 -1 -8 -13 -4 -13 4 -25 0 -34
-11 -13 -17 -13 -17 6 -3 16 11 17 11 8 0 -14 -15 -46 -23 -38 -9 4 5 -1 6 -9
3 -9 -3 -16 -11 -16 -16 0 -6 -6 -6 -14 1 -9 8 -16 8 -20 2 -5 -7 -15 -7 -31
-1 -23 9 -29 6 -26 -12 0 -4 -6 -5 -14 -2 -8 4 -15 10 -15 16 0 5 -5 6 -10 3
-6 -4 -7 -12 -3 -18 3 -7 -4 -3 -17 8 -14 12 -20 14 -15 5 7 -12 6 -13 -6 -4
-8 6 -23 14 -33 18 -14 5 -17 3 -10 -7 5 -7 2 -5 -8 5 -9 10 -21 18 -27 18 -6
0 -11 6 -11 13 0 8 -4 7 -10 -3 -7 -11 -10 -11 -10 -2 0 7 -5 10 -10 7 -6 -4
-7 -12 -4 -18 5 -9 3 -8 -6 0 -10 9 -17 10 -27 1 -10 -8 -12 -7 -8 4 5 11 0
15 -17 14 -13 -1 -22 -7 -20 -15 1 -7 -2 -10 -8 -6 -6 3 -8 10 -6 14 7 11 -38
8 -46 -4 -5 -6 -8 -5 -8 3 0 17 -20 15 -41 -4 -16 -15 -17 -14 -12 8 l6 23
-29 -25 c-16 -14 -23 -18 -16 -10 6 8 12 17 12 21 0 13 -29 18 -36 7 -5 -7 -2
-8 6 -3 9 6 11 4 6 -4 -5 -7 -20 -11 -36 -9 -15 1 -35 -4 -44 -11 -9 -7 -16
-9 -16 -4 0 5 -12 15 -26 21 -14 7 -23 8 -20 3 6 -9 -17 -18 -69 -27 -16 -3
-31 -9 -32 -12 -3 -7 -96 -6 -264 1 -71 3 -91 8 -110 25 -12 12 -26 22 -31 22
-4 0 -8 11 -8 24 0 14 -4 28 -10 31 -5 3 -8 51 -7 110 3 100 4 106 32 135 15
16 32 27 36 24 4 -2 10 4 14 15 3 11 22 34 41 51 l35 30 167 -2 c162 -3 167
-4 177 -25 5 -12 16 -24 25 -26 19 -4 70 12 70 23 0 4 11 10 25 12 14 3 25 1
25 -4 0 -5 6 -8 13 -5 6 2 21 -3 31 -12 11 -9 16 -11 12 -4 -4 7 2 17 13 23
17 9 20 8 14 -6 -4 -12 -3 -15 5 -10 7 4 12 2 12 -6 0 -9 3 -9 8 -2 4 6 24 10
45 9 22 -2 44 3 53 12 11 11 14 12 14 1 1 -8 4 -7 11 4 5 10 16 15 24 12 9 -4
15 0 15 7 0 11 2 11 9 0 5 -8 21 -15 34 -15 14 -1 24 1 21 5 -4 7 52 30 58 24
10 -10 59 -12 64 -3 5 7 2 8 -6 3 -7 -5 -11 -4 -7 1 8 13 183 10 180 -4z
m1237 -23 c0 -8 4 -8 13 -1 14 12 57 12 57 0 0 -4 13 -8 29 -8 16 0 31 -6 35
-15 3 -8 15 -15 27 -15 17 0 19 -3 10 -14 -8 -10 -9 -16 -1 -21 15 -9 13 -28
-2 -19 -7 4 -6 -1 4 -12 10 -12 16 -34 15 -61 -1 -23 1 -41 5 -40 3 1 6 -1 7
-5 3 -21 0 -28 -10 -28 -5 0 -7 6 -3 13 4 6 3 8 -1 4 -15 -13 -14 -36 1 -30
17 6 19 -13 2 -21 -10 -5 -10 -7 1 -12 11 -5 11 -8 0 -14 -10 -7 -10 -12 0
-23 8 -10 8 -16 1 -19 -6 -2 -12 -13 -13 -25 0 -12 -4 -20 -8 -17 -4 2 -13 -4
-20 -13 -10 -12 -10 -14 -1 -9 6 4 12 2 12 -3 0 -6 -8 -10 -17 -9 -36 3 -63
-2 -63 -11 0 -6 9 -8 20 -6 11 2 18 0 15 -5 -3 -5 -27 -7 -52 -3 -38 5 -45 4
-38 -8 7 -11 6 -12 -6 -2 -8 7 -28 10 -43 7 -15 -2 -34 1 -42 7 -12 10 -13 9
-8 -5 3 -9 2 -16 -3 -16 -10 0 -38 42 -35 53 1 5 -2 5 -8 2 -8 -5 -6 -13 6
-26 17 -19 16 -19 -14 -3 -18 8 -32 18 -32 20 0 3 6 2 13 -2 6 -4 9 -4 5 1 -4
4 -2 15 4 24 10 13 10 14 -2 4 -18 -16 -34 -17 -24 -1 4 7 3 8 -5 4 -6 -4 -9
-12 -6 -17 4 -5 2 -9 -3 -9 -5 0 -14 12 -21 27 -11 24 -10 25 4 13 13 -11 15
-10 9 4 -3 9 -16 17 -28 18 -11 1 -32 2 -46 3 -14 1 -35 2 -47 3 -14 1 -23 10
-26 25 -4 19 -4 18 -6 -5 -1 -24 3 -28 26 -28 21 0 24 -3 15 -12 -7 -7 -12
-22 -12 -34 0 -13 -8 -24 -20 -27 -16 -4 -20 0 -20 21 0 47 -9 51 -125 54
l-110 3 0 115 0 115 130 3 c86 2 126 -1 120 -7 -6 -6 -57 -12 -115 -13 l-104
-3 -1 -75 c-3 -118 -1 -120 95 -120 73 0 80 2 80 20 0 18 -7 20 -80 20 l-80 0
0 44 c0 35 4 45 20 49 17 4 20 0 20 -34 l0 -39 79 0 79 0 -2 35 c-2 19 0 32 5
30 4 -3 10 -1 14 5 4 6 -22 10 -74 10 -47 0 -81 4 -81 10 0 6 50 10 131 10
114 0 130 -2 125 -16 -3 -8 -2 -12 4 -9 6 3 10 20 10 36 0 23 4 29 18 27 11
-2 18 4 20 20 2 12 8 22 13 22 6 0 7 -5 3 -12 -4 -7 -3 -8 5 -4 6 4 9 11 6 16
-6 10 15 73 23 66 3 -3 11 -1 18 5 8 6 20 9 29 6 8 -4 17 -2 20 2 3 5 15 7 27
3 14 -3 19 -2 14 6 -4 7 -2 12 3 12 6 0 11 -5 11 -11z m-270 -53 c0 -35 -4
-45 -20 -49 -18 -4 -20 0 -20 35 l0 40 -140 -4 c-77 -2 -140 -2 -140 0 0 13
67 21 183 21 l137 1 0 -44z m107 -1 c0 -8 -4 -12 -9 -9 -5 3 -6 10 -3 15 9 13
12 11 12 -6z m-2994 -118 l132 -3 -137 -2 -138 -2 2 48 1 47 4 -42 4 -42 132
-4z m214 -179 c-1 -51 -3 -12 -3 87 0 99 2 141 3 93 2 -48 2 -129 0 -180z
m-350 -40 c-2 -29 -3 -8 -3 47 0 55 1 79 3 53 2 -26 2 -71 0 -100z m190 0 c-2
-29 -3 -8 -3 47 0 55 1 79 3 53 2 -26 2 -71 0 -100z m3300 -14 c-3 -3 -12 -4
-19 -1 -8 3 -5 6 6 6 11 1 17 -2 13 -5z m-3760 -246 c-3 -8 -6 -5 -6 6 -1 11
2 17 5 13 3 -3 4 -12 1 -19z m28 -38 c10 -11 16 -20 13 -20 -3 0 -13 9 -23 20
-10 11 -16 20 -13 20 3 0 13 -9 23 -20z m1005 17 c0 -2 -10 -12 -22 -23 l-23
-19 19 23 c18 21 26 27 26 19z m-953 -43 c-3 -3 -12 -4 -19 -1 -8 3 -5 6 6 6
11 1 17 -2 13 -5z m900 0 c-3 -3 -12 -4 -19 -1 -8 3 -5 6 6 6 11 1 17 -2 13
-5z"/>
<path d="M3442 2678 l3 -33 76 -3 c71 -3 76 -2 74 18 -2 33 -18 41 -89 47
l-67 5 3 -34z"/>
<path d="M2115 2690 c-3 -5 1 -10 10 -10 9 0 13 5 10 10 -3 6 -8 10 -10 10 -2
0 -7 -4 -10 -10z"/>
<path d="M3341 2654 c0 -11 3 -14 6 -6 3 7 2 16 -1 19 -3 4 -6 -2 -5 -13z"/>
<path d="M3341 2594 c0 -11 3 -14 6 -6 3 7 2 16 -1 19 -3 4 -6 -2 -5 -13z"/>
<path d="M2300 2539 c-11 -7 -4 -8 24 -4 22 3 42 8 45 10 9 10 -54 4 -69 -6z"/>
<path d="M3685 2481 c-3 -5 -2 -12 3 -15 5 -3 9 1 9 9 0 17 -3 19 -12 6z"/>
<path d="M4327 2813 c-10 -9 -9 -23 1 -23 5 0 9 7 9 15 0 17 -1 18 -10 8z"/>
<path d="M4565 2770 c3 -5 8 -10 11 -10 2 0 4 5 4 10 0 6 -5 10 -11 10 -5 0
-7 -4 -4 -10z"/>
<path d="M4576 2643 c-6 -14 -5 -15 5 -6 7 7 10 15 7 18 -3 3 -9 -2 -12 -12z"/>
<path d="M4203 2535 c0 -8 4 -15 9 -15 4 0 8 4 8 9 0 6 -4 12 -8 15 -5 3 -9
-1 -9 -9z"/>
<path d="M4475 2420 c-3 -5 -1 -10 4 -10 6 0 11 5 11 10 0 6 -2 10 -4 10 -3 0
-8 -4 -11 -10z"/>
</g>
</svg>
