<?xml version="1.0" standalone="no"?>
<!DOCTYPE svg PUBLIC "-//W3C//DTD SVG 20010904//EN"
 "http://www.w3.org/TR/2001/REC-SVG-20010904/DTD/svg10.dtd">
<svg version="1.0" xmlns="http://www.w3.org/2000/svg"
 width="500.000000pt" height="500.000000pt" viewBox="0 0 500.000000 500.000000"
 preserveAspectRatio="xMidYMid meet">
<metadata>
Created by potrace 1.16, written by Peter Selinger 2001-2019
</metadata>
<g transform="translate(0.000000,500.000000) scale(0.100000,-0.100000)"
fill="#000000" stroke="none">
<path d="M0 2500 l0 -2500 2500 0 2500 0 0 2500 0 2500 -2500 0 -2500 0 0
-2500z m1618 663 c-125 -2 -332 -2 -460 0 -128 1 -26 2 227 2 253 0 358 -1
233 -2z m-708 -6 c0 -2 -10 -12 -22 -23 l-23 -19 19 23 c18 21 26 27 26 19z
m981 -24 c13 -16 12 -17 -3 -4 -10 7 -18 15 -18 17 0 8 8 3 21 -13z m16 -45
c-3 -8 -6 -5 -6 6 -1 11 2 17 5 13 3 -3 4 -12 1 -19z m-269 -435 l-3 -258 -2
253 -3 252 -245 0 -244 0 -4 -42 -4 -43 -1 48 -2 47 255 0 255 0 -2 -257z
m1412 205 c0 -5 7 -2 16 7 11 11 20 13 27 6 6 -6 18 -6 33 -1 27 11 32 3 9
-14 -13 -9 -11 -11 9 -11 13 0 22 3 20 7 -2 4 10 3 28 -3 18 -5 34 -9 36 -9 2
0 0 -4 -3 -10 -4 -6 1 -7 11 -3 13 5 16 3 11 -10 -4 -11 -1 -17 9 -17 8 0 12
-5 9 -10 -4 -6 -11 -7 -17 -4 -7 4 -8 2 -4 -5 4 -6 11 -9 16 -6 5 3 11 1 15
-4 8 -14 35 -2 70 32 17 16 41 34 55 41 26 14 173 19 248 10 44 -5 92 -42 92
-69 0 -21 11 -19 75 15 55 29 61 30 191 30 l134 0 0 -44 c0 -33 -4 -45 -18
-48 -15 -4 -17 1 -14 34 l4 38 -131 0 c-135 0 -170 -8 -200 -44 -7 -9 -16 -14
-20 -12 -4 3 -8 -52 -9 -122 -2 -113 -1 -131 18 -160 11 -18 36 -40 55 -48 42
-17 44 -22 8 -18 -16 1 -28 3 -28 4 0 1 -11 3 -24 6 -13 2 -28 -2 -35 -10 -6
-8 -37 -17 -70 -21 -65 -7 -96 9 -96 50 0 12 -3 25 -7 29 -5 4 -8 12 -8 18 0
7 -24 11 -57 12 l-56 1 -7 -42 c-7 -49 -19 -61 -66 -67 -19 -3 -41 -7 -50 -11
-22 -8 -92 23 -86 39 7 18 -59 14 -76 -4 -10 -10 -9 -12 6 -7 22 8 23 -9 1
-17 -9 -4 -22 -2 -29 4 -10 8 -15 8 -21 -1 -5 -8 -3 -9 6 -4 8 5 11 4 7 -2 -8
-13 -57 -23 -57 -12 0 4 5 9 12 11 7 3 5 7 -6 11 -9 4 -15 3 -11 -2 14 -23
-59 -36 -77 -14 -13 16 -28 17 -28 2 0 -5 4 -8 9 -4 5 3 12 1 15 -4 11 -16
-11 -22 -24 -6 -7 8 -16 13 -20 10 -5 -3 -12 0 -16 6 -4 8 -3 9 4 5 7 -4 12
-3 12 3 0 5 -9 9 -19 8 -11 0 -18 -4 -15 -8 2 -4 -1 -11 -7 -15 -7 -4 -9 -3
-6 3 4 6 0 16 -8 23 -8 7 -15 9 -15 5 0 -4 -7 -1 -17 6 -18 15 -20 15 -44 -7
-15 -13 -19 -12 -37 11 -17 22 -24 24 -47 15 -14 -5 -24 -14 -20 -19 3 -5 0
-13 -7 -17 -7 -4 -10 -4 -6 1 4 4 2 15 -5 23 -9 13 -9 14 1 8 6 -4 12 -2 12 3
0 13 -10 14 -29 2 -7 -5 -11 -15 -7 -22 4 -8 1 -6 -6 3 -11 15 -13 15 -23 1
-10 -13 -13 -13 -26 4 -13 16 -13 17 4 4 9 -8 17 -9 17 -3 0 18 -24 20 -42 4
-16 -13 -18 -13 -24 2 -7 19 -24 21 -24 3 0 -8 -11 -12 -27 -11 -16 1 -28 3
-28 4 0 1 -9 3 -20 5 -21 4 -69 -21 -61 -33 4 -7 -22 -12 -74 -14 -14 -1 -28
-6 -32 -12 -5 -7 -8 -7 -8 -1 0 7 -52 10 -142 9 -106 -1 -148 2 -163 12 -12 8
-25 11 -29 7 -4 -5 -6 -1 -4 7 2 8 -3 14 -10 12 -8 -1 -11 2 -8 7 3 5 -1 14
-9 21 -8 7 -16 24 -17 39 0 16 -4 9 -8 -19 -4 -27 -7 21 -7 120 0 97 3 148 7
125 6 -31 7 -34 9 -12 0 15 6 27 13 27 6 0 9 3 6 6 -12 11 117 124 152 133 54
14 312 9 318 -6 2 -7 12 -13 22 -13 23 0 44 -26 36 -45 -3 -8 -1 -15 4 -15 6
0 10 6 10 14 0 8 5 18 12 22 7 4 8 3 4 -4 -4 -7 -2 -12 4 -12 6 0 9 -4 6 -8
-2 -4 5 -8 17 -9 12 0 16 1 10 4 -7 3 -13 10 -13 15 0 6 3 9 6 5 4 -3 14 3 24
15 13 17 17 18 17 5 0 -9 -4 -14 -9 -11 -4 3 -8 3 -8 0 0 -3 10 -10 21 -17 12
-6 19 -7 15 -1 -3 5 1 13 10 16 10 4 13 2 8 -7 -4 -6 3 -3 16 8 13 11 20 15
17 9 -4 -7 0 -14 8 -18 8 -3 14 -2 14 2 -3 19 3 22 17 7 9 -9 23 -14 30 -11 7
3 16 1 19 -4 10 -16 35 1 36 24 0 19 1 19 8 2 7 -17 8 -17 23 -2 11 10 18 12
20 5 3 -8 9 -6 20 4 15 15 17 15 23 0 3 -10 9 -13 13 -8 12 17 43 39 41 29 -3
-20 2 -24 15 -12 8 7 11 18 8 23 -3 6 4 2 15 -8 16 -14 23 -15 29 -6 5 8 3 10
-6 4 -8 -5 -11 -4 -7 3 4 5 18 9 32 7 14 -1 25 1 25 6 0 5 7 6 15 3 8 -4 15
-10 15 -16z m-345 -38 c3 -5 1 -10 -4 -10 -6 0 -11 5 -11 10 0 6 2 10 4 10 3
0 8 -4 11 -10z m40 1 c3 -5 2 -12 -3 -15 -5 -3 -9 1 -9 9 0 17 3 19 12 6z
m1700 -23 c5 4 5 1 1 -6 -6 -10 -11 -10 -22 -1 -8 6 -14 14 -14 16 0 3 6 0 13
-6 8 -6 18 -7 22 -3z m-108 -23 c0 -8 -4 -12 -9 -9 -5 3 -6 10 -3 15 9 13 12
11 12 -6z m80 -10 c4 -4 2 -5 -6 0 -10 6 -12 4 -7 -4 5 -7 16 -9 28 -5 16 5
19 3 12 -7 -6 -12 -5 -12 8 -1 12 10 18 9 28 -3 11 -13 8 -18 -10 -17 -3 0 -6
-8 -6 -19 0 -19 1 -18 18 3 17 21 19 22 29 5 6 -9 15 -15 21 -11 7 4 6 9 -2
14 -8 5 -9 13 -3 24 9 16 11 16 23 1 11 -13 10 -19 -9 -39 -17 -18 -19 -26
-10 -31 8 -6 10 -4 4 6 -5 8 1 5 14 -5 12 -11 19 -26 17 -33 -3 -7 3 -17 12
-22 9 -6 12 -11 5 -11 -7 0 -18 6 -25 14 -11 11 -16 10 -30 -7 -10 -11 -16
-23 -13 -25 3 -3 11 2 18 12 11 15 15 15 23 4 18 -23 24 -47 12 -54 -6 -4 -8
-3 -4 4 3 6 2 13 -4 17 -6 4 -7 11 -4 17 4 7 2 8 -4 4 -6 -4 -9 -13 -5 -21 3
-8 0 -15 -7 -15 -10 0 -10 -3 0 -15 7 -9 11 -17 9 -18 -2 -1 -12 -9 -22 -17
-16 -11 -18 -11 -15 1 2 8 10 17 17 20 11 4 10 7 -6 11 -19 5 -20 2 -17 -35 4
-35 3 -38 -12 -26 -23 19 -49 22 -33 3 6 -7 16 -11 23 -7 6 4 4 -1 -3 -11 -14
-17 -16 -16 -34 8 -17 24 -46 38 -32 17 3 -5 0 -11 -7 -14 -7 -2 -6 -3 4 -2 9
2 18 -5 21 -15 3 -12 0 -17 -12 -15 -9 2 -16 4 -16 5 0 1 -14 3 -32 4 -17 1
-41 10 -53 21 -25 22 -47 27 -57 13 -3 -6 -1 -8 5 -4 6 3 13 2 17 -4 4 -6 11
-7 17 -4 7 4 8 2 4 -5 -4 -6 -4 -10 1 -9 4 2 9 -1 11 -6 1 -6 -4 -11 -12 -12
-9 -1 -14 1 -13 4 1 4 -2 8 -8 10 -35 12 -52 57 -32 89 5 8 1 11 -13 8 -13 -2
-20 1 -20 11 0 8 -4 12 -10 9 -6 -4 -7 2 -1 17 6 15 5 31 -1 42 -8 15 -8 17 2
11 10 -6 12 -3 6 10 -5 15 -4 16 9 5 12 -10 15 -9 16 6 0 11 3 14 6 7 2 -7 11
-13 19 -13 9 0 12 5 9 10 -3 6 -2 10 4 10 5 0 11 -5 13 -12 2 -6 10 -8 16 -4
18 11 14 27 -5 24 -10 -2 -19 5 -21 16 -2 11 0 16 7 12 10 -6 16 13 12 37 -1
5 3 6 8 2 6 -3 8 -13 5 -23 -5 -15 -4 -15 6 1 9 14 15 16 26 6 11 -9 12 -15 3
-25 -15 -18 -2 -18 16 0 8 7 11 16 8 20 -3 3 -1 12 5 19 7 8 9 16 6 20 -3 3 1
4 10 3 8 -1 19 -6 23 -11z m96 7 c3 7 4 3 4 -9 -1 -13 -8 -23 -16 -23 -8 0
-11 3 -8 7 4 3 1 13 -6 22 -10 14 -10 14 5 3 13 -10 17 -10 21 0z m-228 -22
c-3 -5 -12 -10 -18 -10 -7 0 -6 4 3 10 19 12 23 12 15 0z m-3012 -83 l132 -3
-137 -2 -138 -2 2 48 1 47 4 -42 4 -42 132 -4z m214 -179 c-1 -51 -3 -12 -3
87 0 99 2 141 3 93 2 -48 2 -129 0 -180z m2373 144 c0 -63 4 -102 12 -110 7
-7 43 -12 91 -12 l79 0 -4 28 c-3 22 0 28 14 29 15 1 18 -6 18 -38 0 -36 2
-39 27 -39 21 0 24 -3 15 -12 -7 -7 -12 -22 -12 -34 0 -13 -8 -24 -20 -27 -12
-3 -17 -1 -14 5 3 5 3 24 0 41 l-6 32 -107 -3 c-93 -3 -109 -1 -120 14 -16 22
-18 176 -3 205 22 39 30 17 30 -79z m723 57 c-8 -8 -13 -7 -18 2 -6 8 -4 10 5
4 10 -6 12 -4 6 11 -6 15 -5 17 5 7 9 -10 10 -16 2 -24z m-398 -103 c0 -70 -2
-80 -20 -86 -19 -7 -20 -4 -16 71 l3 79 -111 0 c-69 0 -111 4 -111 10 0 7 45
10 128 8 l127 -3 0 -79z m-273 13 c3 -29 0 -36 -12 -34 -17 2 -21 42 -5 68 11
19 12 17 17 -34z m-2585 -151 c-2 -29 -3 -8 -3 47 0 55 1 79 3 53 2 -26 2 -71
0 -100z m3234 35 c12 -16 12 -17 -2 -6 -9 7 -20 9 -24 5 -5 -4 -5 -1 -1 6 9
16 11 15 27 -5z m-1801 -57 c0 -2 -8 -10 -17 -17 -16 -13 -17 -12 -4 4 13 16
21 21 21 13z m1711 -13 c13 -16 12 -17 -3 -4 -17 13 -22 21 -14 21 2 0 10 -8
17 -17z m-1987 -5 c-4 -5 -9 -7 -12 -4 -3 3 -11 1 -19 -5 -8 -8 -13 -8 -13 -1
0 11 16 19 37 19 7 0 10 -4 7 -9z m726 2 c0 -5 -2 -10 -4 -10 -3 0 -8 5 -11
10 -3 6 -1 10 4 10 6 0 11 -4 11 -10z m-353 -15 c0 -8 -4 -12 -9 -9 -5 3 -6
10 -3 15 9 13 12 11 12 -6z m-1962 -245 c10 -11 16 -20 13 -20 -3 0 -13 9 -23
20 -10 11 -16 20 -13 20 3 0 13 -9 23 -20z m1005 17 c0 -2 -10 -12 -22 -23
l-23 -19 19 23 c18 21 26 27 26 19z"/>
<path d="M2430 2815 c0 -8 7 -15 15 -15 8 0 15 4 15 9 0 5 -7 11 -15 15 -9 3
-15 0 -15 -9z"/>
<path d="M3460 2680 c12 -22 80 -32 87 -13 7 19 5 20 -49 25 -42 4 -46 3 -38
-12z"/>
<path d="M3725 2651 c-3 -5 -2 -12 3 -15 5 -3 9 1 9 9 0 17 -3 19 -12 6z"/>
<path d="M3725 2611 c-3 -5 -2 -12 3 -15 5 -3 9 1 9 9 0 17 -3 19 -12 6z"/>
<path d="M3725 2571 c-3 -5 -2 -12 3 -15 5 -3 9 1 9 9 0 17 -3 19 -12 6z"/>
<path d="M3725 2531 c-3 -5 -2 -12 3 -15 5 -3 9 1 9 9 0 17 -3 19 -12 6z"/>
<path d="M3734 2487 c1 -8 7 -21 14 -29 6 -8 10 -18 7 -21 -3 -4 -2 -5 2 -2 3
3 13 -1 22 -7 9 -7 3 2 -12 19 -16 17 -28 34 -27 38 1 4 -1 9 -3 12 -3 3 -5
-2 -3 -10z"/>
<path d="M2583 2435 c0 -8 4 -12 9 -9 4 3 8 9 8 15 0 5 -4 9 -8 9 -5 0 -9 -7
-9 -15z"/>
<path d="M2506 2431 c-4 -5 3 -7 14 -4 23 6 26 13 6 13 -8 0 -17 -4 -20 -9z"/>
<path d="M2810 2430 c0 -5 -7 -7 -15 -4 -19 8 -19 0 -1 -15 12 -10 17 -8 26 8
7 14 7 21 0 21 -5 0 -10 -4 -10 -10z"/>
<path d="M4410 2736 c0 -2 7 -9 15 -16 9 -7 15 -8 15 -2 0 5 -7 12 -15 16 -8
3 -15 4 -15 2z"/>
<path d="M4496 2665 c3 -8 10 -12 15 -9 5 3 9 1 9 -4 0 -6 9 -8 20 -5 11 3 17
9 14 14 -3 5 -9 7 -14 4 -5 -3 -19 -1 -30 5 -16 9 -18 8 -14 -5z"/>
<path d="M4228 2621 c-5 -22 2 -51 12 -51 13 0 22 34 10 38 -7 3 -8 8 -1 16 8
9 7 13 -3 13 -8 0 -16 -7 -18 -16z"/>
<path d="M4253 2527 c0 -7 9 -14 19 -14 10 -1 18 3 18 9 0 6 -3 8 -7 5 -3 -4
-11 -2 -18 3 -8 7 -12 6 -12 -3z"/>
<path d="M4305 2520 c3 -5 8 -10 11 -10 2 0 4 5 4 10 0 6 -5 10 -11 10 -5 0
-7 -4 -4 -10z"/>
</g>
</svg>
