<?xml version="1.0" standalone="no"?>
<!DOCTYPE svg PUBLIC "-//W3C//DTD SVG 20010904//EN"
 "http://www.w3.org/TR/2001/REC-SVG-20010904/DTD/svg10.dtd">
<svg version="1.0" xmlns="http://www.w3.org/2000/svg"
 width="500.000000pt" height="500.000000pt" viewBox="0 0 500.000000 500.000000"
 preserveAspectRatio="xMidYMid meet">
<metadata>
Created by potrace 1.16, written by Peter Selinger 2001-2019
</metadata>
<g transform="translate(0.000000,500.000000) scale(0.100000,-0.100000)"
fill="#000000" stroke="none">
<path d="M0 2500 l0 -2500 2500 0 2500 0 0 2500 0 2500 -2500 0 -2500 0 0
-2500z m1618 663 c-125 -2 -332 -2 -460 0 -128 1 -26 2 227 2 253 0 358 -1
233 -2z m-708 -6 c0 -2 -10 -12 -22 -23 l-23 -19 19 23 c18 21 26 27 26 19z
m981 -24 c13 -16 12 -17 -3 -4 -10 7 -18 15 -18 17 0 8 8 3 21 -13z m16 -45
c-3 -8 -6 -5 -6 6 -1 11 2 17 5 13 3 -3 4 -12 1 -19z m-269 -435 l-3 -258 -2
253 -3 252 -245 0 -244 0 -4 -42 -4 -43 -1 48 -2 47 255 0 255 0 -2 -257z
m1412 203 c0 -6 4 -5 9 3 5 8 16 11 25 8 9 -4 16 -2 16 2 0 5 8 8 18 6 9 -2
17 -4 17 -5 0 -1 14 -3 30 -5 53 -5 70 -12 70 -26 0 -7 11 -16 25 -19 16 -4
24 -12 22 -23 -2 -9 3 -17 10 -17 10 0 10 -2 -1 -9 -9 -6 -10 -11 -2 -15 17
-11 47 2 60 27 6 12 27 32 45 45 29 20 44 22 149 22 126 0 149 -7 193 -57 l21
-25 61 31 c60 30 65 31 197 31 l135 0 0 -44 c0 -35 -4 -45 -20 -49 -17 -4 -20
0 -20 34 l0 39 -120 0 c-129 0 -170 -10 -205 -50 -18 -20 -20 -36 -20 -150 0
-122 1 -130 24 -154 32 -34 78 -46 179 -46 48 0 82 -4 82 -10 0 -16 -214 -13
-254 4 -29 12 -37 12 -54 0 -11 -7 -22 -11 -25 -7 -4 3 -12 2 -19 -4 -19 -13
-87 -16 -102 -4 -7 6 -13 32 -15 58 -1 25 -4 50 -6 53 -4 7 -99 2 -122 -5 -7
-2 -10 -15 -7 -28 5 -28 -32 -81 -51 -73 -7 2 -17 0 -21 -4 -15 -15 -71 -15
-88 -1 -9 7 -16 10 -17 5 0 -5 -4 1 -9 14 -5 12 -14 22 -21 22 -6 0 -9 -7 -6
-15 4 -8 2 -17 -3 -20 -6 -4 -10 -1 -10 5 0 7 -6 10 -12 8 -7 -3 -13 -10 -13
-15 0 -6 -4 -15 -9 -20 -5 -4 -6 -3 -3 3 4 7 -2 14 -14 17 -16 4 -18 3 -9 -8
8 -10 8 -15 -1 -21 -7 -4 -9 -3 -6 3 8 12 -28 24 -48 16 -8 -2 -11 -12 -8 -21
4 -13 3 -14 -5 -3 -7 10 -14 11 -28 3 -14 -8 -23 -7 -36 5 -17 15 -18 15 -18
-2 0 -17 -1 -17 -22 1 -13 12 -18 13 -13 4 8 -13 6 -13 -8 -1 -9 7 -23 11 -31
8 -8 -3 -20 1 -26 8 -14 17 -34 10 -24 -8 4 -7 3 -8 -2 -4 -5 5 -9 16 -9 25 0
9 -7 17 -15 17 -8 0 -14 -7 -12 -15 3 -12 1 -12 -9 -3 -10 10 -16 10 -28 0 -9
-8 -12 -8 -8 -1 4 7 0 17 -9 25 -13 10 -16 9 -21 -10 -4 -16 -8 -19 -14 -10
-6 10 -11 10 -23 0 -17 -15 -22 -1 -6 15 6 6 3 10 -10 11 -13 1 -17 -3 -13
-13 4 -10 0 -12 -13 -7 -13 5 -15 3 -9 -8 6 -11 5 -12 -5 -2 -9 8 -18 9 -25 3
-8 -7 -12 -5 -12 5 0 8 4 12 9 9 4 -3 8 0 8 5 0 17 -11 13 -38 -11 -13 -13
-23 -18 -22 -13 5 24 -2 32 -29 31 -16 -1 -27 -3 -25 -5 2 -2 -6 -10 -19 -16
-18 -9 -25 -9 -39 3 -10 8 -15 19 -12 24 4 6 -3 5 -15 -2 -12 -6 -24 -17 -27
-25 -3 -8 -12 -11 -20 -8 -8 3 -21 -1 -30 -8 -12 -10 -55 -13 -158 -14 -82 0
-144 -4 -148 -10 -5 -6 -8 -6 -8 1 0 7 -15 15 -32 18 -51 9 -98 43 -111 79
l-12 32 -6 -40 c-3 -22 -6 37 -6 130 0 94 2 155 4 138 4 -30 23 -48 23 -22 0
18 117 129 152 143 41 17 313 22 323 6 3 -5 15 -10 26 -10 10 0 19 -5 19 -11
0 -5 -4 -7 -10 -4 -5 3 -10 1 -10 -5 0 -7 12 -9 30 -6 16 2 33 -1 36 -6 4 -6
2 -8 -4 -4 -6 3 -13 2 -17 -4 -13 -21 24 -9 39 12 13 18 16 19 16 5 0 -21 7
-22 26 -2 11 11 21 12 40 4 23 -8 25 -7 20 7 -5 13 -3 14 6 6 18 -14 50 -18
67 -8 10 6 12 5 7 -2 -4 -7 -1 -12 9 -12 9 0 14 3 12 8 -7 9 54 9 71 -1 7 -5
12 -3 12 7 0 10 8 13 30 10 17 -3 30 -1 30 3 0 5 25 8 56 8 33 0 60 5 66 13 8
9 14 9 23 2 10 -8 15 -8 21 1 5 8 3 9 -6 4 -8 -5 -11 -4 -6 3 8 13 36 5 36
-12z m1426 -15 c-5 -7 27 -24 44 -23 3 0 7 -9 7 -20 2 -26 30 -58 30 -34 0 8
-4 13 -9 10 -4 -3 -8 2 -8 10 0 8 5 18 12 22 7 4 8 3 4 -4 -4 -7 -1 -12 8 -12
21 0 40 -36 24 -46 -7 -4 -8 -3 -4 4 4 7 2 12 -3 12 -14 0 -14 -17 -1 -25 6
-3 11 -21 11 -38 l1 -32 8 30 8 30 1 -28 c1 -18 -7 -36 -21 -49 -13 -11 -17
-17 -10 -13 7 4 12 0 12 -10 0 -10 -5 -13 -12 -9 -7 4 -8 3 -4 -5 4 -6 12 -8
18 -5 7 5 9 -2 4 -22 -5 -21 -4 -25 4 -14 5 8 10 11 10 5 -1 -17 -27 -45 -35
-37 -5 4 -5 1 -1 -6 6 -9 11 -10 21 -2 9 8 11 4 7 -16 -2 -14 -7 -22 -11 -17
-3 4 -13 9 -21 11 -11 3 -9 -3 5 -20 12 -13 13 -18 4 -10 -13 10 -19 9 -30 -5
-12 -15 -12 -16 1 -8 8 4 12 4 7 0 -4 -5 1 -17 10 -28 13 -14 14 -18 3 -11
-23 13 -58 16 -65 4 -3 -5 1 -10 9 -10 9 0 16 -5 16 -10 0 -7 -7 -7 -20 0 -11
6 -18 15 -15 19 2 5 -4 11 -14 14 -14 3 -19 0 -16 -12 2 -11 -4 -16 -21 -16
-13 0 -24 3 -24 6 0 4 -6 9 -13 12 -8 3 -14 -1 -14 -9 0 -8 4 -14 9 -14 4 0 8
-4 8 -9 0 -10 -32 -7 -49 3 -5 4 -12 0 -14 -6 -3 -7 -6 -3 -6 10 -1 22 -15 30
-25 13 -10 -15 -41 -5 -38 11 1 9 -5 18 -13 22 -10 3 -13 11 -9 18 5 9 2 8
-10 -1 -14 -12 -17 -12 -14 -1 2 8 -2 14 -9 15 -6 0 -15 4 -20 9 -5 5 -3 6 5
2 6 -4 12 -2 12 3 0 6 4 10 9 8 5 -1 9 3 9 8 0 6 -4 9 -10 7 -5 -1 -8 20 -7
51 1 29 -2 60 -6 68 -15 22 -14 36 1 36 11 0 11 -3 1 -16 -11 -14 -10 -14 5
-2 10 7 15 18 11 25 -11 17 -12 37 -2 30 5 -3 7 -10 4 -15 -4 -5 1 -9 9 -9 19
0 20 11 4 29 -8 9 -8 11 -2 8 7 -4 15 0 18 8 3 8 11 14 17 13 6 -2 14 3 17 11
3 9 0 11 -8 6 -9 -5 -11 -4 -6 4 4 6 12 9 17 6 5 -4 9 2 10 12 0 15 2 14 11
-4 6 -13 15 -23 21 -23 6 0 5 5 -1 13 -7 8 -5 18 8 34 15 19 19 20 24 7 3 -8
2 -13 -3 -10 -5 3 -14 -1 -21 -9 -15 -18 -9 -19 24 -3 20 9 23 14 15 25 -9 11
-8 12 5 7 9 -3 16 -13 16 -20 0 -12 3 -12 14 -2 8 7 12 16 10 20 -2 4 0 9 6
13 5 3 10 0 10 -7 0 -8 5 -6 11 5 5 9 12 17 15 17 3 0 3 -4 0 -9z m-3203 -174
l132 -3 -137 -2 -138 -2 2 48 1 47 4 -42 4 -42 132 -4z m214 -179 c-1 -51 -3
-12 -3 87 0 99 2 141 3 93 2 -48 2 -129 0 -180z m2603 232 c0 -6 -43 -10 -110
-10 l-110 0 0 -88 c0 -55 4 -92 12 -100 7 -7 43 -12 90 -12 71 0 78 2 78 20 0
18 -7 20 -85 20 l-85 0 0 44 c0 35 4 45 20 49 17 4 20 0 20 -34 l0 -39 80 0
80 0 0 -40 c0 -36 3 -40 25 -40 14 0 25 -4 25 -10 0 -5 -4 -10 -10 -10 -5 0
-10 -11 -10 -24 0 -15 -7 -26 -20 -29 -17 -4 -20 0 -20 34 l0 39 -108 0 c-71
0 -112 4 -120 12 -16 16 -16 200 0 216 15 15 248 17 248 2z m100 -134 c0 -74
-2 -84 -19 -89 -38 -9 -71 4 -72 29 -1 13 -2 30 -3 37 -1 6 1 29 5 50 l6 37
-83 0 c-49 0 -84 4 -84 10 0 6 48 10 125 10 l125 0 0 -84z m429 57 c-7 -10
-14 -19 -15 -21 -1 -2 -4 4 -8 13 -3 9 -2 13 3 10 5 -3 12 -1 16 5 3 5 9 10
12 10 3 0 -1 -8 -8 -17z m2 -36 c-10 -9 -11 -8 -5 6 3 10 9 15 12 12 3 -3 0
-11 -7 -18z m-414 -44 c-3 -10 -5 -4 -5 12 0 17 2 24 5 18 2 -7 2 -21 0 -30z
m-3070 -115 c-2 -29 -3 -8 -3 47 0 55 1 79 3 53 2 -26 2 -71 0 -100z m190 0
c-2 -29 -3 -8 -3 47 0 55 1 79 3 53 2 -26 2 -71 0 -100z m1140 -41 c0 -8 -6
-14 -14 -14 -9 0 -10 4 -2 14 6 7 12 13 14 13 1 0 2 -6 2 -13z m2003 -12 c0
-12 -19 -12 -23 0 -4 9 -1 12 9 8 7 -3 14 -7 14 -8z m-2563 -207 c-3 -8 -6 -5
-6 6 -1 11 2 17 5 13 3 -3 4 -12 1 -19z m-1012 -38 c10 -11 16 -20 13 -20 -3
0 -13 9 -23 20 -10 11 -16 20 -13 20 3 0 13 -9 23 -20z m1005 17 c0 -2 -10
-12 -22 -23 l-23 -19 19 23 c18 21 26 27 26 19z m-953 -43 c-3 -3 -12 -4 -19
-1 -8 3 -5 6 6 6 11 1 17 -2 13 -5z m900 0 c-3 -3 -12 -4 -19 -1 -8 3 -5 6 6
6 11 1 17 -2 13 -5z"/>
<path d="M3447 2694 c-3 -4 -2 -15 4 -25 8 -15 21 -19 69 -19 60 0 66 4 54 34
-5 12 -20 16 -63 16 -32 0 -61 -3 -64 -6z"/>
<path d="M2501 2426 c-8 -10 -9 -16 -1 -21 5 -3 10 -5 11 -3 4 18 7 38 4 38
-1 0 -8 -6 -14 -14z"/>
<path d="M4465 2810 c-3 -5 -5 -10 -3 -11 26 -6 35 -4 35 7 0 16 -23 19 -32 4z"/>
<path d="M4286 2433 c-6 -14 -5 -15 5 -6 7 7 10 15 7 18 -3 3 -9 -2 -12 -12z"/>
</g>
</svg>
