<?xml version="1.0" standalone="no"?>
<!DOCTYPE svg PUBLIC "-//W3C//DTD SVG 20010904//EN"
 "http://www.w3.org/TR/2001/REC-SVG-20010904/DTD/svg10.dtd">
<svg version="1.0" xmlns="http://www.w3.org/2000/svg"
 width="500.000000pt" height="500.000000pt" viewBox="0 0 500.000000 500.000000"
 preserveAspectRatio="xMidYMid meet">
<metadata>
Created by potrace 1.16, written by Peter Selinger 2001-2019
</metadata>
<g transform="translate(0.000000,500.000000) scale(0.100000,-0.100000)"
fill="#000000" stroke="none">
<path d="M0 2500 l0 -2500 2500 0 2500 0 0 2500 0 2500 -2500 0 -2500 0 0
-2500z m1618 663 c-125 -2 -332 -2 -460 0 -128 1 -26 2 227 2 253 0 358 -1
233 -2z m-708 -6 c0 -2 -10 -12 -22 -23 l-23 -19 19 23 c18 21 26 27 26 19z
m981 -24 c13 -16 12 -17 -3 -4 -10 7 -18 15 -18 17 0 8 8 3 21 -13z m16 -45
c-3 -8 -6 -5 -6 6 -1 11 2 17 5 13 3 -3 4 -12 1 -19z m-269 -435 l-3 -258 -2
253 -3 252 -245 0 -244 0 -4 -42 -4 -43 -1 48 -2 47 255 0 255 0 -2 -257z
m762 202 c7 -8 20 -15 29 -16 9 0 11 -3 4 -5 -17 -7 -4 -34 17 -34 10 0 23 -7
30 -15 9 -10 9 -15 1 -15 -6 0 -11 -7 -11 -15 0 -11 5 -10 21 6 11 11 27 18
34 15 9 -3 12 0 9 8 -3 7 2 16 11 20 9 3 14 2 11 -2 -2 -4 33 -7 80 -6 52 1
84 -2 84 -8 0 -6 6 -5 15 2 9 7 25 13 37 14 13 1 28 12 35 26 9 18 13 20 13 8
0 -10 7 -18 16 -18 8 0 13 4 10 8 -3 5 1 9 9 9 8 0 12 -4 9 -9 -3 -4 0 -8 5
-8 6 0 11 6 11 13 0 6 14 13 33 14 17 1 43 5 55 8 13 3 21 2 18 -3 -7 -11 40
-9 51 2 5 5 2 6 -6 1 -9 -5 -12 -4 -7 3 9 16 69 15 84 0 17 -17 42 -19 36 -3
-4 10 6 9 40 -3 25 -9 46 -22 46 -28 0 -6 7 -17 15 -24 8 -7 12 -16 9 -21 -5
-9 17 -13 46 -9 8 1 32 18 53 38 20 20 37 32 37 27 0 -6 4 -4 9 4 18 27 165
40 249 21 43 -10 72 -32 92 -69 10 -20 12 -20 43 -5 l32 16 -30 -31 -30 -32 0
-129 c0 -114 2 -130 20 -150 33 -37 78 -50 175 -50 53 0 90 -4 90 -10 0 -16
-215 -13 -255 4 -31 13 -36 13 -43 -1 -5 -8 -24 -16 -43 -17 -19 -1 -39 -4
-45 -8 -28 -18 -89 46 -80 85 2 9 1 15 -4 12 -4 -3 -13 1 -19 9 -8 9 -26 12
-53 10 -23 -2 -43 -6 -44 -7 -2 -2 -5 -20 -8 -42 -5 -36 -17 -53 -41 -56 -5
-1 -19 -3 -30 -4 -11 -2 -33 -6 -49 -10 -19 -5 -27 -4 -22 3 4 6 -2 8 -14 5
-12 -3 -20 -2 -19 3 4 21 -2 26 -16 14 -12 -10 -14 -8 -10 8 2 12 -5 28 -16
38 -11 10 -19 14 -17 9 3 -11 -29 -61 -39 -58 -3 1 -10 7 -14 15 -7 10 -9 8
-9 -6 0 -16 -3 -17 -12 -8 -7 7 -17 12 -23 12 -5 0 -3 -5 5 -10 11 -7 11 -10
2 -10 -7 0 -11 -4 -8 -8 3 -5 -20 -8 -50 -8 -37 1 -58 6 -64 16 -9 14 -15 7
-11 -14 1 -5 -4 -5 -11 1 -7 6 -21 9 -31 8 -11 -2 -15 1 -10 8 4 7 -1 6 -10
-2 -13 -10 -17 -10 -17 -1 0 7 -7 10 -15 6 -8 -3 -18 0 -22 7 -5 7 -15 12 -23
12 -8 0 -14 6 -12 14 3 12 0 12 -12 1 -15 -12 -21 -7 -16 15 1 6 -4 4 -11 -2
-10 -10 -17 -9 -33 5 -18 15 -19 15 -8 0 12 -15 10 -17 -17 -16 -18 1 -28 5
-24 11 3 6 1 7 -5 3 -5 -3 -12 -3 -15 1 -2 5 -2 2 -1 -4 2 -7 0 -13 -4 -14 -4
0 -15 -2 -24 -4 -10 -2 -21 2 -25 7 -4 7 -1 8 8 3 11 -7 11 -5 -1 10 -14 17
-15 17 -18 1 -3 -12 -9 -15 -20 -11 -35 14 -72 13 -82 -4 -8 -13 -9 -12 -10 8
0 20 -2 22 -16 10 -9 -7 -25 -14 -36 -16 -11 -2 -31 -12 -45 -23 -14 -11 -32
-20 -39 -20 -8 0 -14 -4 -14 -9 0 -5 -53 -8 -117 -7 -65 2 -123 -1 -130 -6 -6
-5 -14 -5 -17 0 -3 5 -21 7 -42 6 -53 -5 -144 51 -128 78 4 7 2 8 -4 4 -8 -5
-13 2 -14 21 -1 15 -4 3 -8 -27 -4 -34 -7 14 -7 125 0 102 3 163 7 140 4 -22
8 -31 9 -20 1 21 133 158 161 168 8 3 81 6 161 6 119 1 149 -2 159 -14z m104
-55 c4 0 4 5 0 12 -4 7 -3 8 4 4 6 -4 9 -13 5 -21 -7 -19 -5 -20 -34 12 -17
20 -18 23 -3 10 11 -9 24 -17 28 -17z m1636 -14 c0 -35 -4 -45 -20 -49 -17 -4
-20 0 -20 34 l0 39 -132 0 c-90 0 -128 3 -118 10 8 5 77 10 153 10 l137 0 0
-44z m-2867 -119 l132 -3 -137 -2 -138 -2 2 48 1 47 4 -42 4 -42 132 -4z m214
-179 c-1 -51 -3 -12 -3 87 0 99 2 141 3 93 2 -48 2 -129 0 -180z m2879 244 c0
-10 -6 -19 -13 -19 -8 0 -9 6 -2 19 5 10 11 18 12 18 2 0 3 -8 3 -18z m41 -7
c0 -8 -7 -17 -14 -19 -8 -3 -11 -10 -8 -16 3 -5 1 -10 -6 -10 -18 0 -5 -10 20
-15 14 -3 21 1 21 12 0 13 -2 14 -17 2 -17 -13 -17 -13 -2 11 11 16 26 25 45
25 16 0 35 5 43 9 10 6 12 5 7 -2 -5 -8 1 -12 16 -12 18 0 20 -2 8 -10 -8 -5
-24 -7 -35 -4 -16 4 -17 3 -5 -5 8 -6 29 -11 45 -12 l30 -2 -28 -4 c-34 -5
-26 -23 11 -24 18 0 22 -3 12 -7 -21 -10 -23 -32 -2 -33 9 -1 4 -4 -13 -8 -22
-5 -29 -12 -27 -26 2 -17 1 -17 -7 -5 -6 8 -11 12 -11 8 0 -3 -3 -13 -6 -22
-5 -12 0 -16 17 -16 22 0 22 0 3 -15 -24 -18 -58 -20 -48 -2 6 8 3 8 -9 -1 -9
-8 -21 -11 -27 -7 -5 3 -10 0 -10 -7 0 -10 -14 -14 -45 -14 -39 1 -43 3 -28
13 9 7 12 13 6 13 -7 0 -19 -7 -27 -16 -14 -14 -16 -13 -14 13 1 15 9 34 18
41 13 12 13 13 -2 8 -19 -6 -25 9 -8 19 6 3 10 14 10 23 0 12 -3 13 -12 4 -15
-15 -31 -16 -22 -1 4 7 1 10 -7 7 -8 -3 -13 -10 -12 -15 1 -5 -4 -10 -11 -10
-6 0 -12 11 -12 23 0 12 5 22 11 21 5 -1 9 3 8 9 -1 7 10 11 28 10 17 -1 32 1
35 6 10 16 27 8 59 -28 32 -35 32 -35 37 -11 4 19 1 24 -11 22 -9 -1 -24 4
-34 13 -16 14 -16 17 -2 39 9 12 12 23 8 23 -6 0 16 19 23 20 0 0 1 -7 1 -15z
m-327 -5 c0 -6 -43 -10 -110 -10 l-111 0 3 -97 3 -98 83 -3 c77 -3 82 -2 82
18 0 18 -6 20 -80 20 l-80 0 0 44 c0 35 4 45 20 49 17 4 20 0 20 -34 l0 -39
80 0 80 0 0 -40 c0 -36 3 -40 25 -40 14 0 25 -4 25 -10 0 -5 -4 -10 -10 -10
-5 0 -10 -11 -10 -24 0 -15 -7 -26 -20 -29 -17 -4 -20 0 -20 34 l0 39 -110 0
c-131 0 -130 -1 -130 120 0 122 -2 120 140 120 73 0 120 -4 120 -10z m100
-135 c0 -72 -2 -83 -18 -88 -17 -4 -19 2 -17 74 l2 79 -108 0 c-62 0 -109 4
-109 9 0 12 62 17 168 13 l82 -3 0 -84z m127 89 c-3 -3 -12 -4 -19 -1 -8 3 -5
6 6 6 11 1 17 -2 13 -5z m-2980 -226 c-2 -29 -3 -8 -3 47 0 55 1 79 3 53 2
-26 2 -71 0 -100z m3114 36 c-18 -13 -20 -19 -10 -30 10 -12 9 -13 -5 -8 -28
11 -17 49 16 51 l21 2 -22 -15z m-54 -26 c-3 -8 -6 -5 -6 6 -1 11 2 17 5 13 3
-3 4 -12 1 -19z m-1152 -28 c3 -5 -1 -10 -10 -10 -9 0 -13 5 -10 10 3 6 8 10
10 10 2 0 7 -4 10 -10z m1155 4 c0 -8 -19 -13 -24 -6 -3 5 1 9 9 9 8 0 15 -2
15 -3z m-3495 -284 c10 -11 16 -20 13 -20 -3 0 -13 9 -23 20 -10 11 -16 20
-13 20 3 0 13 -9 23 -20z m1005 17 c0 -2 -10 -12 -22 -23 l-23 -19 19 23 c18
21 26 27 26 19z"/>
<path d="M3474 2674 c25 -18 86 -20 68 -2 -7 7 -29 13 -50 14 -34 2 -36 1 -18
-12z"/>
<path d="M2480 2460 c-13 -8 -12 -10 3 -10 9 0 17 5 17 10 0 12 -1 12 -20 0z"/>
<path d="M3069 2418 c-5 -18 -6 -38 -1 -34 7 8 12 36 6 36 -2 0 -4 -1 -5 -2z"/>
<path d="M2956 2402 c-3 -5 1 -9 9 -9 8 0 12 4 9 9 -3 4 -7 8 -9 8 -2 0 -6 -4
-9 -8z"/>
<path d="M3026 2392 c-3 -5 1 -9 9 -9 8 0 12 4 9 9 -3 4 -7 8 -9 8 -2 0 -6 -4
-9 -8z"/>
<path d="M4339 2646 c9 -11 9 -15 -1 -19 -10 -4 -10 -8 2 -21 14 -14 15 -13
16 14 1 17 -4 31 -14 35 -12 4 -12 3 -3 -9z"/>
<path d="M4264 2628 l-19 -23 25 20 c14 11 27 21 29 22 2 2 0 3 -6 3 -5 0 -18
-10 -29 -22z"/>
<path d="M4484 2628 c-4 -7 -4 -10 1 -6 4 4 15 2 24 -5 14 -11 14 -10 2 6 -16
20 -18 21 -27 5z"/>
<path d="M4370 2617 c0 -9 6 -17 13 -17 8 0 7 -4 -3 -10 -9 -6 -10 -10 -3 -10
19 0 22 14 7 35 -12 16 -14 17 -14 2z"/>
<path d="M4440 2620 c0 -5 5 -10 10 -10 6 0 10 5 10 10 0 6 -4 10 -10 10 -5 0
-10 -4 -10 -10z"/>
<path d="M4474 2595 c-10 -8 -14 -15 -8 -15 6 0 17 7 24 15 16 19 9 19 -16 0z"/>
<path d="M4387 2553 c-2 -4 -1 -17 3 -28 7 -19 8 -19 15 -2 8 18 -9 46 -18 30z"/>
<path d="M4441 2546 c-13 -7 -20 -15 -15 -18 5 -3 18 3 28 13 23 22 20 23 -13
5z"/>
<path d="M4315 2540 c-3 -5 1 -10 9 -10 9 0 16 5 16 10 0 6 -4 10 -9 10 -6 0
-13 -4 -16 -10z"/>
</g>
</svg>
