<?xml version="1.0" standalone="no"?>
<!DOCTYPE svg PUBLIC "-//W3C//DTD SVG 20010904//EN"
 "http://www.w3.org/TR/2001/REC-SVG-20010904/DTD/svg10.dtd">
<svg version="1.0" xmlns="http://www.w3.org/2000/svg"
 width="500.000000pt" height="500.000000pt" viewBox="0 0 500.000000 500.000000"
 preserveAspectRatio="xMidYMid meet">
<metadata>
Created by potrace 1.16, written by Peter Selinger 2001-2019
</metadata>
<g transform="translate(0.000000,500.000000) scale(0.100000,-0.100000)"
fill="#000000" stroke="none">
<path d="M0 2500 l0 -2500 2500 0 2500 0 0 2500 0 2500 -2500 0 -2500 0 0
-2500z m1618 663 c-125 -2 -332 -2 -460 0 -128 1 -26 2 227 2 253 0 358 -1
233 -2z m-708 -6 c0 -2 -10 -12 -22 -23 l-23 -19 19 23 c18 21 26 27 26 19z
m981 -24 c13 -16 12 -17 -3 -4 -10 7 -18 15 -18 17 0 8 8 3 21 -13z m16 -60
c-3 -10 -5 -4 -5 12 0 17 2 24 5 18 2 -7 2 -21 0 -30z m-269 -420 l-3 -258 -2
253 -3 252 -245 0 -244 0 -4 -42 -4 -43 -1 48 -2 47 255 0 255 0 -2 -257z
m1420 211 c12 0 22 3 22 7 0 5 11 4 25 -1 15 -6 27 -6 30 0 8 13 35 1 35 -15
0 -10 7 -11 32 -4 24 7 29 6 20 -3 -15 -15 -16 -32 -2 -23 13 8 42 -14 35 -25
-3 -4 1 -12 8 -17 29 -23 47 -21 79 9 57 54 100 66 223 64 93 -1 114 -4 137
-21 15 -11 28 -26 28 -32 0 -7 5 -13 10 -13 6 0 10 -7 10 -15 0 -13 4 -13 27
2 l27 18 -24 -33 c-23 -31 -25 -42 -25 -151 0 -96 3 -122 18 -145 28 -42 73
-56 182 -56 62 0 94 -4 90 -10 -4 -6 -54 -10 -118 -10 -90 0 -118 4 -142 18
-29 18 -30 18 -45 0 -14 -17 -57 -29 -104 -29 -30 0 -56 31 -56 67 0 22 -6 37
-18 43 -24 13 -115 7 -120 -8 -2 -6 1 -11 7 -11 14 0 -10 -50 -33 -69 -9 -8
-29 -14 -46 -15 -16 0 -30 -4 -30 -8 0 -5 -9 -8 -21 -8 -13 0 -18 4 -13 13 5
8 2 8 -9 -2 -12 -9 -17 -10 -17 -2 0 7 -4 10 -9 6 -12 -7 -36 34 -32 54 2 10
-2 10 -14 -3 -9 -9 -21 -16 -26 -16 -6 0 -7 -5 -3 -12 5 -8 -2 -9 -24 -5 -19
4 -34 2 -38 -5 -4 -7 -3 -8 4 -4 8 4 12 0 12 -10 0 -14 3 -15 12 -6 7 7 17 12
23 12 12 -1 -26 -24 -40 -25 -5 0 -13 4 -18 10 -5 6 -11 4 -18 -7 -8 -15 -13
-16 -29 -6 -10 7 -16 17 -12 23 3 5 -2 4 -11 -4 -9 -7 -14 -18 -10 -24 3 -6 1
-7 -6 -3 -6 4 -9 12 -6 17 4 5 2 9 -4 9 -5 0 -11 -5 -13 -11 -3 -8 -15 -6 -41
5 -25 10 -35 11 -30 3 4 -7 -5 -4 -21 6 -15 10 -30 16 -34 13 -3 -3 0 -6 6 -6
7 0 12 -6 12 -12 -1 -7 -9 -3 -19 9 -10 12 -21 19 -25 16 -3 -4 -13 2 -21 13
-15 19 -15 19 -8 -1 6 -18 4 -18 -20 4 -16 15 -27 19 -27 12 0 -8 -6 -11 -16
-7 -8 3 -12 2 -9 -3 3 -5 1 -12 -5 -16 -5 -3 -10 1 -10 11 0 14 -2 14 -16 3
-13 -10 -19 -10 -36 0 -11 7 -17 8 -14 3 3 -5 -2 -16 -12 -23 -15 -13 -16 -12
-3 4 7 9 12 17 10 18 -2 1 -30 2 -61 3 -38 2 -55 -1 -51 -8 4 -6 -1 -4 -11 4
-22 17 -46 22 -43 8 1 -6 -4 -13 -12 -16 -8 -3 -11 0 -7 7 4 6 1 11 -6 11 -10
0 -9 3 2 11 13 9 13 10 0 6 -8 -2 -14 -10 -12 -16 1 -6 -2 -11 -8 -11 -5 0
-10 5 -10 11 0 8 -5 7 -15 -1 -9 -7 -13 -20 -10 -28 3 -10 0 -12 -10 -8 -8 3
-15 1 -15 -5 0 -6 -7 -8 -16 -5 -9 4 -22 2 -28 -2 -18 -15 -56 -21 -62 -11 -4
6 -11 6 -19 -1 -10 -8 -15 -8 -20 0 -5 8 -11 8 -21 -1 -11 -9 -14 -9 -14 0 0
8 -5 9 -17 2 -11 -6 -24 -6 -35 0 -13 7 -18 6 -18 -3 0 -9 -3 -9 -12 0 -8 8
-15 9 -25 1 -9 -9 -13 -8 -13 0 0 9 -5 9 -21 0 -17 -8 -20 -8 -14 1 5 9 1 10
-15 5 -17 -6 -21 -4 -14 6 6 11 5 12 -8 2 -12 -11 -22 -8 -56 16 -22 17 -43
39 -47 51 -4 13 -12 19 -21 16 -12 -4 -14 16 -13 122 1 82 4 115 9 92 l7 -35
2 32 c1 38 10 63 22 63 5 0 33 25 62 55 30 31 63 57 75 58 12 1 22 5 22 9 0 5
65 8 145 7 80 -1 145 -5 145 -9 0 -4 8 -7 17 -6 12 1 19 -7 21 -23 2 -13 12
-26 24 -29 13 -3 16 -7 8 -12 -7 -4 -1 -7 14 -7 15 0 29 4 33 10 4 6 0 8 -10
4 -10 -3 -17 -2 -17 3 0 13 16 13 40 0 13 -7 21 -7 26 2 4 7 3 8 -4 4 -7 -4
-12 -2 -12 3 0 15 27 14 34 -1 5 -10 7 -10 12 0 5 10 9 10 20 1 12 -10 13 -9
8 5 -4 10 -1 16 9 16 8 0 17 -5 19 -12 3 -7 13 -5 31 7 15 9 27 13 27 8 0 -5
20 -10 45 -11 33 -1 47 3 51 13 8 19 24 20 24 1 0 -8 10 -13 25 -13 13 0 22 3
19 8 -3 5 6 9 20 9 14 0 26 4 26 8 0 5 14 7 30 6 17 -1 32 2 35 6 3 5 14 7 25
5 11 -2 22 1 26 7 4 5 9 6 13 2 3 -5 16 -9 29 -10z m-598 -44 c0 -5 -4 -10
-10 -10 -5 0 -10 5 -10 10 0 6 5 10 10 10 6 0 10 -4 10 -10z m1690 -35 c0 -33
-4 -45 -15 -45 -27 0 -30 4 -28 38 l2 32 -117 0 c-64 0 -132 -4 -150 -9 -41
-12 -41 -4 1 14 22 10 74 14 170 15 l137 0 0 -45z m315 35 c3 -6 -1 -7 -9 -4
-18 7 -21 14 -7 14 6 0 13 -4 16 -10z m-25 -20 c8 -5 11 -10 6 -10 -5 0 -3 -7
4 -15 14 -17 50 -3 50 20 0 8 5 15 11 15 5 0 7 -4 4 -10 -3 -5 1 -10 10 -10 9
0 13 -4 10 -10 -3 -5 1 -10 9 -10 9 0 16 -4 16 -10 0 -11 -32 -1 -42 14 -5 8
-8 8 -8 0 0 -5 6 -18 13 -28 11 -15 17 -16 35 -7 20 11 43 -2 28 -16 -3 -4 -6
-1 -6 5 0 6 -6 9 -14 6 -9 -3 -12 -12 -8 -22 5 -15 4 -16 -14 -2 -18 14 -18
14 -3 -5 9 -11 15 -28 14 -38 -2 -11 0 -16 3 -12 7 7 8 12 11 40 0 8 5 15 9
15 5 0 9 -7 9 -15 0 -8 -4 -15 -8 -15 -9 0 -6 -26 4 -36 10 -11 8 -24 -4 -24
-5 0 -7 5 -3 12 4 6 3 8 -3 5 -6 -4 -13 -18 -15 -32 -5 -21 -2 -25 13 -20 17
6 18 4 7 -20 -6 -14 -14 -21 -18 -15 -4 6 -11 0 -18 -15 -6 -14 -17 -24 -23
-23 -13 3 -21 -30 -9 -37 5 -3 7 4 5 16 -2 12 -3 20 -1 18 3 -2 5 -8 6 -14 1
-5 6 -17 11 -26 6 -12 2 -19 -17 -28 -31 -14 -37 -14 -29 -1 3 6 -2 10 -12 11
-13 1 -11 3 7 9 23 8 23 8 -7 7 -33 -1 -40 -17 -13 -29 9 -4 2 -7 -18 -7 -18
-1 -35 -7 -38 -15 -7 -18 -35 -30 -31 -13 1 6 8 17 16 23 10 8 11 13 2 18 -6
4 -9 12 -6 17 4 5 1 9 -4 9 -6 0 -11 -5 -11 -11 0 -5 -4 -7 -10 -4 -5 3 -10 1
-10 -5 0 -7 7 -9 17 -6 10 4 14 3 9 -1 -11 -12 -51 -11 -62 2 -12 12 -11 26 0
44 6 10 5 12 -2 7 -7 -4 -12 -2 -12 3 0 6 -4 11 -8 11 -4 0 -8 -11 -8 -24 0
-14 4 -22 10 -19 5 3 6 1 2 -6 -6 -8 -12 -9 -20 -2 -7 6 -15 8 -19 5 -3 -3
-12 9 -20 28 -25 56 -28 70 -15 65 7 -2 12 -13 10 -24 -1 -11 4 -26 13 -33 8
-7 12 -17 8 -23 -4 -6 -1 -7 6 -3 10 6 9 12 -2 24 -14 17 -17 88 -5 108 4 6 1
11 -6 11 -7 0 -13 -9 -12 -20 1 -11 -4 -22 -10 -24 -7 -2 -10 6 -7 22 3 14 0
32 -7 40 -14 17 0 21 17 4 8 -8 14 -5 22 10 8 15 9 21 1 21 -6 0 -8 5 -4 12 4
6 3 8 -4 4 -6 -3 -14 -1 -18 6 -4 7 -4 10 1 6 12 -11 47 12 42 27 -7 16 12 35
35 35 12 0 15 5 11 16 -5 14 -3 15 17 4 18 -9 20 -14 9 -21 -7 -4 -10 -11 -6
-16 5 -4 12 -2 16 5 4 7 14 12 22 10 8 -2 13 3 12 10 -2 6 3 12 11 12 8 0 18
4 21 10 4 6 -1 7 -12 4 -15 -5 -16 -4 -3 5 18 13 21 13 40 1z m50 -11 c0 -5
-4 -7 -10 -4 -5 3 -10 1 -10 -6 0 -7 -3 -10 -6 -6 -8 7 4 27 17 27 5 0 9 -5 9
-11z m-2583 -51 c-3 -7 -5 -2 -5 12 0 14 2 19 5 13 2 -7 2 -19 0 -25z m-634
-71 l132 -3 -137 -2 -138 -2 2 48 1 47 4 -42 4 -42 132 -4z m214 -179 c-1 -51
-3 -12 -3 87 0 99 2 141 3 93 2 -48 2 -129 0 -180z m2598 232 c-4 -6 -53 -10
-116 -10 l-109 0 0 -81 c0 -115 4 -119 100 -119 73 0 80 2 80 20 0 18 -7 20
-80 20 l-80 0 0 44 c0 30 5 46 15 50 12 4 15 -3 15 -34 l0 -40 85 0 85 0 0
-40 c0 -37 2 -40 27 -40 21 0 24 -3 15 -12 -7 -7 -12 -22 -12 -34 0 -13 -8
-24 -20 -27 -21 -5 -24 0 -21 46 l1 27 -115 0 c-137 0 -135 -2 -135 124 0 116
0 116 151 116 78 0 118 -4 114 -10z m107 -134 c3 -81 2 -85 -19 -89 -27 -5
-29 1 -28 86 l0 67 -108 0 c-70 0 -106 4 -102 10 4 6 58 10 130 10 l124 0 3
-84z m45 69 c0 -8 -4 -12 -9 -9 -4 3 -8 9 -8 15 0 5 4 9 8 9 5 0 9 -7 9 -15z
m-3100 -207 c-2 -29 -3 -8 -3 47 0 55 1 79 3 53 2 -26 2 -71 0 -100z m190 0
c-2 -29 -3 -8 -3 47 0 55 1 79 3 53 2 -26 2 -71 0 -100z m3253 52 c0 -5 -2
-10 -4 -10 -3 0 -8 5 -11 10 -3 6 -1 10 4 10 6 0 11 -4 11 -10z m-270 -76 c0
-8 -4 -12 -10 -9 -5 3 -10 10 -10 16 0 5 5 9 10 9 6 0 10 -7 10 -16z m-1675
-14 c3 -5 1 -10 -4 -10 -6 0 -11 5 -11 10 0 6 2 10 4 10 3 0 8 -4 11 -10z
m170 0 c-3 -5 -12 -10 -18 -10 -7 0 -6 4 3 10 19 12 23 12 15 0z m-898 -222
c-3 -8 -6 -5 -6 6 -1 11 2 17 5 13 3 -3 4 -12 1 -19z m-1012 -38 c10 -11 16
-20 13 -20 -3 0 -13 9 -23 20 -10 11 -16 20 -13 20 3 0 13 -9 23 -20z m1005
17 c0 -2 -10 -12 -22 -23 l-23 -19 19 23 c18 21 26 27 26 19z m-953 -43 c-3
-3 -12 -4 -19 -1 -8 3 -5 6 6 6 11 1 17 -2 13 -5z m900 0 c-3 -3 -12 -4 -19
-1 -8 3 -5 6 6 6 11 1 17 -2 13 -5z"/>
<path d="M2675 2810 c3 -5 11 -10 16 -10 6 0 7 5 4 10 -3 6 -11 10 -16 10 -6
0 -7 -4 -4 -10z"/>
<path d="M3445 2691 c-10 -17 16 -31 64 -35 39 -3 54 -1 58 10 3 8 3 17 0 20
-8 9 -117 12 -122 5z"/>
<path d="M3355 2590 c6 -29 13 -36 25 -24 7 7 4 16 -9 28 -20 18 -20 18 -16
-4z"/>
<path d="M1912 2500 c0 -14 2 -19 5 -12 2 6 2 18 0 25 -3 6 -5 1 -5 -13z"/>
<path d="M2705 2430 c-3 -5 -1 -10 4 -10 6 0 11 5 11 10 0 6 -2 10 -4 10 -3 0
-8 -4 -11 -10z"/>
<path d="M3085 2380 c3 -5 8 -10 11 -10 2 0 4 5 4 10 0 6 -5 10 -11 10 -5 0
-7 -4 -4 -10z"/>
<path d="M4415 2450 c3 -5 8 -10 11 -10 2 0 4 5 4 10 0 6 -5 10 -11 10 -5 0
-7 -4 -4 -10z"/>
</g>
</svg>
