<?xml version="1.0" standalone="no"?>
<!DOCTYPE svg PUBLIC "-//W3C//DTD SVG 20010904//EN"
 "http://www.w3.org/TR/2001/REC-SVG-20010904/DTD/svg10.dtd">
<svg version="1.0" xmlns="http://www.w3.org/2000/svg"
 width="500.000000pt" height="500.000000pt" viewBox="0 0 500.000000 500.000000"
 preserveAspectRatio="xMidYMid meet">
<metadata>
Created by potrace 1.16, written by Peter Selinger 2001-2019
</metadata>
<g transform="translate(0.000000,500.000000) scale(0.100000,-0.100000)"
fill="#000000" stroke="none">
<path d="M0 2500 l0 -2500 2500 0 2500 0 0 2500 0 2500 -2500 0 -2500 0 0
-2500z m1618 663 c-125 -2 -332 -2 -460 0 -128 1 -26 2 227 2 253 0 358 -1
233 -2z m-708 -6 c0 -2 -10 -12 -22 -23 l-23 -19 19 23 c18 21 26 27 26 19z
m1001 -266 c0 -119 3 -210 6 -204 2 7 4 15 4 17 -1 9 128 135 147 144 9 5 78
10 152 11 74 1 143 4 153 7 9 3 17 1 17 -5 0 -6 6 -8 14 -5 9 3 17 -6 24 -25
7 -19 18 -31 29 -31 14 0 15 -2 4 -9 -9 -6 -6 -8 13 -8 14 0 33 8 42 18 9 11
23 19 31 19 7 0 13 6 13 13 0 8 3 8 8 2 4 -6 26 -11 50 -12 24 0 49 -6 55 -12
17 -17 31 -13 17 4 -7 9 -10 18 -6 22 3 3 6 2 6 -3 0 -16 73 -14 98 2 20 13
22 13 23 -3 1 -17 2 -17 6 0 5 18 25 24 20 6 -1 -6 4 -14 12 -17 8 -3 11 0 7
7 -4 6 -2 12 3 12 26 3 30 4 36 11 4 4 13 4 21 1 8 -3 20 0 28 6 7 6 24 10 37
7 13 -2 30 1 37 6 6 6 12 7 12 2 0 -5 11 -9 25 -9 14 0 25 3 25 7 0 4 11 3 25
-2 15 -6 27 -6 30 0 8 13 35 0 35 -17 0 -8 4 -11 10 -8 5 3 19 8 30 10 18 3
19 1 9 -18 -7 -12 -8 -19 -4 -15 4 4 14 0 22 -10 9 -10 11 -11 7 -2 -7 13 -5
13 9 1 9 -7 14 -17 11 -22 -3 -5 0 -9 6 -9 7 0 10 -7 7 -15 -5 -11 -1 -12 17
-5 13 5 26 7 28 5 2 -2 21 14 42 36 21 21 52 42 67 47 32 8 202 7 235 -1 24
-6 84 -61 84 -76 0 -6 17 -1 38 11 l37 22 -30 -33 -30 -32 0 -129 0 -130 33
-32 c32 -32 33 -33 142 -36 61 -3 110 -8 110 -13 0 -16 -217 -11 -257 6 -22
10 -40 12 -47 6 -6 -5 -31 -16 -56 -25 -40 -14 -47 -13 -77 1 -28 13 -33 21
-34 52 -1 20 -1 42 0 49 1 8 -15 12 -53 12 -61 0 -89 -7 -80 -22 10 -16 -6
-57 -29 -72 -12 -8 -44 -18 -72 -22 -27 -3 -53 -8 -56 -10 -3 -2 -12 8 -19 21
-14 26 -34 32 -45 15 -3 -5 -22 -10 -41 -10 -19 0 -34 -5 -34 -11 0 -6 10 -8
23 -5 14 4 11 1 -8 -8 -26 -13 -31 -13 -41 0 -13 16 -49 20 -39 4 4 -6 11 -8
16 -5 5 4 9 2 9 -3 0 -6 -6 -12 -13 -15 -15 -6 -39 18 -29 29 4 5 -1 2 -10 -5
-10 -7 -15 -18 -11 -24 3 -6 1 -7 -6 -3 -6 4 -8 12 -5 18 5 7 1 7 -12 0 -12
-7 -25 -7 -37 -1 -10 6 -23 8 -30 6 -7 -2 -20 0 -29 5 -13 6 -18 5 -18 -4 -1
-7 -9 -3 -19 9 -10 12 -22 19 -26 15 -3 -4 -14 2 -22 13 -12 15 -14 16 -10 3
4 -12 2 -15 -9 -11 -7 3 -14 9 -14 15 0 5 -5 6 -10 3 -6 -4 -8 -11 -5 -16 11
-16 -7 -10 -22 9 -8 10 -12 12 -11 4 2 -10 -11 -14 -44 -16 -25 -1 -44 2 -41
6 2 5 8 6 13 3 5 -3 11 -2 14 3 2 4 -12 8 -32 7 -25 0 -36 -4 -34 -13 1 -8 -2
-11 -8 -7 -6 3 -7 11 -4 17 5 7 2 8 -6 3 -7 -4 -16 -2 -22 6 -7 10 -8 7 -4
-11 4 -22 4 -23 -8 -7 -14 18 -32 24 -21 7 10 -17 -7 -11 -22 8 -8 9 -12 11
-8 5 4 -9 -2 -13 -17 -14 -13 -1 -30 -2 -38 -3 -8 0 -18 6 -22 14 -5 12 -7 11
-7 -3 -1 -10 -5 -15 -11 -12 -5 3 -10 2 -10 -4 0 -5 6 -12 13 -15 6 -4 2 -4
-10 -2 -13 2 -23 0 -23 -6 0 -5 -9 -7 -19 -3 -11 3 -22 2 -25 -3 -2 -4 -79 -8
-169 -7 -123 0 -169 4 -181 14 -9 8 -19 11 -22 8 -9 -8 -43 24 -62 58 -17 29
-17 26 -22 -125 -4 -91 -7 37 -8 310 -2 405 -4 469 -18 490 l-16 25 21 -24
c20 -22 21 -35 22 -240z m-1044 197 c-3 -8 -6 -5 -6 6 -1 11 2 17 5 13 3 -3 4
-12 1 -19z m771 -435 l-3 -258 -2 253 -3 252 -245 0 -244 0 -4 -42 -4 -43 -1
48 -2 47 255 0 255 0 -2 -257z m822 166 c0 -18 -18 -9 -23 12 -4 16 -3 18 9 8
8 -6 14 -15 14 -20z m1690 -33 c0 -35 -4 -45 -20 -49 -18 -4 -20 0 -20 35 l0
40 -140 -4 c-77 -1 -140 -2 -140 0 0 13 67 21 183 21 l137 1 0 -44z m260 34
c0 -5 -5 -10 -11 -10 -5 0 -7 5 -4 10 3 6 8 10 11 10 2 0 4 -4 4 -10z m26 1
c-3 -5 2 -15 12 -22 9 -7 14 -9 10 -5 -4 5 -3 15 3 22 9 11 14 11 26 -1 8 -9
20 -12 26 -8 7 3 3 -4 -8 -16 -14 -16 -15 -22 -5 -19 8 2 14 -3 12 -10 -1 -8
2 -11 7 -8 5 4 14 -2 20 -11 6 -10 11 -13 11 -7 0 6 7 11 14 11 8 0 14 -5 13
-11 -1 -6 5 -10 13 -8 10 3 9 -3 -5 -19 -11 -12 -15 -20 -9 -16 6 4 19 -2 29
-12 17 -19 4 -24 -20 -9 -6 4 -12 -2 -12 -13 -1 -11 2 -17 8 -14 5 4 9 1 9 -5
0 -6 5 -8 12 -4 7 4 8 3 4 -5 -5 -7 -20 -10 -38 -7 -16 2 -27 2 -23 -2 4 -4
11 -8 16 -8 5 -1 13 -2 18 -3 5 0 12 -8 15 -17 5 -14 4 -15 -9 -4 -13 11 -14
10 -6 -11 5 -13 14 -23 19 -22 11 3 4 -35 -8 -42 -5 -3 -6 4 -3 15 3 11 0 20
-6 20 -5 0 -8 -6 -5 -14 3 -7 -3 -21 -12 -31 -17 -17 -17 -17 4 -11 12 4 22 4
22 -1 0 -5 -10 -10 -22 -11 -60 -6 -80 -16 -71 -37 3 -8 1 -15 -5 -15 -6 0
-13 6 -15 13 -3 6 -6 1 -6 -12 -1 -21 -3 -22 -18 -10 -11 10 -14 10 -9 2 4 -8
1 -13 -8 -13 -9 0 -16 -5 -16 -12 0 -6 -6 -3 -14 7 -8 11 -13 22 -11 25 2 3
-7 6 -21 6 -13 0 -24 -4 -24 -9 0 -5 6 -7 14 -4 16 6 40 -16 29 -26 -10 -10
-25 -8 -18 2 3 5 -5 11 -17 13 -13 2 -22 9 -20 16 1 8 -2 11 -8 7 -5 -3 -10
-2 -10 3 0 5 -9 12 -20 15 -11 3 -18 1 -14 -4 9 -15 -13 -10 -26 6 -7 8 -9 15
-6 15 4 0 -5 11 -19 24 -16 15 -21 26 -14 28 7 2 13 12 15 21 1 9 -2 15 -7 11
-5 -3 -6 -11 -3 -17 4 -7 3 -8 -1 -4 -13 11 -18 58 -6 55 5 -2 9 2 9 7 0 6 -4
9 -9 8 -14 -4 1 71 18 87 9 8 13 10 10 4 -3 -6 0 -11 6 -11 8 0 12 12 11 28
-2 24 21 60 33 52 1 -2 3 0 4 5 0 4 9 10 20 14 11 4 17 12 14 18 -3 5 -1 10 5
10 7 0 9 -9 5 -22 -7 -23 -7 -23 10 -3 9 11 14 15 11 8 -4 -6 -1 -15 5 -19 8
-4 9 -3 5 4 -4 7 3 16 17 21 14 6 28 15 32 20 3 6 8 11 11 11 3 0 3 -4 0 -9z
m-1926 -15 c0 -2 -7 -7 -16 -10 -8 -3 -12 -2 -9 4 6 10 25 14 25 6z m2031 -25
c-8 -5 -9 -11 -3 -15 6 -4 15 1 20 10 8 15 10 14 16 -2 4 -10 4 -15 0 -11 -4
4 -13 2 -19 -3 -8 -7 -18 -4 -30 10 -18 19 -17 20 6 20 17 0 20 -3 10 -9z
m-3268 -114 l132 -3 -137 -2 -138 -2 2 48 1 47 4 -42 4 -42 132 -4z m214 -179
c-1 -51 -3 -12 -3 87 0 99 2 141 3 93 2 -48 2 -129 0 -180z m2603 232 c0 -6
-43 -10 -110 -10 l-111 0 3 -97 3 -98 83 -3 c77 -3 82 -2 82 18 0 18 -6 20
-80 20 l-80 0 0 44 c0 35 4 45 20 49 18 4 20 0 20 -35 l0 -39 83 3 82 3 -4
-42 c-3 -41 -1 -43 23 -43 14 0 26 -4 26 -10 0 -5 -4 -10 -10 -10 -5 0 -10
-11 -10 -24 0 -15 -7 -26 -20 -29 -17 -4 -20 0 -21 26 -1 18 -1 35 0 40 0 4
-48 7 -107 7 -139 0 -139 1 -136 127 1 51 5 97 9 102 8 14 255 15 255 1z m100
-130 c0 -44 -1 -83 -2 -87 -4 -10 -40 -12 -65 -2 -18 7 -21 15 -20 58 1 28 -2
51 -8 51 -5 0 -3 5 5 10 13 9 13 10 0 10 -13 0 -13 1 0 10 10 7 -12 10 -72 10
-52 0 -88 4 -88 10 0 6 48 10 125 10 l125 0 0 -80z m-3053 -142 c-2 -29 -3 -8
-3 47 0 55 1 79 3 53 2 -26 2 -71 0 -100z m190 0 c-2 -29 -3 -8 -3 47 0 55 1
79 3 53 2 -26 2 -71 0 -100z m3203 6 c0 -8 -19 -13 -24 -6 -3 5 1 9 9 9 8 0
15 -2 15 -3z m-213 -31 c2 -6 -2 -13 -10 -16 -8 -3 -13 3 -14 15 -2 20 18 21
24 1z m-3450 -235 c-3 -8 -6 -5 -6 6 -1 11 2 17 5 13 3 -3 4 -12 1 -19z m28
-38 c10 -11 16 -20 13 -20 -3 0 -13 9 -23 20 -10 11 -16 20 -13 20 3 0 13 -9
23 -20z m1005 17 c0 -2 -10 -12 -22 -23 l-23 -19 19 23 c18 21 26 27 26 19z
m-953 -43 c-3 -3 -12 -4 -19 -1 -8 3 -5 6 6 6 11 1 17 -2 13 -5z m900 0 c-3
-3 -12 -4 -19 -1 -8 3 -5 6 6 6 11 1 17 -2 13 -5z"/>
<path d="M3453 2692 c-26 -17 6 -35 66 -38 66 -3 66 -2 51 27 -8 15 -21 19
-58 19 -26 0 -52 -4 -59 -8z"/>
<path d="M2475 2440 c-3 -6 1 -7 9 -4 18 7 21 14 7 14 -6 0 -13 -4 -16 -10z"/>
<path d="M3210 2425 c-17 -10 -20 -14 -9 -15 9 0 22 7 29 15 15 18 12 18 -20
0z"/>
<path d="M4277 2729 c7 -7 15 -10 18 -7 3 3 -2 9 -12 12 -14 6 -15 5 -6 -5z"/>
<path d="M4556 2722 c-3 -5 1 -9 9 -9 8 0 12 4 9 9 -3 4 -7 8 -9 8 -2 0 -6 -4
-9 -8z"/>
<path d="M4225 2651 c-3 -5 0 -13 6 -17 7 -4 9 -3 5 4 -3 5 0 13 6 15 9 4 10
6 1 6 -6 1 -14 -3 -18 -8z"/>
</g>
</svg>
