<?xml version="1.0" standalone="no"?>
<!DOCTYPE svg PUBLIC "-//W3C//DTD SVG 20010904//EN"
 "http://www.w3.org/TR/2001/REC-SVG-20010904/DTD/svg10.dtd">
<svg version="1.0" xmlns="http://www.w3.org/2000/svg"
 width="500.000000pt" height="500.000000pt" viewBox="0 0 500.000000 500.000000"
 preserveAspectRatio="xMidYMid meet">
<metadata>
Created by potrace 1.16, written by Peter Selinger 2001-2019
</metadata>
<g transform="translate(0.000000,500.000000) scale(0.100000,-0.100000)"
fill="#000000" stroke="none">
<path d="M0 2500 l0 -2500 2500 0 2500 0 0 2500 0 2500 -2500 0 -2500 0 0
-2500z m1618 663 c-125 -2 -332 -2 -460 0 -128 1 -26 2 227 2 253 0 358 -1
233 -2z m-708 -6 c0 -2 -10 -12 -22 -23 l-23 -19 19 23 c18 21 26 27 26 19z
m981 -24 c13 -16 12 -17 -3 -4 -10 7 -18 15 -18 17 0 8 8 3 21 -13z m16 -45
c-3 -8 -6 -5 -6 6 -1 11 2 17 5 13 3 -3 4 -12 1 -19z m-269 -435 l-3 -258 -2
253 -3 252 -245 0 -244 0 -4 -42 -4 -43 -1 48 -2 47 255 0 255 0 -2 -257z
m1492 217 c3 -1 21 -3 40 -5 60 -7 63 -8 67 -26 3 -10 15 -19 27 -21 14 -2 20
-9 18 -20 -2 -10 3 -18 10 -18 11 0 11 -2 0 -9 -10 -6 -9 -11 4 -22 12 -9 15
-10 10 -1 -5 8 1 12 18 12 15 0 26 6 26 13 0 14 33 45 65 63 11 5 70 10 130 9
125 0 156 -11 192 -64 13 -19 23 -29 23 -23 0 6 28 25 63 42 62 30 64 31 197
28 l135 -3 3 -35 c3 -24 -2 -38 -14 -47 -28 -20 -34 -16 -34 27 l0 40 -112 0
c-132 0 -179 -11 -208 -47 -18 -23 -20 -40 -20 -153 0 -113 2 -130 20 -153 27
-34 76 -47 178 -47 52 0 82 -4 82 -11 0 -7 -40 -10 -124 -7 -116 3 -126 5
-152 28 -15 14 -24 20 -21 14 10 -17 -11 -29 -75 -44 -81 -18 -88 -13 -88 64
l0 64 -32 -8 c-18 -5 -46 -8 -63 -8 -51 0 -53 -1 -52 -38 1 -44 -13 -56 -87
-74 -42 -10 -59 -10 -69 -2 -8 7 -17 9 -20 5 -4 -3 -7 3 -7 15 0 15 -4 20 -16
15 -11 -4 -12 -8 -4 -13 8 -5 7 -9 -4 -13 -9 -4 -16 -2 -16 4 0 6 -6 9 -12 7
-7 -3 -13 -10 -13 -15 0 -6 -4 -15 -9 -20 -5 -4 -6 -3 -2 4 6 12 -17 13 -87 4
-5 -1 -5 -5 -2 -11 4 -7 -3 -7 -19 0 -24 9 -30 6 -27 -12 0 -4 -6 -5 -14 -2
-8 4 -15 10 -15 16 0 5 -5 6 -10 3 -6 -4 -7 -12 -3 -18 3 -7 -4 -3 -17 8 -14
12 -20 14 -15 5 7 -12 6 -13 -6 -4 -8 6 -23 14 -33 18 -17 6 -17 4 -5 -11 7
-10 1 -7 -14 6 -24 22 -32 21 -28 -2 1 -5 -3 -6 -8 -2 -6 3 -7 13 -4 22 4 11
3 14 -5 9 -7 -4 -12 -2 -12 4 0 6 -5 8 -10 5 -6 -4 -7 -12 -4 -18 5 -9 3 -8
-6 0 -11 10 -17 10 -29 0 -9 -8 -12 -8 -8 -1 4 7 0 17 -8 24 -12 10 -16 8 -24
-11 -8 -20 -10 -21 -10 -5 -1 19 -1 19 -23 0 -19 -17 -21 -17 -15 -1 4 9 2 17
-3 17 -6 0 -10 -5 -10 -10 0 -8 -6 -8 -17 -1 -13 7 -23 5 -37 -7 -18 -16 -18
-16 -7 6 15 28 4 28 -28 0 -14 -13 -20 -16 -13 -8 6 8 12 17 12 20 0 9 -38 6
-46 -3 -4 -4 -18 -7 -30 -7 -13 0 -26 -5 -29 -11 -5 -7 -16 -2 -31 12 -22 21
-25 21 -43 5 -19 -17 -52 -28 -84 -28 -9 1 -15 -3 -12 -7 2 -5 -17 -6 -43 -4
-26 2 -103 5 -172 6 -120 2 -126 3 -162 31 -32 24 -39 36 -45 80 l-8 51 -6
-55 c-3 -31 -6 16 -6 105 0 88 3 140 6 115 l6 -45 14 33 c7 17 17 32 22 32 4
0 34 27 65 59 31 33 60 60 63 59 3 0 8 0 11 1 3 1 73 4 155 5 122 3 153 0 168
-12 9 -8 17 -21 17 -29 0 -16 12 -17 29 0 10 10 11 9 6 -5 -6 -16 -4 -16 24
-7 17 6 31 15 31 21 0 5 18 8 40 7 21 -2 42 0 46 4 4 4 13 2 20 -4 16 -13 134
-22 134 -10 0 5 7 12 16 15 8 3 12 2 9 -4 -3 -6 -1 -10 4 -10 6 0 11 5 11 10
0 6 9 10 20 10 11 0 20 6 20 13 0 8 3 8 9 -2 5 -8 21 -15 34 -15 14 -1 24 1
21 5 -4 7 52 30 58 24 10 -10 59 -12 64 -3 5 7 2 8 -6 3 -7 -5 -11 -4 -7 1 4
7 98 11 117 4z m1383 -39 c10 -12 9 -13 -3 -6 -12 6 -13 5 -2 -6 10 -11 16
-11 32 -2 16 11 18 10 15 -7 -2 -11 1 -20 6 -20 6 0 8 -4 5 -9 -3 -5 1 -14 9
-21 8 -7 12 -17 8 -23 -3 -6 -1 -7 6 -3 9 6 9 11 0 23 -12 13 -20 53 -12 53 8
0 26 -57 24 -79 -1 -16 3 -22 14 -18 9 4 12 1 8 -8 -3 -8 -9 -13 -13 -10 -5 3
-12 0 -16 -6 -3 -6 0 -15 7 -20 12 -7 11 -9 -1 -9 -8 0 -21 -9 -27 -19 -11
-17 -8 -23 17 -45 17 -14 26 -27 21 -30 -5 -4 -12 0 -14 6 -3 8 -6 6 -6 -4 -1
-10 4 -18 10 -18 6 0 9 -6 7 -12 -3 -7 -10 -13 -15 -13 -6 0 -15 -4 -20 -9 -4
-5 -3 -7 2 -3 6 3 17 2 25 -4 10 -6 11 -9 3 -9 -7 0 -13 -7 -13 -15 0 -9 -6
-12 -17 -8 -15 5 -14 3 2 -10 18 -15 19 -16 2 -17 -10 0 -15 -5 -12 -10 4 -6
11 -7 17 -4 6 4 8 3 5 -3 -3 -5 -20 -8 -37 -5 -25 4 -29 1 -24 -12 4 -9 3 -16
-2 -15 -5 1 -24 1 -42 0 -24 -1 -31 -5 -26 -13 6 -10 4 -10 -8 0 -9 7 -29 10
-46 7 -17 -3 -34 -1 -37 5 -9 15 -48 13 -39 -2 4 -7 -3 -4 -15 7 -13 11 -25
19 -27 18 -2 -2 -10 -3 -16 -3 -10 0 -9 3 1 9 8 5 10 14 6 21 -6 10 -11 9 -22
-5 -7 -11 -14 -14 -14 -7 -1 7 -3 17 -4 22 -1 6 -3 15 -4 22 0 6 -4 8 -8 5 -3
-4 -12 -2 -19 4 -8 6 -21 9 -29 5 -25 -9 -74 5 -78 23 -3 11 -5 9 -6 -6 -1
-17 5 -23 19 -23 17 0 19 -4 14 -27 -9 -38 -11 -40 -34 -46 -18 -4 -20 0 -20
34 l0 39 -114 0 c-95 0 -115 3 -120 16 -11 29 -7 199 6 212 15 15 262 17 253
2 -4 -6 -53 -10 -116 -10 l-109 0 0 -88 c0 -55 4 -92 12 -100 7 -7 43 -12 90
-12 71 0 78 2 78 20 0 17 -8 19 -82 22 l-83 3 -3 37 c-2 29 1 39 17 48 18 9
21 7 27 -15 3 -14 4 -32 0 -40 -4 -13 8 -15 78 -15 58 0 86 -4 88 -12 3 -7 5
7 6 31 1 23 4 47 8 52 3 5 -32 9 -80 9 -140 0 -99 19 48 22 126 3 134 2 130
-15 -2 -15 0 -16 11 -7 8 6 11 18 9 25 -6 14 21 63 31 58 13 -7 24 -1 40 23
14 22 15 28 4 35 -11 7 -10 9 3 9 9 0 20 -9 23 -20 3 -11 11 -20 16 -20 6 0 7
5 3 12 -12 20 -11 58 3 58 6 0 15 -5 19 -12 4 -7 3 -8 -4 -4 -7 4 -12 2 -12
-3 0 -14 41 -14 60 0 13 9 12 10 -2 5 -31 -9 -20 4 15 19 39 17 74 15 90 -4z
m-3240 -164 l132 -3 -137 -2 -138 -2 2 48 1 47 4 -42 4 -42 132 -4z m214 -179
c-1 -51 -3 -12 -3 87 0 99 2 141 3 93 2 -48 2 -129 0 -180z m3133 157 c-7 -8
-10 -21 -7 -29 6 -15 -9 -16 -31 -2 -10 6 -10 11 -1 22 6 7 15 12 19 9 5 -3
11 -1 15 5 3 5 9 10 12 10 3 0 0 -7 -7 -15z m-3483 -197 c-2 -29 -3 -8 -3 47
0 55 1 79 3 53 2 -26 2 -71 0 -100z m190 0 c-2 -29 -3 -8 -3 47 0 55 1 79 3
53 2 -26 2 -71 0 -100z m1126 -43 c-3 -9 -8 -14 -10 -11 -3 3 -2 9 2 15 9 16
15 13 8 -4z m681 -33 c3 -5 -1 -9 -9 -9 -8 0 -12 4 -9 9 3 4 7 8 9 8 2 0 6 -4
9 -8z m-1227 -184 c-3 -8 -6 -5 -6 6 -1 11 2 17 5 13 3 -3 4 -12 1 -19z
m-1012 -38 c10 -11 16 -20 13 -20 -3 0 -13 9 -23 20 -10 11 -16 20 -13 20 3 0
13 -9 23 -20z m1005 17 c0 -2 -10 -12 -22 -23 l-23 -19 19 23 c18 21 26 27 26
19z m-953 -43 c-3 -3 -12 -4 -19 -1 -8 3 -5 6 6 6 11 1 17 -2 13 -5z m900 0
c-3 -3 -12 -4 -19 -1 -8 3 -5 6 6 6 11 1 17 -2 13 -5z"/>
<path d="M3451 2701 c-11 -7 -9 -36 2 -47 12 -13 137 -11 137 1 0 30 -28 48
-78 50 -28 1 -56 -1 -61 -4z"/>
<path d="M1911 2644 c0 -11 3 -14 6 -6 3 7 2 16 -1 19 -3 4 -6 -2 -5 -13z"/>
<path d="M1911 2604 c0 -11 3 -14 6 -6 3 7 2 16 -1 19 -3 4 -6 -2 -5 -13z"/>
<path d="M1911 2564 c0 -11 3 -14 6 -6 3 7 2 16 -1 19 -3 4 -6 -2 -5 -13z"/>
<path d="M4476 2803 c-6 -14 -5 -15 5 -6 7 7 10 15 7 18 -3 3 -9 -2 -12 -12z"/>
<path d="M4237 2703 c-10 -10 -8 -23 4 -23 5 0 8 4 5 9 -4 5 0 12 6 14 7 3 8
6 2 6 -6 1 -14 -2 -17 -6z"/>
<path d="M4210 2615 c-7 -9 -8 -15 -2 -15 5 0 12 7 16 15 3 8 4 15 2 15 -2 0
-9 -7 -16 -15z"/>
<path d="M4203 2535 c0 -8 4 -15 9 -15 4 0 8 7 8 15 0 8 -4 15 -8 15 -5 0 -9
-7 -9 -15z"/>
<path d="M4228 2513 c-10 -2 -18 -9 -18 -14 0 -6 8 -5 20 1 11 6 20 13 20 15
0 3 -1 4 -2 4 -2 -1 -11 -3 -20 -6z"/>
<path d="M4438 2413 c7 -3 16 -2 19 1 4 3 -2 6 -13 5 -11 0 -14 -3 -6 -6z"/>
<path d="M4478 2413 c7 -3 16 -2 19 1 4 3 -2 6 -13 5 -11 0 -14 -3 -6 -6z"/>
</g>
</svg>
