<?xml version="1.0" standalone="no"?>
<!DOCTYPE svg PUBLIC "-//W3C//DTD SVG 20010904//EN"
 "http://www.w3.org/TR/2001/REC-SVG-20010904/DTD/svg10.dtd">
<svg version="1.0" xmlns="http://www.w3.org/2000/svg"
 width="500.000000pt" height="500.000000pt" viewBox="0 0 500.000000 500.000000"
 preserveAspectRatio="xMidYMid meet">
<metadata>
Created by potrace 1.16, written by Peter Selinger 2001-2019
</metadata>
<g transform="translate(0.000000,500.000000) scale(0.100000,-0.100000)"
fill="#000000" stroke="none">
<path d="M0 2500 l0 -2500 2500 0 2500 0 0 2500 0 2500 -2500 0 -2500 0 0
-2500z m1618 663 c-125 -2 -332 -2 -460 0 -128 1 -26 2 227 2 253 0 358 -1
233 -2z m-708 -6 c0 -2 -10 -12 -22 -23 l-23 -19 19 23 c18 21 26 27 26 19z
m981 -24 c13 -16 12 -17 -3 -4 -10 7 -18 15 -18 17 0 8 8 3 21 -13z m16 -60
c-3 -10 -5 -4 -5 12 0 17 2 24 5 18 2 -7 2 -21 0 -30z m0 -45 c-3 -8 -6 -5 -6
6 -1 11 2 17 5 13 3 -3 4 -12 1 -19z m0 -40 c-3 -8 -6 -5 -6 6 -1 11 2 17 5
13 3 -3 4 -12 1 -19z m0 -60 c-3 -8 -6 -5 -6 6 -1 11 2 17 5 13 3 -3 4 -12 1
-19z m-269 -275 l-3 -258 -2 253 -3 252 -245 0 -244 0 -4 -42 -4 -43 -1 48 -2
47 255 0 255 0 -2 -257z m269 235 c-3 -8 -6 -5 -6 6 -1 11 2 17 5 13 3 -3 4
-12 1 -19z m1267 -30 c-3 -4 2 -8 10 -8 8 0 17 -4 21 -9 3 -6 -7 -8 -22 -6
-24 3 -22 1 10 -12 20 -9 37 -20 37 -25 0 -5 5 -6 12 -2 7 5 8 3 3 -6 -11 -18
16 -32 34 -17 12 10 13 9 6 -3 -8 -13 -7 -13 8 -1 9 7 17 11 17 8 0 -3 20 15
45 40 32 33 51 44 65 40 11 -3 20 -1 20 4 0 13 193 11 227 -2 36 -13 86 -67
79 -85 -4 -10 2 -9 22 3 l27 18 -23 -32 c-20 -28 -22 -43 -22 -153 0 -107 3
-125 20 -151 27 -36 73 -49 183 -49 56 0 86 -4 82 -10 -10 -16 -225 -12 -255
5 -29 17 -44 19 -35 5 3 -5 -14 -14 -37 -20 -24 -6 -51 -13 -61 -16 -20 -6
-82 50 -72 66 3 5 1 10 -4 10 -6 0 -11 9 -11 20 0 20 -13 24 -69 22 -30 -2
-53 -21 -47 -41 8 -25 -28 -60 -65 -65 -19 -3 -44 -7 -57 -10 -25 -5 -57 9
-80 34 -12 13 -13 13 -6 0 5 -11 4 -12 -4 -5 -6 6 -13 20 -15 32 -2 13 -7 26
-11 30 -4 5 -6 1 -4 -7 2 -8 -3 -14 -11 -15 -8 0 -16 -7 -18 -15 -4 -13 -3
-13 6 0 7 10 11 11 11 3 0 -20 -35 -34 -50 -20 -10 9 -11 9 -6 0 3 -6 2 -14
-4 -18 -5 -3 -10 -2 -10 3 0 5 -7 9 -15 9 -8 0 -11 -5 -8 -10 4 -7 -1 -8 -12
-3 -18 6 -18 6 1 -16 10 -12 12 -18 4 -12 -8 6 -23 10 -33 9 -9 -2 -14 1 -11
7 3 5 -2 9 -12 8 -11 -1 -21 -1 -24 0 -17 6 -41 7 -35 2 4 -4 12 -7 17 -7 6 0
13 -6 16 -13 3 -10 -2 -10 -22 -1 -14 7 -26 16 -26 21 0 5 -4 7 -8 4 -5 -3
-20 -7 -35 -10 -20 -3 -24 -1 -20 11 5 12 7 12 15 1 8 -10 9 -10 5 2 -2 8 -10
14 -18 12 -34 -8 -110 -8 -115 -1 -3 5 -10 6 -16 3 -7 -4 -8 -2 -4 5 6 8 11 9
20 2 10 -8 18 -5 32 11 12 13 13 18 4 12 -21 -12 -33 -12 -49 0 -12 9 -13 8
-6 -3 6 -11 4 -13 -9 -8 -13 5 -17 3 -13 -6 3 -8 -3 -13 -19 -13 -13 0 -21 2
-19 5 3 2 0 10 -6 18 -9 10 -15 11 -26 1 -9 -7 -30 -13 -48 -13 -27 0 -31 3
-27 19 5 18 4 18 -10 5 -9 -7 -14 -17 -11 -21 2 -5 -3 -8 -11 -8 -9 0 -13 7
-11 19 4 20 -9 22 -34 7 -9 -6 -12 -5 -8 1 9 14 -37 10 -55 -5 -8 -6 -19 -8
-24 -4 -4 4 -2 -1 5 -10 7 -10 11 -19 7 -19 -3 -1 -10 -2 -16 -3 -5 0 -18 -9
-30 -18 -11 -10 -20 -15 -20 -12 0 4 -6 1 -14 -5 -10 -8 -16 -9 -21 -1 -3 6
-12 7 -18 3 -16 -10 -118 -10 -139 0 -12 5 -18 4 -18 -5 0 -9 -3 -9 -10 2 -9
13 -10 13 -10 0 0 -12 -2 -12 -9 -2 -11 17 -21 17 -32 0 -7 -10 -9 -10 -9 2 0
13 -1 13 -10 0 -8 -12 -10 -12 -10 -1 0 10 -3 11 -14 2 -9 -8 -16 -8 -20 -2
-4 6 -14 7 -23 4 -9 -4 -21 1 -28 11 -7 9 -18 15 -24 14 -7 -2 -23 17 -36 41
l-24 44 -4 -64 c-2 -35 -3 31 -4 146 0 116 3 190 6 165 6 -41 7 -43 14 -18 4
15 16 32 27 38 11 6 18 15 15 21 -4 5 -3 8 2 7 5 -2 26 14 47 35 51 52 72 58
211 63 125 5 170 0 160 -16 -3 -6 1 -7 9 -4 9 3 16 1 16 -5 0 -6 10 -11 21
-11 18 0 19 -2 9 -15 -11 -13 -8 -15 14 -15 17 0 25 -4 21 -11 -4 -6 2 -13 14
-16 12 -3 18 -10 14 -17 -4 -7 -1 -6 9 1 8 7 19 9 23 5 5 -4 5 -1 1 6 -4 7
-12 10 -17 7 -5 -4 -9 -1 -9 5 0 6 -5 8 -12 4 -7 -4 -8 -3 -4 4 4 6 13 9 21 5
9 -3 22 0 30 7 13 11 14 10 9 -5 -5 -12 -4 -16 3 -12 6 4 13 1 16 -5 3 -10 7
-10 20 1 10 7 17 11 17 8 0 -3 14 -2 30 3 17 5 30 5 30 0 0 -4 10 -6 22 -2 14
3 19 1 14 -6 -3 -6 -2 -13 3 -16 4 -3 8 3 7 14 0 11 4 19 9 19 6 -1 9 -6 7
-12 -3 -9 0 -9 9 0 6 6 18 9 27 5 11 -4 14 -1 10 9 -4 11 7 14 55 15 33 1 62
6 66 12 3 5 15 8 26 6 10 -2 26 3 34 9 12 10 13 9 6 -3 -5 -9 1 -7 15 5 13 11
20 15 17 9 -9 -16 19 -21 68 -13 l40 6 -50 3 c-47 3 -48 4 -11 7 21 3 46 1 55
-3 9 -4 27 -7 41 -7 19 0 24 4 22 19 -2 15 -1 16 7 4 5 -8 7 -18 5 -22z m966
-72 c0 -35 -4 -45 -20 -49 -18 -4 -20 0 -20 34 l0 40 -140 -3 c-77 -2 -140 -2
-140 0 0 13 67 21 183 21 l137 1 0 -44z m-2233 2 c-3 -8 -6 -5 -6 6 -1 11 2
17 5 13 3 -3 4 -12 1 -19z m2522 8 c9 -11 9 -16 -1 -22 -7 -4 -10 -4 -6 1 4 4
3 14 -3 22 -6 7 -9 13 -6 13 2 0 10 -6 16 -14z m-78 -19 c-7 -7 -7 -14 1 -24
9 -11 14 -11 27 -1 14 12 14 11 2 -4 -9 -12 -10 -18 -2 -18 6 0 11 -5 11 -11
0 -5 -4 -8 -8 -5 -5 3 -9 -1 -9 -8 0 -8 8 -11 19 -8 14 3 18 11 14 27 -4 16
-1 25 12 30 13 5 14 4 5 -6 -9 -9 -9 -18 -2 -31 11 -20 6 -33 -13 -33 -6 0
-12 -8 -14 -18 -1 -9 1 -15 6 -12 11 7 31 -20 22 -30 -4 -5 -2 -5 4 -2 7 4 17
1 23 -7 9 -11 9 -15 -1 -18 -8 -3 -6 -7 6 -11 10 -4 15 -3 11 3 -8 13 16 12
35 -1 13 -9 12 -10 -2 -5 -11 3 -19 -2 -23 -15 -4 -10 -12 -19 -18 -19 -7 0
-6 -4 3 -10 10 -6 -1 -8 -34 -4 -48 4 -77 14 -44 14 11 0 15 8 13 25 -1 14 2
25 7 25 5 0 6 5 3 11 -5 7 -11 5 -18 -4 -10 -13 -16 -10 -37 16 -24 30 -24 30
-2 25 12 -4 24 -3 26 1 3 4 -4 7 -14 8 -10 1 -28 11 -40 23 -11 11 -26 18 -33
14 -7 -4 -5 1 4 12 9 10 15 27 14 37 -2 11 -1 16 2 13 10 -9 43 25 36 37 -4 6
-1 7 6 2 9 -5 10 -10 2 -18z m139 19 c0 -2 -8 -10 -17 -17 -16 -13 -17 -12 -4
4 13 16 21 21 21 13z m-10 -46 c-8 -5 -19 -10 -25 -10 -5 0 -3 5 5 10 8 5 20
10 25 10 6 0 3 -5 -5 -10z m-3207 -83 l132 -3 -137 -2 -138 -2 2 48 1 47 4
-42 4 -42 132 -4z m214 -179 c-1 -51 -3 -12 -3 87 0 99 2 141 3 93 2 -48 2
-129 0 -180z m2588 232 c-4 -6 -53 -10 -116 -10 l-109 0 0 -81 c0 -115 4 -119
100 -119 73 0 80 2 80 20 0 18 -7 20 -80 20 l-80 0 0 44 c0 35 4 45 20 49 17
4 20 0 20 -34 l0 -39 80 0 80 0 0 -40 c0 -37 2 -40 27 -40 21 0 24 -3 15 -12
-7 -7 -12 -22 -12 -34 0 -13 -8 -24 -20 -27 -16 -4 -20 0 -20 18 0 53 -4 55
-120 55 -73 0 -111 4 -116 12 -11 17 -13 178 -3 206 8 21 13 22 134 22 82 0
124 -4 120 -10z m190 0 c3 -5 1 -10 -4 -10 -6 0 -11 5 -11 10 0 6 2 10 4 10 3
0 8 -4 11 -10z m195 -2 c0 -4 -7 -8 -15 -8 -8 0 -15 4 -15 8 0 5 7 9 15 9 8 0
15 -4 15 -9z m-12 -53 c-3 -14 -1 -28 4 -31 4 -3 7 0 6 8 -3 15 41 12 57 -3 7
-7 3 -8 -10 -3 -18 7 -19 6 -5 -11 14 -17 14 -18 -7 -7 -14 8 -23 8 -25 2 -2
-6 -19 6 -38 26 -19 20 -30 34 -23 30 6 -3 14 -2 18 4 12 20 27 10 23 -15z
m-178 0 c0 -8 -4 -15 -10 -15 -5 0 -10 7 -10 15 0 8 5 15 10 15 6 0 10 -7 10
-15z m48 3 c-1 -7 12 -33 30 -57 18 -24 32 -38 32 -31 0 7 3 11 6 7 3 -3 3
-11 -1 -17 -5 -8 -11 -7 -23 2 -12 10 -14 10 -8 1 4 -8 2 -13 -5 -13 -7 0 -4
-7 7 -15 16 -13 17 -16 4 -25 -11 -7 -11 -10 -2 -10 7 0 10 -4 7 -10 -3 -5
-13 -10 -21 -10 -8 0 -12 5 -9 10 3 6 -3 10 -15 10 -17 0 -19 2 -8 14 7 8 18
11 23 8 6 -3 6 -1 2 4 -5 5 -10 7 -11 4 -2 -3 -11 2 -21 10 -11 8 -16 10 -12
3 4 -6 3 -14 -3 -18 -5 -3 -10 3 -10 14 0 19 10 25 32 22 8 -1 4 41 -6 57 -4
7 -11 10 -16 7 -4 -3 -7 3 -5 12 1 10 8 17 14 16 6 -2 11 2 11 7 0 6 2 10 5
10 3 0 5 -6 3 -12z m-137 -65 c1 -62 0 -95 -4 -100 -1 0 -11 -3 -21 -5 -17 -3
-19 3 -17 75 l2 77 -105 0 c-64 0 -106 4 -106 10 0 6 48 10 125 10 l125 0 1
-67z m374 47 c3 -6 -1 -7 -9 -4 -18 7 -21 14 -7 14 6 0 13 -4 16 -10z m-259
-48 c2 -8 0 -8 -3 -1 -4 8 -7 8 -13 -1 -5 -8 -9 -7 -14 5 -4 12 -1 16 11 13 9
-2 18 -9 19 -16z m-3159 -154 c-2 -29 -3 -8 -3 47 0 55 1 79 3 53 2 -26 2 -71
0 -100z m190 0 c-2 -29 -3 -8 -3 47 0 55 1 79 3 53 2 -26 2 -71 0 -100z m2943
117 c0 -9 -6 -12 -17 -8 -11 4 -13 8 -5 11 7 2 9 9 6 14 -4 7 -2 8 4 4 7 -4
12 -14 12 -21z m260 12 c0 -2 -9 -12 -20 -22 -24 -21 -27 -14 -4 9 15 15 24
20 24 13z m-126 -63 c8 -20 8 -29 -1 -21 -3 4 -11 2 -18 -3 -8 -7 -11 -3 -9
13 3 28 2 27 13 27 5 0 12 -7 15 -16z m-114 -4 c0 -5 -8 -10 -17 -10 -15 0
-16 2 -3 10 19 12 20 12 20 0z m154 -10 c-10 -4 -21 -6 -24 -3 -8 7 24 22 34
16 5 -4 1 -10 -10 -13z m-1964 -60 c0 -5 -5 -10 -11 -10 -5 0 -7 5 -4 10 3 6
8 10 11 10 2 0 4 -4 4 -10z m17 -12 c-3 -8 -6 -5 -6 6 -1 11 2 17 5 13 3 -3 4
-12 1 -19z m705 -20 c-8 -8 -9 -4 -5 13 4 13 8 18 11 10 2 -7 -1 -18 -6 -23z
m-665 16 c-3 -3 -12 -4 -19 -1 -8 3 -5 6 6 6 11 1 17 -2 13 -5z m-630 -236
c-3 -8 -6 -5 -6 6 -1 11 2 17 5 13 3 -3 4 -12 1 -19z m-1012 -38 c10 -11 16
-20 13 -20 -3 0 -13 9 -23 20 -10 11 -16 20 -13 20 3 0 13 -9 23 -20z m1005
17 c0 -2 -10 -12 -22 -23 l-23 -19 19 23 c18 21 26 27 26 19z m-953 -43 c-3
-3 -12 -4 -19 -1 -8 3 -5 6 6 6 11 1 17 -2 13 -5z m900 0 c-3 -3 -12 -4 -19
-1 -8 3 -5 6 6 6 11 1 17 -2 13 -5z"/>
<path d="M2789 2793 c-13 -16 -12 -17 4 -4 16 13 21 21 13 21 -2 0 -10 -8 -17
-17z"/>
<path d="M2475 2760 c-3 -5 -1 -10 4 -10 6 0 11 5 11 10 0 6 -2 10 -4 10 -3 0
-8 -4 -11 -10z"/>
<path d="M3484 2689 c-4 -7 -3 -9 4 -5 5 3 12 0 15 -6 2 -7 7 -10 11 -7 4 3 0
12 -8 18 -11 9 -16 9 -22 0z"/>
<path d="M4321 2743 c-10 -11 -9 -14 3 -19 8 -3 22 -4 31 -2 14 3 14 5 -3 19
-15 13 -20 13 -31 2z"/>
<path d="M4304 2709 c-3 -5 6 -9 20 -9 15 0 25 -5 24 -12 -2 -6 5 -13 15 -14
10 -1 12 0 3 3 -8 2 -13 10 -10 17 6 15 -43 29 -52 15z"/>
<path d="M4410 2565 c0 -8 7 -15 16 -15 14 0 14 3 4 15 -7 8 -14 15 -16 15 -2
0 -4 -7 -4 -15z"/>
</g>
</svg>
