<?xml version="1.0" standalone="no"?>
<!DOCTYPE svg PUBLIC "-//W3C//DTD SVG 20010904//EN"
 "http://www.w3.org/TR/2001/REC-SVG-20010904/DTD/svg10.dtd">
<svg version="1.0" xmlns="http://www.w3.org/2000/svg"
 width="500.000000pt" height="500.000000pt" viewBox="0 0 500.000000 500.000000"
 preserveAspectRatio="xMidYMid meet">
<metadata>
Created by potrace 1.16, written by Peter Selinger 2001-2019
</metadata>
<g transform="translate(0.000000,500.000000) scale(0.100000,-0.100000)"
fill="#000000" stroke="none">
<path d="M0 2500 l0 -2500 2500 0 2500 0 0 2500 0 2500 -2500 0 -2500 0 0
-2500z m1618 663 c-125 -2 -332 -2 -460 0 -128 1 -26 2 227 2 253 0 358 -1
233 -2z m-708 -6 c0 -2 -10 -12 -22 -23 l-23 -19 19 23 c18 21 26 27 26 19z
m998 -516 l-3 -466 -5 471 c-3 289 -9 477 -15 485 -5 8 -2 6 8 -4 16 -18 17
-53 15 -486z m-1041 447 c-3 -8 -6 -5 -6 6 -1 11 2 17 5 13 3 -3 4 -12 1 -19z
m771 -435 l-3 -258 -2 253 -3 252 -245 0 -244 0 -4 -42 -4 -43 -1 48 -2 47
255 0 255 0 -2 -257z m1582 217 c0 -4 8 -6 18 -3 11 2 29 -7 47 -25 38 -37 46
-67 30 -106 -6 -14 -5 -17 3 -12 9 5 12 -33 12 -153 l0 -161 25 0 c14 0 25 -4
25 -10 0 -5 -20 -10 -45 -10 -41 0 -45 2 -45 25 0 29 -7 31 -39 9 -18 -13 -20
-18 -10 -25 10 -6 7 -9 -11 -10 -14 -1 -28 -1 -32 0 -5 0 -8 -3 -8 -8 0 -4
-15 -8 -32 -8 -19 1 -32 -4 -31 -10 2 -8 -7 -7 -25 2 -16 9 -30 11 -36 5 -5
-5 -18 -5 -32 0 -16 6 -24 6 -24 -1 0 -6 -5 -7 -11 -3 -6 4 -23 8 -38 9 -14 2
-43 10 -63 19 -21 9 -41 16 -44 15 -4 0 -10 5 -15 12 -6 10 -13 9 -30 -6 -13
-12 -19 -14 -14 -5 8 13 7 13 -10 0 -10 -8 -28 -15 -39 -15 -12 0 -20 -5 -19
-11 2 -9 -4 -9 -22 -1 -13 7 -21 15 -19 18 2 4 -10 6 -28 5 -19 -2 -38 4 -50
16 -17 17 -18 17 -29 -3 -7 -14 -17 -19 -30 -16 -11 3 -19 0 -19 -6 0 -7 -5
-5 -10 3 -8 13 -10 13 -10 -1 0 -12 -8 -15 -32 -13 -17 2 -38 -2 -46 -9 -13
-10 -14 -9 -7 3 14 22 15 39 3 47 -7 3 -8 1 -4 -5 5 -8 -1 -11 -18 -10 -23 2
-26 7 -26 40 l0 38 -148 0 c-102 0 -152 4 -160 12 -8 8 -12 49 -12 120 l0 108
-25 0 c-14 0 -25 5 -25 10 0 6 5 10 10 10 6 0 10 11 10 24 0 15 7 26 20 29 17
4 20 0 20 -34 l0 -39 145 0 c90 0 145 -4 145 -10 0 -6 -50 -10 -131 -10 l-132
0 7 -46 c3 -26 6 -57 6 -70 0 -24 1 -24 105 -24 63 0 105 -4 105 -10 0 -6 -44
-10 -111 -10 -100 0 -110 -2 -107 -17 3 -16 19 -18 140 -21 116 -2 136 0 134
12 -1 9 -5 19 -9 22 -4 4 -1 14 6 22 10 13 9 15 -10 10 -21 -6 -23 -3 -23 33
l0 39 -105 0 c-67 0 -105 4 -105 11 0 7 43 9 129 7 71 -2 127 0 125 3 -2 4 3
12 11 19 8 7 13 16 10 20 -2 4 4 15 15 25 11 10 17 22 14 26 -3 5 2 9 10 9 9
0 16 7 16 16 0 8 5 12 10 9 6 -3 10 2 10 11 0 10 3 14 7 11 3 -4 15 0 25 10
10 9 18 12 18 7 0 -5 4 -4 8 3 13 20 75 24 96 5 15 -13 18 -14 12 -2 -4 8 0 6
8 -5 17 -20 86 -29 83 -10 -1 6 8 10 19 10 12 1 28 6 35 12 18 15 89 14 89 0
0 -9 2 -9 8 0 4 7 13 9 21 4 7 -5 32 -3 55 4 22 7 49 11 58 9 10 -1 20 1 22 4
6 10 176 12 176 2z m1265 -1 c-6 10 -4 12 6 5 8 -4 36 -8 64 -9 30 0 49 -4 48
-11 -1 -6 4 -11 12 -11 8 0 12 4 10 8 -3 4 2 9 10 12 9 4 12 1 9 -7 -3 -8 -1
-17 5 -20 6 -4 8 -13 4 -21 -4 -11 -1 -13 11 -9 14 5 16 1 12 -21 -4 -19 0
-33 12 -42 16 -13 16 -13 -3 -11 -21 3 -28 -18 -13 -38 5 -7 2 -19 -9 -29 -23
-24 -26 -45 -5 -37 15 5 15 4 3 -11 -12 -15 -12 -17 2 -11 11 4 15 0 13 -12
-2 -10 -9 -20 -16 -22 -9 -3 -5 -10 11 -19 13 -8 17 -12 9 -10 -10 3 -16 -2
-17 -14 -1 -15 2 -17 15 -10 14 7 18 5 18 -9 0 -10 -5 -18 -11 -17 -5 1 -10
-11 -10 -28 -1 -21 -8 -33 -23 -41 -31 -15 -40 -26 -17 -19 11 3 5 -2 -14 -10
-18 -9 -40 -14 -48 -11 -7 3 -16 -1 -20 -9 -5 -13 -7 -13 -20 2 -8 10 -12 13
-9 7 3 -7 -1 -15 -10 -18 -21 -8 -26 -8 -20 3 3 5 -1 12 -10 15 -8 3 -12 2 -9
-3 7 -12 -31 -24 -47 -15 -17 11 -58 11 -58 1 0 -5 -12 -2 -26 8 -18 11 -24
13 -19 4 5 -8 -1 -5 -13 5 -21 18 -27 15 -22 -9 1 -5 -2 -6 -7 -2 -4 5 -8 14
-8 20 -1 7 -6 11 -13 9 -7 -1 -12 5 -12 14 0 10 -5 14 -16 10 -9 -3 -12 -2 -9
5 9 14 -15 40 -29 32 -6 -4 -5 1 3 10 12 15 11 17 -8 17 -20 0 -21 5 -21 80
l0 80 -105 0 c-63 0 -105 4 -105 10 0 6 48 10 123 10 67 0 116 4 109 8 -9 6
-7 14 8 30 13 14 16 22 8 22 -7 0 -2 6 12 13 14 7 24 21 23 31 0 11 4 15 12
12 8 -3 17 4 20 15 6 17 9 18 23 7 10 -7 14 -8 10 -4 -10 11 11 38 23 30 5 -3
9 -2 8 3 -3 20 2 25 15 14 11 -9 16 -9 22 0 5 8 3 10 -7 4 -8 -5 -11 -4 -6 0
4 5 25 9 47 10 22 1 43 4 46 8 4 4 14 1 22 -6 13 -10 14 -9 7 2z m-2065 -83
c0 -35 -4 -45 -20 -49 -17 -4 -20 0 -20 34 l0 39 -145 0 c-90 0 -145 4 -145
10 0 6 62 10 165 10 l165 0 0 -44z m1270 29 c15 -8 38 -27 49 -41 19 -24 23
-26 39 -12 9 9 28 21 42 27 21 10 22 10 10 -1 -43 -36 -50 -59 -50 -176 0
-175 26 -202 194 -202 62 0 96 -4 96 -11 0 -7 -40 -10 -124 -7 -111 3 -128 5
-155 26 -17 12 -31 18 -31 13 0 -5 -8 -11 -17 -13 -17 -4 -18 6 -15 131 5 228
-14 254 -189 259 -60 2 -109 8 -109 13 0 16 227 11 260 -6z m480 -29 c0 -35
-4 -45 -20 -49 -18 -4 -20 0 -20 35 l0 40 -139 -4 c-114 -2 -136 -1 -118 9 14
8 71 12 160 13 l137 0 0 -44z m-651 -56 c70 0 111 -4 119 -12 8 -8 12 -58 12
-160 l0 -148 25 0 c14 0 25 -5 25 -11 0 -6 -17 -9 -42 -7 l-43 3 0 60 c0 33
-4 66 -9 74 -7 10 -5 12 5 6 11 -6 12 -5 2 6 -7 7 -13 26 -13 41 l0 28 -100 0
-100 0 0 60 c0 57 -1 60 -25 60 -14 0 -25 5 -25 10 0 6 5 10 10 10 6 0 10 11
10 24 0 15 7 26 18 28 13 3 18 -5 20 -34 l3 -38 108 0z m-2246 -63 l132 -3
-137 -2 -138 -2 2 48 1 47 4 -42 4 -42 132 -4z m214 -179 c-1 -51 -3 -12 -3
87 0 99 2 141 3 93 2 -48 2 -129 0 -180z m520 -25 c28 -43 69 -53 218 -53 83
0 135 -4 135 -10 0 -6 -57 -10 -150 -10 -238 0 -260 18 -260 212 0 103 2 117
18 120 15 3 17 -9 20 -115 2 -91 7 -125 19 -144z m2103 257 c0 -6 -43 -10
-110 -10 l-111 0 3 -97 3 -98 83 -3 c77 -3 82 -2 82 18 0 18 -6 20 -80 20
l-80 0 0 44 c0 35 4 45 20 49 17 4 20 0 20 -34 l0 -39 80 0 80 0 0 -40 c0 -36
3 -40 25 -40 14 0 25 -4 25 -10 0 -5 -4 -10 -10 -10 -5 0 -10 -11 -10 -24 0
-15 -7 -26 -20 -29 -17 -4 -20 0 -20 34 l0 39 -108 0 c-71 0 -112 4 -120 12
-16 16 -16 200 0 216 15 15 248 17 248 2z m-2973 -272 c-2 -29 -3 -8 -3 47 0
55 1 79 3 53 2 -26 2 -71 0 -100z m190 0 c-2 -29 -3 -8 -3 47 0 55 1 79 3 53
2 -26 2 -71 0 -100z m2253 72 c0 -6 -30 -10 -70 -10 l-70 0 0 -44 c0 -35 -4
-45 -20 -49 -18 -5 -20 0 -20 54 l0 59 90 0 c53 0 90 -4 90 -10z m-2713 -332
c-3 -8 -6 -5 -6 6 -1 11 2 17 5 13 3 -3 4 -12 1 -19z m28 -38 c10 -11 16 -20
13 -20 -3 0 -13 9 -23 20 -10 11 -16 20 -13 20 3 0 13 -9 23 -20z m1005 17 c0
-2 -10 -12 -22 -23 l-23 -19 19 23 c18 21 26 27 26 19z m-953 -43 c-3 -3 -12
-4 -19 -1 -8 3 -5 6 6 6 11 1 17 -2 13 -5z m900 0 c-3 -3 -12 -4 -19 -1 -8 3
-5 6 6 6 11 1 17 -2 13 -5z"/>
<path d="M3440 2670 l0 -40 89 0 90 0 -5 28 c-9 52 -9 52 -94 52 l-80 0 0 -40z"/>
</g>
</svg>
