<?xml version="1.0" standalone="no"?>
<!DOCTYPE svg PUBLIC "-//W3C//DTD SVG 20010904//EN"
 "http://www.w3.org/TR/2001/REC-SVG-20010904/DTD/svg10.dtd">
<svg version="1.0" xmlns="http://www.w3.org/2000/svg"
 width="500.000000pt" height="500.000000pt" viewBox="0 0 500.000000 500.000000"
 preserveAspectRatio="xMidYMid meet">
<metadata>
Created by potrace 1.16, written by Peter Selinger 2001-2019
</metadata>
<g transform="translate(0.000000,500.000000) scale(0.100000,-0.100000)"
fill="#000000" stroke="none">
<path d="M0 2500 l0 -2500 2500 0 2500 0 0 2500 0 2500 -2500 0 -2500 0 0
-2500z m1618 663 c-125 -2 -332 -2 -460 0 -128 1 -26 2 227 2 253 0 358 -1
233 -2z m273 -30 c13 -16 12 -17 -3 -4 -10 7 -18 15 -18 17 0 8 8 3 21 -13z
m-253 -480 l-3 -258 -2 253 -3 252 -245 0 -244 0 -4 -42 -4 -43 -1 48 -2 47
255 0 255 0 -2 -257z m2786 216 c11 4 55 9 96 10 81 2 136 -11 124 -31 -4 -7
-3 -8 5 -4 6 4 18 0 27 -8 8 -9 12 -16 8 -16 -3 0 -1 -7 6 -15 7 -9 10 -18 6
-22 -3 -3 -6 -1 -6 6 0 7 -5 9 -11 6 -6 -5 -4 -12 8 -21 15 -11 16 -15 4 -23
-8 -5 -12 -18 -8 -30 3 -12 1 -21 -5 -21 -5 0 -6 -4 -3 -10 3 -5 0 -10 -7 -10
-9 0 -9 -3 2 -10 8 -5 10 -10 4 -10 -14 0 -13 -42 1 -52 6 -5 5 -8 -3 -8 -7 0
-10 -5 -7 -10 4 -6 11 -7 17 -4 7 4 8 2 4 -5 -4 -6 -12 -9 -17 -6 -5 4 -9 -1
-9 -10 0 -9 4 -14 9 -11 5 3 12 -2 15 -11 4 -9 1 -20 -6 -25 -11 -6 -10 -8 0
-8 9 0 11 -7 7 -22 -5 -18 -4 -19 4 -8 5 8 13 11 16 8 4 -4 -2 -12 -14 -19
-19 -12 -19 -15 -4 -31 15 -16 14 -18 -8 -27 -13 -5 -28 -7 -34 -4 -5 2 -1 -3
9 -11 19 -16 19 -16 -7 -17 -15 -1 -37 -2 -49 -2 -13 -1 -29 -7 -36 -14 -8 -7
-18 -10 -23 -7 -17 10 -129 12 -129 1 0 -5 -7 -3 -16 4 -9 7 -24 14 -33 14
-36 1 -91 18 -91 27 0 7 -5 6 -13 -1 -11 -8 -19 -5 -38 16 -13 14 -18 23 -11
19 20 -12 14 4 -10 26 -13 11 -16 16 -8 12 12 -6 13 -4 3 7 -8 8 -13 42 -13
91 l0 78 -105 0 c-63 0 -105 4 -105 10 0 8 168 17 220 12 3 0 6 8 7 18 1 11
15 34 32 52 16 18 29 36 28 39 -3 11 35 49 43 44 4 -2 15 4 25 15 10 11 26 20
37 20 10 0 18 5 18 12 0 9 3 9 11 1 7 -7 20 -8 33 -4z m-1164 -10 c0 -5 9 -9
21 -9 11 0 17 -4 14 -10 -3 -5 1 -10 9 -10 12 0 14 -11 11 -56 -3 -46 -2 -55
10 -50 13 5 15 -19 15 -154 l0 -160 25 0 c14 0 25 -4 25 -10 0 -5 -20 -10 -45
-10 -43 0 -45 1 -45 30 0 32 -19 41 -26 13 -8 -30 -81 -58 -153 -59 -36 -1
-68 -3 -71 -4 -13 -5 -70 -6 -70 -1 0 3 -11 7 -25 7 -13 1 -32 9 -40 18 -9 9
-23 16 -31 16 -8 0 -14 4 -14 8 0 4 -9 8 -20 9 -11 1 -20 -3 -20 -8 0 -6 -5
-7 -10 -4 -6 3 -23 -3 -39 -15 -17 -12 -32 -16 -36 -11 -3 6 -15 7 -28 2 -24
-9 -77 5 -77 21 0 5 -4 7 -9 3 -6 -3 -14 2 -19 11 -8 15 -11 14 -28 -4 -31
-33 -151 -52 -161 -26 -3 8 -11 14 -19 14 -10 0 -14 12 -14 40 l0 40 -148 0
c-102 0 -152 4 -160 12 -8 8 -12 49 -12 120 l0 108 -25 0 c-14 0 -25 5 -25 10
0 6 5 10 10 10 6 0 10 11 10 25 0 16 6 25 15 25 10 0 15 -11 15 -35 l0 -35
151 0 c97 0 148 -4 144 -10 -4 -6 -58 -10 -131 -10 l-124 0 0 -70 0 -70 111 0
c71 0 108 -4 104 -10 -3 -6 -52 -10 -111 -10 -95 0 -105 -2 -102 -17 3 -16 19
-18 136 -21 l132 -3 0 37 c0 28 -3 35 -15 30 -12 -4 -15 3 -15 34 l0 40 -105
0 c-63 0 -105 4 -105 10 0 6 48 10 125 10 125 0 125 0 131 25 3 14 10 22 15
19 5 -3 9 2 9 11 0 11 -5 15 -15 11 -12 -4 -15 3 -15 34 l0 40 -145 0 c-90 0
-145 4 -145 10 0 6 62 10 165 10 l165 0 0 -42 0 -42 48 47 c26 26 53 47 60 47
7 0 11 3 8 8 -8 13 61 5 97 -13 20 -9 39 -25 42 -35 5 -15 9 -16 29 -7 14 7
22 15 20 19 -3 5 2 8 10 8 9 0 16 3 16 8 0 24 112 38 128 16 9 -12 41 -11 77
3 17 7 39 14 50 16 35 9 245 4 245 -4z m435 -43 c19 -8 43 -29 53 -46 17 -27
21 -29 32 -15 7 9 22 21 33 27 19 10 19 9 -1 -17 -20 -25 -22 -39 -22 -154 0
-181 20 -201 195 -201 57 0 95 -4 95 -10 0 -6 -46 -10 -119 -10 -109 0 -121 2
-155 25 -20 13 -36 21 -36 16 0 -5 -9 -11 -20 -14 -19 -5 -20 0 -20 149 0 225
-15 244 -195 244 -57 0 -95 4 -95 10 0 16 215 13 255 -4z m485 -30 c0 -35 -4
-45 -20 -49 -18 -4 -20 0 -20 34 l0 40 -140 -3 c-77 -2 -140 -2 -140 0 0 13
67 21 183 21 l137 1 0 -44z m-650 -56 c98 0 110 -2 120 -19 5 -11 10 -83 10
-160 l0 -141 25 0 c14 0 25 -4 25 -10 0 -5 -20 -10 -45 -10 l-45 0 0 49 c0 26
-3 76 -6 110 l-7 61 -98 0 -99 0 0 60 c0 57 -1 60 -25 60 -14 0 -25 5 -25 10
0 6 5 10 10 10 6 0 10 11 10 24 0 15 7 26 18 28 13 3 18 -5 20 -34 l3 -38 109
0z m-2257 -63 l132 -3 -137 -2 -138 -2 2 48 1 47 4 -42 4 -42 132 -4z m214
-179 c-1 -51 -3 -12 -3 87 0 99 2 141 3 93 2 -48 2 -129 0 -180z m526 -22 c30
-46 71 -56 222 -56 83 0 135 -4 135 -10 0 -17 -305 -13 -340 5 -61 32 -70 55
-70 191 0 89 3 123 13 127 9 3 13 -26 17 -113 4 -89 10 -123 23 -144z m2107
254 c0 -6 -43 -10 -110 -10 l-111 0 3 -97 3 -98 83 -3 c77 -3 82 -2 82 18 0
18 -6 20 -80 20 l-80 0 0 46 c0 38 3 45 18 42 12 -2 17 -13 17 -36 l0 -32 82
0 83 0 0 -40 c0 -36 3 -40 25 -40 14 0 25 -4 25 -10 0 -5 -4 -10 -10 -10 -5 0
-10 -11 -10 -24 0 -15 -7 -26 -20 -29 -17 -4 -20 0 -20 34 l0 39 -108 0 c-71
0 -112 4 -120 12 -16 16 -16 200 0 216 15 15 248 17 248 2z m-2793 -272 c-2
-29 -3 -8 -3 47 0 55 1 79 3 53 2 -26 2 -71 0 -100z m2263 72 c0 -6 -30 -10
-70 -10 l-70 0 0 -44 c0 -35 -4 -45 -20 -49 -18 -5 -20 0 -20 54 l0 59 90 0
c53 0 90 -4 90 -10z m-2695 -370 c10 -11 16 -20 13 -20 -3 0 -13 9 -23 20 -10
11 -16 20 -13 20 3 0 13 -9 23 -20z m1005 17 c0 -2 -10 -12 -22 -23 l-23 -19
19 23 c18 21 26 27 26 19z"/>
<path d="M4235 2410 c3 -5 8 -10 11 -10 2 0 4 5 4 10 0 6 -5 10 -11 10 -5 0
-7 -4 -4 -10z"/>
<path d="M3450 2670 l0 -40 86 0 85 0 -3 38 -3 37 -82 3 -83 3 0 -41z"/>
</g>
</svg>
