<?xml version="1.0" standalone="no"?>
<!DOCTYPE svg PUBLIC "-//W3C//DTD SVG 20010904//EN"
 "http://www.w3.org/TR/2001/REC-SVG-20010904/DTD/svg10.dtd">
<svg version="1.0" xmlns="http://www.w3.org/2000/svg"
 width="500.000000pt" height="500.000000pt" viewBox="0 0 500.000000 500.000000"
 preserveAspectRatio="xMidYMid meet">
<metadata>
Created by potrace 1.16, written by Peter Selinger 2001-2019
</metadata>
<g transform="translate(0.000000,500.000000) scale(0.100000,-0.100000)"
fill="#000000" stroke="none">
<path d="M889 3134 l-24 -26 0 -464 0 -464 28 -27 27 -28 464 0 464 0 26 24
26 24 0 469 0 469 -25 24 -24 25 -469 0 -469 0 -24 -26z m751 -479 l0 -255
-45 0 -45 0 0 210 0 210 -210 0 -210 0 0 45 0 45 255 0 255 0 0 -255z m-150
-80 l0 -175 -45 0 -45 0 0 130 0 130 -135 0 -135 0 0 45 0 45 180 0 180 0 0
-175z m-160 -80 l0 -95 -100 0 -100 0 0 95 0 95 100 0 100 0 0 -95z"/>
<path d="M3855 2802 c-71 -24 -85 -55 -85 -190 0 -177 16 -194 193 -200 l117
-4 0 41 0 41 -108 0 c-71 0 -112 4 -120 12 -8 8 -12 47 -12 108 0 61 4 100 12
108 8 8 54 12 140 12 l128 0 0 40 0 40 -122 -1 c-68 -1 -132 -4 -143 -7z"/>
<path d="M3417 2793 c-4 -3 -7 -17 -7 -30 0 -23 2 -23 103 -23 140 0 137 4
137 -176 l0 -140 26 1 26 0 -1 150 c-2 162 -8 185 -62 212 -25 13 -210 18
-222 6z"/>
<path d="M3337 2713 c-4 -3 -7 -71 -7 -150 0 -137 1 -143 20 -143 24 0 28 9
32 70 l4 45 97 3 97 3 0 29 0 29 -97 3 -98 3 -3 58 c-2 47 -6 57 -21 57 -10 0
-21 -3 -24 -7z"/>
<path d="M2007 2683 c-4 -7 -3 -15 3 -18 8 -5 8 -11 0 -20 -8 -10 -8 -15 2
-21 7 -4 10 -4 6 1 -4 4 -4 13 1 19 5 6 5 20 1 30 -4 13 -9 16 -13 9z"/>
<path d="M3930 2610 l0 -40 80 0 80 0 0 -40 c0 -39 1 -40 35 -40 l35 0 0 80 0
80 -115 0 -115 0 0 -40z"/>
<path d="M2005 2601 c-3 -5 -2 -12 3 -15 5 -3 9 1 9 9 0 17 -3 19 -12 6z"/>
<path d="M2013 2554 c3 -12 1 -27 -3 -35 -5 -9 5 -24 29 -44 l36 -29 -29 31
c-16 18 -26 38 -24 45 3 7 1 22 -4 33 -8 19 -8 19 -5 -1z"/>
</g>
</svg>
