<?xml version="1.0" standalone="no"?>
<!DOCTYPE svg PUBLIC "-//W3C//DTD SVG 20010904//EN"
 "http://www.w3.org/TR/2001/REC-SVG-20010904/DTD/svg10.dtd">
<svg version="1.0" xmlns="http://www.w3.org/2000/svg"
 width="500.000000pt" height="500.000000pt" viewBox="0 0 500.000000 500.000000"
 preserveAspectRatio="xMidYMid meet">
<metadata>
Created by potrace 1.16, written by Peter Selinger 2001-2019
</metadata>
<g transform="translate(0.000000,500.000000) scale(0.100000,-0.100000)"
fill="#000000" stroke="none">
<path d="M0 2500 l0 -2500 2500 0 2500 0 0 2500 0 2500 -2500 0 -2500 0 0
-2500z m1618 663 c-125 -2 -332 -2 -460 0 -128 1 -26 2 227 2 253 0 358 -1
233 -2z m-708 -6 c0 -2 -10 -12 -22 -23 l-23 -19 19 23 c18 21 26 27 26 19z
m998 -516 l-3 -466 -5 471 c-3 289 -9 477 -15 485 -5 8 -2 6 8 -4 16 -18 17
-53 15 -486z m-1041 447 c-3 -8 -6 -5 -6 6 -1 11 2 17 5 13 3 -3 4 -12 1 -19z
m771 -435 l-3 -258 -2 253 -3 252 -245 0 -244 0 -4 -42 -4 -43 -1 48 -2 47
255 0 255 0 -2 -257z m1606 212 c8 -8 20 -15 26 -15 6 0 8 -4 5 -10 -3 -5 -1
-10 5 -10 6 0 9 -4 6 -9 -3 -5 1 -12 9 -15 16 -6 17 -40 2 -64 -5 -7 -5 -12 0
-11 31 5 33 -2 33 -161 l0 -160 25 0 c14 0 25 -4 25 -10 0 -5 -20 -10 -44 -10
-42 0 -45 2 -48 30 l-3 30 -29 -25 c-16 -14 -33 -25 -37 -25 -4 0 -15 -7 -24
-16 -17 -17 -108 -27 -98 -10 4 5 1 6 -8 1 -16 -11 -89 -13 -89 -3 0 4 -7 5
-15 2 -8 -3 -28 1 -44 9 -18 9 -33 11 -39 5 -5 -5 -14 -3 -22 7 -7 8 -19 15
-27 15 -8 0 -11 5 -7 11 4 7 -1 9 -12 7 -11 -2 -18 -8 -17 -14 1 -5 -30 -9
-68 -10 -38 -1 -69 2 -69 7 0 4 -8 6 -17 4 -10 -1 -24 3 -32 9 -12 9 -13 8 -6
-4 7 -12 6 -13 -6 -3 -9 8 -20 9 -29 3 -8 -6 -28 -10 -44 -10 -26 0 -27 -2
-15 -17 11 -15 10 -15 -8 1 -20 17 -23 17 -29 3 -4 -12 -11 -14 -24 -7 -9 5
-21 6 -25 2 -5 -4 -5 -1 -1 6 4 7 1 12 -9 12 -9 0 -13 4 -10 10 7 11 -14 4
-55 -17 -37 -19 -321 -18 -359 1 -53 28 -65 60 -69 187 -4 115 -4 115 22 132
14 10 26 15 26 12 0 -4 7 0 15 9 8 8 15 21 15 29 0 9 15 25 34 36 30 19 49 21
200 21 l166 0 0 -43 c0 -40 -2 -43 -40 -60 -31 -13 -68 -17 -160 -17 -118 0
-120 0 -120 -22 0 -23 1 -23 150 -23 83 0 150 2 150 5 0 4 -5 11 -12 18 -9 9
-8 12 7 12 10 0 16 3 12 6 -3 3 3 15 14 27 10 11 19 26 19 32 0 16 46 55 69
58 11 2 26 9 35 16 11 9 16 10 16 2 0 -8 5 -9 19 -2 13 8 32 5 70 -9 28 -10
52 -16 52 -14 1 2 2 8 3 13 0 5 5 13 10 18 5 4 7 4 4 -2 -3 -5 0 -15 7 -22 10
-10 16 -9 24 1 6 7 7 17 3 22 -4 4 2 2 12 -6 13 -10 17 -10 12 -2 -7 12 2 13
147 14 20 0 37 5 37 10 0 6 6 8 13 5 6 -2 20 -1 29 2 10 3 65 7 122 8 82 2
108 0 120 -12z m1326 -1 c39 -7 83 -41 73 -57 -4 -6 2 -8 16 -4 18 4 20 3 10
-9 -6 -7 -15 -11 -20 -8 -5 3 -9 1 -9 -5 0 -5 5 -11 12 -13 6 -2 12 -12 14
-22 2 -13 -1 -15 -11 -6 -9 8 -15 8 -20 0 -3 -5 -2 -10 2 -10 5 0 14 -9 20
-20 11 -16 10 -18 -1 -14 -8 3 -17 0 -22 -7 -4 -7 -3 -10 3 -6 6 4 13 0 17 -8
3 -9 0 -15 -9 -15 -7 0 -17 -5 -20 -10 -4 -6 -3 -10 2 -9 18 3 33 -2 33 -11 0
-5 -8 -10 -17 -10 -15 0 -16 -2 -3 -10 8 -5 15 -24 15 -42 0 -18 4 -40 9 -48
5 -8 6 -12 2 -8 -5 4 -14 1 -21 -5 -10 -9 -10 -15 -1 -26 9 -12 8 -13 -4 -6
-8 4 -12 5 -8 0 4 -4 2 -15 -5 -24 -10 -14 -10 -14 5 -3 12 9 18 10 23 2 4 -6
4 -14 1 -17 -3 -4 -6 -2 -6 4 0 8 -7 8 -24 0 -23 -11 -24 -13 -9 -29 9 -10 13
-21 10 -25 -4 -3 -7 -1 -7 6 0 7 -5 9 -12 5 -7 -4 -8 -3 -4 4 4 7 2 12 -3 12
-6 0 -11 -4 -11 -10 0 -5 -15 -10 -32 -10 -41 0 -63 -13 -53 -31 6 -11 5 -12
-6 -1 -15 14 -33 17 -25 4 3 -5 -1 -9 -9 -9 -8 0 -12 4 -9 9 3 4 0 8 -5 8 -19
0 -26 2 -43 11 -13 7 -18 6 -18 -4 0 -9 -10 -14 -29 -13 -16 1 -27 4 -24 9 5
8 -46 31 -64 28 -6 -1 -14 7 -18 18 -3 10 -12 22 -20 25 -8 3 -15 13 -15 22 0
14 -2 15 -17 3 -15 -13 -15 -12 -5 7 11 21 9 21 -46 21 -31 0 -45 -2 -29 -4
25 -4 40 -23 17 -23 -5 0 -10 -11 -10 -24 0 -15 -7 -26 -20 -29 -17 -4 -20 0
-20 34 l0 39 -109 0 c-81 0 -112 4 -120 14 -16 19 -16 193 0 212 14 17 255 21
244 4 -4 -6 -53 -10 -116 -10 l-109 0 0 -81 c0 -115 4 -119 100 -119 73 0 80
2 80 20 0 18 -7 20 -80 20 l-80 0 0 45 c0 37 3 45 18 45 15 0 18 -7 16 -35
l-3 -35 85 0 84 0 -4 25 c-3 13 0 28 6 31 6 4 8 3 5 -3 -3 -5 0 -10 7 -10 11
0 12 4 3 19 -10 15 -25 18 -84 18 -42 0 -73 4 -73 10 0 6 49 10 126 10 l126 0
-17 26 c-9 15 -12 23 -6 20 6 -4 15 3 20 16 5 13 17 30 27 38 16 13 17 13 9 0
-4 -8 6 -2 23 14 17 16 29 34 25 39 -4 6 -1 7 8 1 24 -15 42 -14 29 1 -9 10
-7 13 7 11 10 -2 23 4 29 12 19 27 103 33 204 16z m-2030 -18 c0 -3 -4 -8 -10
-11 -5 -3 -10 -1 -10 4 0 6 5 11 10 11 6 0 10 -2 10 -4z m1145 -30 c19 -8 43
-29 53 -46 17 -27 21 -29 32 -15 7 9 22 21 33 27 18 9 18 7 -4 -23 -22 -31
-24 -43 -23 -150 0 -174 25 -199 199 -199 62 0 94 -4 90 -10 -4 -6 -55 -10
-119 -10 -104 0 -116 2 -150 25 -20 13 -36 21 -36 16 0 -5 -9 -11 -20 -14 -19
-5 -20 0 -20 146 0 168 -6 188 -59 224 -30 20 -46 23 -132 23 -59 0 -99 4 -99
10 0 16 215 13 255 -4z m485 -31 c0 -33 -4 -45 -15 -45 -8 0 -18 -1 -22 -2 -5
-2 -6 14 -5 35 l4 37 -126 0 c-68 0 -136 -4 -150 -10 -38 -14 -32 -2 7 15 22
10 74 14 170 15 l137 0 0 -45z m-650 -55 c98 0 110 -2 120 -19 5 -11 10 -83
10 -160 l0 -141 25 0 c14 0 25 -4 25 -10 0 -5 -20 -10 -45 -10 l-45 0 0 49 c0
26 -3 76 -6 110 l-7 61 -98 0 -99 0 0 60 c0 57 -1 60 -25 60 -14 0 -25 5 -25
10 0 6 5 10 10 10 6 0 10 11 10 24 0 15 7 26 18 28 13 3 18 -5 20 -34 l3 -38
109 0z m750 64 c0 -2 -7 -4 -15 -4 -8 0 -15 4 -15 10 0 5 7 7 15 4 8 -4 15 -8
15 -10z m-2997 -127 l132 -3 -137 -2 -138 -2 2 48 1 47 4 -42 4 -42 132 -4z
m214 -179 c-1 -51 -3 -12 -3 87 0 99 2 141 3 93 2 -48 2 -129 0 -180z m-350
-40 c-2 -29 -3 -8 -3 47 0 55 1 79 3 53 2 -26 2 -71 0 -100z m190 0 c-2 -29
-3 -8 -3 47 0 55 1 79 3 53 2 -26 2 -71 0 -100z m2253 72 c0 -6 -30 -10 -70
-10 l-70 0 0 -44 c0 -35 -4 -45 -20 -49 -18 -5 -20 0 -20 54 l0 59 90 0 c53 0
90 -4 90 -10z m947 -172 c-3 -8 -6 -5 -6 6 -1 11 2 17 5 13 3 -3 4 -12 1 -19z
m-3660 -160 c-3 -8 -6 -5 -6 6 -1 11 2 17 5 13 3 -3 4 -12 1 -19z m28 -38 c10
-11 16 -20 13 -20 -3 0 -13 9 -23 20 -10 11 -16 20 -13 20 3 0 13 -9 23 -20z
m1005 17 c0 -2 -10 -12 -22 -23 l-23 -19 19 23 c18 21 26 27 26 19z m-953 -43
c-3 -3 -12 -4 -19 -1 -8 3 -5 6 6 6 11 1 17 -2 13 -5z m900 0 c-3 -3 -12 -4
-19 -1 -8 3 -5 6 6 6 11 1 17 -2 13 -5z"/>
<path d="M2083 2803 c-7 -2 -13 -18 -13 -34 l0 -29 136 0 c113 0 135 2 131 14
-3 8 2 16 14 19 10 3 19 12 19 21 0 14 -18 16 -137 15 -76 0 -144 -3 -150 -6z"/>
<path d="M1996 2717 c-16 -12 -17 -24 -13 -113 4 -54 7 -105 8 -112 3 -21 54
-67 75 -70 10 -1 28 -3 39 -6 11 -2 25 1 32 6 7 5 13 5 17 0 5 -9 85 -7 160 3
17 2 37 4 44 4 6 1 12 11 12 24 -1 20 -2 20 -11 5 -5 -10 -18 -18 -27 -17 -14
0 -13 2 3 9 11 5 14 9 8 9 -19 1 -16 19 5 24 9 3 -49 5 -130 6 -105 1 -149 5
-155 14 -4 6 -10 59 -13 117 -5 111 -14 126 -54 97z m324 -247 c0 -5 -7 -10
-16 -10 -8 0 -12 5 -9 10 3 6 10 10 16 10 5 0 9 -4 9 -10z m-10 -30 c0 -5 -2
-10 -4 -10 -3 0 -8 5 -11 10 -3 6 -1 10 4 10 6 0 11 -4 11 -10z"/>
<path d="M2118 2639 c-10 -5 -18 -21 -18 -34 0 -25 1 -25 85 -25 78 0 88 2
115 27 17 14 30 30 30 35 0 12 -192 9 -212 -3z m197 -9 c-3 -5 -11 -10 -16
-10 -6 0 -7 5 -4 10 3 6 11 10 16 10 6 0 7 -4 4 -10z"/>
<path d="M2330 2564 c-17 -9 -59 -14 -127 -14 -81 0 -103 -3 -103 -14 0 -8 7
-17 16 -20 23 -9 271 -7 257 2 -13 8 -13 29 0 50 11 16 -11 14 -43 -4z"/>
<path d="M2373 2545 c0 -8 4 -12 9 -9 5 3 6 10 3 15 -9 13 -12 11 -12 -6z"/>
<path d="M4153 2611 c-8 -12 -20 -18 -33 -16 -11 2 -18 0 -15 -6 4 -5 14 -9
24 -9 9 0 22 -5 29 -12 9 -9 11 -3 10 25 -1 20 -2 37 -2 37 -1 0 -7 -9 -13
-19z"/>
<path d="M4626 2575 c-3 -9 0 -15 9 -15 9 0 12 6 9 15 -4 8 -7 15 -9 15 -2 0
-5 -7 -9 -15z"/>
<path d="M4120 2549 c0 -5 9 -9 21 -9 11 0 18 -4 14 -9 -3 -6 -14 -8 -25 -6
-11 2 -22 1 -24 -3 -3 -4 10 -8 28 -8 24 0 32 5 33 18 1 10 -1 18 -5 19 -4 0
-15 2 -24 4 -10 2 -18 -1 -18 -6z"/>
<path d="M3440 2670 l0 -40 85 0 85 0 0 28 c0 43 -17 52 -97 52 l-73 0 0 -40z"/>
</g>
</svg>
