<?xml version="1.0" standalone="no"?>
<!DOCTYPE svg PUBLIC "-//W3C//DTD SVG 20010904//EN"
 "http://www.w3.org/TR/2001/REC-SVG-20010904/DTD/svg10.dtd">
<svg version="1.0" xmlns="http://www.w3.org/2000/svg"
 width="500.000000pt" height="500.000000pt" viewBox="0 0 500.000000 500.000000"
 preserveAspectRatio="xMidYMid meet">
<metadata>
Created by potrace 1.16, written by Peter Selinger 2001-2019
</metadata>
<g transform="translate(0.000000,500.000000) scale(0.100000,-0.100000)"
fill="#000000" stroke="none">
<path d="M0 2500 l0 -2500 2500 0 2500 0 0 2500 0 2500 -2500 0 -2500 0 0
-2500z m1618 663 c-125 -2 -332 -2 -460 0 -128 1 -26 2 227 2 253 0 358 -1
233 -2z m-708 -6 c0 -2 -10 -12 -22 -23 l-23 -19 19 23 c18 21 26 27 26 19z
m998 -516 l-3 -466 -5 471 c-3 289 -9 477 -15 485 -5 8 -2 6 8 -4 16 -18 17
-53 15 -486z m-1041 447 c-3 -8 -6 -5 -6 6 -1 11 2 17 5 13 3 -3 4 -12 1 -19z
m771 -435 l-3 -258 -2 253 -3 252 -245 0 -244 0 -4 -42 -4 -43 -1 48 -2 47
255 0 255 0 -2 -257z m1430 209 c8 -1 11 1 8 6 -3 5 28 9 69 9 41 1 73 -2 71
-6 -3 -4 7 -6 22 -3 34 5 71 -32 77 -76 2 -17 6 -36 10 -42 3 -5 0 -10 -7 -11
-10 0 -10 -2 0 -6 9 -3 12 -46 12 -164 l0 -159 25 0 c14 0 25 -4 25 -10 0 -5
-18 -10 -40 -10 -36 0 -40 3 -40 25 0 15 -6 25 -15 25 -17 0 -37 -34 -27 -45
4 -5 2 -5 -5 -1 -6 3 -34 -3 -62 -14 -37 -14 -51 -16 -52 -7 0 9 -2 9 -6 0 -3
-9 -10 -10 -24 -3 -10 6 -19 7 -19 2 0 -5 -7 -9 -15 -9 -8 0 -15 5 -15 10 0 5
-6 4 -13 -2 -8 -6 -17 -8 -20 -4 -4 3 -28 7 -54 8 -29 1 -66 12 -95 28 -43 23
-96 27 -83 7 12 -20 -84 -27 -104 -7 -10 8 -12 8 -7 0 4 -8 -2 -11 -21 -8 -16
1 -27 8 -26 13 2 6 -6 9 -17 7 -14 -3 -20 2 -21 13 0 14 -3 13 -16 -5 -10 -15
-26 -23 -44 -23 -15 0 -30 -4 -34 -10 -4 -6 -15 -6 -30 0 -14 5 -25 7 -25 3 0
-3 -9 2 -19 11 -11 10 -22 13 -25 8 -3 -6 -20 -5 -43 3 -29 10 -39 20 -46 44
l-8 31 -112 0 c-75 0 -117 4 -125 12 -8 8 -12 49 -12 120 l0 108 -25 0 c-14 0
-25 5 -25 10 0 6 5 10 10 10 6 0 10 11 10 24 0 15 7 26 20 29 17 4 20 0 20
-34 l0 -39 145 0 c90 0 145 -4 145 -10 0 -6 -50 -10 -131 -10 l-132 0 7 -46
c3 -26 6 -57 6 -70 0 -24 1 -24 105 -24 63 0 105 -4 105 -10 0 -6 -43 -10
-110 -10 -60 0 -110 -2 -110 -4 0 -2 3 -11 6 -20 5 -13 27 -16 138 -16 l132 0
-2 28 c-1 15 -3 31 -3 35 -1 5 -9 6 -20 2 -24 -7 -43 17 -37 49 l5 26 -95 0
c-59 0 -94 4 -94 10 0 7 45 11 128 10 70 -1 131 -1 136 -1 5 1 3 8 -4 17 -11
12 -11 15 0 12 7 -2 19 7 25 20 7 13 24 36 39 51 14 15 26 32 26 39 0 7 9 12
20 12 11 0 20 5 20 10 0 6 7 10 16 10 8 0 12 5 8 11 -4 7 1 7 16 -1 15 -8 20
-8 16 -1 -4 7 1 11 13 11 12 0 21 -4 21 -9 0 -5 9 -7 20 -4 15 4 20 0 20 -13
0 -13 3 -15 8 -7 6 9 26 11 50 4 1 -1 5 -1 8 0 4 0 11 -5 15 -13 7 -10 9 -10
9 0 0 6 3 11 8 10 11 -4 53 28 45 35 -3 4 -1 7 5 7 7 0 12 -4 12 -8 0 -5 18
-7 40 -5 22 2 40 0 40 -5 0 -5 12 -8 28 -6 15 1 35 2 45 3 10 1 16 5 12 11 -3
5 9 8 30 6 21 -3 35 1 35 8 0 7 3 7 8 1 4 -5 13 -11 20 -13z m1319 6 c2 6 9
12 14 12 6 0 7 -5 3 -12 -5 -7 -3 -8 7 -2 18 11 99 13 106 2 2 -5 11 -4 18 2
10 8 15 8 20 -1 6 -8 10 -8 16 2 6 11 12 10 27 -4 10 -9 22 -14 26 -10 4 4 11
1 16 -7 7 -11 10 -12 10 -2 0 7 5 10 10 7 8 -5 7 -11 0 -20 -10 -12 -7 -13 10
-10 22 4 22 4 5 -15 -16 -18 -17 -20 -2 -20 10 0 17 -5 17 -11 0 -6 -7 -9 -14
-6 -10 4 -13 1 -10 -8 3 -8 12 -11 22 -7 17 6 15 2 -26 -43 -11 -12 -11 -15 0
-15 10 0 10 -2 -1 -9 -11 -7 -9 -10 9 -16 l22 -7 -26 -24 c-32 -30 -32 -38 -3
-53 14 -7 15 -10 3 -6 -14 4 -17 1 -12 -11 4 -9 1 -24 -6 -33 -10 -13 -10 -14
2 -3 19 16 27 15 34 -4 4 -11 2 -15 -7 -11 -8 3 -14 -1 -14 -8 0 -7 6 -11 12
-9 7 3 18 -3 26 -12 12 -16 12 -17 -3 -11 -21 8 -32 -8 -22 -31 12 -29 11 -49
-4 -49 -8 0 -12 7 -9 19 3 10 1 16 -4 12 -5 -3 -9 -12 -9 -20 0 -8 -4 -12 -10
-9 -5 3 -10 2 -10 -4 0 -6 -11 -18 -24 -26 -17 -12 -30 -13 -49 -6 -19 8 -28
6 -37 -4 -13 -16 -34 -10 -25 6 4 5 2 9 -3 9 -6 0 -12 -7 -16 -15 -4 -11 -11
-12 -28 -6 -13 5 -33 5 -45 0 -14 -5 -25 -4 -29 3 -5 7 -3 8 6 3 8 -5 11 -4 6
3 -4 6 -13 9 -21 5 -9 -3 -15 1 -15 8 0 12 -2 12 -9 1 -7 -12 -14 -11 -38 2
-17 8 -34 12 -38 8 -5 -4 -5 -2 -2 4 7 12 -28 46 -37 37 -3 -4 -6 0 -6 7 0 18
-30 50 -47 50 -21 0 -43 -25 -43 -48 0 -11 -9 -22 -20 -25 -17 -4 -20 0 -20
34 l0 39 -108 0 c-71 0 -112 4 -120 12 -16 16 -16 200 0 216 15 15 248 17 248
2 0 -6 -43 -10 -110 -10 l-110 0 0 -88 c0 -55 4 -92 12 -100 7 -7 43 -12 90
-12 71 0 78 2 78 20 0 18 -7 20 -85 20 l-85 0 0 44 c0 35 4 45 20 49 17 4 20
0 20 -34 l0 -39 85 0 c84 0 84 0 76 23 -5 14 -5 30 0 40 9 15 3 17 -66 17 -43
0 -75 4 -75 10 0 8 177 17 230 12 3 0 7 9 7 20 1 11 11 30 22 42 12 12 21 28
21 34 0 7 4 12 8 12 5 0 15 11 22 25 7 14 16 23 19 20 3 -3 11 5 18 17 7 14
12 17 13 9 0 -11 4 -9 15 5 15 18 15 18 8 0 -4 -13 -3 -17 5 -12 7 4 12 15 12
24 0 15 2 15 11 2 8 -11 12 -12 16 -2z m-1967 -82 c0 -34 -4 -45 -19 -49 -23
-6 -53 12 -33 20 6 2 12 16 12 29 l0 24 -145 0 c-90 0 -145 4 -145 10 0 6 62
10 165 10 l165 0 0 -44z m1277 24 c18 -10 39 -30 48 -44 l16 -25 21 21 c11 11
43 31 71 44 47 21 66 24 185 24 l132 0 0 -44 c0 -35 -4 -45 -20 -49 -17 -4
-20 0 -20 34 l0 39 -120 0 c-201 0 -230 -25 -230 -201 0 -94 3 -110 23 -140
30 -44 71 -58 180 -58 51 -1 87 -5 87 -11 0 -13 -210 -13 -244 0 -14 5 -34 18
-46 30 -15 15 -20 17 -20 5 0 -8 -7 -15 -15 -15 -9 0 -15 9 -15 23 -1 213 -7
286 -24 311 -27 42 -73 56 -181 56 -57 0 -95 4 -95 10 0 6 46 10 118 10 98 0
122 -3 149 -20z m-172 -80 c103 0 115 -2 125 -19 5 -11 10 -83 10 -160 0 -134
1 -141 20 -141 11 0 20 -4 20 -10 0 -5 -18 -10 -40 -10 l-40 0 0 74 c0 44 -5
78 -11 82 -6 3 -9 19 -7 35 l5 29 -104 0 -103 0 0 60 c0 57 -1 60 -25 60 -14
0 -25 5 -25 10 0 6 7 10 15 10 9 0 15 9 15 24 0 42 25 37 28 -6 l3 -38 114 0z
m-2252 -63 l132 -3 -137 -2 -138 -2 2 48 1 47 4 -42 4 -42 132 -4z m214 -179
c-1 -51 -3 -12 -3 87 0 99 2 141 3 93 2 -48 2 -129 0 -180z m532 -32 c35 -37
78 -46 219 -46 74 0 122 -4 122 -10 0 -6 -57 -10 -152 -10 -234 0 -258 20
-258 217 0 98 2 112 18 115 15 3 18 -9 22 -119 5 -111 7 -124 29 -147z m-882
-8 c-2 -29 -3 -8 -3 47 0 55 1 79 3 53 2 -26 2 -71 0 -100z m190 0 c-2 -29 -3
-8 -3 47 0 55 1 79 3 53 2 -26 2 -71 0 -100z m2253 72 c0 -6 -30 -10 -70 -10
l-70 0 0 -44 c0 -35 -4 -45 -20 -49 -18 -5 -20 0 -20 54 l0 59 90 0 c53 0 90
-4 90 -10z m-2713 -332 c-3 -8 -6 -5 -6 6 -1 11 2 17 5 13 3 -3 4 -12 1 -19z
m28 -38 c10 -11 16 -20 13 -20 -3 0 -13 9 -23 20 -10 11 -16 20 -13 20 3 0 13
-9 23 -20z m1005 17 c0 -2 -10 -12 -22 -23 l-23 -19 19 23 c18 21 26 27 26 19z
m-953 -43 c-3 -3 -12 -4 -19 -1 -8 3 -5 6 6 6 11 1 17 -2 13 -5z m900 0 c-3
-3 -12 -4 -19 -1 -8 3 -5 6 6 6 11 1 17 -2 13 -5z"/>
<path d="M2677 2813 c3 -7 9 -10 14 -7 14 8 11 21 -5 21 -8 0 -12 -6 -9 -14z"/>
<path d="M4646 2658 c3 -5 10 -6 15 -3 13 9 11 12 -6 12 -8 0 -12 -4 -9 -9z"/>
<path d="M4108 2493 c6 -2 18 -2 25 0 6 3 1 5 -13 5 -14 0 -19 -2 -12 -5z"/>
<path d="M4565 2380 c3 -5 12 -7 20 -3 21 7 19 13 -6 13 -11 0 -18 -4 -14 -10z"/>
<path d="M3440 2670 l0 -40 90 0 90 0 0 28 c0 44 -16 52 -102 52 l-78 0 0 -40z"/>
</g>
</svg>
