<?xml version="1.0" standalone="no"?>
<!DOCTYPE svg PUBLIC "-//W3C//DTD SVG 20010904//EN"
 "http://www.w3.org/TR/2001/REC-SVG-20010904/DTD/svg10.dtd">
<svg version="1.0" xmlns="http://www.w3.org/2000/svg"
 width="500.000000pt" height="500.000000pt" viewBox="0 0 500.000000 500.000000"
 preserveAspectRatio="xMidYMid meet">
<metadata>
Created by potrace 1.16, written by Peter Selinger 2001-2019
</metadata>
<g transform="translate(0.000000,500.000000) scale(0.100000,-0.100000)"
fill="#000000" stroke="none">
<path d="M0 2500 l0 -2500 2500 0 2500 0 0 2500 0 2500 -2500 0 -2500 0 0
-2500z m1618 663 c-125 -2 -332 -2 -460 0 -128 1 -26 2 227 2 253 0 358 -1
233 -2z m-708 -6 c0 -2 -10 -12 -22 -23 l-23 -19 19 23 c18 21 26 27 26 19z
m998 -516 l-3 -466 -5 471 c-3 289 -9 477 -15 485 -5 8 -2 6 8 -4 16 -18 17
-53 15 -486z m-1041 447 c-3 -8 -6 -5 -6 6 -1 11 2 17 5 13 3 -3 4 -12 1 -19z
m771 -435 l-3 -258 -2 253 -3 252 -245 0 -244 0 -4 -42 -4 -43 -1 48 -2 47
255 0 255 0 -2 -257z m1592 213 c0 -8 5 -18 12 -22 7 -4 8 -3 4 4 -12 19 9 14
28 -7 11 -12 14 -21 7 -26 -12 -7 -15 -26 -3 -24 22 4 29 -3 24 -26 -2 -14 -9
-22 -15 -18 -5 3 -7 1 -3 -5 4 -7 17 -8 39 -1 17 5 33 9 34 9 2 0 3 9 3 19 0
11 14 28 34 40 29 18 49 21 150 21 130 0 163 -10 192 -59 17 -28 17 -28 36 -9
11 11 43 31 71 44 47 21 66 24 185 24 l132 0 0 -44 c0 -35 -4 -45 -20 -49 -17
-4 -20 0 -20 34 l0 39 -120 0 c-129 0 -170 -10 -205 -50 -18 -20 -20 -36 -20
-150 0 -114 2 -130 20 -150 33 -37 78 -50 175 -50 53 0 90 -4 90 -10 0 -6 -44
-10 -113 -10 -91 0 -119 4 -148 19 -34 19 -36 19 -78 -1 -24 -11 -58 -18 -79
-16 l-37 3 -3 64 c-3 60 -4 63 -25 57 -12 -3 -49 -6 -82 -6 l-60 0 0 -41 c0
-37 -4 -43 -35 -60 -43 -23 -119 -26 -121 -4 -3 29 -4 33 -13 42 -5 5 -6 3 -2
-4 4 -8 1 -13 -8 -13 -8 0 -23 -11 -34 -25 -11 -13 -22 -21 -26 -18 -3 3 -6 1
-6 -6 0 -7 -4 -10 -9 -7 -5 4 -11 0 -14 -6 -3 -10 -8 -9 -22 2 -11 9 -16 10
-11 3 4 -8 2 -13 -6 -13 -8 0 -20 6 -27 13 -11 10 -12 9 -7 -1 6 -10 -4 -12
-43 -10 -28 2 -51 6 -51 10 0 4 -6 5 -13 2 -8 -3 -27 1 -43 7 -16 7 -37 11
-48 10 -12 -2 -16 1 -11 10 6 9 2 11 -13 7 -14 -4 -25 0 -31 10 -8 14 -11 14
-35 -1 -15 -10 -26 -13 -26 -7 0 6 -5 8 -12 4 -14 -9 -88 -12 -88 -4 0 12 -90
9 -90 -3 0 -7 -4 -6 -10 3 -7 11 -10 11 -10 2 0 -9 -5 -10 -19 -2 -14 7 -22 7
-26 0 -4 -6 -16 -8 -28 -5 -12 2 -16 2 -9 -1 6 -3 12 -10 12 -16 0 -6 -8 -4
-17 4 -18 16 -90 17 -114 2 -7 -4 -82 -9 -168 -10 -133 -2 -160 0 -190 16 -71
36 -76 48 -77 186 l-1 124 43 25 c26 15 41 31 38 39 -3 7 12 24 35 39 40 26
45 27 195 27 154 0 191 -4 180 -21 -3 -5 0 -9 6 -9 6 0 8 -4 5 -10 -7 -11 0
-12 32 -4 13 4 20 11 17 16 -4 5 4 8 17 6 19 -2 23 1 21 15 -3 16 0 17 17 7
14 -7 27 -8 40 -1 10 6 21 7 25 4 13 -14 134 -25 151 -15 16 10 35 13 114 17
40 3 79 9 87 16 7 6 17 9 21 6 4 -2 16 -2 25 2 10 3 65 7 123 8 86 2 105 0
105 -11z m1286 -11 c20 -10 32 -11 41 -4 6 6 17 7 24 3 8 -4 4 -11 -12 -20
-23 -13 -22 -13 11 -8 24 4 31 3 21 -4 -8 -6 -9 -12 -3 -16 6 -3 13 -2 17 4
11 18 26 0 16 -18 -7 -12 -5 -23 7 -36 11 -12 12 -16 3 -11 -11 6 -13 -1 -9
-44 3 -28 2 -51 -3 -51 -12 0 -4 -31 12 -41 8 -5 10 -9 4 -9 -5 0 -15 -11 -21
-25 -9 -18 -9 -24 0 -22 6 1 10 -8 9 -20 -2 -16 3 -23 15 -23 13 0 14 -2 3 -9
-7 -5 -11 -13 -7 -19 3 -6 1 -14 -5 -18 -8 -5 -9 -3 -4 7 8 12 6 12 -8 0 -13
-11 -15 -17 -6 -28 7 -7 9 -16 5 -20 -3 -3 -6 -2 -6 4 0 5 -6 10 -14 10 -8 0
-13 -8 -11 -18 2 -10 -1 -21 -6 -25 -5 -3 -8 -2 -7 3 2 4 -1 9 -7 10 -5 1 -9
-5 -7 -12 2 -11 -5 -13 -28 -9 -20 4 -30 3 -30 -6 0 -7 -12 -10 -32 -9 -22 2
-32 -1 -30 -9 1 -9 -6 -8 -22 4 -14 8 -31 12 -37 8 -8 -5 -9 -3 -4 7 7 12 6
12 -9 0 -14 -12 -19 -12 -26 -2 -5 8 -13 10 -21 5 -11 -6 -12 -5 -2 7 10 12 8
15 -7 15 -10 0 -16 -5 -12 -11 3 -5 -2 -4 -11 3 -9 8 -21 11 -27 7 -6 -3 -10
3 -10 15 0 13 -8 24 -19 27 -12 3 -23 17 -26 34 -6 25 -9 27 -31 19 l-24 -10
0 80 0 80 -105 0 c-63 0 -105 4 -105 10 0 6 48 10 120 11 149 2 143 1 147 19
3 11 2 12 -4 3 -6 -9 -12 -7 -20 6 -10 16 -9 19 5 17 9 -2 23 4 31 12 17 16
24 45 10 36 -5 -3 -7 -9 -4 -14 3 -4 -2 -10 -10 -14 -19 -7 -19 8 0 27 8 9 24
13 35 10 14 -4 20 0 20 12 0 12 6 16 20 12 11 -3 25 2 32 11 11 13 11 14 -1 7
-9 -5 -12 -4 -7 3 3 6 16 9 28 7 11 -3 18 -2 14 2 -3 3 4 11 17 18 15 8 24 8
29 1 5 -7 8 -6 8 2 0 7 4 11 9 7 5 -3 12 -1 16 5 9 14 38 12 71 -5z m-205 -42
c13 -16 12 -17 -3 -4 -17 13 -22 21 -14 21 2 0 10 -8 17 -17z m-3038 -146
l132 -3 -137 -2 -138 -2 2 48 1 47 4 -42 4 -42 132 -4z m214 -179 c-1 -51 -3
-12 -3 87 0 99 2 141 3 93 2 -48 2 -129 0 -180z m2613 232 c0 -6 -43 -10 -110
-10 l-110 0 0 -84 c0 -119 -2 -116 89 -116 82 0 93 3 84 26 -4 10 -26 14 -84
14 l-79 0 0 44 c0 35 4 45 20 49 17 4 20 0 20 -34 l0 -39 80 0 80 0 0 -40 c0
-36 3 -40 25 -40 14 0 25 -4 25 -10 0 -5 -4 -10 -10 -10 -5 0 -10 -11 -10 -24
0 -15 -7 -26 -20 -29 -17 -4 -20 0 -20 34 l0 39 -108 0 c-71 0 -112 4 -120 12
-16 16 -16 200 0 216 15 15 248 17 248 2z m560 -10 c6 -11 8 -20 6 -20 -3 0
-10 9 -16 20 -6 11 -8 20 -6 20 3 0 10 -9 16 -20z m-3523 -262 c-2 -29 -3 -8
-3 47 0 55 1 79 3 53 2 -26 2 -71 0 -100z m190 0 c-2 -29 -3 -8 -3 47 0 55 1
79 3 53 2 -26 2 -71 0 -100z m-460 -260 c-3 -8 -6 -5 -6 6 -1 11 2 17 5 13 3
-3 4 -12 1 -19z m28 -38 c10 -11 16 -20 13 -20 -3 0 -13 9 -23 20 -10 11 -16
20 -13 20 3 0 13 -9 23 -20z m1005 17 c0 -2 -10 -12 -22 -23 l-23 -19 19 23
c18 21 26 27 26 19z m-953 -43 c-3 -3 -12 -4 -19 -1 -8 3 -5 6 6 6 11 1 17 -2
13 -5z m900 0 c-3 -3 -12 -4 -19 -1 -8 3 -5 6 6 6 11 1 17 -2 13 -5z"/>
<path d="M3408 2770 l4 -30 99 0 c140 0 139 1 139 -180 l0 -140 30 0 30 0 0
156 0 156 -34 34 -34 34 -119 0 -120 0 5 -30z"/>
<path d="M2080 2772 c0 -16 12 -17 138 -16 159 2 149 1 134 16 -14 14 -45 20
-36 7 3 -5 -2 -9 -11 -9 -9 0 -13 5 -10 10 4 6 -33 10 -104 10 -100 0 -111 -2
-111 -18z m264 0 c3 -5 -1 -9 -9 -9 -8 0 -12 4 -9 9 3 4 7 8 9 8 2 0 6 -4 9
-8z"/>
<path d="M2011 2711 c-11 -7 -15 -33 -15 -100 -1 -50 3 -91 7 -91 5 0 5 -5 2
-10 -8 -13 34 -72 46 -65 5 4 9 2 9 -2 0 -11 286 -10 297 1 4 5 3 6 -3 3 -7
-4 -14 2 -17 15 -5 16 -9 19 -19 11 -7 -6 -21 -9 -31 -8 -9 2 -15 -1 -11 -6 3
-5 -2 -9 -11 -9 -9 0 -14 4 -11 9 3 4 -32 9 -77 11 -45 1 -88 2 -94 3 -7 0
-21 9 -30 19 -14 16 -17 38 -17 114 0 52 -4 94 -9 94 -4 0 -5 5 -2 10 8 12 4
12 -14 1z m319 -254 c0 -7 -11 -13 -24 -13 -14 0 -22 4 -20 8 3 5 9 6 14 3 5
-3 11 -1 15 5 9 14 15 13 15 -3z"/>
<path d="M2335 2710 c-27 -4 -92 -6 -142 -5 -78 1 -93 -1 -93 -14 0 -14 21
-16 149 -16 85 0 146 4 141 9 -5 5 -6 15 -3 22 3 8 4 13 2 13 -2 -1 -26 -5
-54 -9z"/>
<path d="M3328 2570 l3 -150 29 0 c28 0 29 1 32 58 l3 57 98 3 97 3 0 29 0 29
-97 3 -98 3 -3 58 c-3 57 -3 57 -35 57 l-32 0 3 -150z"/>
<path d="M3435 2693 c2 -10 4 -28 4 -40 1 -22 5 -23 84 -23 l84 0 -5 33 c-3
17 -10 35 -16 39 -6 4 -43 8 -83 8 -62 0 -71 -2 -68 -17z"/>
<path d="M2120 2612 c0 -16 10 -17 98 -16 115 2 109 1 94 16 -14 14 -45 20
-36 7 3 -5 -2 -9 -11 -9 -10 0 -13 5 -9 13 5 7 0 6 -11 -3 -11 -9 -16 -10 -11
-2 5 9 -8 12 -53 12 -52 0 -61 -3 -61 -18z m184 0 c3 -5 -1 -9 -9 -9 -8 0 -12
4 -9 9 3 4 7 8 9 8 2 0 6 -4 9 -8z"/>
<path d="M2374 2556 c5 -15 4 -17 -8 -7 -9 8 -26 9 -52 3 -22 -5 -78 -8 -125
-8 -68 1 -85 -2 -81 -12 4 -11 33 -13 133 -10 130 3 157 11 138 38 -9 12 -10
11 -5 -4z"/>
</g>
</svg>
