<?xml version="1.0" standalone="no"?>
<!DOCTYPE svg PUBLIC "-//W3C//DTD SVG 20010904//EN"
 "http://www.w3.org/TR/2001/REC-SVG-20010904/DTD/svg10.dtd">
<svg version="1.0" xmlns="http://www.w3.org/2000/svg"
 width="500.000000pt" height="500.000000pt" viewBox="0 0 500.000000 500.000000"
 preserveAspectRatio="xMidYMid meet">
<metadata>
Created by potrace 1.16, written by Peter Selinger 2001-2019
</metadata>
<g transform="translate(0.000000,500.000000) scale(0.100000,-0.100000)"
fill="#000000" stroke="none">
<path d="M0 2500 l0 -2500 2500 0 2500 0 0 2500 0 2500 -2500 0 -2500 0 0
-2500z m1618 663 c-125 -2 -332 -2 -460 0 -128 1 -26 2 227 2 253 0 358 -1
233 -2z m-708 -6 c0 -2 -10 -12 -22 -23 l-23 -19 19 23 c18 21 26 27 26 19z
m981 -24 c13 -16 12 -17 -3 -4 -10 7 -18 15 -18 17 0 8 8 3 21 -13z m16 -45
c-3 -8 -6 -5 -6 6 -1 11 2 17 5 13 3 -3 4 -12 1 -19z m-269 -435 l-3 -258 -2
253 -3 252 -245 0 -244 0 -4 -42 -4 -43 -1 48 -2 47 255 0 255 0 -2 -257z
m1544 214 c43 1 78 -3 78 -7 0 -4 8 -7 18 -6 9 0 16 -5 15 -11 -2 -7 3 -13 11
-13 11 0 14 -13 12 -50 -1 -33 3 -51 11 -54 10 -4 13 -44 13 -161 0 -148 1
-155 20 -155 11 0 20 -4 20 -10 0 -5 -18 -10 -40 -10 -38 0 -40 1 -40 32 l0
31 -19 -21 c-10 -12 -22 -22 -26 -22 -4 0 -19 -8 -33 -19 -24 -16 -120 -26
-222 -21 -8 0 -23 0 -34 1 -10 0 -45 13 -77 30 -33 16 -59 24 -59 18 0 -6 -7
-8 -17 -5 -9 4 -20 1 -24 -5 -11 -18 -125 -21 -143 -4 -7 8 -16 11 -20 8 -3
-3 -12 0 -21 7 -13 10 -18 10 -33 -3 -22 -20 -93 -39 -106 -29 -6 5 -18 8 -26
7 -8 0 -21 5 -28 12 -7 7 -18 10 -26 7 -7 -3 -25 0 -39 5 -21 8 -27 17 -27 41
l0 30 -120 0 c-144 0 -140 -4 -140 139 l0 101 -25 0 c-14 0 -25 5 -25 10 0 6
5 10 10 10 6 0 10 9 10 20 0 10 9 24 20 30 18 10 20 8 20 -30 l0 -40 145 0
c90 0 145 -4 145 -10 0 -6 -50 -10 -131 -10 l-132 0 7 -46 c3 -26 6 -57 6 -70
0 -24 1 -24 105 -24 63 0 105 -4 105 -10 0 -6 -43 -10 -110 -10 -60 0 -110 -4
-110 -8 0 -26 30 -32 155 -32 87 0 125 3 115 10 -8 5 -10 10 -4 10 6 0 11 10
10 23 -1 15 -7 22 -21 22 -31 0 -41 11 -39 44 l2 31 -94 0 c-56 0 -94 4 -94
10 0 6 48 10 125 10 93 0 125 -3 125 -12 0 -9 3 -8 10 2 6 9 5 20 -3 29 -8 10
-8 13 -1 8 15 -8 38 18 29 33 -4 6 -12 10 -18 9 -31 -4 -41 1 -29 13 7 7 12
22 12 35 0 23 0 23 -145 23 -90 0 -145 4 -145 10 0 6 62 10 165 10 l165 0 0
-47 0 -48 38 37 c58 58 70 68 82 68 6 0 9 3 6 8 -8 13 62 5 95 -12 39 -19 42
-20 33 -3 -5 8 -2 8 9 -2 18 -15 23 -26 7 -16 -5 3 -10 1 -10 -4 0 -15 4 -14
47 9 21 11 44 20 51 20 7 0 11 4 8 8 -5 9 73 7 118 -2 15 -4 42 -2 60 3 17 6
48 12 69 14 21 3 40 7 44 10 3 4 11 4 16 0 6 -4 46 -6 89 -6z m1381 0 c-2 -4
6 -5 19 -2 16 4 29 1 38 -10 7 -8 21 -13 30 -10 13 4 23 -3 34 -26 9 -18 14
-35 11 -37 -3 -3 -5 0 -5 7 0 7 -4 10 -9 7 -5 -4 -8 -14 -6 -24 2 -9 4 -19 4
-22 1 -3 6 2 11 10 5 8 10 10 10 4 0 -6 -7 -17 -15 -24 -8 -7 -12 -16 -9 -21
3 -5 0 -9 -7 -9 -8 0 -8 -4 1 -15 7 -8 8 -15 3 -15 -5 0 -10 -12 -10 -27 0
-16 -2 -32 -3 -38 -1 -5 -2 -23 -1 -38 1 -20 5 -26 14 -21 8 5 8 2 -2 -9 -9
-12 -10 -17 -2 -17 7 0 9 -5 5 -12 -5 -8 -2 -9 11 -4 14 5 16 4 7 -7 -7 -7
-13 -29 -14 -48 -4 -43 -14 -54 -75 -78 -33 -13 -70 -18 -121 -17 -39 0 -72
-3 -72 -8 0 -5 -7 -2 -17 5 -9 8 -25 13 -36 11 -10 -2 -17 0 -14 5 3 5 -11 10
-31 10 -20 1 -41 8 -47 17 -7 9 -15 13 -18 9 -4 -3 -7 1 -7 11 0 9 -4 14 -10
11 -5 -3 -10 1 -10 10 0 9 -4 13 -10 10 -9 -5 -15 15 -11 37 1 9 -28 -1 -49
-16 -8 -6 -15 -19 -15 -30 0 -10 -10 -22 -22 -27 -21 -8 -23 -6 -23 31 l0 40
-110 0 c-131 0 -130 -1 -130 120 0 122 -3 120 146 120 81 0 123 -4 119 -10 -4
-6 -53 -10 -116 -10 l-109 0 0 -81 c0 -115 4 -119 100 -119 73 0 80 2 80 20 0
17 -8 19 -82 22 l-83 3 -3 37 c-2 29 1 39 17 48 18 9 21 7 27 -15 3 -14 4 -32
0 -40 -4 -13 8 -15 79 -15 l84 0 -9 29 c-5 19 -4 33 3 40 8 8 -10 11 -66 11
-45 0 -77 4 -77 10 0 6 47 10 122 10 67 0 118 3 115 7 -4 3 -2 12 4 20 6 7 8
13 3 13 -4 0 3 11 16 25 12 13 28 34 34 47 6 12 21 28 34 34 12 6 30 18 40 27
10 9 37 19 62 22 24 3 45 7 47 8 7 8 131 1 126 -6z m-867 -53 c19 -9 42 -29
51 -45 l17 -28 20 21 c10 11 43 31 72 45 48 22 63 23 185 21 l134 -3 6 -37 c5
-32 2 -38 -18 -47 -33 -15 -33 -16 -33 29 l0 40 -120 0 c-203 0 -220 -15 -220
-201 0 -112 2 -129 20 -152 27 -34 76 -47 178 -47 48 0 82 -4 82 -10 0 -13
-210 -13 -243 -1 -13 5 -31 17 -40 26 -10 9 -17 12 -17 7 0 -5 -9 -12 -20 -15
-17 -4 -20 0 -20 26 -4 271 -5 283 -23 311 -28 42 -73 56 -182 56 -57 0 -95 4
-95 10 0 18 227 12 266 -6z m-276 -49 l0 -35 108 0 c71 0 112 -4 120 -12 8 -8
12 -58 12 -160 l0 -148 25 0 c14 0 25 -4 25 -10 0 -5 -20 -10 -45 -10 l-45 0
0 49 c0 26 -3 76 -6 110 l-7 61 -103 0 -104 0 0 60 c0 59 -1 60 -27 60 -25 1
-26 2 -10 14 9 7 17 23 17 35 0 14 6 21 20 21 16 0 20 -7 20 -35z m-2147 -98
l132 -3 -137 -2 -138 -2 2 48 1 47 4 -42 4 -42 132 -4z m214 -179 c-1 -51 -3
-12 -3 87 0 99 2 141 3 93 2 -48 2 -129 0 -180z m529 -25 c31 -41 74 -52 217
-52 77 -1 127 -5 127 -11 0 -6 -57 -10 -151 -10 -229 0 -251 18 -257 204 -4
98 -2 111 14 123 18 13 19 9 24 -106 4 -101 8 -124 26 -148z m-879 -15 c-2
-29 -3 -8 -3 47 0 55 1 79 3 53 2 -26 2 -71 0 -100z m190 0 c-2 -29 -3 -8 -3
47 0 55 1 79 3 53 2 -26 2 -71 0 -100z m2258 72 c-3 -5 -35 -10 -70 -10 l-64
0 -3 -42 c-2 -36 -7 -44 -25 -46 -22 -3 -23 0 -23 52 l0 56 96 0 c61 0 93 -4
89 -10z m-1678 -332 c-3 -8 -6 -5 -6 6 -1 11 2 17 5 13 3 -3 4 -12 1 -19z
m-1012 -38 c10 -11 16 -20 13 -20 -3 0 -13 9 -23 20 -10 11 -16 20 -13 20 3 0
13 -9 23 -20z m1005 17 c0 -2 -10 -12 -22 -23 l-23 -19 19 23 c18 21 26 27 26
19z m-953 -43 c-3 -3 -12 -4 -19 -1 -8 3 -5 6 6 6 11 1 17 -2 13 -5z m900 0
c-3 -3 -12 -4 -19 -1 -8 3 -5 6 6 6 11 1 17 -2 13 -5z"/>
<path d="M4657 2834 c-6 -10 9 -42 16 -34 3 3 1 14 -3 24 -3 11 -9 15 -13 10z"/>
<path d="M4118 2493 c7 -3 16 -2 19 1 4 3 -2 6 -13 5 -11 0 -14 -3 -6 -6z"/>
<path d="M3450 2670 l0 -40 85 0 85 0 0 28 c0 43 -17 52 -97 52 l-73 0 0 -40z"/>
</g>
</svg>
