<?xml version="1.0" standalone="no"?>
<!DOCTYPE svg PUBLIC "-//W3C//DTD SVG 20010904//EN"
 "http://www.w3.org/TR/2001/REC-SVG-20010904/DTD/svg10.dtd">
<svg version="1.0" xmlns="http://www.w3.org/2000/svg"
 width="500.000000pt" height="500.000000pt" viewBox="0 0 500.000000 500.000000"
 preserveAspectRatio="xMidYMid meet">
<metadata>
Created by potrace 1.16, written by Peter Selinger 2001-2019
</metadata>
<g transform="translate(0.000000,500.000000) scale(0.100000,-0.100000)"
fill="#000000" stroke="none">
<path d="M0 2500 l0 -2500 2500 0 2500 0 0 2500 0 2500 -2500 0 -2500 0 0
-2500z m1618 663 c-125 -2 -332 -2 -460 0 -128 1 -26 2 227 2 253 0 358 -1
233 -2z m273 -30 c13 -16 12 -17 -3 -4 -10 7 -18 15 -18 17 0 8 8 3 21 -13z
m-253 -480 l-3 -258 -2 253 -3 252 -245 0 -244 0 -4 -42 -4 -43 -1 48 -2 47
255 0 255 0 -2 -257z m1606 211 c8 -8 20 -14 26 -14 6 0 9 -4 6 -9 -3 -5 3
-11 13 -14 14 -3 19 -13 17 -36 -1 -20 4 -35 13 -41 10 -6 11 -10 4 -10 -7 0
-13 -5 -13 -11 0 -5 5 -7 10 -4 7 4 10 -50 10 -154 l0 -161 25 0 c14 0 25 -4
25 -10 0 -5 -20 -10 -45 -10 -41 0 -45 2 -45 25 0 14 -4 25 -10 25 -5 0 -10
-4 -10 -9 0 -5 -10 -13 -22 -16 -13 -4 -33 -16 -45 -27 -23 -22 -117 -33 -105
-13 4 6 1 6 -9 -1 -8 -6 -30 -9 -49 -6 -19 2 -55 5 -80 6 -26 0 -50 7 -58 16
-12 13 -13 13 -6 0 4 -8 -7 -2 -23 13 l-31 29 -46 -16 c-58 -20 -110 -21 -100
-3 6 9 4 9 -8 -1 -10 -8 -19 -9 -22 -3 -4 5 -15 8 -26 6 -12 -2 -18 0 -15 6 4
5 -3 9 -14 9 -12 0 -21 -4 -21 -10 0 -5 -14 -10 -31 -10 -23 0 -30 -4 -26 -14
6 -15 -9 -16 -30 -3 -8 5 -13 4 -13 -2 0 -17 -27 -13 -34 4 -3 8 -13 15 -21
15 -9 0 -13 4 -10 10 4 7 -3 7 -19 0 -25 -9 -26 -8 -26 30 l0 40 -148 0 c-102
0 -152 4 -160 12 -8 8 -12 49 -12 120 l0 108 -25 0 c-14 0 -25 5 -25 10 0 6 5
10 10 10 6 0 10 11 10 25 0 16 6 25 15 25 10 0 15 -11 15 -35 l0 -35 151 0
c97 0 148 -4 144 -10 -4 -6 -58 -10 -131 -10 l-124 0 0 -70 0 -70 110 0 c67 0
110 -4 110 -10 0 -6 -44 -10 -111 -10 -100 0 -110 -2 -107 -17 3 -16 18 -18
126 -21 97 -2 126 0 137 12 10 10 12 17 5 21 -8 5 -7 12 2 23 11 13 10 15 -9
10 -21 -6 -23 -3 -23 33 l0 39 -105 0 c-65 0 -105 4 -105 10 0 7 45 10 128 8
107 -3 126 -5 124 -18 -2 -8 0 -11 4 -7 13 13 14 41 1 49 -8 5 -5 8 7 8 11 0
17 3 13 6 -3 3 4 17 16 31 12 13 21 27 19 29 -4 7 46 54 57 54 6 0 14 7 19 15
10 19 81 23 92 6 4 -7 10 -12 14 -11 4 1 20 0 36 -4 41 -8 45 -7 45 3 0 5 3
12 8 15 4 3 5 3 3 0 -3 -3 1 -12 7 -19 14 -16 41 1 30 19 -4 6 2 4 12 -4 11
-9 16 -10 11 -2 -4 7 -2 12 6 13 7 0 54 2 103 4 50 2 115 8 145 12 98 14 198
13 214 -3z m1329 -2 c-2 -6 4 -9 13 -5 9 3 28 -6 48 -26 18 -17 34 -30 37 -29
3 2 -4 -5 -14 -14 -19 -18 -19 -18 2 -18 25 0 26 -9 7 -36 -10 -13 -11 -23 -4
-32 8 -9 7 -11 -7 -6 -15 6 -16 4 -6 -14 10 -19 9 -22 -6 -22 -17 -1 -17 -1 0
-14 17 -14 23 -27 10 -25 -22 4 -25 -3 -7 -16 17 -13 17 -14 2 -15 -10 0 -18
-4 -18 -10 0 -5 7 -7 16 -3 13 5 15 2 9 -15 -3 -13 -2 -22 3 -22 18 0 6 -33
-14 -41 -16 -6 -16 -8 -2 -8 27 -1 30 -19 8 -41 -11 -11 -20 -32 -20 -47 0
-16 -4 -23 -8 -17 -4 6 -16 10 -27 8 -11 -2 -35 -6 -54 -9 -40 -5 -46 -10 -36
-25 6 -9 10 -9 16 1 7 11 9 10 9 -3 0 -19 -15 -24 -24 -9 -4 5 -24 8 -46 7
-31 -2 -38 0 -29 10 8 10 1 12 -37 8 -35 -3 -52 0 -67 13 -15 13 -18 14 -12 3
6 -12 5 -13 -6 -2 -7 6 -19 12 -27 12 -16 0 -68 60 -64 74 2 5 -4 4 -12 -3
-12 -10 -14 -9 -9 10 5 18 3 21 -10 16 -15 -6 -17 3 -17 73 l0 80 -105 0 c-67
0 -105 4 -105 11 0 7 43 9 129 7 l128 -3 -14 22 c-9 13 -20 20 -26 16 -6 -3
-7 -1 -3 6 4 6 11 9 16 6 9 -6 23 12 27 34 1 8 7 17 14 21 6 4 8 13 5 19 -7
10 19 16 49 12 6 -1 1 6 -10 14 -20 16 -20 16 0 13 11 -2 26 -7 33 -11 7 -5
12 -3 12 7 0 10 7 13 20 11 11 -2 18 0 15 5 -5 9 42 27 85 32 53 6 135 0 133
-10z m-2153 -76 c0 -35 -4 -45 -20 -49 -17 -4 -20 0 -20 34 l0 39 -145 0 c-90
0 -145 4 -145 10 0 6 62 10 165 10 l165 0 0 -44z m1265 30 c19 -8 43 -29 53
-46 17 -27 21 -29 32 -15 7 9 22 21 33 27 19 10 19 9 -1 -20 -20 -27 -22 -43
-22 -151 0 -179 22 -201 195 -201 61 0 95 -4 95 -11 0 -7 -40 -10 -124 -7
-111 3 -128 5 -155 26 -17 12 -31 18 -31 13 0 -5 -9 -11 -19 -14 -18 -4 -19 3
-21 155 -1 131 -4 165 -17 185 -26 40 -71 53 -178 53 -57 0 -95 4 -95 10 0 16
215 13 255 -4z m485 -30 c0 -35 -4 -45 -20 -49 -17 -4 -20 0 -20 34 l0 39
-132 0 c-90 0 -128 3 -118 10 8 5 77 10 153 10 l137 0 0 -44z m-651 -56 c70 0
111 -4 119 -12 8 -8 12 -58 12 -160 l0 -148 25 0 c14 0 25 -4 25 -10 0 -5 -20
-10 -45 -10 l-45 0 0 49 c0 26 -3 76 -6 110 l-7 61 -98 0 -99 0 0 60 c0 57 -1
60 -25 60 -14 0 -25 5 -25 10 0 6 5 10 10 10 6 0 10 11 10 24 0 15 7 26 18 28
13 3 18 -5 20 -34 l3 -38 108 0z m-2246 -63 l132 -3 -137 -2 -138 -2 2 48 1
47 4 -42 4 -42 132 -4z m214 -179 c-1 -51 -3 -12 -3 87 0 99 2 141 3 93 2 -48
2 -129 0 -180z m2623 232 c0 -6 -43 -10 -110 -10 l-111 0 3 -97 3 -98 83 -3
c77 -3 82 -2 82 18 0 18 -6 20 -80 20 l-80 0 0 44 c0 35 4 45 20 49 17 4 20 0
20 -34 l0 -39 80 0 80 0 0 -40 c0 -36 3 -40 25 -40 14 0 25 -4 25 -10 0 -5 -4
-10 -10 -10 -5 0 -10 -11 -10 -24 0 -15 -7 -26 -20 -29 -17 -4 -20 0 -20 34
l0 39 -108 0 c-71 0 -112 4 -120 12 -16 16 -16 200 0 216 15 15 248 17 248 2z
m-2129 -113 c6 -180 27 -197 244 -197 83 0 135 -4 135 -10 0 -6 -57 -10 -150
-10 -238 0 -260 18 -260 213 0 93 3 117 14 117 11 0 15 -25 17 -113z m-654
-159 c-2 -29 -3 -8 -3 47 0 55 1 79 3 53 2 -26 2 -71 0 -100z m2253 72 c0 -6
-30 -10 -70 -10 l-70 0 0 -44 c0 -35 -4 -45 -20 -49 -18 -5 -20 0 -20 54 l0
59 90 0 c53 0 90 -4 90 -10z m1030 -144 c0 -2 -7 -7 -16 -10 -8 -3 -12 -2 -9
4 6 10 25 14 25 6z m-3715 -226 c10 -11 16 -20 13 -20 -3 0 -13 9 -23 20 -10
11 -16 20 -13 20 3 0 13 -9 23 -20z m1005 17 c0 -2 -10 -12 -22 -23 l-23 -19
19 23 c18 21 26 27 26 19z"/>
<path d="M3440 2670 l0 -40 86 0 85 0 -3 38 -3 37 -82 3 -83 3 0 -41z"/>
</g>
</svg>
