<?xml version="1.0" standalone="no"?>
<!DOCTYPE svg PUBLIC "-//W3C//DTD SVG 20010904//EN"
 "http://www.w3.org/TR/2001/REC-SVG-20010904/DTD/svg10.dtd">
<svg version="1.0" xmlns="http://www.w3.org/2000/svg"
 width="500.000000pt" height="500.000000pt" viewBox="0 0 500.000000 500.000000"
 preserveAspectRatio="xMidYMid meet">
<metadata>
Created by potrace 1.16, written by Peter Selinger 2001-2019
</metadata>
<g transform="translate(0.000000,500.000000) scale(0.100000,-0.100000)"
fill="#000000" stroke="none">
<path d="M0 2500 l0 -2500 2500 0 2500 0 0 2500 0 2500 -2500 0 -2500 0 0
-2500z m1618 663 c-125 -2 -332 -2 -460 0 -128 1 -26 2 227 2 253 0 358 -1
233 -2z m-708 -6 c0 -2 -10 -12 -22 -23 l-23 -19 19 23 c18 21 26 27 26 19z
m998 -516 l-3 -466 -5 471 c-3 289 -9 477 -15 485 -5 8 -2 6 8 -4 16 -18 17
-53 15 -486z m-1041 447 c-3 -8 -6 -5 -6 6 -1 11 2 17 5 13 3 -3 4 -12 1 -19z
m771 -435 l-3 -258 -2 253 -3 252 -245 0 -244 0 -4 -42 -4 -43 -1 48 -2 47
255 0 255 0 -2 -257z m1609 212 c13 -9 23 -22 23 -30 0 -8 9 -19 19 -24 16 -9
18 -17 11 -46 -4 -19 -4 -33 1 -30 21 14 30 -42 27 -180 -3 -145 -3 -145 20
-145 12 0 22 -4 22 -10 0 -5 -18 -10 -40 -10 -41 0 -47 9 -40 60 1 13 0 13
-12 -1 -7 -9 -29 -26 -48 -39 -19 -13 -39 -30 -43 -37 -5 -8 -15 -10 -31 -4
-13 6 -29 5 -37 0 -20 -12 -32 -11 -23 3 5 7 3 8 -7 2 -17 -10 -89 -12 -89 -2
0 4 -6 5 -14 2 -8 -3 -28 2 -45 11 -17 8 -31 13 -31 9 0 -4 -8 0 -17 7 -9 8
-14 9 -10 2 5 -8 1 -8 -17 0 -13 7 -22 15 -20 19 9 14 -21 9 -44 -8 -15 -10
-22 -11 -22 -3 0 9 -4 9 -15 -1 -8 -6 -19 -9 -25 -5 -5 3 -10 0 -10 -7 0 -11
-2 -11 -9 0 -4 8 -14 13 -22 12 -8 -1 -32 -2 -54 -1 -31 1 -37 4 -25 12 11 8
8 9 -15 4 -16 -4 -31 -10 -33 -14 -1 -5 -13 -6 -26 -4 -13 3 -27 -1 -31 -8 -5
-7 -4 -10 3 -5 6 3 13 2 16 -3 8 -13 -22 -7 -35 6 -6 6 -17 9 -24 6 -8 -2 -22
0 -33 6 -15 8 -31 7 -64 -5 -57 -21 -337 -20 -378 1 -47 24 -60 69 -60 199 0
77 4 116 11 116 22 0 69 42 69 61 0 10 5 19 11 19 6 0 24 9 39 20 26 19 42 20
187 18 l158 -3 5 -30 c6 -34 12 -35 46 -6 13 12 28 21 34 21 5 0 14 8 20 18
11 16 11 16 6 -2 -5 -15 -4 -16 7 -8 7 6 25 9 39 8 17 -2 25 1 21 7 -4 7 1 8
13 3 39 -16 73 -24 78 -18 3 3 6 0 6 -8 0 -10 3 -10 16 1 12 10 17 10 23 0 6
-10 12 -9 25 4 9 9 16 14 16 10 0 -3 6 -3 13 2 6 4 32 9 57 9 96 3 101 4 94
17 -5 8 -2 8 9 -2 13 -10 17 -10 17 -1 0 7 6 10 13 7 6 -2 20 -1 29 2 10 3 64
7 120 8 77 2 108 -1 125 -12z m1303 -4 c0 -4 15 -6 33 -3 31 4 31 4 12 -13
-15 -12 -16 -15 -4 -12 9 3 22 0 29 -6 10 -9 11 -9 5 3 -8 13 -6 13 8 1 16
-13 14 -36 -3 -26 -5 3 -12 1 -15 -5 -4 -6 -1 -9 7 -8 8 2 12 -4 10 -14 -2
-10 2 -18 7 -18 5 0 8 10 6 21 -3 12 -1 18 3 15 4 -4 8 -12 8 -17 1 -5 2 -10
4 -11 1 -2 3 -11 5 -21 3 -14 0 -16 -9 -8 -23 19 -27 -2 -5 -25 l21 -23 -21 6
c-16 4 -21 1 -21 -13 0 -14 2 -16 9 -6 7 11 9 11 14 -2 4 -10 1 -16 -8 -16
-19 0 -28 -17 -14 -26 8 -4 9 -3 5 4 -5 8 1 12 16 11 13 0 17 -3 10 -6 -6 -2
-10 -9 -6 -14 3 -5 -2 -9 -10 -9 -10 0 -16 -9 -16 -23 0 -13 -6 -29 -12 -36
-11 -10 -10 -11 4 -6 24 9 42 -3 28 -20 -6 -7 -7 -21 -3 -30 4 -12 3 -16 -4
-12 -15 10 -10 -17 7 -38 7 -9 9 -15 4 -14 -19 5 -64 -21 -64 -37 0 -14 -3
-14 -15 -4 -13 11 -14 10 -9 -4 7 -19 4 -19 -31 -6 -15 6 -24 6 -20 1 3 -5 1
-12 -5 -16 -6 -4 -8 -10 -6 -14 3 -4 -4 -8 -15 -8 -11 -1 -23 5 -26 13 -4 11
-9 12 -18 4 -9 -8 -17 -6 -28 4 -13 13 -17 13 -26 2 -13 -15 -54 -10 -45 5 3
5 2 9 -3 8 -30 -5 -63 2 -57 13 5 8 2 9 -9 5 -15 -6 -22 3 -18 25 0 4 -8 9
-18 13 -11 3 -22 17 -25 31 -6 21 -11 25 -29 20 -22 -5 -22 -3 -18 74 l3 80
-111 0 c-67 0 -111 4 -111 10 0 6 50 10 131 10 76 0 128 4 125 9 -4 5 0 12 6
14 8 4 7 6 -4 6 -9 1 -20 6 -24 13 -4 7 -3 8 4 4 7 -4 16 2 21 16 5 13 17 30
27 38 17 14 18 13 6 -2 -10 -12 -10 -18 -1 -24 7 -4 9 -3 6 3 -4 5 7 23 23 38
16 15 26 33 23 39 -4 6 3 3 14 -7 20 -18 21 -17 43 10 23 30 34 33 122 36 31
1 54 5 52 9 -3 4 2 5 10 2 9 -3 16 -9 16 -13z m-200 -26 c0 -2 -6 -8 -13 -14
-10 -8 -14 -7 -14 2 0 8 6 14 14 14 7 0 13 -1 13 -2z m-664 -21 c19 -9 42 -29
51 -45 l17 -28 20 21 c10 11 43 31 72 45 48 22 63 23 186 21 l133 -3 0 -39 c0
-30 -5 -40 -21 -47 -21 -7 -22 -5 -17 32 l6 39 -129 0 c-203 0 -234 -27 -234
-200 0 -164 36 -200 198 -200 54 0 92 -4 92 -10 0 -6 -43 -10 -110 -10 -110 0
-162 12 -182 44 -6 8 -8 8 -8 0 0 -7 -9 -14 -20 -17 -19 -5 -20 0 -20 141 0
224 -23 252 -203 252 -63 0 -96 4 -92 10 11 17 222 12 261 -6z m-279 -60 l-4
-24 113 0 c102 0 114 -2 124 -19 5 -11 10 -83 10 -160 l0 -141 25 0 c14 0 25
-4 25 -10 0 -5 -20 -10 -45 -10 l-45 0 0 49 c0 26 -3 76 -6 110 l-7 61 -98 0
-98 0 -3 58 c-3 54 -4 57 -30 60 -29 3 -40 22 -13 22 9 0 15 9 15 24 0 13 6
26 13 29 17 6 30 -20 24 -49z m858 46 c3 -5 -1 -10 -10 -10 -9 0 -13 5 -10 10
3 6 8 10 10 10 2 0 7 -4 10 -10z m-2992 -133 l132 -3 -137 -2 -138 -2 2 48 1
47 4 -42 4 -42 132 -4z m214 -179 c-1 -51 -3 -12 -3 87 0 99 2 141 3 93 2 -48
2 -129 0 -180z m2618 232 c-4 -6 -53 -10 -116 -10 l-109 0 0 -88 c0 -55 4 -92
12 -100 7 -7 43 -12 90 -12 71 0 78 2 78 20 0 17 -8 19 -82 22 l-83 3 -3 37
c-2 29 1 39 17 48 20 10 21 8 21 -30 l0 -40 85 0 85 0 0 -40 c0 -33 3 -40 20
-40 20 0 26 -11 13 -24 -5 -4 -9 -12 -9 -17 -1 -5 -2 -13 -3 -18 0 -5 -10 -11
-21 -14 -14 -3 -19 0 -18 12 5 62 7 61 -106 61 -134 0 -136 2 -136 116 0 127
-3 124 146 124 81 0 123 -4 119 -10z m-2968 -272 c-2 -29 -3 -8 -3 47 0 55 1
79 3 53 2 -26 2 -71 0 -100z m190 0 c-2 -29 -3 -8 -3 47 0 55 1 79 3 53 2 -26
2 -71 0 -100z m3328 132 c3 -5 1 -10 -4 -10 -6 0 -11 5 -11 10 0 6 2 10 4 10
3 0 8 -4 11 -10z m-1080 -60 c-3 -5 -35 -10 -70 -10 l-64 0 -3 -41 c-2 -31 -8
-44 -23 -49 -19 -7 -20 -3 -20 51 l0 59 93 0 c60 0 91 -4 87 -10z m630 -39 c3
-5 2 -12 -3 -15 -5 -3 -9 1 -9 9 0 17 3 19 12 6z m424 -94 c0 -9 -2 -8 -6 1
-2 6 -10 9 -15 6 -7 -4 -8 -2 -4 5 9 13 26 5 25 -12z m-102 -29 c-3 -8 -6 -5
-6 6 -1 11 2 17 5 13 3 -3 4 -12 1 -19z m-3660 -170 c-3 -8 -6 -5 -6 6 -1 11
2 17 5 13 3 -3 4 -12 1 -19z m28 -38 c10 -11 16 -20 13 -20 -3 0 -13 9 -23 20
-10 11 -16 20 -13 20 3 0 13 -9 23 -20z m1005 17 c0 -2 -10 -12 -22 -23 l-23
-19 19 23 c18 21 26 27 26 19z m-953 -43 c-3 -3 -12 -4 -19 -1 -8 3 -5 6 6 6
11 1 17 -2 13 -5z m900 0 c-3 -3 -12 -4 -19 -1 -8 3 -5 6 6 6 11 1 17 -2 13
-5z"/>
<path d="M2079 2798 c-1 -2 -3 -14 -4 -28 l-3 -25 145 0 146 0 4 27 3 26 -145
1 c-80 1 -146 1 -146 -1z"/>
<path d="M2365 2720 c-11 -5 -75 -9 -142 -9 l-123 -1 0 -26 c0 -21 3 -25 18
-18 31 15 254 17 263 2 4 -7 11 -9 15 -5 4 4 3 12 -4 19 -8 8 -6 16 10 30 20
17 20 18 2 17 -10 0 -28 -4 -39 -9z"/>
<path d="M1996 2712 c-11 -17 -5 -208 7 -231 23 -46 62 -58 190 -58 88 0 117
3 117 13 0 7 4 15 9 18 5 4 7 -3 4 -14 -4 -14 0 -20 11 -20 9 0 16 5 16 11 0
5 5 7 10 4 6 -4 10 5 10 19 0 17 -6 26 -16 26 -9 0 -12 -5 -8 -12 6 -10 4 -10
-7 -2 -8 6 -66 12 -134 13 -157 3 -155 1 -155 138 0 103 0 103 -24 103 -14 0
-27 -4 -30 -8z"/>
<path d="M2119 2638 c-1 -2 -3 -14 -4 -29 l-3 -25 106 0 107 1 2 30 2 30 -9
-30 c-8 -30 -8 -30 -9 -4 l-1 27 -95 1 c-52 1 -96 0 -96 -1z"/>
<path d="M2325 2560 c-11 -5 -66 -9 -122 -9 -94 -1 -121 -9 -92 -26 17 -11
252 -5 265 6 7 6 10 17 7 25 -6 16 -27 17 -58 4z"/>
<path d="M4620 2450 c-9 -6 -10 -10 -3 -10 6 0 15 5 18 10 8 12 4 12 -15 0z"/>
<path d="M3438 2698 c-2 -6 -2 -24 0 -40 l4 -28 84 0 84 0 0 28 c0 15 -5 33
-12 40 -16 16 -155 16 -160 0z"/>
</g>
</svg>
