<?xml version="1.0" standalone="no"?>
<!DOCTYPE svg PUBLIC "-//W3C//DTD SVG 20010904//EN"
 "http://www.w3.org/TR/2001/REC-SVG-20010904/DTD/svg10.dtd">
<svg version="1.0" xmlns="http://www.w3.org/2000/svg"
 width="500.000000pt" height="500.000000pt" viewBox="0 0 500.000000 500.000000"
 preserveAspectRatio="xMidYMid meet">
<metadata>
Created by potrace 1.16, written by Peter Selinger 2001-2019
</metadata>
<g transform="translate(0.000000,500.000000) scale(0.100000,-0.100000)"
fill="#000000" stroke="none">
<path d="M0 2500 l0 -2500 2500 0 2500 0 0 2500 0 2500 -2500 0 -2500 0 0
-2500z m1618 663 c-125 -2 -332 -2 -460 0 -128 1 -26 2 227 2 253 0 358 -1
233 -2z m-708 -6 c0 -2 -10 -12 -22 -23 l-23 -19 19 23 c18 21 26 27 26 19z
m998 -516 l-3 -466 -5 471 c-3 289 -9 477 -15 485 -5 8 -2 6 8 -4 16 -18 17
-53 15 -486z m-1041 447 c-3 -8 -6 -5 -6 6 -1 11 2 17 5 13 3 -3 4 -12 1 -19z
m771 -435 l-3 -258 -2 253 -3 252 -245 0 -244 0 -4 -42 -4 -43 -1 48 -2 47
255 0 255 0 -2 -257z m2775 213 c9 10 154 17 193 10 19 -4 34 -11 34 -17 0 -6
-5 -7 -12 -3 -7 4 -8 3 -4 -5 4 -6 16 -9 27 -6 14 5 22 -1 31 -22 15 -36 18
-67 7 -73 -5 -3 -9 -20 -11 -38 -1 -18 -5 -32 -8 -32 -4 0 -6 -21 -6 -47 1
-34 5 -47 14 -45 8 1 11 -2 7 -8 -3 -6 -11 -8 -16 -5 -5 4 -9 -1 -9 -10 0 -9
3 -14 8 -11 4 2 12 -7 19 -20 6 -14 7 -26 2 -30 -5 -3 -9 -12 -9 -21 0 -10 4
-13 13 -7 7 5 5 2 -5 -7 -9 -9 -15 -19 -12 -22 3 -3 0 -15 -6 -27 -6 -12 -14
-19 -17 -16 -3 2 -17 -6 -31 -19 -19 -18 -29 -21 -39 -13 -9 7 -13 7 -13 -1 0
-9 -24 -11 -80 -9 -46 2 -80 0 -80 -6 0 -5 -8 -2 -18 7 -10 10 -21 14 -24 11
-3 -3 -30 2 -58 10 -29 9 -58 13 -64 9 -6 -4 -5 1 2 10 12 14 11 16 -6 12 -12
-2 -27 4 -34 13 -10 12 -10 14 0 8 7 -4 12 -1 12 9 0 9 -4 14 -9 11 -5 -3 -15
2 -22 11 -12 14 -12 16 1 9 8 -4 6 -1 -4 8 -17 14 -18 24 -13 91 l7 75 -111 0
c-71 0 -108 4 -104 10 4 6 54 10 118 10 108 0 113 1 114 22 1 11 19 39 40 61
21 22 31 36 23 32 -9 -5 -7 0 5 14 12 14 26 20 38 17 10 -2 16 -2 13 1 -10 10
25 43 46 43 10 0 18 5 18 11 0 8 4 9 13 0 8 -6 17 -8 20 -5z m-1153 -8 c0 -4
9 -8 21 -8 11 0 17 -4 14 -10 -3 -5 1 -10 9 -10 12 0 14 -11 11 -55 -3 -43 -1
-55 11 -55 12 0 14 -26 14 -155 l0 -155 25 0 c14 0 25 -4 25 -10 0 -5 -20 -10
-45 -10 -43 0 -45 1 -45 30 0 22 -4 28 -15 24 -8 -4 -15 -11 -15 -18 0 -25
-82 -51 -169 -54 -47 -1 -90 -2 -96 -3 -37 -1 -78 9 -86 22 -5 8 -9 10 -9 6 0
-5 -16 0 -36 12 -31 19 -37 19 -50 6 -18 -18 -28 -20 -18 -4 3 6 -4 4 -17 -4
-27 -17 -135 -19 -147 -2 -4 6 -14 10 -22 10 -8 0 -14 6 -12 13 3 15 -11 9
-40 -16 -22 -18 -96 -33 -104 -20 -3 5 -12 4 -20 -3 -11 -9 -15 -8 -20 5 -3 9
-14 16 -24 16 -20 0 -30 19 -30 56 l0 24 -145 0 c-173 0 -165 -7 -165 139 l0
101 -25 0 c-14 0 -25 5 -25 10 0 6 7 10 15 10 9 0 15 9 15 24 0 13 7 26 15 30
12 4 15 -3 15 -34 l0 -40 151 0 c97 0 148 -4 144 -10 -4 -6 -61 -10 -137 -10
l-131 0 7 -46 c3 -26 6 -57 6 -70 0 -24 1 -24 111 -24 71 0 108 -4 104 -10 -4
-6 -54 -10 -116 -10 -107 0 -109 -1 -99 -20 10 -18 21 -20 140 -20 l130 0 0
34 c0 26 -5 35 -21 39 -17 5 -21 12 -17 36 l5 31 -109 0 c-69 0 -108 4 -108
11 0 7 43 9 129 7 71 -2 129 -1 129 2 -1 18 16 49 24 43 6 -3 9 0 7 6 -3 7 -8
12 -13 11 -14 -3 -25 23 -22 53 l3 27 -148 0 c-95 0 -149 4 -149 10 0 7 58 10
168 8 l167 -3 5 -38 5 -38 45 45 c24 26 50 46 58 46 7 0 11 3 8 8 -8 13 62 5
95 -12 39 -19 42 -20 33 -4 -5 7 5 2 21 -10 17 -14 31 -19 33 -13 2 6 10 11
18 11 8 0 14 5 14 10 0 6 7 10 16 10 8 0 13 4 10 9 -3 4 18 7 47 4 95 -7 122
-6 167 5 53 12 260 13 260 0z m436 -43 c19 -8 42 -27 51 -43 l17 -29 43 33
c62 47 101 56 243 52 l125 -3 3 -41 c3 -35 0 -42 -17 -47 -19 -4 -21 -1 -21
34 l0 39 -125 0 c-208 0 -230 -19 -230 -200 0 -174 26 -200 200 -200 62 0 94
-4 90 -10 -4 -6 -55 -10 -119 -10 -104 0 -116 2 -150 25 -20 13 -36 21 -36 16
0 -5 -9 -11 -20 -14 -19 -5 -20 0 -20 146 0 135 -2 156 -20 185 -29 47 -73 62
-180 62 -53 0 -90 4 -90 10 0 16 215 13 256 -5z m-276 -50 l0 -35 110 0 c98 0
110 -2 120 -19 5 -11 10 -83 10 -160 l0 -141 25 0 c14 0 25 -4 25 -10 0 -5
-20 -10 -45 -10 l-45 0 0 49 c0 26 -3 76 -6 110 l-7 61 -98 0 -99 0 0 60 c0
57 -1 60 -25 60 -14 0 -25 5 -25 10 0 6 5 10 10 10 6 0 10 11 10 25 0 18 5 25
20 25 16 0 20 -7 20 -35z m-2147 -98 l132 -3 -137 -2 -138 -2 2 48 1 47 4 -42
4 -42 132 -4z m214 -179 c-1 -51 -3 -12 -3 87 0 99 2 141 3 93 2 -48 2 -129 0
-180z m526 -22 c30 -46 71 -56 224 -56 97 0 134 -3 126 -11 -7 -7 -66 -9 -172
-7 l-163 3 -34 37 -34 38 0 124 c0 91 3 125 13 129 9 3 13 -26 17 -113 4 -89
9 -122 23 -144z m2102 254 c-4 -6 -53 -10 -116 -10 l-109 0 0 -81 c0 -115 4
-119 100 -119 73 0 80 2 80 20 0 18 -7 20 -80 20 l-80 0 0 44 c0 30 5 46 15
50 12 4 15 -3 15 -34 l0 -40 85 0 85 0 0 -40 c0 -37 2 -40 27 -40 21 0 24 -3
15 -12 -7 -7 -12 -22 -12 -34 0 -13 -8 -24 -20 -27 -17 -4 -20 0 -20 34 l0 39
-115 0 c-136 0 -135 -1 -135 120 0 122 -3 120 146 120 81 0 123 -4 119 -10z
m-2978 -272 c-2 -29 -3 -8 -3 47 0 55 1 79 3 53 2 -26 2 -71 0 -100z m190 0
c-2 -29 -3 -8 -3 47 0 55 1 79 3 53 2 -26 2 -71 0 -100z m2263 72 c0 -6 -30
-10 -70 -10 l-70 0 0 -44 c0 -35 -4 -45 -20 -49 -18 -5 -20 0 -20 54 l0 59 90
0 c53 0 90 -4 90 -10z m-2723 -332 c-3 -8 -6 -5 -6 6 -1 11 2 17 5 13 3 -3 4
-12 1 -19z m28 -38 c10 -11 16 -20 13 -20 -3 0 -13 9 -23 20 -10 11 -16 20
-13 20 3 0 13 -9 23 -20z m1005 17 c0 -2 -10 -12 -22 -23 l-23 -19 19 23 c18
21 26 27 26 19z m-953 -43 c-3 -3 -12 -4 -19 -1 -8 3 -5 6 6 6 11 1 17 -2 13
-5z m900 0 c-3 -3 -12 -4 -19 -1 -8 3 -5 6 6 6 11 1 17 -2 13 -5z"/>
<path d="M4675 2790 c-3 -5 -1 -10 4 -10 6 0 11 5 11 10 0 6 -2 10 -4 10 -3 0
-8 -4 -11 -10z"/>
<path d="M2680 2812 c0 -12 19 -26 26 -19 2 2 -2 10 -11 17 -9 8 -15 8 -15 2z"/>
<path d="M3450 2670 l0 -40 85 0 85 0 0 28 c0 43 -17 52 -97 52 l-73 0 0 -40z"/>
</g>
</svg>
