<?xml version="1.0" standalone="no"?>
<!DOCTYPE svg PUBLIC "-//W3C//DTD SVG 20010904//EN"
 "http://www.w3.org/TR/2001/REC-SVG-20010904/DTD/svg10.dtd">
<svg version="1.0" xmlns="http://www.w3.org/2000/svg"
 width="500.000000pt" height="500.000000pt" viewBox="0 0 500.000000 500.000000"
 preserveAspectRatio="xMidYMid meet">
<metadata>
Created by potrace 1.16, written by Peter Selinger 2001-2019
</metadata>
<g transform="translate(0.000000,500.000000) scale(0.100000,-0.100000)"
fill="#000000" stroke="none">
<path d="M0 2500 l0 -2500 2500 0 2500 0 0 2500 0 2500 -2500 0 -2500 0 0
-2500z m1618 663 c-125 -2 -332 -2 -460 0 -128 1 -26 2 227 2 253 0 358 -1
233 -2z m-708 -6 c0 -2 -10 -12 -22 -23 l-23 -19 19 23 c18 21 26 27 26 19z
m998 -516 l-3 -466 -5 471 c-3 289 -9 477 -15 485 -5 8 -2 6 8 -4 16 -18 17
-53 15 -486z m-1041 447 c-3 -8 -6 -5 -6 6 -1 11 2 17 5 13 3 -3 4 -12 1 -19z
m771 -435 l-3 -258 -2 253 -3 252 -245 0 -244 0 -4 -42 -4 -43 -1 48 -2 47
255 0 255 0 -2 -257z m3011 208 c5 -7 12 -13 17 -14 5 -1 8 -5 7 -9 -2 -5 2
-8 7 -8 6 0 10 -7 10 -15 0 -8 8 -15 18 -16 10 0 12 -3 5 -6 -7 -2 -13 -16
-13 -29 0 -13 -9 -33 -19 -43 -14 -14 -16 -22 -8 -30 6 -6 7 -11 1 -11 -5 0
-9 -16 -10 -35 0 -19 4 -35 10 -35 6 0 4 -5 -4 -10 -13 -8 -12 -10 3 -10 10 0
15 -5 12 -10 -4 -6 -11 -8 -16 -5 -5 4 -9 -1 -9 -10 0 -10 5 -13 11 -9 8 5 10
-1 7 -19 -4 -20 0 -28 13 -32 20 -7 25 -30 10 -40 -5 -3 -8 -17 -5 -30 2 -14
0 -24 -5 -23 -5 2 -16 -6 -24 -17 -14 -19 -27 -20 -185 -20 -94 0 -168 -4
-165 -8 3 -5 -3 -5 -13 1 -11 5 -25 7 -33 4 -10 -3 -11 1 -6 18 5 15 4 20 -4
16 -6 -4 -11 -3 -11 3 0 6 -7 8 -15 5 -10 -4 -15 0 -15 14 0 11 -7 22 -15 25
-8 4 -12 15 -10 27 2 11 1 19 -3 16 -4 -2 -6 31 -5 75 l2 79 -110 0 c-142 0
-144 18 -2 22 101 3 108 4 119 26 6 12 21 33 33 46 12 12 18 26 14 31 -5 4 -2
5 5 1 8 -5 16 2 22 18 5 14 15 26 22 26 6 0 21 9 33 20 11 11 35 21 53 23 18
2 35 7 39 11 13 12 224 1 232 -13z m-1786 -3 c12 -6 27 -17 34 -24 14 -14 46
-8 81 14 12 8 31 12 42 9 11 -3 20 -2 20 2 0 3 49 7 109 8 90 1 113 -2 139
-17 30 -18 31 -21 27 -75 -3 -47 -2 -56 10 -51 13 5 15 -19 15 -154 l0 -160
25 0 c14 0 25 -4 25 -10 0 -5 -20 -10 -45 -10 l-45 0 0 36 c0 31 -2 35 -15 24
-8 -7 -12 -16 -10 -21 8 -12 -85 -55 -115 -54 -14 1 -30 -3 -37 -7 -6 -5 -14
-5 -18 2 -3 6 -12 7 -18 3 -16 -10 -77 -11 -83 -2 -2 4 -16 6 -30 3 -16 -3
-23 -1 -19 6 3 5 -2 10 -11 10 -10 0 -25 7 -34 15 -10 9 -31 20 -49 25 -25 7
-33 5 -44 -11 -8 -11 -34 -23 -62 -28 -52 -10 -70 -7 -97 16 -9 8 -22 12 -27
8 -6 -3 -11 -1 -11 5 0 6 -4 8 -10 5 -5 -3 -11 4 -11 17 -1 17 -3 18 -6 6 -2
-10 -9 -18 -15 -18 -6 0 -9 -3 -5 -6 12 -12 -21 -33 -57 -37 -20 -2 -38 -6
-42 -9 -10 -11 -45 4 -55 24 -5 10 -14 16 -20 13 -5 -4 -9 11 -9 34 l0 41
-148 0 c-102 0 -152 4 -160 12 -8 8 -12 49 -12 120 l0 108 -25 0 c-14 0 -25 5
-25 10 0 6 5 10 10 10 6 0 10 11 10 24 0 15 7 26 20 29 17 4 20 0 20 -34 l0
-39 145 0 c90 0 145 -4 145 -10 0 -6 -50 -10 -131 -10 l-132 0 7 -46 c3 -26 6
-57 6 -70 0 -24 1 -24 105 -24 63 0 105 -4 105 -10 0 -6 -44 -10 -111 -10
-100 0 -110 -2 -107 -17 3 -16 19 -18 133 -21 136 -3 171 2 145 18 -11 7 -11
10 -2 10 10 0 10 5 2 21 -7 12 -18 18 -26 15 -11 -4 -14 4 -14 34 l0 40 -105
0 c-63 0 -105 4 -105 10 0 6 48 10 125 10 125 0 125 0 131 25 3 14 10 25 15
25 5 0 9 5 9 11 0 6 -7 9 -15 5 -12 -4 -15 3 -15 34 l0 40 -145 0 c-90 0 -145
4 -145 10 0 6 62 10 165 10 l165 0 0 -46 c0 -40 2 -44 15 -30 8 8 15 20 15 27
0 7 3 9 6 6 4 -4 19 8 34 25 15 17 34 32 41 34 8 1 23 3 34 5 37 5 124 -38
108 -55 -3 -3 1 -6 10 -6 8 0 18 -6 20 -12 3 -8 6 -5 6 5 1 11 6 15 13 11 7
-4 8 -3 4 5 -12 18 53 65 97 70 5 1 18 -4 30 -11z m837 -43 c15 -8 38 -27 49
-41 19 -25 23 -26 39 -12 9 9 40 27 69 42 49 24 62 26 188 26 l135 0 0 -44 c0
-35 -4 -45 -20 -49 -17 -4 -20 0 -20 34 l0 39 -125 0 c-140 0 -191 -15 -213
-65 -18 -38 -16 -239 3 -274 23 -45 69 -61 179 -61 62 0 96 -4 96 -11 0 -7
-40 -10 -124 -7 -111 3 -128 5 -155 26 -17 12 -31 18 -31 13 0 -5 -8 -11 -17
-13 -17 -4 -18 8 -18 152 0 134 -3 160 -18 184 -28 42 -73 56 -182 56 -57 0
-95 4 -95 10 0 17 226 13 260 -5z m-171 -85 c70 0 111 -4 119 -12 8 -8 12 -58
12 -160 l0 -148 25 0 c14 0 25 -5 25 -11 0 -6 -17 -9 -42 -7 l-42 3 -1 72 c0
39 -4 69 -9 66 -4 -3 -7 13 -4 36 l4 41 -103 0 -103 0 0 60 c0 57 -1 60 -25
60 -14 0 -25 5 -25 10 0 6 5 10 10 10 6 0 10 11 10 24 0 15 7 26 18 28 13 3
18 -5 20 -34 l3 -38 108 0z m-2256 -63 l132 -3 -137 -2 -138 -2 2 48 1 47 4
-42 4 -42 132 -4z m214 -179 c-1 -51 -3 -12 -3 87 0 99 2 141 3 93 2 -48 2
-129 0 -180z m533 -33 c30 -36 74 -45 215 -45 83 0 135 -4 135 -10 0 -6 -57
-10 -150 -10 -238 0 -260 18 -260 212 0 103 2 117 18 120 15 3 18 -10 22 -123
4 -91 9 -131 20 -144z m2100 265 c0 -6 -43 -10 -110 -10 l-111 0 3 -97 3 -98
83 -3 c77 -3 82 -2 82 18 0 18 -6 20 -80 20 l-80 0 0 44 c0 35 4 45 20 49 17
4 20 0 20 -34 l0 -39 80 0 80 0 0 -40 c0 -36 3 -40 25 -40 14 0 25 -4 25 -10
0 -5 -4 -10 -10 -10 -5 0 -10 -11 -10 -24 0 -16 -7 -26 -21 -29 -18 -5 -20 -2
-17 31 l3 37 -109 3 c-61 1 -116 8 -123 14 -17 14 -18 199 -1 216 15 15 248
17 248 2z m-2983 -272 c-2 -29 -3 -8 -3 47 0 55 1 79 3 53 2 -26 2 -71 0 -100z
m190 0 c-2 -29 -3 -8 -3 47 0 55 1 79 3 53 2 -26 2 -71 0 -100z m2263 72 c0
-6 -30 -10 -70 -10 l-70 0 0 -44 c0 -35 -4 -45 -20 -49 -18 -5 -20 0 -20 54
l0 59 90 0 c53 0 90 -4 90 -10z m-2723 -332 c-3 -8 -6 -5 -6 6 -1 11 2 17 5
13 3 -3 4 -12 1 -19z m28 -38 c10 -11 16 -20 13 -20 -3 0 -13 9 -23 20 -10 11
-16 20 -13 20 3 0 13 -9 23 -20z m1005 17 c0 -2 -10 -12 -22 -23 l-23 -19 19
23 c18 21 26 27 26 19z m-953 -43 c-3 -3 -12 -4 -19 -1 -8 3 -5 6 6 6 11 1 17
-2 13 -5z m900 0 c-3 -3 -12 -4 -19 -1 -8 3 -5 6 6 6 11 1 17 -2 13 -5z"/>
<path d="M3450 2670 l0 -40 84 0 c90 0 98 5 86 50 -6 24 -10 25 -88 28 l-82 3
0 -41z"/>
</g>
</svg>
