<?xml version="1.0" standalone="no"?>
<!DOCTYPE svg PUBLIC "-//W3C//DTD SVG 20010904//EN"
 "http://www.w3.org/TR/2001/REC-SVG-20010904/DTD/svg10.dtd">
<svg version="1.0" xmlns="http://www.w3.org/2000/svg"
 width="500.000000pt" height="500.000000pt" viewBox="0 0 500.000000 500.000000"
 preserveAspectRatio="xMidYMid meet">
<metadata>
Created by potrace 1.16, written by Peter Selinger 2001-2019
</metadata>
<g transform="translate(0.000000,500.000000) scale(0.100000,-0.100000)"
fill="#000000" stroke="none">
<path d="M0 2500 l0 -2500 2500 0 2500 0 0 2500 0 2500 -2500 0 -2500 0 0
-2500z m1618 663 c-125 -2 -332 -2 -460 0 -128 1 -26 2 227 2 253 0 358 -1
233 -2z m-708 -6 c0 -2 -10 -12 -22 -23 l-23 -19 19 23 c18 21 26 27 26 19z
m998 -516 l-3 -466 -5 471 c-3 289 -9 477 -15 485 -5 8 -2 6 8 -4 16 -18 17
-53 15 -486z m-1041 447 c-3 -8 -6 -5 -6 6 -1 11 2 17 5 13 3 -3 4 -12 1 -19z
m771 -435 l-3 -258 -2 253 -3 252 -245 0 -244 0 -4 -42 -4 -43 -1 48 -2 47
255 0 255 0 -2 -257z m3025 198 c25 -10 49 -54 44 -83 -4 -23 -47 -69 -58 -62
-12 7 -11 2 6 -40 17 -40 11 -81 -14 -106 -13 -13 -12 -15 8 -18 28 -4 62 -59
57 -92 -2 -14 -5 -28 -5 -31 -1 -8 -61 -33 -83 -35 -10 -1 -19 -2 -20 -4 -9
-7 -76 -4 -87 5 -11 7 -13 7 -8 -2 9 -14 -89 -13 -112 1 -10 7 -12 5 -6 -3 5
-9 -1 -11 -21 -8 -69 11 -117 32 -139 61 -29 38 -35 63 -39 146 l-2 65 -102 3
c-139 4 -132 22 8 22 102 0 110 1 110 19 0 11 11 32 25 47 14 15 25 24 25 20
0 -4 7 -1 15 8 8 8 15 18 15 22 0 10 51 54 75 64 27 12 278 12 308 1z m-2003
-49 c17 -20 30 -42 30 -49 0 -7 5 -13 10 -13 6 0 9 -3 9 -7 -3 -18 2 -33 9
-33 5 0 9 19 10 42 2 44 20 71 64 94 56 29 107 13 111 -35 2 -27 3 -26 56 9
44 30 44 30 191 30 161 0 160 0 160 -59 0 -55 -43 -71 -190 -74 l-95 -2 -3
-32 c-4 -38 6 -41 38 -13 20 17 37 20 137 20 104 0 113 1 113 19 0 10 9 21 20
24 19 5 20 0 20 -154 l0 -159 25 0 c14 0 25 -4 25 -10 0 -5 -20 -10 -45 -10
l-45 0 0 46 c0 41 -2 45 -22 42 -17 -2 -22 -9 -20 -24 6 -46 -44 -64 -196 -69
-89 -2 -108 0 -145 19 -23 11 -48 33 -55 49 -11 23 -16 26 -33 16 -11 -6 -18
-17 -15 -24 2 -7 -3 -20 -12 -28 -15 -14 -29 -19 -91 -31 -38 -7 -103 53 -117
108 -10 43 -26 42 -24 0 3 -66 1 -73 -30 -89 -16 -9 -30 -13 -30 -11 0 3 -17
-1 -37 -8 -56 -19 -83 1 -83 60 l0 44 -148 0 c-102 0 -152 4 -160 12 -8 8 -12
49 -12 120 l0 108 -25 0 c-14 0 -25 5 -25 10 0 6 5 10 10 10 6 0 10 11 10 25
0 16 6 25 15 25 10 0 15 -11 15 -35 l0 -35 150 0 c93 0 150 -4 150 -10 0 -6
-50 -10 -130 -10 l-130 0 0 -70 0 -70 110 0 c67 0 110 -4 110 -10 0 -6 -44
-10 -111 -10 -100 0 -110 -2 -107 -17 3 -16 18 -18 143 -18 l139 0 1 38 c1 41
1 41 -26 27 -17 -10 -19 -7 -19 30 l0 40 -112 0 c-80 0 -109 3 -101 11 7 7 55
9 135 7 117 -3 124 -2 126 16 1 21 36 58 65 69 9 3 17 12 17 20 0 17 38 53 69
65 38 14 69 3 101 -36z m-220 -16 c0 -35 -4 -45 -20 -49 -17 -4 -20 0 -20 34
l0 39 -145 0 c-90 0 -145 4 -145 10 0 6 62 10 165 10 l165 0 0 -44z m1265 30
c19 -8 43 -29 53 -46 17 -27 21 -29 32 -15 7 9 22 21 33 27 19 10 19 9 -1 -17
-20 -25 -22 -39 -22 -154 0 -181 20 -201 195 -201 57 0 95 -4 95 -10 0 -6 -46
-10 -119 -10 -109 0 -121 2 -155 25 -20 13 -36 21 -36 16 0 -5 -9 -11 -20 -14
-19 -5 -20 0 -20 149 0 175 -7 201 -64 228 -24 11 -62 16 -130 16 -57 0 -96 4
-96 10 0 16 215 13 255 -4z m485 -30 c0 -35 -4 -45 -20 -49 -18 -4 -20 0 -20
35 l0 40 -140 -4 c-77 -2 -140 -2 -140 0 0 13 67 21 183 21 l137 1 0 -44z
m-651 -56 c70 0 111 -4 119 -12 8 -8 12 -58 12 -160 l0 -148 25 0 c14 0 25 -4
25 -10 0 -5 -20 -10 -45 -10 l-45 0 0 49 c0 26 -3 76 -6 110 l-7 61 -98 0 -99
0 0 60 c0 57 -1 60 -25 60 -14 0 -25 5 -25 10 0 6 5 10 10 10 6 0 10 11 10 24
0 15 7 26 18 28 13 3 18 -5 20 -34 l3 -38 108 0z m-2266 -63 l132 -3 -137 -2
-138 -2 2 48 1 47 4 -42 4 -42 132 -4z m214 -179 c-1 -51 -3 -12 -3 87 0 99 2
141 3 93 2 -48 2 -129 0 -180z m2643 232 c0 -6 -43 -10 -110 -10 l-111 0 3
-97 3 -98 83 -3 c77 -3 82 -2 82 18 0 18 -6 20 -80 20 l-80 0 0 45 c0 38 3 45
20 45 16 0 20 -7 20 -35 l0 -35 80 0 80 0 0 -40 c0 -36 3 -40 25 -40 14 0 25
-4 25 -10 0 -5 -4 -10 -10 -10 -5 0 -10 -11 -10 -24 0 -15 -7 -26 -20 -29 -17
-4 -20 0 -20 34 l0 39 -108 0 c-71 0 -112 4 -120 12 -16 16 -16 200 0 216 15
15 248 17 248 2z m-2129 -113 c6 -180 27 -197 244 -197 83 0 135 -4 135 -10 0
-6 -60 -10 -159 -10 -148 0 -160 1 -192 23 -51 34 -59 58 -59 190 0 93 3 117
14 117 11 0 15 -25 17 -113z m-864 -159 c-2 -29 -3 -8 -3 47 0 55 1 79 3 53 2
-26 2 -71 0 -100z m190 0 c-2 -29 -3 -8 -3 47 0 55 1 79 3 53 2 -26 2 -71 0
-100z m2273 72 c0 -6 -30 -10 -70 -10 l-70 0 0 -44 c0 -35 -4 -45 -20 -49 -18
-5 -20 0 -20 54 l0 59 90 0 c53 0 90 -4 90 -10z m-2733 -332 c-3 -8 -6 -5 -6
6 -1 11 2 17 5 13 3 -3 4 -12 1 -19z m28 -38 c10 -11 16 -20 13 -20 -3 0 -13
9 -23 20 -10 11 -16 20 -13 20 3 0 13 -9 23 -20z m1005 17 c0 -2 -10 -12 -22
-23 l-23 -19 19 23 c18 21 26 27 26 19z m-953 -43 c-3 -3 -12 -4 -19 -1 -8 3
-5 6 6 6 11 1 17 -2 13 -5z m900 0 c-3 -3 -12 -4 -19 -1 -8 3 -5 6 6 6 11 1
17 -2 13 -5z"/>
<path d="M3007 2789 c-21 -3 -49 -17 -62 -30 -23 -22 -24 -32 -26 -139 -2
-177 11 -190 179 -190 101 0 103 0 100 22 -3 22 -7 23 -106 23 -86 1 -105 4
-120 19 -10 11 -11 15 -3 11 10 -6 12 -4 5 6 -4 8 -9 54 -9 104 -2 131 3 135
156 135 93 0 118 3 122 15 4 8 1 18 -6 22 -15 9 -177 11 -230 2z"/>
<path d="M2560 2772 c0 -6 11 -27 25 -47 13 -20 33 -61 45 -91 39 -106 87
-184 113 -184 6 0 3 8 -6 18 -17 19 -77 132 -77 145 0 5 -13 36 -29 70 -27 58
-71 113 -71 89z"/>
<path d="M2800 2656 c0 -73 4 -127 10 -131 6 -4 10 40 10 124 0 81 -4 131 -10
131 -6 0 -10 -48 -10 -124z"/>
<path d="M2480 2577 c0 -164 18 -177 22 -16 2 88 0 124 -9 131 -10 8 -13 -16
-13 -115z"/>
<path d="M3080 2613 c0 -21 4 -23 63 -23 70 0 97 -17 97 -58 0 -15 6 -22 20
-22 22 0 22 -2 24 63 1 27 -3 51 -8 55 -6 4 -53 7 -103 7 -90 0 -93 -1 -93
-22z"/>
<path d="M3032 2533 c13 -16 148 -18 148 -3 0 12 0 12 -87 14 -57 1 -69 -1
-61 -11z"/>
<path d="M3460 2670 l0 -40 86 0 85 0 -3 38 -3 37 -82 3 -83 3 0 -41z"/>
</g>
</svg>
