<?xml version="1.0" standalone="no"?>
<!DOCTYPE svg PUBLIC "-//W3C//DTD SVG 20010904//EN"
 "http://www.w3.org/TR/2001/REC-SVG-20010904/DTD/svg10.dtd">
<svg version="1.0" xmlns="http://www.w3.org/2000/svg"
 width="500.000000pt" height="500.000000pt" viewBox="0 0 500.000000 500.000000"
 preserveAspectRatio="xMidYMid meet">
<metadata>
Created by potrace 1.16, written by Peter Selinger 2001-2019
</metadata>
<g transform="translate(0.000000,500.000000) scale(0.100000,-0.100000)"
fill="#000000" stroke="none">
<path d="M0 2500 l0 -2500 2500 0 2500 0 0 2500 0 2500 -2500 0 -2500 0 0
-2500z m1618 663 c-125 -2 -332 -2 -460 0 -128 1 -26 2 227 2 253 0 358 -1
233 -2z m-708 -6 c0 -2 -10 -12 -22 -23 l-23 -19 19 23 c18 21 26 27 26 19z
m998 -516 l-3 -466 -5 471 c-3 289 -9 477 -15 485 -5 8 -2 6 8 -4 16 -18 17
-53 15 -486z m-1041 447 c-3 -8 -6 -5 -6 6 -1 11 2 17 5 13 3 -3 4 -12 1 -19z
m771 -435 l-3 -258 -2 253 -3 252 -245 0 -244 0 -4 -42 -4 -43 -1 48 -2 47
255 0 255 0 -2 -257z m3019 211 c12 -3 25 -15 28 -25 4 -10 12 -19 18 -19 8 0
12 -15 12 -39 0 -21 -3 -37 -6 -35 -9 5 -33 -25 -26 -33 4 -3 -1 -12 -11 -19
-15 -12 -15 -15 -2 -24 10 -6 11 -10 3 -10 -9 0 -10 -7 -2 -27 7 -19 7 -29 0
-31 -6 -2 -11 -13 -11 -23 0 -11 4 -18 9 -14 5 3 12 1 16 -5 3 -5 2 -10 -4
-10 -5 0 -9 -9 -8 -19 0 -11 4 -18 8 -16 14 9 31 -45 25 -77 -8 -45 -57 -66
-149 -63 -37 1 -70 -3 -73 -7 -3 -5 -12 -4 -19 2 -10 8 -15 8 -20 0 -5 -8 -11
-7 -22 2 -20 16 -16 16 -38 -2 -11 -8 -16 -10 -11 -3 5 9 2 11 -8 7 -9 -3 -16
-10 -16 -16 0 -5 -7 -3 -15 6 -9 8 -22 13 -29 10 -8 -3 -17 0 -21 5 -3 6 -11
9 -16 6 -5 -3 -6 2 -2 11 4 12 3 15 -5 10 -7 -4 -12 -2 -12 4 0 6 -5 8 -10 5
-6 -3 -13 2 -17 12 -4 10 -12 24 -19 30 -7 7 -14 18 -16 25 -7 19 -36 -7 -40
-34 -2 -12 -13 -25 -25 -29 -21 -8 -23 -6 -23 31 l0 40 -110 0 c-131 0 -130
-1 -130 120 0 122 -3 120 146 120 81 0 123 -4 119 -10 -4 -6 -53 -10 -116 -10
l-109 0 0 -88 c0 -55 4 -92 12 -100 7 -7 43 -12 90 -12 71 0 78 2 78 20 0 17
-8 19 -82 22 l-83 3 -3 37 c-2 29 1 39 18 48 24 13 35 -5 28 -45 l-5 -25 83 0
84 0 0 -40 c0 -29 4 -40 15 -40 11 0 12 5 6 23 -5 12 -8 48 -7 80 l1 57 -82 0
c-49 0 -83 4 -83 10 0 6 42 10 105 10 92 0 106 2 114 19 6 10 8 21 5 24 -3 2
9 15 26 27 16 12 27 26 24 32 -4 6 -2 8 4 4 6 -3 14 0 19 7 4 8 30 30 56 50
l49 37 131 0 c73 0 142 -3 154 -6z m-1767 -15 c8 -5 11 -9 7 -9 -10 0 18 -30
28 -30 3 0 27 10 53 22 39 19 68 23 169 26 107 3 126 1 145 -15 28 -22 33 -67
11 -104 -14 -23 -15 -31 -5 -41 9 -9 12 -8 12 5 0 9 2 17 4 17 2 0 11 3 20 6
14 5 16 -12 16 -155 l0 -161 26 0 c14 0 23 -4 19 -10 -3 -5 -24 -10 -46 -10
-39 0 -39 0 -39 40 0 22 -4 40 -8 40 -15 0 -30 -22 -25 -36 5 -14 -47 -43 -92
-51 -36 -7 -209 -5 -239 3 -16 4 -47 24 -69 46 l-40 39 -12 -28 c-11 -26 -44
-61 -52 -55 -10 7 -33 0 -27 -9 4 -8 0 -8 -15 0 -11 7 -21 9 -21 6 0 -3 -10 0
-22 7 -13 7 -27 11 -31 10 -5 -1 -6 1 -4 5 3 5 -13 26 -34 48 -29 30 -37 35
-33 18 3 -11 -1 -34 -9 -49 -12 -22 -26 -31 -63 -39 -52 -11 -104 -1 -104 20
0 7 -10 11 -22 11 -19 -1 -23 5 -26 37 l-3 37 -134 0 c-161 0 -155 -6 -155
139 l0 101 -25 0 c-14 0 -25 5 -25 10 0 6 5 10 10 10 6 0 10 9 10 20 0 10 9
24 20 30 18 10 20 8 20 -30 l0 -40 145 0 c90 0 145 -4 145 -10 0 -6 -50 -10
-131 -10 l-132 0 7 -46 c3 -26 6 -57 6 -70 0 -24 1 -24 105 -24 63 0 105 -4
105 -10 0 -6 -43 -10 -110 -10 -108 0 -122 -4 -98 -28 13 -13 279 -18 277 -4
-1 4 -1 47 0 96 l1 89 76 74 76 75 46 -5 c37 -4 52 -12 74 -38 16 -18 28 -39
28 -46 0 -7 5 -13 10 -13 6 0 10 7 10 16 0 9 18 33 40 54 31 30 48 38 78 38
21 0 44 -3 52 -9z m-460 -63 c0 -35 -4 -45 -20 -49 -17 -4 -20 0 -20 34 l0 39
-145 0 c-90 0 -145 4 -145 10 0 6 62 10 165 10 l165 0 0 -44z m1277 27 c20 -9
43 -29 52 -44 17 -28 17 -28 35 -8 9 11 41 32 71 45 49 23 63 24 187 22 l133
-3 0 -39 c0 -31 -4 -40 -22 -47 -21 -8 -23 -6 -23 31 l0 40 -120 0 c-203 0
-220 -15 -220 -201 0 -112 2 -129 20 -152 27 -34 76 -47 178 -47 48 0 82 -4
82 -10 0 -13 -210 -13 -243 -1 -13 5 -31 17 -40 26 -10 9 -17 12 -17 7 0 -5
-9 -12 -20 -15 -19 -5 -20 0 -21 136 0 229 -16 250 -190 255 -142 5 -132 22
13 22 82 0 119 -4 145 -17z m-277 -43 l0 -40 108 0 c71 0 112 -4 120 -12 8 -8
12 -58 12 -160 l0 -148 25 0 c14 0 25 -4 25 -10 0 -5 -20 -10 -45 -10 l-45 0
0 70 c0 39 -3 70 -8 70 -4 0 -6 18 -4 40 l4 40 -106 0 -106 0 0 60 c0 59 -1
60 -27 60 -25 1 -26 2 -10 14 9 7 17 22 17 34 0 18 11 29 33 31 4 1 7 -17 7
-39z m-2157 -103 l132 -3 -137 -2 -138 -2 2 48 1 47 4 -42 4 -42 132 -4z m214
-179 c-1 -51 -3 -12 -3 87 0 99 2 141 3 93 2 -48 2 -129 0 -180z m539 -25 c31
-41 74 -52 217 -52 77 -1 127 -5 127 -11 0 -6 -57 -10 -151 -10 -231 0 -251
17 -257 212 -4 107 -3 116 14 120 17 3 19 -7 24 -114 4 -98 8 -121 26 -145z
m364 163 c0 -35 -4 -45 -20 -49 -17 -4 -20 0 -20 34 l0 39 -105 0 c-63 0 -105
4 -105 10 0 6 48 10 125 10 l125 0 0 -44z m-1253 -178 c-2 -29 -3 -8 -3 47 0
55 1 79 3 53 2 -26 2 -71 0 -100z m190 0 c-2 -29 -3 -8 -3 47 0 55 1 79 3 53
2 -26 2 -71 0 -100z m2268 72 c-3 -5 -35 -10 -71 -10 -63 0 -64 0 -65 -27 -2
-51 -4 -56 -25 -63 -19 -8 -21 -4 -23 51 l-2 59 96 0 c62 0 94 -4 90 -10z
m-2728 -332 c-3 -8 -6 -5 -6 6 -1 11 2 17 5 13 3 -3 4 -12 1 -19z m28 -38 c10
-11 16 -20 13 -20 -3 0 -13 9 -23 20 -10 11 -16 20 -13 20 3 0 13 -9 23 -20z
m1005 17 c0 -2 -10 -12 -22 -23 l-23 -19 19 23 c18 21 26 27 26 19z m-953 -43
c-3 -3 -12 -4 -19 -1 -8 3 -5 6 6 6 11 1 17 -2 13 -5z m900 0 c-3 -3 -12 -4
-19 -1 -8 3 -5 6 6 6 11 1 17 -2 13 -5z"/>
<path d="M3050 2684 c0 -8 5 -12 10 -9 6 4 8 11 5 16 -9 14 -15 11 -15 -7z"/>
<path d="M3458 2682 c-7 -49 -2 -52 88 -52 l84 0 0 28 c0 43 -17 52 -96 52
-71 0 -72 0 -76 -28z"/>
</g>
</svg>
