<?xml version="1.0" standalone="no"?>
<!DOCTYPE svg PUBLIC "-//W3C//DTD SVG 20010904//EN"
 "http://www.w3.org/TR/2001/REC-SVG-20010904/DTD/svg10.dtd">
<svg version="1.0" xmlns="http://www.w3.org/2000/svg"
 width="500.000000pt" height="500.000000pt" viewBox="0 0 500.000000 500.000000"
 preserveAspectRatio="xMidYMid meet">
<metadata>
Created by potrace 1.16, written by Peter Selinger 2001-2019
</metadata>
<g transform="translate(0.000000,500.000000) scale(0.100000,-0.100000)"
fill="#000000" stroke="none">
<path d="M0 2500 l0 -2500 2500 0 2500 0 0 2500 0 2500 -2500 0 -2500 0 0
-2500z m1618 663 c-125 -2 -332 -2 -460 0 -128 1 -26 2 227 2 253 0 358 -1
233 -2z m273 -30 c13 -16 12 -17 -3 -4 -10 7 -18 15 -18 17 0 8 8 3 21 -13z
m-253 -480 l-3 -258 -2 253 -3 252 -245 0 -244 0 -4 -42 -4 -43 -1 48 -2 47
255 0 255 0 -2 -257z m3040 195 c2 -4 9 -14 16 -21 16 -16 14 -89 -2 -95 -7
-2 -10 -8 -6 -13 3 -5 -6 -9 -20 -9 -29 0 -36 -27 -11 -36 8 -4 13 -10 10 -14
-3 -5 -1 -20 5 -35 7 -19 7 -24 -1 -19 -7 4 -10 1 -7 -7 3 -8 -2 -19 -10 -25
-14 -10 -12 -15 10 -35 33 -31 46 -57 46 -92 -1 -53 -76 -74 -260 -72 -144 1
-192 14 -222 56 -10 15 -15 17 -20 7 -3 -7 -4 -4 -1 8 3 12 -3 30 -15 44 -16
18 -20 37 -20 92 l0 68 -95 0 c-57 0 -95 4 -95 10 0 6 43 10 110 10 l110 0 0
29 c0 21 6 32 20 36 11 3 20 11 20 16 0 6 5 7 10 4 6 -3 10 -1 10 4 0 14 49
70 75 84 20 12 281 27 320 19 11 -3 22 -9 23 -14z m-2056 -9 c36 -19 65 -54
78 -93 14 -43 22 -41 25 6 4 43 62 98 104 98 42 0 81 -20 81 -42 0 -23 -2 -23
56 9 46 26 58 28 181 30 151 2 163 -3 163 -66 0 -29 -5 -40 -22 -49 -40 -19
-81 -26 -168 -27 -77 -1 -85 -3 -85 -21 -1 -10 -4 -25 -8 -31 -6 -9 -3 -11 10
-6 18 7 29 15 58 41 9 8 16 9 20 2 4 -6 11 -7 18 -3 13 8 57 11 57 3 0 -4 33
-4 108 -1 6 1 12 7 12 15 0 7 9 16 20 19 19 5 20 0 20 -154 l0 -159 26 0 c14
0 23 -4 19 -10 -3 -5 -24 -10 -46 -10 l-39 0 0 46 c0 38 -3 45 -16 40 -9 -3
-20 -6 -25 -6 -6 0 -7 -5 -4 -10 10 -16 -4 -48 -25 -55 -47 -15 -71 -18 -165
-22 -115 -5 -161 8 -197 57 -19 27 -58 45 -43 20 3 -6 0 -17 -8 -25 -9 -8 -17
-20 -19 -26 -2 -6 -33 -14 -69 -16 l-66 -5 -30 39 c-17 21 -34 48 -37 61 -10
29 -27 18 -22 -14 7 -35 -2 -52 -34 -69 -33 -17 -110 -36 -110 -26 0 3 -10 11
-22 16 -18 8 -24 20 -26 53 l-3 42 -143 0 c-106 0 -146 3 -154 13 -6 7 -13 60
-14 117 l-3 105 -30 6 c-24 5 -27 7 -12 13 9 5 17 18 17 31 0 13 7 25 15 29
12 4 15 -3 15 -34 l0 -40 152 0 c186 0 192 -18 8 -22 l-125 -3 1 -27 c1 -16 2
-46 3 -68 l1 -40 111 0 c71 0 108 -4 104 -10 -3 -6 -52 -10 -111 -10 -95 0
-105 -2 -102 -17 3 -16 19 -18 141 -21 l137 -3 0 41 c0 38 -2 40 -20 30 -18
-10 -20 -8 -20 30 l0 40 -112 0 c-79 0 -109 3 -101 11 6 6 55 9 132 7 114 -3
122 -2 127 17 9 28 113 134 149 150 37 18 41 18 67 4z m-182 -53 c0 -35 -4
-45 -20 -49 -17 -4 -20 0 -20 34 l0 39 -151 0 c-97 0 -148 4 -144 10 4 6 72
10 171 10 l164 0 0 -44z m1270 26 c19 -9 42 -31 51 -48 14 -30 16 -31 27 -13
6 10 21 23 34 30 l21 12 -21 -28 c-20 -25 -22 -39 -22 -155 0 -113 2 -130 20
-153 27 -34 76 -47 183 -47 51 0 87 -4 87 -10 0 -6 -46 -10 -119 -10 -109 0
-121 2 -155 25 -20 13 -36 21 -36 16 0 -5 -9 -11 -20 -14 -19 -5 -20 0 -20
149 0 225 -15 244 -195 244 -57 0 -95 4 -95 10 0 6 44 10 113 10 87 0 120 -4
147 -18z m480 -26 c0 -35 -4 -45 -20 -49 -18 -4 -20 0 -20 34 l0 40 -140 -3
c-77 -2 -140 -2 -140 0 0 13 67 21 183 21 l137 1 0 -44z m-650 -56 c98 0 110
-2 120 -19 5 -11 10 -83 10 -160 l0 -141 25 0 c14 0 25 -4 25 -10 0 -5 -20
-10 -45 -10 l-45 0 0 49 c0 26 -3 76 -6 110 l-7 61 -98 0 -99 0 0 60 c0 57 -1
60 -25 60 -14 0 -25 5 -25 10 0 6 5 10 10 10 6 0 10 11 10 24 0 15 7 26 18 28
13 3 18 -5 20 -34 l3 -38 109 0z m-2267 -63 l132 -3 -137 -2 -138 -2 2 48 1
47 4 -42 4 -42 132 -4z m214 -179 c-1 -51 -3 -12 -3 87 0 99 2 141 3 93 2 -48
2 -129 0 -180z m539 -25 c31 -42 74 -52 222 -52 86 -1 131 -5 127 -11 -10 -17
-301 -13 -335 5 -61 32 -70 55 -70 191 0 89 3 123 13 127 9 3 13 -26 17 -114
5 -99 9 -123 26 -146z m2104 257 c0 -10 -51 -13 -162 -10 l-56 1 -4 -63 c-1
-35 -1 -79 2 -98 l5 -35 83 -3 c77 -3 82 -2 82 18 0 18 -6 20 -80 20 l-80 0 0
45 c0 39 3 45 21 45 18 0 21 -5 17 -35 l-4 -35 83 0 83 0 0 -40 c0 -36 3 -40
25 -40 14 0 25 -4 25 -10 0 -5 -4 -10 -10 -10 -5 0 -10 -11 -10 -24 0 -15 -7
-26 -20 -29 -17 -4 -20 0 -20 34 l0 39 -108 0 c-71 0 -112 4 -120 12 -16 16
-16 200 0 216 15 15 248 17 248 2z m-2803 -272 c-2 -29 -3 -8 -3 47 0 55 1 79
3 53 2 -26 2 -71 0 -100z m2273 72 c0 -6 -30 -10 -70 -10 l-70 0 0 -44 c0 -35
-4 -45 -20 -49 -18 -5 -20 0 -20 54 l0 59 90 0 c53 0 90 -4 90 -10z m-2705
-370 c10 -11 16 -20 13 -20 -3 0 -13 9 -23 20 -10 11 -16 20 -13 20 3 0 13 -9
23 -20z m1005 17 c0 -2 -10 -12 -22 -23 l-23 -19 19 23 c18 21 26 27 26 19z"/>
<path d="M3109 2793 c82 -3 107 -7 116 -20 9 -12 14 -13 20 -3 14 23 -18 30
-130 28 l-110 -2 104 -3z"/>
<path d="M2824 2655 c0 -71 1 -99 3 -62 2 37 2 96 0 130 -2 34 -3 4 -3 -68z"/>
<path d="M2600 2728 c16 -22 30 -46 30 -52 0 -14 58 -136 64 -136 3 0 1 11 -4
25 -5 14 -8 25 -5 25 2 0 -2 12 -10 27 -8 15 -11 31 -8 36 3 6 2 7 -4 4 -9 -6
-39 60 -35 76 1 5 -2 6 -8 2 -5 -3 -10 0 -10 8 0 12 -20 27 -36 27 -2 0 9 -19
26 -42z"/>
<path d="M2955 2706 c-14 -16 -12 -206 3 -231 6 -11 12 -15 12 -10 0 6 40 9
102 9 l103 -2 -86 7 c-118 9 -121 11 -118 133 1 54 0 100 -2 102 -2 2 -8 -1
-14 -8z m15 -216 c0 -5 -2 -10 -4 -10 -3 0 -8 5 -11 10 -3 6 -1 10 4 10 6 0
11 -4 11 -10z"/>
<path d="M2499 2638 c-5 -55 -3 -171 3 -181 4 -7 8 34 8 91 0 56 -2 102 -5
102 -3 0 -6 -6 -6 -12z"/>
<path d="M3183 2633 c42 -2 78 -8 78 -13 1 -6 2 -28 3 -50 2 -59 21 -49 24 14
l3 53 -93 0 c-92 -1 -92 -1 -15 -4z"/>
<path d="M3236 2599 c21 -23 23 -23 20 -2 -2 9 -11 17 -20 19 -17 2 -17 2 0
-17z"/>
<path d="M3030 2541 c0 -6 6 -12 13 -12 26 -3 91 2 96 7 3 3 -10 4 -29 3 -19
-1 -45 1 -57 5 -14 5 -23 3 -23 -3z"/>
<path d="M3150 2530 c0 -5 5 -10 10 -10 6 0 10 5 10 10 0 6 -4 10 -10 10 -5 0
-10 -4 -10 -10z"/>
<path d="M3186 2444 c-5 -14 -4 -15 9 -4 17 14 19 20 6 20 -5 0 -12 -7 -15
-16z"/>
<path d="M3460 2670 l0 -40 86 0 85 0 -3 38 -3 37 -82 3 -83 3 0 -41z"/>
</g>
</svg>
