<?xml version="1.0" standalone="no"?>
<!DOCTYPE svg PUBLIC "-//W3C//DTD SVG 20010904//EN"
 "http://www.w3.org/TR/2001/REC-SVG-20010904/DTD/svg10.dtd">
<svg version="1.0" xmlns="http://www.w3.org/2000/svg"
 width="500.000000pt" height="500.000000pt" viewBox="0 0 500.000000 500.000000"
 preserveAspectRatio="xMidYMid meet">
<metadata>
Created by potrace 1.16, written by Peter Selinger 2001-2019
</metadata>
<g transform="translate(0.000000,500.000000) scale(0.100000,-0.100000)"
fill="#000000" stroke="none">
<path d="M0 2500 l0 -2500 2500 0 2500 0 0 2500 0 2500 -2500 0 -2500 0 0
-2500z m1618 663 c-125 -2 -332 -2 -460 0 -128 1 -26 2 227 2 253 0 358 -1
233 -2z m273 -30 c13 -16 12 -17 -3 -4 -10 7 -18 15 -18 17 0 8 8 3 21 -13z
m-253 -480 l-3 -258 -2 253 -3 252 -245 0 -244 0 -4 -42 -4 -43 -1 48 -2 47
255 0 255 0 -2 -257z m3040 199 c2 -7 10 -19 18 -26 18 -19 18 -70 -1 -86 -8
-7 -12 -16 -9 -21 3 -5 -1 -9 -9 -9 -8 0 -21 -8 -28 -17 -10 -11 -10 -14 -1
-9 6 4 12 2 12 -3 0 -16 0 -17 10 -51 5 -16 6 -30 2 -30 -4 0 -13 -9 -19 -20
-11 -16 -8 -24 22 -56 34 -36 40 -58 29 -100 -6 -22 -53 -40 -119 -46 -16 -2
-33 -7 -37 -13 -5 -6 -8 -5 -8 3 0 8 -6 10 -17 5 -19 -9 -124 -8 -181 1 -19 2
-44 12 -58 21 -13 8 -24 13 -24 10 0 -3 -11 6 -24 20 -17 18 -26 22 -30 13 -3
-7 -3 -3 0 10 3 13 1 22 -6 22 -6 0 -9 4 -6 9 3 5 -1 11 -9 15 -11 4 -15 23
-15 81 l0 75 -94 0 c-53 0 -98 4 -101 10 -4 6 35 10 109 10 l116 0 0 30 c0 20
6 33 18 37 9 4 39 31 66 60 27 29 63 57 80 63 48 14 308 8 314 -8z m-1786 -21
c15 -13 25 -28 22 -33 -3 -5 18 4 48 21 51 28 58 29 184 31 151 1 164 -5 164
-70 0 -44 -1 -45 -73 -70 l-52 -19 63 1 c43 0 62 4 62 13 0 7 9 15 20 18 19 5
20 0 20 -154 l0 -159 26 0 c14 0 23 -4 19 -10 -3 -5 -24 -10 -46 -10 l-39 0 0
45 c0 25 -3 45 -7 45 -17 0 -30 -16 -36 -42 -10 -40 -73 -57 -210 -56 -84 1
-118 5 -137 17 -27 17 -56 46 -64 64 -4 8 -10 5 -18 -7 -38 -54 -43 -58 -104
-63 l-61 -5 -31 40 c-18 22 -32 44 -32 50 0 5 -6 14 -13 20 -10 9 -13 5 -11
-20 4 -56 -12 -74 -80 -90 -33 -8 -62 -11 -64 -6 -2 4 -8 8 -14 8 -20 0 -38
30 -38 64 l0 36 -142 0 c-79 0 -150 4 -158 10 -11 7 -14 33 -15 117 l0 108
-27 3 c-29 3 -40 22 -13 22 9 0 15 9 15 24 0 13 7 26 15 30 12 4 15 -3 15 -34
l0 -40 151 0 c97 0 148 -4 144 -10 -4 -6 -61 -10 -137 -10 l-131 0 7 -46 c3
-26 6 -57 6 -70 0 -24 1 -24 111 -24 71 0 108 -4 104 -10 -4 -6 -53 -10 -116
-10 -60 0 -109 -4 -109 -8 0 -26 30 -32 156 -32 l133 0 -1 38 c0 33 -4 38 -22
38 -17 -1 -21 5 -21 32 l0 32 -107 0 c-69 0 -108 4 -108 11 0 7 43 9 129 7
l130 -3 14 37 c14 33 13 37 -3 41 -13 3 -17 13 -15 36 l3 31 -149 0 c-95 0
-149 4 -149 10 0 7 58 10 167 8 l168 -3 3 -39 c1 -22 5 -42 7 -45 9 -8 75 71
68 82 -3 5 -1 7 4 4 6 -4 16 0 23 8 7 8 28 15 47 15 38 0 80 -36 110 -94 l16
-31 10 30 c5 17 21 43 36 59 46 50 90 55 133 17z m807 -12 c17 -6 42 -27 55
-45 21 -31 25 -33 36 -19 7 9 22 21 33 26 16 9 16 7 -5 -21 -21 -29 -23 -42
-23 -150 0 -105 2 -122 21 -147 29 -39 74 -52 182 -52 59 -1 91 -5 87 -11 -4
-6 -55 -10 -119 -10 -104 0 -116 2 -150 25 -20 13 -36 21 -36 16 0 -5 -9 -11
-20 -14 -19 -5 -20 0 -20 148 0 224 -10 237 -182 243 -60 2 -108 8 -108 13 0
13 211 11 249 -2z m491 -33 c0 -35 -4 -45 -20 -49 -18 -4 -20 0 -20 34 l0 40
-140 -3 c-77 -2 -140 -2 -140 0 0 13 67 21 183 21 l137 1 0 -44z m-650 -56
c98 0 110 -2 120 -19 5 -11 10 -83 10 -160 l0 -141 25 0 c14 0 25 -4 25 -10 0
-5 -20 -10 -45 -10 l-45 0 0 49 c0 26 -3 76 -6 110 l-7 61 -98 0 -99 0 0 60
c0 57 -1 60 -25 60 -14 0 -25 5 -25 10 0 6 5 10 10 10 6 0 10 11 10 24 0 15 7
26 18 28 13 3 18 -5 20 -34 l3 -38 109 0z m-2267 -63 l132 -3 -137 -2 -138 -2
2 48 1 47 4 -42 4 -42 132 -4z m214 -179 c-1 -51 -3 -12 -3 87 0 99 2 141 3
93 2 -48 2 -129 0 -180z m536 -22 c30 -46 71 -56 222 -56 88 0 134 -4 130 -10
-4 -6 -68 -10 -158 -10 -133 0 -156 3 -184 20 -58 35 -65 56 -64 187 1 80 6
120 14 125 9 6 13 -21 17 -110 4 -91 9 -124 23 -146z m2102 254 c-4 -6 -53
-10 -115 -10 l-110 0 2 -82 c1 -117 2 -118 98 -118 73 0 80 2 80 20 0 18 -7
20 -80 20 l-80 0 0 45 c0 33 4 45 15 45 10 0 15 -11 15 -35 l0 -35 85 0 85 0
0 -40 c0 -36 3 -40 25 -40 14 0 25 -4 25 -10 0 -5 -4 -10 -10 -10 -5 0 -10
-11 -10 -24 0 -15 -7 -26 -20 -29 -17 -4 -20 0 -20 34 l0 39 -113 0 c-112 0
-114 0 -125 25 -15 31 -16 154 -2 189 l10 26 125 0 c82 0 124 -4 120 -10z
m-2798 -272 c-2 -29 -3 -8 -3 47 0 55 1 79 3 53 2 -26 2 -71 0 -100z m2273 72
c0 -6 -30 -10 -70 -10 l-70 0 0 -44 c0 -35 -4 -45 -20 -49 -18 -5 -20 0 -20
54 l0 59 90 0 c53 0 90 -4 90 -10z m-2705 -370 c10 -11 16 -20 13 -20 -3 0
-13 9 -23 20 -10 11 -16 20 -13 20 3 0 13 -9 23 -20z m1005 17 c0 -2 -10 -12
-22 -23 l-23 -19 19 23 c18 21 26 27 26 19z"/>
<path d="M3003 2777 c-2 -4 -8 -5 -13 -2 -4 3 -20 -9 -34 -26 -24 -29 -26 -37
-26 -135 0 -58 5 -114 11 -126 17 -32 71 -48 165 -48 122 0 106 21 -18 23 -86
2 -100 5 -120 24 -20 21 -22 32 -22 123 0 91 3 102 24 125 23 24 28 25 144 25
74 0 116 4 111 9 -12 12 -215 19 -222 8z"/>
<path d="M3030 2675 c0 -14 5 -25 10 -25 6 0 10 4 10 10 0 5 11 12 25 16 37 9
30 24 -10 24 -31 0 -35 -3 -35 -25z"/>
<path d="M3093 2615 c2 -5 30 -11 63 -13 62 -3 94 -21 94 -53 0 -10 5 -21 11
-24 7 -5 9 9 7 42 l-3 48 -88 5 c-56 3 -86 1 -84 -5z"/>
<path d="M3098 2533 c6 -2 18 -2 25 0 6 3 1 5 -13 5 -14 0 -19 -2 -12 -5z"/>
<path d="M3460 2670 l0 -40 85 0 85 0 0 34 c0 41 -10 46 -101 46 l-69 0 0 -40z"/>
</g>
</svg>
