<?xml version="1.0" standalone="no"?>
<!DOCTYPE svg PUBLIC "-//W3C//DTD SVG 20010904//EN"
 "http://www.w3.org/TR/2001/REC-SVG-20010904/DTD/svg10.dtd">
<svg version="1.0" xmlns="http://www.w3.org/2000/svg"
 width="500.000000pt" height="500.000000pt" viewBox="0 0 500.000000 500.000000"
 preserveAspectRatio="xMidYMid meet">
<metadata>
Created by potrace 1.16, written by Peter Selinger 2001-2019
</metadata>
<g transform="translate(0.000000,500.000000) scale(0.100000,-0.100000)"
fill="#000000" stroke="none">
<path d="M0 2500 l0 -2500 2500 0 2500 0 0 2500 0 2500 -2500 0 -2500 0 0
-2500z m1618 663 c-125 -2 -332 -2 -460 0 -128 1 -26 2 227 2 253 0 358 -1
233 -2z m-708 -6 c0 -2 -10 -12 -22 -23 l-23 -19 19 23 c18 21 26 27 26 19z
m998 -516 l-3 -466 -5 471 c-3 289 -9 477 -15 485 -5 8 -2 6 8 -4 16 -18 17
-53 15 -486z m-1041 447 c-3 -8 -6 -5 -6 6 -1 11 2 17 5 13 3 -3 4 -12 1 -19z
m771 -435 l-3 -258 -2 253 -3 252 -245 0 -244 0 -4 -42 -4 -43 -1 48 -2 47
255 0 255 0 -2 -257z m2842 217 c0 7 6 7 21 0 14 -8 24 -8 33 -1 17 14 138 -1
144 -18 2 -6 11 -18 19 -27 8 -8 16 -30 17 -48 1 -28 -2 -33 -17 -30 -10 1
-15 -1 -11 -7 3 -5 0 -16 -6 -24 -6 -8 -9 -18 -6 -24 3 -5 1 -11 -6 -13 -9 -3
-9 -12 0 -38 10 -26 10 -35 0 -42 -10 -6 -10 -8 0 -8 7 0 11 -4 7 -9 -3 -5 -1
-12 4 -15 11 -7 9 -24 -3 -46 -5 -8 -6 -12 -1 -8 12 11 34 -23 35 -54 0 -47
-57 -89 -113 -83 -20 2 -27 -1 -27 -13 0 -15 -2 -15 -10 -2 -5 8 -10 11 -10 5
0 -5 -5 -3 -10 5 -9 13 -10 13 -10 0 0 -13 -1 -13 -10 0 -9 13 -10 13 -10 0 0
-13 -1 -13 -10 0 -5 8 -10 10 -10 4 0 -14 -30 -14 -30 0 0 6 -4 5 -9 -2 -4 -8
-12 -14 -16 -14 -4 0 -12 6 -16 14 -7 10 -9 10 -9 -2 0 -13 -1 -13 -10 0 -9
13 -10 13 -10 0 0 -12 -2 -12 -9 -2 -6 11 -11 10 -25 -3 -9 -9 -16 -12 -16 -7
0 6 -7 13 -16 16 -9 4 -13 2 -8 -5 4 -6 -4 -5 -17 2 -13 7 -27 12 -31 11 -4
-1 -4 6 -1 15 4 11 3 14 -5 9 -7 -4 -12 -2 -12 4 0 6 -5 8 -10 5 -6 -3 -13 2
-17 12 -7 18 -15 30 -43 60 -9 10 -16 43 -18 90 l-4 73 -94 0 c-131 0 -120 19
13 22 100 3 107 4 113 25 3 12 17 31 33 43 15 12 24 26 21 32 -5 7 -2 8 5 4 8
-5 14 0 18 13 3 11 9 18 14 15 5 -3 9 -2 9 3 0 16 68 54 105 58 21 3 41 7 43
10 3 2 13 0 23 -6 13 -7 19 -6 19 1z m-1586 -31 c-3 -5 2 -9 11 -9 9 0 13 -5
10 -10 -4 -6 18 0 47 12 43 18 77 23 180 26 112 3 131 1 150 -15 28 -22 34
-63 14 -100 -9 -19 -11 -34 -5 -44 7 -12 9 -11 9 2 0 9 7 19 15 23 13 5 15
-16 15 -154 l0 -160 25 0 c14 0 25 -4 25 -10 0 -5 -18 -10 -40 -10 -42 0 -44
3 -40 53 1 26 0 28 -19 18 -11 -7 -18 -17 -15 -25 6 -16 -33 -41 -82 -52 -44
-10 -214 -12 -214 -3 0 5 -3 8 -7 8 -29 -5 -53 6 -86 36 -21 19 -42 35 -48 35
-8 0 -14 -23 -10 -43 1 -5 -3 -6 -9 -2 -5 3 -10 2 -10 -3 0 -5 -13 -12 -29
-15 -16 -3 -41 -9 -56 -13 -20 -5 -26 -4 -21 4 4 7 2 10 -6 7 -7 -3 -25 6 -40
20 -15 14 -32 25 -38 25 -6 0 -9 4 -6 9 4 5 -1 8 -10 7 -9 -1 -22 -15 -28 -31
-10 -23 -21 -31 -62 -40 -50 -11 -112 1 -106 22 1 4 -2 8 -7 8 -17 0 -26 20
-30 68 -1 4 -63 7 -139 7 -94 0 -142 4 -150 12 -8 8 -12 49 -12 120 l0 108
-25 0 c-14 0 -25 5 -25 10 0 6 5 10 10 10 6 0 10 9 10 20 0 10 9 24 20 30 18
10 20 8 20 -30 l0 -40 145 0 c90 0 145 -4 145 -10 0 -6 -50 -10 -131 -10
l-132 0 7 -46 c3 -26 6 -57 6 -70 0 -24 1 -24 105 -24 63 0 105 -4 105 -10 0
-6 -43 -10 -110 -10 -60 0 -110 -4 -110 -8 0 -26 30 -32 156 -32 l132 0 1 90
c1 50 2 95 4 101 4 17 65 79 78 79 7 0 9 3 6 6 -4 4 10 20 30 35 58 46 125 36
165 -25 24 -37 38 -45 38 -23 0 21 83 88 102 83 10 -2 20 0 23 5 3 4 17 3 30
-3 13 -6 22 -15 19 -19z m-464 -53 c0 -35 -4 -45 -20 -49 -17 -4 -20 0 -20 34
l0 39 -145 0 c-90 0 -145 4 -145 10 0 6 62 10 165 10 l165 0 0 -44z m1273 29
c18 -8 41 -28 51 -43 19 -29 19 -29 38 -10 11 11 43 31 71 44 47 21 66 24 183
24 l132 0 4 -35 c5 -40 1 -49 -24 -58 -15 -5 -18 0 -18 33 l0 40 -125 0 c-142
0 -173 -10 -205 -63 -16 -26 -20 -50 -20 -137 0 -167 33 -200 200 -200 53 0
90 -4 90 -10 0 -6 -44 -10 -112 -10 -86 0 -120 4 -143 16 -16 9 -42 16 -57 15
l-28 -1 -1 137 c0 224 -17 246 -190 251 -60 2 -109 8 -109 13 0 16 228 11 263
-6z m-173 -85 c147 0 142 7 138 -176 -3 -144 -3 -144 20 -144 12 0 22 -4 22
-10 0 -5 -18 -10 -40 -10 l-40 0 0 58 c0 31 -3 81 -6 110 l-7 52 -103 0 -104
0 0 60 c0 57 -1 60 -25 60 -14 0 -25 5 -25 10 0 6 7 10 15 10 9 0 15 9 15 24
0 42 25 37 28 -6 l3 -38 109 0z m-2257 -63 l132 -3 -137 -2 -138 -2 2 48 1 47
4 -42 4 -42 132 -4z m214 -179 c-1 -51 -3 -12 -3 87 0 99 2 141 3 93 2 -48 2
-129 0 -180z m538 -28 c36 -41 76 -50 215 -50 80 0 130 -4 130 -10 0 -6 -57
-10 -151 -10 -234 0 -252 14 -257 207 -4 112 -3 121 14 125 17 3 19 -7 24
-118 4 -103 8 -125 25 -144z m2095 260 c0 -6 -43 -10 -110 -10 l-110 0 0 -88
c0 -55 4 -92 12 -100 7 -7 43 -12 90 -12 71 0 78 2 78 20 0 17 -8 19 -82 22
l-83 3 -3 37 c-2 29 1 39 17 48 20 10 21 8 21 -30 l0 -40 80 0 80 0 0 -40 c0
-36 3 -40 25 -40 14 0 25 -4 25 -10 0 -5 -4 -10 -10 -10 -5 0 -10 -11 -10 -24
0 -15 -7 -26 -20 -29 -17 -4 -20 0 -20 34 l0 39 -110 0 c-131 0 -130 -1 -130
120 0 122 -2 120 140 120 73 0 120 -4 120 -10z m-1730 -94 c0 -35 -4 -45 -20
-49 -17 -4 -20 0 -20 34 l0 39 -105 0 c-63 0 -105 4 -105 10 0 6 48 10 125 10
l125 0 0 -44z m-1253 -178 c-2 -29 -3 -8 -3 47 0 55 1 79 3 53 2 -26 2 -71 0
-100z m190 0 c-2 -29 -3 -8 -3 47 0 55 1 79 3 53 2 -26 2 -71 0 -100z m2263
72 c0 -6 -30 -10 -70 -10 l-70 0 0 -44 c0 -35 -4 -45 -20 -49 -18 -5 -20 0
-20 54 l0 59 90 0 c53 0 90 -4 90 -10z m-2723 -332 c-3 -8 -6 -5 -6 6 -1 11 2
17 5 13 3 -3 4 -12 1 -19z m28 -38 c10 -11 16 -20 13 -20 -3 0 -13 9 -23 20
-10 11 -16 20 -13 20 3 0 13 -9 23 -20z m1005 17 c0 -2 -10 -12 -22 -23 l-23
-19 19 23 c18 21 26 27 26 19z m-953 -43 c-3 -3 -12 -4 -19 -1 -8 3 -5 6 6 6
11 1 17 -2 13 -5z m900 0 c-3 -3 -12 -4 -19 -1 -8 3 -5 6 6 6 11 1 17 -2 13
-5z"/>
<path d="M3450 2670 l0 -40 90 0 90 0 0 28 c0 44 -16 52 -102 52 l-78 0 0 -40z"/>
</g>
</svg>
