<?xml version="1.0" standalone="no"?>
<!DOCTYPE svg PUBLIC "-//W3C//DTD SVG 20010904//EN"
 "http://www.w3.org/TR/2001/REC-SVG-20010904/DTD/svg10.dtd">
<svg version="1.0" xmlns="http://www.w3.org/2000/svg"
 width="500.000000pt" height="500.000000pt" viewBox="0 0 500.000000 500.000000"
 preserveAspectRatio="xMidYMid meet">
<metadata>
Created by potrace 1.16, written by Peter Selinger 2001-2019
</metadata>
<g transform="translate(0.000000,500.000000) scale(0.100000,-0.100000)"
fill="#000000" stroke="none">
<path d="M0 2500 l0 -2500 2500 0 2500 0 0 2500 0 2500 -2500 0 -2500 0 0
-2500z m1618 663 c-125 -2 -332 -2 -460 0 -128 1 -26 2 227 2 253 0 358 -1
233 -2z m-708 -6 c0 -2 -10 -12 -22 -23 l-23 -19 19 23 c18 21 26 27 26 19z
m981 -24 c13 -16 12 -17 -3 -4 -10 7 -18 15 -18 17 0 8 8 3 21 -13z m16 -45
c-3 -8 -6 -5 -6 6 -1 11 2 17 5 13 3 -3 4 -12 1 -19z m-269 -435 l-3 -258 -2
253 -3 252 -245 0 -244 0 -4 -42 -4 -43 -1 48 -2 47 255 0 255 0 -2 -257z
m3039 200 c2 -6 12 -21 22 -32 18 -21 18 -65 0 -77 -5 -3 -9 -14 -9 -25 0 -11
-5 -17 -10 -14 -6 3 -13 -1 -17 -10 -3 -10 0 -21 8 -26 10 -6 10 -9 2 -9 -9 0
-10 -7 -2 -27 7 -19 7 -29 0 -31 -19 -6 -12 -46 14 -84 39 -57 31 -113 -16
-123 -16 -4 -27 -10 -25 -13 2 -4 -18 -7 -45 -6 -29 0 -49 -4 -49 -10 0 -6 -4
-5 -9 2 -4 8 -12 14 -16 14 -4 0 -12 -6 -16 -14 -5 -7 -9 -8 -9 -2 0 14 -30
14 -30 0 0 -6 -4 -5 -9 2 -4 8 -12 14 -16 14 -4 0 -12 -6 -16 -14 -7 -10 -9
-10 -9 0 0 14 -21 12 -32 -3 -5 -6 -8 -6 -8 1 0 6 -17 10 -40 9 -22 -1 -40 2
-40 7 0 4 -7 8 -15 8 -8 0 -15 5 -15 12 0 6 -3 9 -6 5 -3 -3 -16 5 -29 19 -17
18 -25 21 -29 12 -3 -7 -3 -3 0 10 3 13 1 22 -6 22 -6 0 -8 5 -5 10 9 14 -19
12 -33 -2 -7 -7 -12 -20 -12 -30 0 -19 -26 -36 -37 -24 -3 3 -7 18 -8 33 l-1
28 -109 3 c-134 3 -135 4 -135 120 0 125 -3 122 146 122 81 0 123 -4 119 -10
-4 -6 -53 -10 -115 -10 l-109 0 1 -82 c2 -117 3 -118 98 -118 73 0 80 2 80 20
0 18 -7 20 -80 20 l-80 0 0 44 c0 30 5 46 15 50 12 4 15 -3 15 -34 l0 -40 85
0 85 0 0 -40 c0 -36 3 -40 25 -40 25 0 25 1 25 80 l0 80 -101 0 c-64 0 -98 4
-94 10 4 6 53 10 115 10 98 0 109 2 103 17 -4 10 -2 14 4 10 7 -5 9 0 6 11 -3
13 5 25 24 37 15 10 43 35 61 56 30 34 59 51 107 63 42 10 278 1 282 -11z
m-1801 -2 c-3 -5 9 -16 28 -25 31 -15 36 -14 77 5 37 18 62 22 171 22 147 1
160 -5 160 -69 0 -42 -28 -73 -66 -75 -11 0 -30 -4 -41 -8 -13 -6 2 -8 39 -6
32 2 61 7 65 12 3 5 14 12 24 16 16 6 17 -5 17 -153 l0 -160 26 0 c14 0 23 -4
19 -10 -3 -5 -24 -10 -46 -10 l-39 0 0 41 c0 31 -4 40 -16 37 -8 -2 -15 -7
-16 -13 -2 -45 -46 -67 -148 -72 -164 -9 -197 -2 -251 49 l-43 41 -14 -34
c-18 -44 -27 -49 -89 -49 -49 0 -55 3 -98 47 -33 35 -45 43 -45 29 0 -33 -33
-76 -58 -76 -16 0 -21 -4 -16 -12 5 -10 4 -10 -6 -1 -8 7 -22 8 -41 3 -18 -5
-27 -5 -24 1 4 5 -3 9 -14 9 -12 0 -21 7 -21 15 0 8 -6 14 -12 13 -8 -2 -14
11 -16 35 l-3 37 -144 0 c-173 0 -165 -6 -165 139 l0 101 -25 0 c-14 0 -25 5
-25 10 0 6 7 10 15 10 9 0 15 9 15 24 0 13 7 26 15 30 12 4 15 -3 15 -34 l0
-40 145 0 c90 0 145 -4 145 -10 0 -6 -50 -10 -131 -10 l-132 0 7 -46 c3 -26 6
-57 6 -70 0 -24 1 -24 105 -24 63 0 105 -4 105 -10 0 -6 -43 -10 -110 -10 -60
0 -110 -4 -110 -8 0 -26 30 -32 157 -32 l133 0 0 48 c0 26 -4 42 -8 36 -9 -13
-42 -26 -41 -16 1 4 1 22 0 40 l-1 32 -105 0 c-63 0 -105 4 -105 10 0 6 48 10
125 10 l125 0 0 -32 c0 -45 7 -31 12 24 5 50 21 78 45 78 8 0 11 5 8 10 -3 6
1 10 10 10 8 0 21 11 27 25 6 14 15 25 20 25 5 0 6 5 2 12 -4 6 -3 8 3 5 6 -4
16 0 23 8 23 28 75 18 119 -23 23 -21 41 -46 41 -55 0 -10 5 -14 15 -11 8 4
15 14 15 24 0 22 29 56 66 75 31 16 89 21 80 6z m-446 -56 c0 -19 0 -38 1 -42
0 -4 -9 -11 -21 -15 -21 -8 -22 -6 -18 32 l4 40 -148 0 c-92 0 -148 4 -148 10
0 6 62 10 165 10 l165 0 0 -35z m1274 21 c19 -8 42 -27 51 -44 l18 -30 44 34
c62 47 100 56 243 52 l125 -3 3 -38 c2 -27 -1 -39 -13 -44 -21 -7 -34 13 -29
44 l4 23 -125 0 c-208 0 -230 -19 -230 -200 0 -175 25 -200 202 -200 70 0 94
-3 86 -11 -7 -7 -53 -10 -131 -7 -111 3 -122 5 -146 27 -14 14 -26 20 -26 14
0 -6 -9 -13 -20 -16 -19 -5 -20 0 -20 146 0 135 -2 156 -20 185 -29 47 -73 62
-180 62 -53 0 -90 4 -90 10 0 16 214 13 254 -4z m-164 -86 c98 0 110 -2 120
-19 5 -11 10 -83 10 -160 l0 -141 25 0 c14 0 25 -4 25 -10 0 -5 -20 -10 -45
-10 l-45 0 0 49 c0 26 -3 76 -6 110 l-7 61 -98 0 -99 0 0 60 c0 57 -1 60 -25
60 -14 0 -25 5 -25 10 0 6 5 10 10 10 6 0 10 11 10 24 0 15 7 26 18 28 13 3
18 -5 20 -34 l3 -38 109 0z m-2267 -63 l132 -3 -137 -2 -138 -2 2 48 1 47 4
-42 4 -42 132 -4z m214 -179 c-1 -51 -3 -12 -3 87 0 99 2 141 3 93 2 -48 2
-129 0 -180z m536 -22 c30 -45 71 -56 217 -56 80 0 130 -4 130 -10 0 -6 -57
-10 -152 -10 -168 0 -197 8 -235 66 -25 39 -28 250 -4 264 14 8 17 -5 21 -109
4 -90 9 -123 23 -145z m-696 -18 c-2 -29 -3 -8 -3 47 0 55 1 79 3 53 2 -26 2
-71 0 -100z m2273 72 c0 -6 -30 -10 -70 -10 l-70 0 0 -44 c0 -35 -4 -45 -20
-49 -18 -5 -20 0 -20 54 l0 59 90 0 c53 0 90 -4 90 -10z m-2705 -370 c10 -11
16 -20 13 -20 -3 0 -13 9 -23 20 -10 11 -16 20 -13 20 3 0 13 -9 23 -20z
m1005 17 c0 -2 -10 -12 -22 -23 l-23 -19 19 23 c18 21 26 27 26 19z"/>
<path d="M3034 2679 c0 -14 4 -15 26 -6 42 18 45 26 9 24 -25 -1 -35 -7 -35
-18z"/>
<path d="M3460 2670 l0 -40 85 0 85 0 0 28 c0 43 -17 52 -97 52 l-73 0 0 -40z"/>
</g>
</svg>
