<?xml version="1.0" standalone="no"?>
<!DOCTYPE svg PUBLIC "-//W3C//DTD SVG 20010904//EN"
 "http://www.w3.org/TR/2001/REC-SVG-20010904/DTD/svg10.dtd">
<svg version="1.0" xmlns="http://www.w3.org/2000/svg"
 width="500.000000pt" height="500.000000pt" viewBox="0 0 500.000000 500.000000"
 preserveAspectRatio="xMidYMid meet">
<metadata>
Created by potrace 1.16, written by Peter Selinger 2001-2019
</metadata>
<g transform="translate(0.000000,500.000000) scale(0.100000,-0.100000)"
fill="#000000" stroke="none">
<path d="M0 2500 l0 -2500 2500 0 2500 0 0 2500 0 2500 -2500 0 -2500 0 0
-2500z m1618 663 c-125 -2 -332 -2 -460 0 -128 1 -26 2 227 2 253 0 358 -1
233 -2z m-708 -6 c0 -2 -10 -12 -22 -23 l-23 -19 19 23 c18 21 26 27 26 19z
m981 -24 c13 -16 12 -17 -3 -4 -10 7 -18 15 -18 17 0 8 8 3 21 -13z m16 -45
c-3 -8 -6 -5 -6 6 -1 11 2 17 5 13 3 -3 4 -12 1 -19z m-269 -435 l-3 -258 -2
253 -3 252 -245 0 -244 0 -4 -42 -4 -43 -1 48 -2 47 255 0 255 0 -2 -257z
m2969 221 c29 -4 50 -11 47 -15 -3 -5 2 -6 10 -3 9 3 17 -2 21 -15 3 -12 12
-21 18 -21 7 0 6 -4 -3 -10 -13 -8 -13 -10 2 -10 13 0 15 -5 9 -27 -5 -16 -14
-27 -20 -25 -7 1 -10 -2 -6 -8 4 -6 1 -17 -5 -25 -6 -8 -9 -19 -5 -25 3 -5 2
-10 -3 -10 -6 0 -7 -14 -1 -37 5 -26 4 -40 -4 -45 -8 -5 -5 -8 8 -8 18 -1 19
-1 2 -11 -16 -9 -16 -12 -2 -26 12 -11 13 -19 5 -28 -8 -10 -6 -15 9 -20 39
-12 20 -90 -27 -115 -27 -15 -58 -17 -191 -16 -88 0 -157 -3 -154 -7 3 -5 -3
-5 -13 1 -11 5 -25 7 -33 4 -10 -3 -11 1 -6 18 5 15 4 20 -4 16 -6 -4 -11 -3
-11 3 0 6 -7 8 -15 5 -10 -4 -15 0 -15 15 0 12 -4 21 -9 21 -5 0 -13 9 -16 20
-3 11 -11 20 -16 20 -17 0 -39 -27 -39 -48 0 -11 -9 -22 -20 -25 -17 -4 -20 0
-20 34 l0 39 -110 0 c-131 0 -130 -1 -130 120 0 122 -2 120 140 120 73 0 120
-4 120 -10 0 -6 -43 -10 -110 -10 l-110 0 0 -84 c0 -46 3 -91 6 -100 5 -13 23
-16 90 -16 77 0 84 2 84 20 0 17 -8 19 -82 22 l-83 3 -3 37 c-2 29 1 39 17 48
20 10 21 8 21 -30 l0 -40 80 0 80 0 0 -40 c0 -30 4 -40 16 -40 13 0 14 3 4 15
-7 9 -10 38 -8 80 l3 65 -77 0 c-118 0 -94 19 27 22 58 2 104 6 103 10 -2 4
14 24 35 46 20 21 34 42 30 47 -5 4 -2 5 5 1 8 -5 16 2 22 18 5 14 15 26 22
26 6 0 21 9 33 20 11 11 35 21 53 23 18 2 35 7 39 10 8 9 121 9 190 1z m-1715
-17 c10 -1 14 -5 8 -12 -10 -13 49 -18 64 -6 18 15 96 24 203 25 89 1 104 -1
126 -20 26 -22 29 -59 12 -119 -8 -29 -8 -30 11 -11 19 19 19 17 22 -142 l2
-162 25 0 c14 0 25 -4 25 -10 0 -5 -18 -10 -39 -10 -37 0 -40 2 -43 33 -3 33
-33 48 -33 16 0 -9 -8 -24 -18 -33 -9 -10 -17 -15 -17 -11 0 3 -10 0 -22 -7
-13 -6 -37 -12 -54 -13 -17 -1 -35 -5 -42 -8 -6 -4 -13 -4 -16 1 -2 4 -32 7
-65 6 -34 -1 -61 1 -61 5 0 4 -12 8 -26 9 -14 1 -32 8 -39 14 -36 33 -46 39
-54 34 -5 -3 -12 1 -15 10 -8 21 -26 8 -21 -16 2 -12 0 -18 -6 -15 -5 4 -9 2
-9 -4 0 -11 -83 -27 -114 -23 -11 1 -28 11 -38 22 -19 21 -44 28 -33 10 3 -5
4 -10 0 -10 -3 0 -10 12 -15 26 -11 28 -34 23 -25 -5 6 -21 -24 -39 -73 -44
-17 -2 -35 -7 -38 -10 -8 -8 -47 12 -57 30 -5 7 -12 11 -18 8 -21 -14 -48 7
-55 41 l-6 34 -122 0 c-82 0 -126 4 -134 12 -8 8 -12 49 -12 120 l0 108 -25 0
c-14 0 -25 5 -25 10 0 6 5 10 10 10 6 0 10 11 10 24 0 15 7 26 20 29 17 4 20
0 20 -34 l0 -39 145 0 c90 0 145 -4 145 -10 0 -6 -50 -10 -131 -10 l-132 0 7
-46 c3 -26 6 -57 6 -70 0 -24 1 -24 105 -24 63 0 105 -4 105 -10 0 -6 -43 -10
-110 -10 -60 0 -110 -2 -110 -4 0 -2 3 -11 6 -20 5 -14 27 -16 139 -16 83 0
136 4 140 11 4 5 4 21 1 35 -5 19 -12 24 -29 22 -19 -3 -22 2 -22 35 l0 37
-102 0 c-62 0 -103 4 -103 10 0 16 247 13 253 -2 2 -7 4 2 5 20 0 18 7 40 14
49 11 14 10 15 -7 9 -19 -5 -20 -2 -17 34 l4 40 -146 0 c-91 0 -146 4 -146 10
0 6 62 10 165 10 l165 0 0 -45 c0 -35 3 -43 15 -39 8 4 15 15 15 25 0 11 5 16
14 13 8 -3 22 9 34 31 12 19 25 34 29 33 4 -1 18 1 30 5 33 12 95 -22 115 -63
10 -19 18 -29 18 -22 0 7 5 10 10 7 6 -3 10 -1 10 6 0 28 89 87 111 74 8 -6
10 -4 4 5 -6 10 -3 11 16 6 13 -5 32 -8 41 -9z m815 -47 c18 -10 39 -30 48
-44 l16 -25 21 21 c11 11 43 31 71 44 47 21 66 24 185 24 l132 0 0 -44 c0 -35
-4 -45 -20 -49 -17 -4 -20 0 -20 34 l0 39 -129 0 c-117 0 -131 -2 -162 -23
-50 -34 -59 -59 -59 -178 0 -94 3 -110 23 -140 30 -44 71 -58 180 -58 51 -1
87 -5 87 -11 0 -13 -210 -13 -244 0 -14 5 -34 18 -46 30 -14 14 -20 16 -20 6
0 -7 -8 -16 -17 -18 -17 -4 -18 6 -15 131 5 228 -14 254 -189 259 -60 2 -109
8 -109 13 0 5 53 9 118 9 98 0 122 -3 149 -20z m-182 -80 c57 0 110 -3 119 -6
14 -5 16 -29 16 -160 l0 -154 25 0 c14 0 25 -4 25 -10 0 -5 -18 -10 -40 -10
l-40 0 0 76 c0 41 -3 73 -8 70 -4 -2 -6 13 -5 35 l2 39 -105 0 -104 0 0 60 c0
57 -1 60 -25 60 -14 0 -25 5 -25 10 0 6 7 10 15 10 9 0 15 9 15 24 0 42 25 37
28 -6 l3 -38 104 0z m-2252 -63 l132 -3 -137 -2 -138 -2 2 48 1 47 4 -42 4
-42 132 -4z m214 -179 c-1 -51 -3 -12 -3 87 0 99 2 141 3 93 2 -48 2 -129 0
-180z m542 -32 c35 -37 78 -46 219 -46 74 0 122 -4 122 -10 0 -6 -58 -10 -153
-10 -173 0 -206 10 -239 71 -26 49 -27 256 0 261 15 3 18 -9 22 -119 5 -111 7
-124 29 -147z m-892 -8 c-2 -29 -3 -8 -3 47 0 55 1 79 3 53 2 -26 2 -71 0
-100z m190 0 c-2 -29 -3 -8 -3 47 0 55 1 79 3 53 2 -26 2 -71 0 -100z m2263
72 c0 -6 -30 -10 -70 -10 l-70 0 0 -44 c0 -35 -4 -45 -20 -49 -18 -5 -20 0
-20 54 l0 59 90 0 c53 0 90 -4 90 -10z m-1683 -332 c-3 -8 -6 -5 -6 6 -1 11 2
17 5 13 3 -3 4 -12 1 -19z m-1012 -38 c10 -11 16 -20 13 -20 -3 0 -13 9 -23
20 -10 11 -16 20 -13 20 3 0 13 -9 23 -20z m1005 17 c0 -2 -10 -12 -22 -23
l-23 -19 19 23 c18 21 26 27 26 19z m-953 -43 c-3 -3 -12 -4 -19 -1 -8 3 -5 6
6 6 11 1 17 -2 13 -5z m900 0 c-3 -3 -12 -4 -19 -1 -8 3 -5 6 6 6 11 1 17 -2
13 -5z"/>
<path d="M2392 2615 c0 -16 2 -22 5 -12 2 9 2 23 0 30 -3 6 -5 -1 -5 -18z"/>
<path d="M3450 2670 l0 -40 90 0 90 0 0 28 c0 44 -16 52 -102 52 l-78 0 0 -40z"/>
</g>
</svg>
