<?xml version="1.0" standalone="no"?>
<!DOCTYPE svg PUBLIC "-//W3C//DTD SVG 20010904//EN"
 "http://www.w3.org/TR/2001/REC-SVG-20010904/DTD/svg10.dtd">
<svg version="1.0" xmlns="http://www.w3.org/2000/svg"
 width="500.000000pt" height="500.000000pt" viewBox="0 0 500.000000 500.000000"
 preserveAspectRatio="xMidYMid meet">
<metadata>
Created by potrace 1.16, written by Peter Selinger 2001-2019
</metadata>
<g transform="translate(0.000000,500.000000) scale(0.100000,-0.100000)"
fill="#000000" stroke="none">
<path d="M0 2500 l0 -2500 2500 0 2500 0 0 2500 0 2500 -2500 0 -2500 0 0
-2500z m1618 663 c-125 -2 -332 -2 -460 0 -128 1 -26 2 227 2 253 0 358 -1
233 -2z m-708 -6 c0 -2 -10 -12 -22 -23 l-23 -19 19 23 c18 21 26 27 26 19z
m998 -516 l-3 -466 -5 471 c-3 289 -9 477 -15 485 -5 8 -2 6 8 -4 16 -18 17
-53 15 -486z m-1041 447 c-3 -8 -6 -5 -6 6 -1 11 2 17 5 13 3 -3 4 -12 1 -19z
m771 -435 l-3 -258 -2 253 -3 252 -245 0 -244 0 -4 -42 -4 -43 -1 48 -2 47
255 0 255 0 -2 -257z m3039 196 c11 -2 26 -44 28 -79 2 -23 -24 -48 -56 -55
-31 -7 -50 -25 -26 -25 23 0 37 -24 39 -65 2 -43 -27 -75 -68 -75 -13 0 -24
-4 -24 -9 0 -5 22 -8 50 -6 56 3 69 -7 77 -57 3 -18 6 -37 6 -41 1 -5 -11 -19
-26 -30 -25 -20 -43 -22 -165 -25 -75 -2 -148 -4 -162 -6 -14 -2 -32 1 -40 5
-8 4 -30 13 -49 20 -48 18 -70 72 -71 172 l0 77 -105 0 c-63 0 -105 4 -105 10
0 6 42 10 105 10 94 0 105 2 115 20 6 11 8 20 5 20 -9 0 16 23 48 43 15 10 33
29 39 42 22 49 69 61 229 58 79 -1 149 -3 156 -4z m-1785 -17 c5 -5 10 -19 11
-31 1 -11 3 -21 4 -21 2 0 27 14 56 30 52 29 57 30 190 30 120 0 137 -2 145
-17 10 -19 6 -74 -6 -84 -26 -22 -105 -37 -184 -35 l-88 3 0 -34 c0 -38 17
-43 45 -13 16 18 31 20 132 20 104 0 113 1 113 19 0 10 9 21 20 24 19 5 20 0
20 -154 l0 -159 25 0 c14 0 25 -4 25 -10 0 -5 -20 -10 -45 -10 l-45 0 0 50 c0
47 -1 49 -22 41 -14 -5 -25 -19 -28 -36 -8 -43 -76 -64 -203 -61 -114 2 -158
18 -180 69 -16 37 -51 34 -55 -6 -2 -19 -12 -31 -30 -39 -15 -6 -37 -15 -48
-20 -41 -19 -112 38 -145 117 l-13 30 -3 -40 c-6 -76 -10 -84 -56 -96 -99 -28
-127 -17 -127 52 l0 39 -148 0 c-102 0 -152 4 -160 12 -8 8 -12 49 -12 120 l0
108 -25 0 c-14 0 -25 5 -25 10 0 6 5 10 10 10 6 0 10 11 10 25 0 16 6 25 15
25 10 0 15 -11 15 -35 l0 -35 150 0 c93 0 150 -4 150 -10 0 -6 -50 -10 -130
-10 l-130 0 0 -70 0 -70 110 0 c67 0 110 -4 110 -10 0 -6 -44 -10 -111 -10
-100 0 -110 -2 -107 -17 3 -16 19 -18 141 -21 l137 -3 0 37 c0 31 -3 36 -20
31 -17 -4 -20 0 -20 34 l0 39 -105 0 c-63 0 -105 4 -105 10 0 6 48 10 125 10
122 0 125 1 130 23 4 13 24 34 46 47 21 14 39 32 39 40 0 18 62 60 89 60 50 0
69 -18 123 -115 l28 -50 0 57 c0 54 2 57 40 86 32 23 49 29 77 26 20 -2 40 -7
45 -12z m-452 -46 c0 -35 -4 -45 -20 -49 -17 -4 -20 0 -20 34 l0 39 -145 0
c-90 0 -145 4 -145 10 0 6 62 10 165 10 l165 0 0 -44z m1265 30 c19 -8 43 -29
53 -46 17 -27 21 -29 32 -15 7 9 22 21 33 27 19 10 19 9 -1 -20 -20 -27 -22
-43 -22 -151 0 -179 22 -201 195 -201 61 0 95 -4 95 -11 0 -7 -40 -10 -124 -7
-111 3 -128 5 -155 26 -17 12 -31 18 -31 13 0 -5 -9 -11 -20 -14 -19 -5 -20 0
-20 154 0 134 -3 164 -17 186 -26 40 -71 53 -178 53 -57 0 -95 4 -95 10 0 16
215 13 255 -4z m485 -30 c0 -35 -4 -45 -20 -49 -18 -4 -20 0 -20 34 l0 40
-140 -3 c-77 -2 -140 -2 -140 0 0 13 67 21 183 21 l137 1 0 -44z m-651 -56
c70 0 111 -4 119 -12 8 -8 12 -58 12 -160 l0 -148 25 0 c14 0 25 -4 25 -10 0
-5 -20 -10 -45 -10 l-45 0 0 49 c0 26 -3 76 -6 110 l-7 61 -98 0 -99 0 0 60
c0 57 -1 60 -25 60 -14 0 -25 5 -25 10 0 6 5 10 10 10 6 0 10 11 10 24 0 15 7
26 18 28 13 3 18 -5 20 -34 l3 -38 108 0z m-2266 -63 l132 -3 -137 -2 -138 -2
2 48 1 47 4 -42 4 -42 132 -4z m214 -179 c-1 -51 -3 -12 -3 87 0 99 2 141 3
93 2 -48 2 -129 0 -180z m2643 232 c0 -6 -43 -10 -110 -10 l-111 0 3 -97 3
-98 83 -3 c77 -3 82 -2 82 18 0 18 -6 20 -80 20 l-80 0 0 44 c0 35 4 45 20 49
17 4 20 0 20 -34 l0 -39 80 0 80 0 0 -40 c0 -36 3 -40 25 -40 14 0 25 -4 25
-10 0 -5 -4 -10 -10 -10 -5 0 -10 -11 -10 -24 0 -15 -7 -26 -20 -29 -17 -4
-20 0 -20 34 l0 39 -108 0 c-71 0 -112 4 -120 12 -16 16 -16 200 0 216 15 15
248 17 248 2z m-2129 -113 c6 -180 27 -197 244 -197 83 0 135 -4 135 -10 0 -6
-58 -10 -155 -10 -174 0 -201 7 -235 63 -17 27 -20 51 -20 150 0 93 3 117 14
117 11 0 15 -25 17 -113z m-864 -159 c-2 -29 -3 -8 -3 47 0 55 1 79 3 53 2
-26 2 -71 0 -100z m190 0 c-2 -29 -3 -8 -3 47 0 55 1 79 3 53 2 -26 2 -71 0
-100z m2273 72 c0 -6 -30 -10 -70 -10 l-70 0 0 -44 c0 -35 -4 -45 -20 -49 -18
-5 -20 0 -20 54 l0 59 90 0 c53 0 90 -4 90 -10z m-2733 -332 c-3 -8 -6 -5 -6
6 -1 11 2 17 5 13 3 -3 4 -12 1 -19z m28 -38 c10 -11 16 -20 13 -20 -3 0 -13
9 -23 20 -10 11 -16 20 -13 20 3 0 13 -9 23 -20z m1005 17 c0 -2 -10 -12 -22
-23 l-23 -19 19 23 c18 21 26 27 26 19z m-953 -43 c-3 -3 -12 -4 -19 -1 -8 3
-5 6 6 6 11 1 17 -2 13 -5z m900 0 c-3 -3 -12 -4 -19 -1 -8 3 -5 6 6 6 11 1
17 -2 13 -5z"/>
<path d="M4295 2510 c8 -40 49 -61 72 -35 4 4 2 5 -5 1 -8 -5 -24 4 -42 24
-24 26 -28 28 -25 10z"/>
<path d="M2984 2791 c-59 -27 -74 -65 -74 -188 0 -157 23 -178 191 -178 97 0
102 1 110 23 12 32 -20 42 -131 42 -81 0 -90 2 -101 21 -15 29 -8 204 9 221 9
9 49 13 135 13 l122 0 0 30 0 30 -110 2 c-90 2 -117 -1 -151 -16z"/>
<path d="M2796 2784 c-10 -25 -7 -248 4 -264 7 -11 14 -12 26 -5 14 9 16 29
15 140 -1 71 -4 132 -7 137 -9 14 -31 9 -38 -8z"/>
<path d="M2555 2779 c-4 -5 4 -27 17 -47 25 -39 37 -64 83 -174 31 -75 74
-124 101 -114 14 6 13 9 -10 31 -14 13 -27 31 -27 40 -2 19 -3 25 -16 55 -6
14 -22 54 -37 89 -41 101 -90 154 -111 120z"/>
<path d="M2474 2697 c-2 -7 -3 -69 -2 -138 3 -116 4 -124 23 -124 19 0 20 8
23 111 3 109 -7 164 -28 164 -6 0 -13 -6 -16 -13z"/>
<path d="M3088 2639 c-10 -5 -18 -20 -18 -33 0 -21 4 -22 61 -22 77 1 99 -7
99 -37 0 -29 24 -52 45 -43 13 5 15 19 13 73 l-3 68 -90 2 c-49 2 -98 -2 -107
-8z"/>
<path d="M3022 2538 c6 -16 158 -24 158 -8 0 6 -25 10 -57 11 -32 0 -69 2 -81
5 -16 3 -22 0 -20 -8z"/>
<path d="M3460 2670 l0 -40 86 0 85 0 -3 38 -3 37 -82 3 -83 3 0 -41z"/>
</g>
</svg>
