<?xml version="1.0" standalone="no"?>
<!DOCTYPE svg PUBLIC "-//W3C//DTD SVG 20010904//EN"
 "http://www.w3.org/TR/2001/REC-SVG-20010904/DTD/svg10.dtd">
<svg version="1.0" xmlns="http://www.w3.org/2000/svg"
 width="500.000000pt" height="500.000000pt" viewBox="0 0 500.000000 500.000000"
 preserveAspectRatio="xMidYMid meet">
<metadata>
Created by potrace 1.16, written by Peter Selinger 2001-2019
</metadata>
<g transform="translate(0.000000,500.000000) scale(0.100000,-0.100000)"
fill="#000000" stroke="none">
<path d="M889 3134 l-24 -26 0 -464 0 -464 28 -27 27 -28 464 0 464 0 26 24
26 24 0 469 0 469 -25 24 -24 25 -469 0 -469 0 -24 -26z m751 -479 l0 -255
-45 0 -45 0 0 210 0 210 -210 0 -210 0 0 45 0 45 255 0 255 0 0 -255z m-150
-80 l0 -175 -45 0 -45 0 0 130 0 130 -135 0 -135 0 0 45 0 45 180 0 180 0 0
-175z m-160 -80 l0 -95 -100 0 -100 0 0 95 0 95 100 0 100 0 0 -95z"/>
<path d="M2078 2773 c-3 -37 -5 -38 -45 -43 l-43 -5 3 -115 c3 -185 23 -200
252 -200 l145 0 0 40 c0 34 -3 40 -21 40 -13 0 -18 -4 -13 -12 6 -10 4 -10 -7
0 -9 8 -51 12 -134 12 -81 0 -125 4 -133 12 -8 8 -12 49 -12 120 l0 108 158 0
158 0 2 40 3 40 -155 0 -155 0 -3 -37z m282 -319 c0 -8 -19 -13 -24 -6 -3 5 1
9 9 9 8 0 15 -2 15 -3z"/>
<path d="M3420 2770 l0 -40 108 0 c71 0 112 -4 120 -12 8 -8 12 -58 12 -160
l0 -148 35 0 35 0 0 160 c0 225 -13 240 -205 240 l-105 0 0 -40z"/>
<path d="M3855 2796 c-55 -24 -65 -52 -65 -181 0 -182 23 -205 204 -205 l106
0 0 40 0 40 -108 0 c-71 0 -112 4 -120 12 -16 16 -16 200 0 216 8 8 54 12 140
12 l128 0 0 40 0 40 -127 0 c-84 -1 -139 -5 -158 -14z"/>
<path d="M3340 2570 l0 -160 35 0 35 0 0 60 0 60 100 0 100 0 0 40 0 40 -100
0 -100 0 0 60 0 60 -35 0 -35 0 0 -160z"/>
<path d="M2114 2613 l1 -38 120 -2 c66 -1 114 1 108 3 -7 3 -13 15 -12 27 0
21 1 21 9 2 7 -17 9 -15 9 13 l1 32 -119 0 -118 0 1 -37z"/>
<path d="M3950 2610 l0 -40 78 0 c43 0 83 5 89 11 8 8 13 8 18 0 4 -7 1 -10
-7 -9 -9 2 -14 -11 -16 -39 l-3 -43 35 0 36 0 0 79 0 79 -115 1 -115 1 0 -40z
m194 -98 c3 -5 -1 -9 -9 -9 -8 0 -12 4 -9 9 3 4 7 8 9 8 2 0 6 -4 9 -8z"/>
</g>
</svg>
