<?xml version="1.0" standalone="no"?>
<!DOCTYPE svg PUBLIC "-//W3C//DTD SVG 20010904//EN"
 "http://www.w3.org/TR/2001/REC-SVG-20010904/DTD/svg10.dtd">
<svg version="1.0" xmlns="http://www.w3.org/2000/svg"
 width="500.000000pt" height="500.000000pt" viewBox="0 0 500.000000 500.000000"
 preserveAspectRatio="xMidYMid meet">
<metadata>
Created by potrace 1.16, written by Peter Selinger 2001-2019
</metadata>
<g transform="translate(0.000000,500.000000) scale(0.100000,-0.100000)"
fill="#000000" stroke="none">
<path d="M0 2500 l0 -2500 2500 0 2500 0 0 2500 0 2500 -2500 0 -2500 0 0
-2500z m1618 663 c-125 -2 -332 -2 -460 0 -128 1 -26 2 227 2 253 0 358 -1
233 -2z m-708 -6 c0 -2 -10 -12 -22 -23 l-23 -19 19 23 c18 21 26 27 26 19z
m998 -516 l-3 -466 -5 471 c-3 289 -9 477 -15 485 -5 8 -2 6 8 -4 16 -18 17
-53 15 -486z m-1041 447 c-3 -8 -6 -5 -6 6 -1 11 2 17 5 13 3 -3 4 -12 1 -19z
m771 -435 l-3 -258 -2 253 -3 252 -245 0 -244 0 -4 -42 -4 -43 -1 48 -2 47
255 0 255 0 -2 -257z m802 133 c0 -35 -4 -45 -20 -49 -17 -4 -20 0 -20 34 l0
39 -145 0 c-90 0 -145 4 -145 10 0 6 62 10 165 10 l165 0 0 -44z m168 30 c41
-21 60 -47 97 -132 l35 -79 0 96 c0 88 2 97 20 102 19 5 20 0 20 -154 l0 -159
25 0 c14 0 25 -4 25 -10 0 -5 -4 -10 -10 -10 -5 0 -10 -11 -10 -25 0 -14 -4
-25 -9 -25 -5 0 -16 -3 -25 -6 -12 -5 -14 1 -9 30 4 29 1 39 -16 53 -11 10
-44 69 -71 132 -48 111 -89 171 -117 171 -14 0 -17 12 -6 23 10 10 21 9 51 -7z
m282 -27 l0 -41 30 25 c56 48 103 58 245 55 l130 -3 0 -40 c0 -33 -4 -40 -20
-40 -16 0 -20 7 -20 33 l0 32 -123 0 c-203 0 -232 -25 -232 -200 0 -167 33
-200 200 -200 58 0 90 -4 90 -11 0 -7 -40 -10 -124 -7 -123 3 -125 3 -156 33
-17 16 -33 40 -36 52 -4 13 -10 20 -15 17 -5 -3 -9 64 -9 155 l0 161 -25 0
c-14 0 -25 5 -25 10 0 6 20 10 45 10 l45 0 0 -41z m820 26 c15 -8 38 -27 49
-41 19 -24 23 -26 39 -12 9 9 28 21 42 27 21 10 22 10 10 -1 -43 -36 -50 -59
-50 -176 0 -175 26 -202 194 -202 62 0 96 -4 96 -11 0 -7 -40 -10 -124 -7
-111 3 -128 5 -155 26 -17 12 -31 18 -31 13 0 -5 -9 -11 -20 -14 -19 -5 -20 0
-21 76 0 45 0 114 1 153 2 132 -26 157 -182 162 -60 2 -108 8 -108 13 0 16
228 11 260 -6z m480 -27 c0 -35 -5 -45 -23 -53 -21 -10 -22 -9 -18 33 l3 44
-140 -4 c-114 -2 -137 -1 -119 9 14 8 71 12 160 13 l137 0 0 -42z m490 -3 c0
-25 -4 -45 -9 -45 -5 0 -16 -3 -25 -6 -12 -4 -14 0 -11 18 11 56 6 58 -151 58
-94 0 -143 4 -139 10 4 6 72 10 171 10 l164 0 0 -45z m-2444 -55 c89 0 144 -4
144 -10 0 -6 -50 -10 -131 -10 l-132 0 7 -46 c3 -26 6 -57 6 -70 0 -24 1 -24
105 -24 63 0 105 -4 105 -10 0 -6 -44 -10 -111 -10 -100 0 -110 -2 -107 -17 3
-16 20 -18 151 -21 l147 -3 0 105 c0 90 2 104 18 108 16 5 17 -7 14 -154 l-3
-158 31 0 c18 0 29 -4 25 -10 -3 -5 -24 -10 -46 -10 -29 0 -39 4 -39 16 0 8
-4 12 -10 9 -6 -4 -10 10 -10 34 l0 41 -148 0 c-102 0 -152 4 -160 12 -8 8
-12 49 -12 120 l0 108 -25 0 c-14 0 -25 5 -25 10 0 6 5 10 10 10 6 0 10 11 10
24 0 15 7 26 18 28 13 3 18 -5 20 -34 l3 -38 145 0z m1303 0 c70 0 111 -4 119
-12 8 -8 12 -58 12 -160 l0 -148 25 0 c14 0 25 -5 25 -11 0 -6 -17 -9 -42 -7
-34 2 -43 7 -45 23 -1 11 -5 59 -8 108 l-7 87 -99 0 -99 0 0 60 c0 57 -1 60
-25 60 -14 0 -25 5 -25 10 0 6 5 10 10 10 6 0 10 11 10 24 0 15 7 26 18 28 13
3 18 -5 20 -34 l3 -38 108 0z m816 68 c5 4 5 1 1 -6 -4 -7 -10 -10 -14 -8 -4
2 -7 -9 -8 -25 l-1 -29 143 0 c89 0 144 -4 144 -10 0 -6 -50 -10 -130 -10
l-130 0 0 -28 c0 -16 3 -32 7 -36 4 -4 6 -23 4 -42 l-3 -34 106 0 c64 0 106
-4 106 -10 0 -6 -43 -10 -110 -10 -60 0 -110 -4 -110 -8 0 -26 30 -32 172 -32
l148 0 0 -45 c0 -25 -4 -45 -9 -45 -5 0 -16 -2 -23 -5 -11 -4 -13 3 -10 30 l4
35 -146 -3 c-80 -1 -146 1 -146 5 0 4 -9 9 -19 13 -18 5 -20 16 -20 118 1 79
-3 113 -12 116 -7 2 -9 -1 -4 -8 5 -9 1 -8 -14 1 -19 11 -19 14 -6 24 8 6 15
21 15 32 0 22 27 34 46 20 6 -4 15 -4 19 0z m-1817 -30 c-2 -28 -8 -34 -30
-36 -16 -2 -28 1 -28 7 0 6 5 11 10 11 6 0 10 11 10 25 0 19 5 25 21 25 17 0
20 -5 17 -32z m1902 26 c0 -8 -19 -13 -24 -6 -3 5 1 9 9 9 8 0 15 -2 15 -3z
m40 2 c0 -2 -8 -10 -17 -17 -16 -13 -17 -12 -4 4 13 16 21 21 21 13z m131 -13
c13 -16 12 -17 -3 -4 -10 7 -18 15 -18 17 0 8 8 3 21 -13z m-205 -29 c1 -9 0
-13 -4 -10 -3 4 -7 14 -8 22 -1 9 0 13 4 10 3 -4 7 -14 8 -22z m115 -1 c13
-16 12 -17 -3 -4 -17 13 -22 21 -14 21 2 0 10 -8 17 -17z m-3248 -86 l132 -3
-137 -2 -138 -2 2 48 1 47 4 -42 4 -42 132 -4z m214 -179 c-1 -51 -3 -12 -3
87 0 99 2 141 3 93 2 -48 2 -129 0 -180z m1071 240 c-2 -7 3 -12 10 -10 8 1
11 -2 8 -7 -3 -5 1 -21 8 -37 8 -16 29 -64 47 -108 33 -80 80 -146 105 -146 8
0 14 -7 14 -15 0 -19 -14 -19 -56 1 -37 18 -66 58 -100 143 l-24 56 0 -92 c0
-82 -2 -93 -18 -93 -19 0 -45 34 -34 44 3 4 7 63 7 132 1 97 5 128 16 135 18
11 19 11 17 -3z m-531 -265 c28 -43 69 -53 218 -53 83 0 135 -4 135 -10 0 -6
-57 -10 -150 -10 -238 0 -260 18 -260 212 0 103 2 117 18 120 15 3 17 -9 20
-115 2 -91 7 -125 19 -144z m1203 257 c0 -6 -43 -10 -110 -10 l-110 0 0 -88
c0 -55 4 -92 12 -100 7 -7 43 -12 90 -12 71 0 78 2 78 20 0 17 -8 19 -82 22
l-83 3 -1 38 c-1 27 4 40 17 48 17 9 19 6 19 -31 l0 -40 80 0 80 0 0 -40 0
-40 -115 0 c-136 0 -135 -1 -135 120 0 122 -2 120 140 120 73 0 120 -4 120
-10z m145 -310 c14 0 25 -4 25 -10 0 -5 -20 -10 -44 -10 l-43 0 -8 73 c-4 39
-8 98 -9 130 l-1 57 -107 0 c-65 0 -108 4 -108 10 0 6 45 10 115 10 l115 0 0
24 c0 15 7 26 18 28 15 3 17 -10 20 -154 l2 -158 25 0z m755 310 c0 -6 -43
-10 -110 -10 l-111 0 3 -97 3 -98 83 -3 c77 -3 82 -2 82 18 0 18 -6 20 -80 20
l-80 0 0 44 c0 35 4 45 20 49 17 4 20 0 20 -34 l0 -39 80 0 80 0 0 -40 c0 -36
3 -40 25 -40 14 0 25 -4 25 -10 0 -5 -4 -10 -10 -10 -5 0 -10 -11 -10 -24 0
-15 -7 -26 -20 -29 -17 -4 -20 0 -20 34 l0 39 -108 0 c-71 0 -112 4 -120 12
-16 16 -16 200 0 216 15 15 248 17 248 2z m130 -24 c-16 -16 -13 -41 3 -27 10
8 14 7 14 -4 0 -7 -5 -13 -11 -12 -5 1 -12 -7 -14 -18 -4 -18 -3 -18 14 -5 18
14 18 14 1 -6 -32 -38 -11 -190 24 -169 5 4 8 1 7 -7 -2 -7 5 -12 14 -12 10 1
16 -2 13 -6 -8 -13 53 -20 176 -20 78 0 119 -4 119 -11 0 -7 -54 -9 -169 -7
l-170 3 -31 30 c-17 16 -33 40 -36 52 -4 13 -10 20 -15 17 -5 -3 -9 31 -9 75
l0 81 -105 0 c-63 0 -105 4 -105 10 0 6 45 10 115 10 l115 0 0 24 c0 27 26 39
48 23 9 -7 10 -13 2 -21z m-1860 -70 c0 -35 -4 -45 -20 -49 -17 -4 -20 0 -20
34 l0 39 -105 0 c-63 0 -105 4 -105 10 0 6 48 10 125 10 l125 0 0 -44z m2240
-1 c0 -25 -4 -45 -9 -45 -5 0 -16 -2 -23 -5 -11 -4 -13 3 -10 30 l4 35 -51 0
c-30 0 -50 -4 -46 -9 3 -5 1 -13 -5 -16 -6 -4 -9 -1 -8 7 2 9 -11 13 -47 13
-36 0 -49 -4 -47 -13 1 -8 -2 -11 -8 -7 -8 5 -7 11 1 21 9 11 9 14 0 14 -7 0
-9 5 -6 10 4 6 58 10 131 10 l124 0 0 -45z m-85 -25 c10 -11 16 -20 13 -20 -3
0 -13 9 -23 20 -10 11 -16 20 -13 20 3 0 13 -9 23 -20z m-108 -5 c0 -8 -4 -12
-9 -9 -5 3 -6 10 -3 15 9 13 12 11 12 -6z m-3310 -147 c-2 -29 -3 -8 -3 47 0
55 1 79 3 53 2 -26 2 -71 0 -100z m190 0 c-2 -29 -3 -8 -3 47 0 55 1 79 3 53
2 -26 2 -71 0 -100z m2273 72 c0 -6 -30 -10 -70 -10 l-70 0 0 -44 c0 -35 -4
-45 -20 -49 -18 -5 -20 0 -20 54 l0 59 90 0 c53 0 90 -4 90 -10z m685 -29 c3
-5 2 -12 -3 -15 -5 -3 -9 1 -9 9 0 17 3 19 12 6z m-1014 -18 c-5 -10 -12 -26
-15 -35 -8 -25 -46 -24 -46 1 0 37 12 51 41 51 25 0 28 -3 20 -17z m1244 -33
c10 -11 16 -20 13 -20 -3 0 -13 9 -23 20 -10 11 -16 20 -13 20 3 0 13 -9 23
-20z m-3648 -252 c-3 -8 -6 -5 -6 6 -1 11 2 17 5 13 3 -3 4 -12 1 -19z m28
-38 c10 -11 16 -20 13 -20 -3 0 -13 9 -23 20 -10 11 -16 20 -13 20 3 0 13 -9
23 -20z m1005 17 c0 -2 -10 -12 -22 -23 l-23 -19 19 23 c18 21 26 27 26 19z
m-953 -43 c-3 -3 -12 -4 -19 -1 -8 3 -5 6 6 6 11 1 17 -2 13 -5z m900 0 c-3
-3 -12 -4 -19 -1 -8 3 -5 6 6 6 11 1 17 -2 13 -5z"/>
<path d="M3460 2670 l0 -40 86 0 85 0 -3 38 -3 37 -82 3 -83 3 0 -41z"/>
</g>
</svg>
