<?xml version="1.0" standalone="no"?>
<!DOCTYPE svg PUBLIC "-//W3C//DTD SVG 20010904//EN"
 "http://www.w3.org/TR/2001/REC-SVG-20010904/DTD/svg10.dtd">
<svg version="1.0" xmlns="http://www.w3.org/2000/svg"
 width="500.000000pt" height="500.000000pt" viewBox="0 0 500.000000 500.000000"
 preserveAspectRatio="xMidYMid meet">
<metadata>
Created by potrace 1.16, written by Peter Selinger 2001-2019
</metadata>
<g transform="translate(0.000000,500.000000) scale(0.100000,-0.100000)"
fill="#000000" stroke="none">
<path d="M0 2500 l0 -2500 2500 0 2500 0 0 2500 0 2500 -2500 0 -2500 0 0
-2500z m1618 663 c-125 -2 -332 -2 -460 0 -128 1 -26 2 227 2 253 0 358 -1
233 -2z m-708 -6 c0 -2 -10 -12 -22 -23 l-23 -19 19 23 c18 21 26 27 26 19z
m998 -516 l-3 -466 -5 471 c-3 289 -9 477 -15 485 -5 8 -2 6 8 -4 16 -18 17
-53 15 -486z m-1041 447 c-3 -8 -6 -5 -6 6 -1 11 2 17 5 13 3 -3 4 -12 1 -19z
m771 -435 l-3 -258 -2 253 -3 252 -245 0 -244 0 -4 -42 -4 -43 -1 48 -2 47
255 0 255 0 -2 -257z m802 133 c0 -35 -4 -45 -20 -49 -17 -4 -20 0 -20 34 l0
39 -145 0 c-90 0 -145 4 -145 10 0 6 62 10 165 10 l165 0 0 -44z m168 30 c41
-21 60 -47 97 -132 l35 -79 0 96 c0 88 2 97 20 102 19 5 20 0 20 -154 l0 -159
27 0 c21 0 24 -3 15 -12 -7 -7 -12 -22 -12 -34 0 -13 -8 -24 -20 -27 -17 -4
-20 0 -20 28 0 22 -9 43 -24 59 -12 14 -38 64 -56 112 -43 110 -82 172 -115
180 -25 6 -31 15 -18 27 10 10 21 9 51 -7z m282 -25 l0 -40 50 34 c63 43 86
47 235 43 l120 -3 0 -39 c0 -30 -5 -41 -20 -46 -18 -7 -20 -4 -17 31 l4 39
-133 0 c-117 0 -138 -3 -167 -20 -47 -29 -62 -73 -62 -182 0 -162 36 -198 198
-198 54 0 92 -4 92 -10 0 -6 -45 -10 -114 -10 -101 0 -117 2 -147 23 -19 12
-41 37 -50 54 -9 18 -19 30 -23 26 -3 -3 -6 66 -6 155 l0 162 -25 0 c-14 0
-25 5 -25 10 0 6 20 10 45 10 l45 0 0 -39z m820 24 c15 -8 38 -27 49 -41 19
-24 23 -26 39 -12 9 9 28 21 42 28 23 12 22 10 -7 -24 l-33 -37 0 -119 0 -120
34 -37 34 -38 111 -3 c63 -3 111 -8 111 -14 0 -6 -48 -8 -124 -6 -111 3 -128
5 -155 26 -17 12 -31 18 -31 13 0 -5 -8 -11 -17 -13 -17 -4 -18 6 -15 131 4
161 -7 204 -57 238 -30 20 -46 23 -137 23 -63 0 -104 4 -104 10 0 17 226 13
260 -5z m480 -29 c0 -35 -4 -45 -20 -49 -17 -4 -20 0 -20 34 l0 39 -132 0
c-90 0 -128 3 -118 10 8 5 77 10 153 10 l137 0 0 -44z m490 0 c0 -35 -4 -45
-20 -49 -17 -4 -20 0 -20 34 l0 39 -145 0 c-90 0 -145 4 -145 10 0 6 62 10
165 10 l165 0 0 -44z m-2444 -56 c89 0 144 -4 144 -10 0 -6 -50 -10 -131 -10
l-132 0 7 -46 c3 -26 6 -57 6 -70 0 -24 1 -24 105 -24 63 0 105 -4 105 -10 0
-6 -44 -10 -111 -10 -100 0 -110 -2 -107 -17 3 -16 20 -18 151 -21 l147 -3 0
106 c0 99 1 105 20 105 20 0 21 -4 18 -155 -3 -155 -3 -155 20 -155 12 0 22
-4 22 -10 0 -5 -18 -10 -40 -10 -30 0 -40 4 -40 16 0 8 -4 12 -10 9 -6 -4 -10
10 -10 34 l0 41 -148 0 c-102 0 -152 4 -160 12 -8 8 -12 49 -12 120 l0 108
-25 0 c-14 0 -25 5 -25 10 0 6 5 10 10 10 6 0 10 11 10 24 0 15 7 26 18 28 13
3 18 -5 20 -34 l3 -38 145 0z m324 -15 c10 -9 37 -63 60 -119 45 -112 89 -176
123 -176 20 0 20 -1 5 -16 -14 -15 -19 -15 -49 0 -40 19 -69 59 -103 141 l-25
60 -1 -92 c0 -86 -1 -93 -20 -93 -19 0 -20 7 -22 143 0 78 -1 148 -1 155 1 6
-10 12 -23 12 -13 0 -24 5 -24 10 0 6 5 10 10 10 6 0 10 11 10 24 0 15 7 26
18 28 13 3 18 -5 20 -33 2 -20 11 -44 22 -54z m979 15 c70 0 111 -4 119 -12 8
-8 12 -58 12 -160 l0 -148 25 0 c14 0 25 -4 25 -10 0 -5 -18 -10 -40 -10 l-40
0 0 76 c0 42 -4 73 -9 70 -5 -4 -7 11 -4 34 l6 40 -107 0 -106 0 0 60 c0 57
-1 60 -25 60 -14 0 -25 5 -25 10 0 6 5 10 10 10 6 0 10 9 10 20 0 10 8 23 18
29 15 8 17 5 20 -30 l3 -39 108 0z m937 0 c89 0 144 -4 144 -10 0 -6 -50 -10
-131 -10 l-132 0 7 -46 c3 -26 6 -57 6 -70 0 -24 1 -24 105 -24 63 0 105 -4
105 -10 0 -6 -44 -10 -111 -10 -100 0 -110 -2 -107 -17 3 -16 20 -18 161 -21
l157 -3 0 -43 c0 -35 -4 -45 -20 -49 -17 -4 -20 0 -20 34 l0 39 -148 0 c-102
0 -152 4 -160 12 -8 8 -12 49 -12 120 l0 108 -25 0 c-14 0 -25 5 -25 10 0 6 5
10 10 10 6 0 10 11 10 24 0 15 7 26 18 28 13 3 18 -5 20 -34 l3 -38 145 0z
m-3203 -63 l132 -3 -137 -2 -138 -2 2 48 1 47 4 -42 4 -42 132 -4z m214 -179
c-1 -51 -3 -12 -3 87 0 99 2 141 3 93 2 -48 2 -129 0 -180z m537 -20 c20 -44
54 -53 209 -56 81 -2 147 -8 147 -13 0 -5 -67 -9 -150 -9 -238 0 -260 18 -260
212 0 103 2 117 18 120 15 3 18 -9 22 -117 3 -66 9 -128 14 -137z m1206 252
c0 -6 -43 -10 -110 -10 l-110 0 0 -88 c0 -55 4 -92 12 -100 7 -7 43 -12 90
-12 71 0 78 2 78 20 0 18 -7 20 -80 20 l-80 0 0 44 c0 30 5 46 15 50 12 4 15
-3 15 -34 l0 -40 85 0 85 0 0 -40 c0 -33 3 -40 20 -40 17 0 19 -4 14 -27 -9
-37 -11 -40 -31 -45 -15 -4 -18 2 -18 31 l0 36 -104 3 c-58 1 -111 8 -118 14
-14 11 -19 208 -6 221 11 11 243 8 243 -3z m145 -310 c14 0 25 -5 25 -11 0 -6
-17 -9 -42 -7 l-43 3 -3 53 c-2 29 -6 51 -10 48 -4 -2 -6 31 -4 75 l4 79 -111
0 c-67 0 -111 4 -111 10 0 6 45 10 115 10 107 0 115 1 115 20 0 10 8 23 18 29
16 9 17 -1 20 -150 l2 -159 25 0z m755 310 c0 -6 -43 -10 -110 -10 l-111 0 3
-97 3 -98 83 -3 c77 -3 82 -2 82 18 0 18 -6 20 -80 20 l-80 0 0 44 c0 35 4 45
20 49 17 4 20 0 20 -34 l0 -39 80 0 80 0 0 -40 c0 -36 3 -40 25 -40 14 0 25
-4 25 -10 0 -5 -4 -10 -10 -10 -5 0 -10 -11 -10 -24 0 -15 -7 -26 -20 -29 -17
-4 -20 0 -20 34 l0 39 -108 0 c-71 0 -112 4 -120 12 -15 15 -16 181 -2 209 10
17 22 19 130 19 73 0 120 -4 120 -10z m141 -261 c27 -39 72 -49 222 -49 78 0
127 -4 127 -10 0 -6 -57 -10 -152 -10 -176 0 -209 10 -244 73 -11 20 -24 34
-27 30 -4 -3 -7 30 -7 75 l0 82 -105 0 c-63 0 -105 4 -105 10 0 6 45 10 115
10 l115 0 0 24 c0 15 7 26 18 28 15 3 17 -9 20 -116 2 -100 6 -123 23 -147z
m-1871 167 c0 -35 -4 -45 -20 -49 -17 -4 -20 0 -20 34 l0 39 -105 0 c-63 0
-105 4 -105 10 0 6 48 10 125 10 l125 0 0 -44z m2240 0 c0 -35 -4 -45 -20 -49
-17 -4 -20 0 -20 34 l0 39 -105 0 c-63 0 -105 4 -105 10 0 6 48 10 125 10
l125 0 0 -44z m-3503 -178 c-2 -29 -3 -8 -3 47 0 55 1 79 3 53 2 -26 2 -71 0
-100z m190 0 c-2 -29 -3 -8 -3 47 0 55 1 79 3 53 2 -26 2 -71 0 -100z m2273
72 c0 -6 -30 -10 -70 -10 l-70 0 0 -44 c0 -35 -4 -45 -20 -49 -18 -5 -20 0
-20 54 l0 59 90 0 c53 0 90 -4 90 -10z m-2733 -332 c-3 -8 -6 -5 -6 6 -1 11 2
17 5 13 3 -3 4 -12 1 -19z m28 -38 c10 -11 16 -20 13 -20 -3 0 -13 9 -23 20
-10 11 -16 20 -13 20 3 0 13 -9 23 -20z m1005 17 c0 -2 -10 -12 -22 -23 l-23
-19 19 23 c18 21 26 27 26 19z m-953 -43 c-3 -3 -12 -4 -19 -1 -8 3 -5 6 6 6
11 1 17 -2 13 -5z m900 0 c-3 -3 -12 -4 -19 -1 -8 3 -5 6 6 6 11 1 17 -2 13
-5z"/>
<path d="M3460 2670 l0 -40 90 0 c84 0 90 1 90 21 0 50 -15 59 -100 59 l-80 0
0 -40z"/>
</g>
</svg>
