<?xml version="1.0" standalone="no"?>
<!DOCTYPE svg PUBLIC "-//W3C//DTD SVG 20010904//EN"
 "http://www.w3.org/TR/2001/REC-SVG-20010904/DTD/svg10.dtd">
<svg version="1.0" xmlns="http://www.w3.org/2000/svg"
 width="500.000000pt" height="500.000000pt" viewBox="0 0 500.000000 500.000000"
 preserveAspectRatio="xMidYMid meet">
<metadata>
Created by potrace 1.16, written by Peter Selinger 2001-2019
</metadata>
<g transform="translate(0.000000,500.000000) scale(0.100000,-0.100000)"
fill="#000000" stroke="none">
<path d="M889 3134 l-24 -26 0 -464 0 -464 28 -27 27 -28 465 0 465 0 27 28
28 27 0 466 0 466 -28 24 -28 24 -468 0 -468 0 -24 -26z m751 -479 l0 -255
-45 0 -45 0 0 210 0 210 -210 0 -210 0 0 45 0 45 255 0 255 0 0 -255z m-150
-80 l0 -175 -45 0 -45 0 0 130 0 130 -135 0 -135 0 0 45 0 45 180 0 180 0 0
-175z m-160 -80 l0 -96 -97 3 -96 3 1 88 c0 48 1 89 1 92 1 3 44 5 96 5 l95 0
0 -95z"/>
<path d="M2080 2770 l0 -40 -41 0 -41 0 4 -119 c6 -187 24 -201 253 -201 l145
0 0 40 0 40 -148 0 c-102 0 -152 4 -160 12 -8 8 -12 49 -12 120 l0 108 160 0
160 0 0 40 0 40 -160 0 -160 0 0 -40z"/>
<path d="M2820 2799 c0 -7 -3 -9 -7 -6 -20 21 -28 -20 -26 -140 1 -70 2 -131
2 -136 1 -4 15 -6 31 -5 l30 2 0 134 c0 105 -3 137 -15 148 -11 11 -15 12 -15
3z m17 -81 c-3 -8 -6 -5 -6 6 -1 11 2 17 5 13 3 -3 4 -12 1 -19z"/>
<path d="M2974 2791 c-58 -35 -64 -53 -64 -184 l0 -119 34 -34 35 -35 117 3
c115 3 117 3 119 26 2 33 -28 42 -135 42 -110 0 -112 3 -109 133 1 71 6 95 18
104 11 8 58 12 138 13 74 0 124 4 128 11 4 5 4 21 1 35 -6 24 -7 24 -129 24
-102 0 -127 -3 -153 -19z"/>
<path d="M3430 2770 l0 -40 108 0 c71 0 112 -4 120 -12 8 -8 12 -58 12 -160
l0 -148 35 0 35 0 0 163 c0 134 -3 167 -16 186 -27 38 -74 51 -189 51 l-105 0
0 -40z"/>
<path d="M3858 2794 c-47 -25 -58 -61 -58 -184 0 -177 24 -200 204 -200 l106
0 0 40 0 40 -108 0 c-71 0 -112 4 -120 12 -16 16 -16 200 0 216 8 8 54 12 140
12 l128 0 0 40 0 40 -132 0 c-98 -1 -140 -5 -160 -16z"/>
<path d="M2549 2788 c-7 -23 -4 -39 7 -49 15 -12 84 -151 84 -168 0 -22 60
-117 80 -128 41 -21 70 9 33 33 -10 6 -27 26 -37 44 -10 18 -14 30 -8 26 8 -4
10 -2 6 8 -3 8 -12 17 -19 20 -8 3 -11 13 -8 27 5 17 3 20 -7 14 -10 -6 -12
-4 -7 8 3 10 2 17 -4 17 -6 0 -7 5 -4 11 4 6 -1 17 -11 25 -11 9 -13 13 -7 9
8 -4 11 -1 7 9 -3 8 -12 17 -20 20 -9 3 -12 11 -9 17 9 14 -34 59 -57 59 -10
0 -18 -1 -19 -2z"/>
<path d="M4365 2770 c4 -6 57 -10 126 -10 73 0 119 4 119 10 0 6 -49 10 -126
10 -81 0 -123 -4 -119 -10z"/>
<path d="M3350 2570 l0 -160 35 0 35 0 0 60 0 60 100 0 100 0 0 40 0 40 -100
0 -100 0 0 60 0 60 -35 0 -35 0 0 -160z"/>
<path d="M2473 2708 c-4 -7 -8 -73 -8 -145 0 -132 0 -133 22 -133 26 0 25 -6
27 155 1 55 0 108 -2 118 -5 20 -27 23 -39 5z"/>
<path d="M4277 2693 c-2 -4 -3 -50 -2 -102 3 -86 5 -96 29 -120 26 -25 31 -26
166 -29 95 -2 140 0 140 7 0 7 -44 11 -129 11 -121 0 -132 2 -157 23 -25 21
-27 30 -30 116 -3 91 -7 111 -17 94z"/>
<path d="M2120 2610 l0 -40 120 0 120 0 0 40 0 40 -120 0 -120 0 0 -40z"/>
<path d="M3088 2643 c-12 -3 -18 -14 -18 -33 l0 -29 78 -3 77 -3 3 -38 c3 -36
5 -38 35 -35 31 3 32 5 35 52 6 95 5 96 -101 95 -50 -1 -100 -3 -109 -6z"/>
<path d="M3960 2610 l0 -40 80 0 80 0 0 -40 c0 -39 1 -40 35 -40 l35 0 0 80 0
80 -115 0 -115 0 0 -40z"/>
<path d="M4402 2619 c6 -17 168 -26 168 -9 0 6 -28 10 -69 10 -38 0 -77 3 -87
7 -12 4 -15 2 -12 -8z"/>
</g>
</svg>
