<?xml version="1.0" standalone="no"?>
<!DOCTYPE svg PUBLIC "-//W3C//DTD SVG 20010904//EN"
 "http://www.w3.org/TR/2001/REC-SVG-20010904/DTD/svg10.dtd">
<svg version="1.0" xmlns="http://www.w3.org/2000/svg"
 width="500.000000pt" height="500.000000pt" viewBox="0 0 500.000000 500.000000"
 preserveAspectRatio="xMidYMid meet">
<metadata>
Created by potrace 1.16, written by Peter Selinger 2001-2019
</metadata>
<g transform="translate(0.000000,500.000000) scale(0.100000,-0.100000)"
fill="#000000" stroke="none">
<path d="M0 2500 l0 -2500 2500 0 2500 0 0 2500 0 2500 -2500 0 -2500 0 0
-2500z m1618 663 c-125 -2 -332 -2 -460 0 -128 1 -26 2 227 2 253 0 358 -1
233 -2z m-708 -6 c0 -2 -10 -12 -22 -23 l-23 -19 19 23 c18 21 26 27 26 19z
m998 -516 l-3 -466 -5 471 c-3 289 -9 477 -15 485 -5 8 -2 6 8 -4 16 -18 17
-53 15 -486z m-1041 447 c-3 -8 -6 -5 -6 6 -1 11 2 17 5 13 3 -3 4 -12 1 -19z
m771 -435 l-3 -258 -2 253 -3 252 -245 0 -244 0 -4 -42 -4 -43 -1 48 -2 47
255 0 255 0 -2 -257z m3040 178 c8 -5 12 -23 10 -47 -3 -34 -8 -41 -44 -60
-36 -19 -56 -21 -158 -20 -97 1 -116 -1 -116 -14 0 -13 18 -14 116 -12 64 2
127 1 140 -2 22 -6 25 -11 22 -49 -3 -38 -7 -44 -44 -63 -34 -18 -57 -21 -137
-20 -61 1 -96 -3 -94 -9 2 -6 59 -11 138 -12 183 -4 181 -3 177 -59 -3 -45 -4
-47 -52 -65 -40 -15 -76 -18 -185 -17 -83 0 -148 5 -166 13 -32 13 -89 78 -78
89 4 3 1 6 -5 6 -8 0 -12 26 -12 80 l0 80 -105 0 c-63 0 -105 4 -105 10 0 6
43 10 110 10 l110 0 0 25 c0 14 5 25 10 25 17 0 70 42 70 55 0 7 17 24 37 38
37 26 41 27 193 27 85 0 161 -4 168 -9z m-2238 -45 c0 -35 -4 -45 -20 -49 -17
-4 -20 0 -20 34 l0 39 -145 0 c-90 0 -145 4 -145 10 0 6 62 10 165 10 l165 0
0 -44z m175 32 c31 -14 79 -87 104 -159 l20 -54 0 96 c1 95 2 97 26 103 14 4
25 11 25 16 0 6 23 10 50 10 l50 0 0 -41 c0 -38 1 -39 17 -23 10 9 40 27 68
40 44 21 65 24 183 24 72 0 132 -3 133 -7 6 -67 3 -82 -17 -86 -20 -3 -21 0
-17 35 l6 38 -135 0 c-124 0 -138 -2 -169 -23 -53 -36 -60 -58 -57 -188 3
-100 6 -120 23 -139 33 -37 78 -50 175 -50 53 0 90 -4 90 -10 0 -6 -44 -10
-111 -10 -133 0 -169 13 -196 70 -18 38 -18 38 -45 22 -17 -10 -28 -25 -28
-38 0 -15 -8 -24 -27 -29 -15 -3 -31 -11 -34 -17 -11 -18 -61 1 -95 37 -17 18
-43 62 -57 97 l-26 63 -1 -85 0 -85 -43 -17 c-49 -21 -98 -23 -115 -6 -7 7
-12 29 -12 50 l0 38 -148 0 c-102 0 -152 4 -160 12 -8 8 -12 49 -12 120 l0
108 150 0 c93 0 150 -4 150 -10 0 -6 -50 -10 -129 -10 l-130 0 0 -70 0 -70
109 0 c67 0 110 -4 110 -10 0 -6 -44 -10 -111 -10 -100 0 -110 -2 -107 -17 3
-16 19 -18 146 -21 l142 -3 0 100 0 100 40 22 c22 13 41 26 41 31 1 4 2 13 3
19 1 11 61 46 83 48 7 1 24 -4 38 -11z m1095 -3 c15 -8 38 -27 49 -41 19 -24
23 -26 39 -12 9 9 28 21 42 27 l25 12 -21 -18 c-37 -31 -44 -58 -44 -173 0
-175 24 -200 195 -200 61 0 95 -4 95 -11 0 -7 -40 -10 -124 -7 -111 3 -128 5
-155 26 -17 12 -31 18 -31 13 0 -5 -8 -11 -18 -13 -17 -5 -18 2 -17 66 1 39
-2 76 -7 83 -5 6 -5 14 0 17 15 9 4 146 -14 173 -25 39 -73 53 -179 53 -57 0
-95 4 -95 10 0 17 226 13 260 -5z m480 -29 c0 -35 -4 -45 -20 -49 -18 -4 -20
0 -20 35 l0 40 -139 -4 c-114 -2 -136 -1 -118 9 14 8 71 12 160 13 l137 0 0
-44z m-2104 -42 c-6 -16 -56 -19 -56 -4 0 6 5 10 10 10 6 0 10 11 10 24 0 34
34 40 38 8 2 -13 1 -30 -2 -38z m1453 -14 c70 0 111 -4 119 -12 8 -8 12 -58
12 -160 l0 -148 25 0 c14 0 25 -5 25 -11 0 -6 -17 -9 -42 -7 -34 2 -43 7 -45
23 -1 11 -5 59 -8 108 l-7 87 -99 0 -99 0 0 60 c0 57 -1 60 -25 60 -14 0 -25
5 -25 10 0 6 5 10 10 10 6 0 10 11 10 24 0 15 7 26 18 28 13 3 18 -5 20 -34
l3 -38 108 0z m-2266 -63 l132 -3 -137 -2 -138 -2 2 48 1 47 4 -42 4 -42 132
-4z m214 -179 c-1 -51 -3 -12 -3 87 0 99 2 141 3 93 2 -48 2 -129 0 -180z
m518 124 c0 -185 20 -202 240 -202 83 0 135 -4 135 -10 0 -6 -57 -10 -150 -10
-238 0 -260 18 -260 212 0 103 2 117 18 121 9 3 17 5 17 6 0 0 0 -52 0 -117z
m1225 108 c0 -6 -43 -10 -110 -10 l-110 0 0 -88 c0 -55 4 -92 12 -100 7 -7 43
-12 90 -12 71 0 78 2 78 20 0 17 -8 19 -82 22 l-83 3 -3 37 c-2 28 1 39 16 47
23 12 30 2 27 -41 l-2 -28 79 0 78 0 0 -40 0 -40 -115 0 c-115 0 -116 0 -125
26 -13 34 -13 170 0 195 10 17 22 19 130 19 73 0 120 -4 120 -10z m145 -310
c14 0 25 -4 25 -10 0 -5 -20 -10 -45 -10 l-45 0 0 56 c0 30 -3 53 -8 51 -4 -3
-5 30 -3 74 l3 79 -111 0 c-67 0 -111 4 -111 10 0 6 45 10 115 10 l115 0 0 24
c0 15 7 26 18 28 15 3 17 -10 20 -154 l2 -158 25 0z m755 310 c0 -6 -43 -10
-110 -10 l-111 0 3 -97 3 -98 83 -3 c77 -3 82 -2 82 18 0 18 -6 20 -80 20
l-80 0 0 44 c0 35 4 45 20 49 17 4 20 0 20 -34 l0 -39 80 0 80 0 0 -40 c0 -36
3 -40 25 -40 14 0 25 -4 25 -10 0 -5 -4 -10 -10 -10 -5 0 -10 -11 -10 -24 0
-15 -7 -26 -20 -29 -17 -4 -20 0 -20 34 l0 39 -108 0 c-71 0 -112 4 -120 12
-16 16 -16 200 0 216 15 15 248 17 248 2z m-1730 -94 c0 -35 -4 -45 -20 -49
-17 -4 -20 0 -20 34 l0 39 -105 0 c-63 0 -105 4 -105 10 0 6 48 10 125 10
l125 0 0 -44z m-1263 -178 c-2 -29 -3 -8 -3 47 0 55 1 79 3 53 2 -26 2 -71 0
-100z m190 0 c-2 -29 -3 -8 -3 47 0 55 1 79 3 53 2 -26 2 -71 0 -100z m2273
72 c0 -6 -30 -10 -70 -10 l-70 0 0 -44 c0 -35 -4 -45 -20 -49 -18 -5 -20 0
-20 54 l0 59 90 0 c53 0 90 -4 90 -10z m-330 -38 c0 -5 -3 -12 -7 -16 -5 -4
-9 -12 -9 -17 -1 -5 -2 -13 -3 -18 0 -5 -9 -11 -19 -13 -16 -5 -18 0 -16 31 2
20 3 37 3 39 2 6 51 1 51 -6z m-2403 -294 c-3 -8 -6 -5 -6 6 -1 11 2 17 5 13
3 -3 4 -12 1 -19z m28 -38 c10 -11 16 -20 13 -20 -3 0 -13 9 -23 20 -10 11
-16 20 -13 20 3 0 13 -9 23 -20z m1005 17 c0 -2 -10 -12 -22 -23 l-23 -19 19
23 c18 21 26 27 26 19z m-953 -43 c-3 -3 -12 -4 -19 -1 -8 3 -5 6 6 6 11 1 17
-2 13 -5z m900 0 c-3 -3 -12 -4 -19 -1 -8 3 -5 6 6 6 11 1 17 -2 13 -5z"/>
<path d="M4359 2796 c0 -1 -2 -9 -4 -19 -3 -18 -3 -18 17 0 11 10 22 16 23 13
2 -3 6 -3 9 1 4 3 -39 8 -45 5z"/>
<path d="M4421 2784 c0 -11 3 -14 6 -6 3 7 2 16 -1 19 -3 4 -6 -2 -5 -13z"/>
<path d="M4451 2777 c-13 -21 -12 -21 5 -5 10 10 16 20 13 22 -3 3 -11 -5 -18
-17z"/>
<path d="M4507 2783 c3 -7 6 -13 8 -13 2 0 5 6 8 13 3 8 -1 14 -8 14 -7 0 -11
-6 -8 -14z"/>
<path d="M4566 2788 c3 -5 10 -6 15 -3 13 9 11 12 -6 12 -8 0 -12 -4 -9 -9z"/>
<path d="M4283 2665 c0 -22 2 -32 4 -22 3 10 9 14 16 10 9 -5 9 -3 1 8 -6 8
-14 21 -16 29 -3 8 -5 -3 -5 -25z"/>
<path d="M4401 2628 c-2 -25 14 -30 33 -9 13 15 14 18 1 18 -8 0 -12 -4 -9 -8
2 -4 0 -10 -5 -13 -5 -4 -12 2 -14 11 -4 16 -5 16 -6 1z"/>
<path d="M4486 2628 c3 -5 10 -6 15 -3 13 9 11 12 -6 12 -8 0 -12 -4 -9 -9z"/>
<path d="M4546 2628 c3 -5 10 -6 15 -3 13 9 11 12 -6 12 -8 0 -12 -4 -9 -9z"/>
<path d="M4281 2604 c0 -11 3 -14 6 -6 3 7 2 16 -1 19 -3 4 -6 -2 -5 -13z"/>
<path d="M4277 2534 c-9 -9 3 -36 30 -65 13 -14 20 -28 16 -32 -3 -4 -4 -7 -1
-7 3 0 11 7 18 16 8 8 9 14 3 12 -6 -2 -11 2 -11 7 0 6 4 9 9 8 5 -2 9 1 9 6
0 11 -31 24 -38 16 -3 -3 0 -5 7 -5 7 0 9 -5 5 -11 -9 -15 -35 12 -37 39 -1
25 -1 24 -10 16z"/>
<path d="M4367 2463 c3 -7 6 -13 8 -13 2 0 5 6 8 13 3 8 -1 14 -8 14 -7 0 -11
-6 -8 -14z"/>
<path d="M4446 2468 c3 -5 10 -6 15 -3 13 9 11 12 -6 12 -8 0 -12 -4 -9 -9z"/>
<path d="M4505 2472 c3 -3 0 -10 -5 -17 -7 -8 -5 -12 5 -12 8 0 13 3 10 5 -3
3 0 10 5 17 7 8 5 12 -5 12 -8 0 -13 -3 -10 -5z"/>
<path d="M4601 2464 c0 -11 3 -14 6 -6 3 7 2 16 -1 19 -3 4 -6 -2 -5 -13z"/>
<path d="M2805 2800 c-3 -6 -10 -8 -14 -5 -5 2 -9 -34 -9 -81 -1 -60 2 -83 10
-78 7 5 8 3 2 -7 -13 -21 -14 -40 -1 -33 8 5 8 3 0 -6 -10 -11 -10 -17 0 -29
9 -12 9 -13 0 -7 -9 5 -13 -2 -13 -24 0 -29 2 -31 33 -28 l32 3 0 150 c0 131
-2 150 -17 153 -9 2 -19 -2 -23 -8z"/>
<path d="M2540 2764 c0 -17 7 -37 16 -45 8 -7 22 -25 30 -41 8 -16 19 -26 24
-23 6 4 10 -8 10 -26 0 -38 20 -99 33 -99 4 0 5 -4 2 -10 -3 -5 -1 -10 5 -10
6 0 8 -4 5 -10 -3 -5 -1 -10 4 -10 6 0 11 -5 11 -10 0 -18 52 -61 69 -58 9 2
17 16 19 32 2 18 0 26 -7 21 -6 -3 -11 1 -11 10 0 9 -4 14 -9 11 -5 -3 -15 2
-22 11 -12 14 -12 16 0 8 10 -6 13 -4 8 6 -3 8 -18 43 -33 79 -15 36 -31 68
-36 71 -5 3 -9 9 -9 13 3 23 -3 37 -34 74 -44 50 -75 53 -75 6z"/>
<path d="M2485 2720 c-4 -6 -11 -8 -16 -5 -5 4 -9 -56 -9 -149 l0 -155 27 5
c15 3 30 7 35 10 4 3 8 66 8 140 0 83 -4 133 -9 129 -6 -3 -8 4 -6 15 4 21
-19 29 -30 10z"/>
<path d="M3460 2670 l0 -40 86 0 85 0 -3 38 -3 37 -82 3 -83 3 0 -41z"/>
</g>
</svg>
