<?xml version="1.0" standalone="no"?>
<!DOCTYPE svg PUBLIC "-//W3C//DTD SVG 20010904//EN"
 "http://www.w3.org/TR/2001/REC-SVG-20010904/DTD/svg10.dtd">
<svg version="1.0" xmlns="http://www.w3.org/2000/svg"
 width="500.000000pt" height="500.000000pt" viewBox="0 0 500.000000 500.000000"
 preserveAspectRatio="xMidYMid meet">
<metadata>
Created by potrace 1.16, written by Peter Selinger 2001-2019
</metadata>
<g transform="translate(0.000000,500.000000) scale(0.100000,-0.100000)"
fill="#000000" stroke="none">
<path d="M0 2500 l0 -2500 2500 0 2500 0 0 2500 0 2500 -2500 0 -2500 0 0
-2500z m1618 663 c-125 -2 -332 -2 -460 0 -128 1 -26 2 227 2 253 0 358 -1
233 -2z m-708 -6 c0 -2 -10 -12 -22 -23 l-23 -19 19 23 c18 21 26 27 26 19z
m998 -516 l-3 -466 -5 471 c-3 289 -9 477 -15 485 -5 8 -2 6 8 -4 16 -18 17
-53 15 -486z m-1041 447 c-3 -8 -6 -5 -6 6 -1 11 2 17 5 13 3 -3 4 -12 1 -19z
m771 -435 l-3 -258 -2 253 -3 252 -245 0 -244 0 -4 -42 -4 -43 -1 48 -2 47
255 0 255 0 -2 -257z m3042 151 c16 -74 -27 -94 -204 -94 l-116 0 0 -26 c0
-21 3 -25 18 -18 9 5 70 10 135 12 114 3 117 2 125 -19 5 -12 6 -36 3 -52 -9
-42 -52 -55 -178 -56 -87 -1 -101 -3 -97 -16 5 -12 32 -15 155 -15 143 0 150
-1 157 -21 5 -12 6 -34 4 -50 -7 -48 -49 -59 -224 -59 -175 0 -206 9 -236 71
-11 21 -22 36 -26 32 -3 -3 -6 30 -6 75 l0 82 -105 0 c-63 0 -105 4 -105 10 0
6 45 10 115 10 114 0 115 0 115 23 0 17 11 30 40 46 23 13 40 30 40 40 0 9 17
27 38 39 34 20 48 22 192 19 l154 -2 6 -31z m-2240 -18 c0 -35 -4 -45 -20 -49
-17 -4 -20 0 -20 34 l0 39 -145 0 c-90 0 -145 4 -145 10 0 6 62 10 165 10
l165 0 0 -44z m168 30 c41 -21 60 -47 97 -132 l35 -79 0 96 c0 88 2 97 20 102
19 5 20 0 20 -154 l0 -159 27 0 c21 0 24 -3 15 -12 -7 -7 -12 -22 -12 -34 0
-13 -8 -24 -20 -27 -17 -4 -20 0 -20 28 0 22 -8 42 -23 57 -12 13 -38 61 -56
108 -44 110 -79 167 -113 183 -29 12 -33 19 -21 30 10 10 21 9 51 -7z m282
-25 l0 -40 50 34 c63 43 86 47 235 43 l120 -3 0 -39 c0 -30 -5 -41 -20 -46
-18 -7 -20 -4 -17 31 l4 39 -128 0 c-202 0 -234 -27 -234 -200 0 -164 36 -200
198 -200 54 0 92 -4 92 -10 0 -6 -45 -10 -114 -10 -101 0 -117 2 -147 23 -19
12 -41 37 -50 54 -9 18 -19 30 -23 26 -3 -3 -6 66 -6 155 l0 162 -25 0 c-14 0
-25 5 -25 10 0 6 20 10 45 10 l45 0 0 -39z m820 24 c15 -8 38 -27 49 -41 19
-24 23 -26 39 -12 9 9 28 21 42 28 23 12 22 10 -7 -24 l-33 -37 0 -119 0 -120
34 -37 34 -38 111 -3 c63 -3 111 -8 111 -14 0 -6 -48 -8 -124 -6 -111 3 -128
5 -155 26 -17 12 -31 18 -31 13 0 -5 -9 -11 -19 -14 -18 -4 -19 3 -21 150 -1
225 -16 243 -195 243 -57 0 -95 4 -95 10 0 17 226 13 260 -5z m480 -29 c0 -35
-4 -45 -20 -49 -18 -4 -20 0 -20 35 l0 40 -139 -4 c-114 -2 -136 -1 -118 9 14
8 71 12 160 13 l137 0 0 -44z m-1954 -56 c89 0 144 -4 144 -10 0 -6 -50 -10
-131 -10 l-132 0 7 -46 c3 -26 6 -57 6 -70 0 -24 1 -24 105 -24 63 0 105 -4
105 -10 0 -6 -44 -10 -111 -10 -100 0 -110 -2 -107 -17 3 -16 20 -18 151 -21
l147 -3 0 106 c0 99 1 105 20 105 20 0 21 -4 18 -155 -3 -155 -3 -155 20 -155
12 0 22 -4 22 -10 0 -5 -18 -10 -40 -10 -30 0 -40 4 -40 16 0 8 -4 12 -10 9
-6 -4 -10 10 -10 34 l0 41 -148 0 c-102 0 -152 4 -160 12 -8 8 -12 49 -12 120
l0 108 -25 0 c-14 0 -25 5 -25 10 0 6 5 10 10 10 6 0 10 11 10 24 0 15 7 26
18 28 13 3 18 -5 20 -34 l3 -38 145 0z m324 -15 c10 -11 39 -69 64 -129 46
-113 85 -166 120 -166 19 0 19 -1 4 -16 -14 -15 -19 -15 -49 0 -40 19 -69 59
-103 141 l-25 60 -1 -88 c0 -71 -3 -89 -16 -94 -9 -3 -19 -1 -23 5 -3 5 -5 76
-5 156 l2 146 -24 0 c-13 0 -24 5 -24 10 0 6 5 10 10 10 6 0 10 11 10 24 0 15
7 26 18 28 13 3 18 -4 20 -32 2 -19 12 -44 22 -55z m979 15 c70 0 111 -4 119
-12 8 -8 12 -58 12 -160 l0 -148 25 0 c14 0 25 -4 25 -10 0 -5 -18 -10 -40
-10 l-40 0 0 76 c0 47 -4 73 -10 69 -6 -4 -10 10 -10 34 l0 41 -100 0 -100 0
0 60 c0 57 -1 60 -25 60 -14 0 -25 5 -25 10 0 6 5 10 10 10 6 0 10 9 10 20 0
10 8 23 18 29 15 8 17 5 20 -30 l3 -39 108 0z m-2266 -63 l132 -3 -137 -2
-138 -2 2 48 1 47 4 -42 4 -42 132 -4z m214 -179 c-1 -51 -3 -12 -3 87 0 99 2
141 3 93 2 -48 2 -129 0 -180z m537 -20 c20 -44 54 -53 209 -56 81 -2 147 -8
147 -13 0 -5 -67 -9 -150 -9 -238 0 -260 18 -260 212 0 103 2 117 18 120 15 3
18 -9 22 -117 3 -66 9 -128 14 -137z m1206 252 c0 -6 -43 -10 -110 -10 l-110
0 0 -88 c0 -55 4 -92 12 -100 7 -7 43 -12 90 -12 71 0 78 2 78 20 0 18 -7 20
-80 20 l-80 0 0 44 c0 30 5 46 15 50 12 4 15 -3 15 -34 l0 -40 86 0 86 0 -4
-40 c-3 -36 -1 -40 19 -40 23 0 30 -10 16 -24 -5 -4 -9 -12 -9 -17 -1 -5 -2
-13 -3 -18 0 -5 -9 -11 -19 -13 -15 -4 -18 1 -17 31 l0 36 -113 3 c-132 3
-128 -1 -131 124 -3 118 -3 118 139 118 73 0 120 -4 120 -10z m145 -310 c14 0
25 -5 25 -11 0 -6 -17 -9 -42 -7 l-43 3 -3 53 c-2 29 -6 51 -10 48 -4 -2 -6
31 -4 75 l4 79 -111 0 c-67 0 -111 4 -111 10 0 6 45 10 115 10 107 0 115 1
115 20 0 10 8 23 18 29 16 9 17 -1 20 -150 l2 -159 25 0z m755 310 c0 -6 -43
-10 -110 -10 l-111 0 3 -97 3 -98 83 -3 c77 -3 82 -2 82 18 0 18 -6 20 -80 20
l-80 0 0 44 c0 35 4 45 20 49 17 4 20 0 20 -34 l0 -39 80 0 80 0 0 -40 c0 -36
3 -40 25 -40 14 0 25 -4 25 -10 0 -5 -4 -10 -10 -10 -5 0 -10 -11 -10 -24 0
-15 -7 -26 -20 -29 -17 -4 -20 0 -20 34 l0 39 -108 0 c-71 0 -112 4 -120 12
-16 16 -16 200 0 216 15 15 248 17 248 2z m-1730 -94 c0 -35 -4 -45 -20 -49
-17 -4 -20 0 -20 34 l0 39 -105 0 c-63 0 -105 4 -105 10 0 6 48 10 125 10
l125 0 0 -44z m-1263 -178 c-2 -29 -3 -8 -3 47 0 55 1 79 3 53 2 -26 2 -71 0
-100z m190 0 c-2 -29 -3 -8 -3 47 0 55 1 79 3 53 2 -26 2 -71 0 -100z m2273
72 c0 -6 -30 -10 -70 -10 l-70 0 0 -44 c0 -35 -4 -45 -20 -49 -18 -5 -20 0
-20 54 l0 59 90 0 c53 0 90 -4 90 -10z m-2733 -332 c-3 -8 -6 -5 -6 6 -1 11 2
17 5 13 3 -3 4 -12 1 -19z m28 -38 c10 -11 16 -20 13 -20 -3 0 -13 9 -23 20
-10 11 -16 20 -13 20 3 0 13 -9 23 -20z m1005 17 c0 -2 -10 -12 -22 -23 l-23
-19 19 23 c18 21 26 27 26 19z m-953 -43 c-3 -3 -12 -4 -19 -1 -8 3 -5 6 6 6
11 1 17 -2 13 -5z m900 0 c-3 -3 -12 -4 -19 -1 -8 3 -5 6 6 6 11 1 17 -2 13
-5z"/>
<path d="M4338 2793 c-5 -7 -7 -21 -3 -33 6 -19 14 -20 156 -20 l149 0 0 29 0
30 -146 3 c-104 2 -149 0 -156 -9z"/>
<path d="M4264 2719 c-4 -7 -8 -54 -9 -105 -3 -175 20 -194 239 -194 l144 0
-2 30 -1 30 -142 0 c-182 0 -179 -2 -181 135 -1 69 -5 101 -14 106 -18 12 -26
11 -34 -2z"/>
<path d="M4379 2628 c-5 -9 -6 -24 -3 -32 5 -13 25 -16 114 -16 l108 0 -2 29
-1 30 -103 3 c-89 3 -105 1 -113 -14z"/>
<path d="M3460 2670 l0 -40 90 0 c84 0 90 1 90 21 0 50 -15 59 -100 59 l-80 0
0 -40z"/>
</g>
</svg>
