<?xml version="1.0" standalone="no"?>
<!DOCTYPE svg PUBLIC "-//W3C//DTD SVG 20010904//EN"
 "http://www.w3.org/TR/2001/REC-SVG-20010904/DTD/svg10.dtd">
<svg version="1.0" xmlns="http://www.w3.org/2000/svg"
 width="500.000000pt" height="500.000000pt" viewBox="0 0 500.000000 500.000000"
 preserveAspectRatio="xMidYMid meet">
<metadata>
Created by potrace 1.16, written by Peter Selinger 2001-2019
</metadata>
<g transform="translate(0.000000,500.000000) scale(0.100000,-0.100000)"
fill="#000000" stroke="none">
<path d="M0 2500 l0 -2500 2500 0 2500 0 0 2500 0 2500 -2500 0 -2500 0 0
-2500z m1618 663 c-125 -2 -332 -2 -460 0 -128 1 -26 2 227 2 253 0 358 -1
233 -2z m-708 -6 c0 -2 -10 -12 -22 -23 l-23 -19 19 23 c18 21 26 27 26 19z
m998 -516 l-3 -466 -5 471 c-3 289 -9 477 -15 485 -5 8 -2 6 8 -4 16 -18 17
-53 15 -486z m-1041 447 c-3 -8 -6 -5 -6 6 -1 11 2 17 5 13 3 -3 4 -12 1 -19z
m771 -435 l-3 -258 -2 253 -3 252 -245 0 -244 0 -4 -42 -4 -43 -1 48 -2 47
255 0 255 0 -2 -257z m3042 184 c13 -10 19 -58 10 -84 -1 -5 -2 -11 -1 -15 1
-14 -110 -32 -206 -33 -56 0 -105 -4 -109 -8 -9 -9 -5 -9 133 -7 130 2 148 -6
147 -60 0 -20 -3 -41 -7 -47 -12 -20 -85 -36 -172 -38 -98 -3 -100 -4 -92 -11
3 -3 67 -5 142 -5 127 2 138 0 155 -19 17 -19 19 -56 5 -96 -7 -22 -264 -41
-374 -28 -56 7 -109 56 -102 97 0 4 -3 7 -9 7 -6 0 -10 33 -10 80 l0 80 -105
0 c-63 0 -105 4 -105 10 0 6 43 10 110 10 61 0 109 3 109 8 -4 27 6 41 41 58
22 11 40 26 40 35 0 16 49 60 80 72 31 11 305 7 320 -6z m-2050 -26 c14 -9 42
-50 63 -90 l37 -74 0 70 0 70 40 27 c65 43 120 34 120 -20 l0 -33 53 32 c52
32 53 32 205 35 l153 3 -3 -42 c-2 -32 -8 -44 -24 -50 -18 -6 -21 -4 -19 19 3
51 1 52 -129 52 -193 0 -226 -29 -226 -198 0 -167 26 -195 192 -201 59 -2 105
-7 102 -12 -3 -5 -58 -9 -122 -9 -130 0 -171 14 -194 67 -7 16 -13 29 -14 31
-1 1 -13 -2 -28 -7 -20 -8 -26 -17 -26 -41 0 -16 -3 -29 -7 -28 -5 1 -26 -4
-47 -11 -35 -12 -43 -12 -70 3 -36 19 -65 61 -92 131 l-19 50 -6 -90 c-3 -49
-6 -87 -7 -83 -1 4 -18 0 -37 -8 -42 -17 -97 -18 -113 -2 -7 7 -12 29 -12 50
l0 38 -148 0 c-102 0 -152 4 -160 12 -8 8 -12 49 -12 120 l0 108 150 0 c93 0
150 -4 150 -10 0 -6 -50 -10 -130 -10 l-130 0 0 -70 0 -70 110 0 c67 0 110 -4
110 -10 0 -6 -44 -10 -111 -10 -100 0 -110 -2 -107 -17 3 -16 19 -18 146 -21
l142 -3 0 100 0 100 40 23 c23 13 40 31 40 41 0 10 8 21 18 24 9 4 26 15 36
25 22 20 46 17 86 -11z m-190 -25 c0 -35 -4 -45 -20 -49 -17 -4 -20 0 -20 34
l0 39 -145 0 c-90 0 -145 4 -145 10 0 6 62 10 165 10 l165 0 0 -44z m1271 29
c16 -9 38 -29 48 -46 16 -26 20 -28 31 -14 7 9 22 21 32 26 17 9 17 8 -2 -23
-17 -28 -20 -51 -20 -146 0 -176 25 -202 194 -202 62 0 96 -4 96 -11 0 -7 -40
-10 -124 -7 -111 3 -128 5 -155 26 -17 12 -31 18 -31 13 0 -5 -9 -11 -20 -14
-19 -5 -20 0 -20 154 0 134 -3 164 -17 186 -26 40 -71 53 -178 53 -57 0 -95 4
-95 10 0 17 226 13 261 -5z m479 -29 c0 -35 -4 -45 -20 -49 -18 -4 -20 0 -20
35 l0 40 -139 -4 c-114 -2 -136 -1 -118 9 14 8 71 12 160 13 l137 0 0 -44z
m-651 -56 c70 0 111 -4 119 -12 8 -8 12 -58 12 -160 l0 -148 25 0 c14 0 25 -5
25 -11 0 -6 -17 -9 -42 -7 -34 2 -43 7 -45 23 -1 11 -5 59 -8 108 l-7 87 -99
0 -99 0 0 60 c0 57 -1 60 -25 60 -14 0 -25 5 -25 10 0 6 5 10 10 10 6 0 10 11
10 24 0 15 7 26 18 28 13 3 18 -5 20 -34 l3 -38 108 0z m-1454 35 c0 -25 -4
-31 -27 -33 -16 -2 -28 1 -28 7 0 6 5 11 10 11 6 0 10 12 10 26 0 19 4 25 18
22 12 -2 17 -13 17 -33z m-812 -98 l132 -3 -137 -2 -138 -2 2 48 1 47 4 -42 4
-42 132 -4z m214 -179 c-1 -51 -3 -12 -3 87 0 99 2 141 3 93 2 -48 2 -129 0
-180z m1747 232 c-5 -5 -56 -11 -114 -12 l-105 -3 -3 -71 c-1 -39 2 -83 7 -98
10 -25 13 -26 89 -26 70 0 78 2 79 20 2 17 -6 19 -80 22 l-82 3 -3 35 c-3 24
2 38 14 47 26 19 29 17 29 -24 l0 -38 80 -5 80 -5 3 -38 c3 -33 6 -37 28 -33
27 5 28 3 15 -22 -5 -9 -12 -24 -14 -33 -3 -9 -14 -18 -25 -21 -15 -4 -18 0
-17 21 3 49 0 51 -116 51 -130 0 -129 0 -129 120 0 122 -3 120 147 120 81 0
124 -3 117 -10z m141 -310 c14 0 25 -4 25 -10 0 -5 -20 -10 -45 -10 l-45 0 0
56 c0 30 -3 53 -7 51 -5 -3 -8 29 -8 71 l0 77 -107 3 c-146 4 -140 22 7 22
l115 0 0 24 c0 15 7 26 18 28 15 3 17 -10 20 -154 l2 -158 25 0z m755 310 c0
-6 -43 -10 -110 -10 l-111 0 3 -97 3 -98 83 -3 c77 -3 82 -2 82 18 0 18 -6 20
-80 20 l-80 0 0 44 c0 35 4 45 20 49 17 4 20 0 20 -34 l0 -39 80 0 80 0 0 -40
c0 -36 3 -40 25 -40 14 0 25 -4 25 -10 0 -5 -4 -10 -10 -10 -5 0 -10 -11 -10
-24 0 -15 -7 -26 -20 -29 -17 -4 -20 0 -20 34 l0 39 -108 0 c-71 0 -112 4
-120 12 -16 16 -16 200 0 216 15 15 248 17 248 2z m-2128 -114 c7 -180 26
-196 243 -196 83 0 135 -4 135 -10 0 -6 -57 -10 -150 -10 -238 0 -260 18 -260
213 0 93 3 117 14 117 10 0 14 -26 18 -114z m398 20 c0 -35 -4 -45 -20 -49
-17 -4 -20 0 -20 34 l0 39 -105 0 c-63 0 -105 4 -105 10 0 6 48 10 125 10
l125 0 0 -44z m-1263 -178 c-2 -29 -3 -8 -3 47 0 55 1 79 3 53 2 -26 2 -71 0
-100z m190 0 c-2 -29 -3 -8 -3 47 0 55 1 79 3 53 2 -26 2 -71 0 -100z m2273
72 c0 -6 -30 -10 -70 -10 l-70 0 0 -44 c0 -35 -4 -45 -20 -49 -18 -5 -20 0
-20 54 l0 59 90 0 c53 0 90 -4 90 -10z m-2733 -332 c-3 -8 -6 -5 -6 6 -1 11 2
17 5 13 3 -3 4 -12 1 -19z m28 -38 c10 -11 16 -20 13 -20 -3 0 -13 9 -23 20
-10 11 -16 20 -13 20 3 0 13 -9 23 -20z m1005 17 c0 -2 -10 -12 -22 -23 l-23
-19 19 23 c18 21 26 27 26 19z m-953 -43 c-3 -3 -12 -4 -19 -1 -8 3 -5 6 6 6
11 1 17 -2 13 -5z m900 0 c-3 -3 -12 -4 -19 -1 -8 3 -5 6 6 6 11 1 17 -2 13
-5z"/>
<path d="M4354 2785 c-3 -8 -3 -18 -1 -22 6 -10 263 -10 273 -1 3 4 4 14 1 23
-9 22 -265 23 -273 0z"/>
<path d="M4270 2611 c0 -111 8 -144 42 -162 25 -14 290 -20 310 -8 6 4 8 14 5
23 -5 14 -27 16 -145 16 -175 0 -173 -1 -175 132 -2 80 -4 93 -19 96 -16 3
-18 -7 -18 -97z"/>
<path d="M4394 2626 c-10 -27 3 -31 98 -31 86 0 93 1 93 20 0 18 -8 20 -93 23
-74 2 -93 0 -98 -12z"/>
<path d="M2790 2800 c-7 -4 -10 -54 -8 -151 l3 -144 30 0 30 0 0 147 c0 143 0
147 -22 151 -12 2 -27 1 -33 -3z"/>
<path d="M2540 2776 c0 -13 16 -47 35 -76 19 -29 35 -57 35 -62 0 -10 16 -48
51 -125 21 -45 74 -96 93 -90 18 6 11 40 -17 82 -14 22 -42 82 -63 133 -37 94
-86 162 -118 162 -10 0 -16 -8 -16 -24z"/>
<path d="M2473 2723 c-10 -3 -13 -44 -13 -154 l0 -149 30 0 30 0 0 145 c0 127
-2 145 -17 153 -10 5 -24 7 -30 5z"/>
<path d="M3460 2670 l0 -40 86 0 85 0 -3 38 -3 37 -82 3 -83 3 0 -41z"/>
</g>
</svg>
