<?xml version="1.0" standalone="no"?>
<!DOCTYPE svg PUBLIC "-//W3C//DTD SVG 20010904//EN"
 "http://www.w3.org/TR/2001/REC-SVG-20010904/DTD/svg10.dtd">
<svg version="1.0" xmlns="http://www.w3.org/2000/svg"
 width="500.000000pt" height="500.000000pt" viewBox="0 0 500.000000 500.000000"
 preserveAspectRatio="xMidYMid meet">

<g transform="translate(0.000000,500.000000) scale(0.100000,-0.100000)"
fill="#000000" stroke="none">
<path d="M833 3022 c-13 -2 -32 -15 -43 -29 -19 -25 -20 -39 -20 -488 l0 -462
25 -27 24 -26 470 0 469 0 26 31 26 31 0 448 c0 469 -2 487 -44 509 -14 8
-157 12 -466 14 -245 1 -455 1 -467 -1z m707 -507 l0 -255 -45 0 -45 0 0 210
0 210 -204 0 c-229 0 -222 -3 -207 83 0 4 114 7 251 7 l250 0 0 -255z m-152
-77 l2 -178 -44 0 -45 0 -3 131 -3 131 -122 -1 c-90 -2 -123 1 -129 11 -8 13
-6 66 3 81 2 4 80 6 171 5 l167 -3 3 -177z m-158 -83 l0 -95 -95 0 -95 0 0 95
0 95 95 0 95 0 0 -95z"/>
<path d="M1999 2662 c-9 -9 -17 -29 -17 -44 l1 -28 151 0 c168 1 186 6 186 59
l0 31 -152 -1 c-130 0 -155 -3 -169 -17z"/>
<path d="M2443 2665 c-19 -22 -16 -70 7 -90 10 -9 36 -62 57 -117 39 -102 91
-178 121 -178 37 1 75 60 39 60 -24 0 -47 36 -47 74 0 49 -52 183 -87 223 -32
37 -72 50 -90 28z"/>
<path d="M2677 2661 c-16 -17 -18 -35 -15 -157 l3 -138 30 -8 c39 -10 48 6 50
96 0 39 5 106 9 149 l9 77 -34 -1 c-19 0 -42 -8 -52 -18z"/>
<path d="M2849 2647 c-24 -18 -46 -44 -50 -57 -12 -42 -10 -227 3 -254 22 -49
52 -59 168 -57 134 3 150 7 150 37 0 19 -5 24 -24 24 -13 0 -29 7 -36 15 -8
10 -36 15 -88 17 l-77 3 -5 100 c-3 55 -4 103 -2 108 2 4 57 7 123 7 73 0 119
4 119 10 0 6 7 10 15 10 10 0 15 11 15 35 l0 35 -134 0 -134 0 -43 -33z"/>
<path d="M3318 2661 c-10 -10 -18 -30 -18 -44 l0 -27 109 0 c78 0 112 -4 119
-13 7 -8 13 -72 14 -158 3 -136 4 -144 23 -144 11 0 33 6 48 13 26 12 28 17
23 50 -13 83 -16 172 -8 210 11 48 -4 91 -41 115 -39 25 -244 24 -269 -2z"/>
<path d="M3729 2647 c-52 -39 -57 -54 -58 -178 -2 -172 18 -193 178 -190 133
2 151 6 151 37 0 17 -6 24 -19 24 -10 0 -24 7 -31 15 -8 10 -37 15 -93 17
l-82 3 -5 100 c-3 55 -4 103 -2 108 2 4 57 7 123 7 73 0 119 4 119 10 0 6 7
10 15 10 10 0 15 11 15 35 l0 35 -134 0 -134 0 -43 -33z"/>
<path d="M4197 2661 c-9 -10 -16 -30 -15 -44 l2 -27 153 0 c95 0 153 4 153 10
0 6 7 10 15 10 10 0 15 11 15 35 l0 35 -152 -1 c-133 0 -155 -3 -171 -18z"/>
<path d="M1922 2584 c-8 -9 -12 -51 -12 -128 l0 -114 31 -31 c17 -17 38 -31
47 -32 9 0 80 -1 157 -2 156 -2 168 2 163 55 l-3 33 -143 5 -142 5 -15 29
c-18 33 -20 87 -4 103 14 14 8 54 -11 63 -8 4 -24 11 -35 17 -15 7 -24 7 -33
-3z"/>
<path d="M2363 2585 c-9 -10 -13 -57 -13 -160 l0 -145 31 0 c60 0 69 12 69 99
0 86 -23 175 -51 204 -21 20 -21 20 -36 2z"/>
<path d="M3243 2585 c-9 -10 -13 -57 -13 -160 0 -108 3 -145 13 -147 36 -4 44
-3 64 10 18 11 22 20 17 45 -3 17 -10 37 -15 43 -15 18 -3 20 91 19 51 -1 88
3 92 9 4 6 8 26 8 44 l0 32 -72 2 c-40 0 -80 2 -88 2 -9 1 -16 12 -17 26 0 14
-1 33 -2 42 -1 10 -12 20 -26 24 -14 3 -25 10 -25 15 0 13 -13 10 -27 -6z"/>
<path d="M4121 2583 c-17 -19 -17 -214 1 -247 16 -31 48 -56 72 -57 50 -3 274
2 299 7 25 5 28 9 25 42 l-3 37 -148 5 -147 5 -15 29 c-16 29 -20 88 -8 100
25 25 6 76 -28 76 -11 0 -19 5 -19 10 0 15 -13 12 -29 -7z"/>
<path d="M2038 2501 c-22 -22 -23 -57 -2 -65 27 -10 214 -7 214 4 0 6 7 10 15
10 10 0 15 11 15 35 l0 35 -112 -1 c-94 0 -116 -3 -130 -18z"/>
<path d="M2956 2500 c-13 -14 -17 -27 -12 -45 7 -26 8 -26 81 -23 55 2 75 0
76 -9 1 -7 3 -17 4 -23 1 -5 3 -19 4 -30 1 -15 8 -20 29 -20 37 0 49 23 51
103 l2 67 -108 -1 c-92 0 -111 -3 -127 -19z"/>
<path d="M3838 2501 c-10 -10 -18 -30 -18 -45 l0 -28 80 4 c79 3 80 3 81 -22
1 -14 2 -32 3 -40 1 -20 52 -25 71 -6 10 10 15 36 15 85 l0 71 -107 -1 c-90 0
-111 -3 -125 -18z"/>
<path d="M4237 2500 c-11 -10 -17 -29 -15 -42 3 -22 6 -23 116 -26 72 -2 112
1 112 8 0 5 7 10 15 10 10 0 15 11 15 35 l0 35 -112 -1 c-96 0 -116 -3 -131
-19z"/>
</g>
</svg>
